<svg xmlns="http://www.w3.org/2000/svg" width="324.443" height="271.884" viewBox="0 0 324.443 271.884">
  <g id="Group_39" data-name="Group 39" transform="translate(-872.721 -481.203)">
    <g id="Group_38" data-name="Group 38" transform="translate(872.721 481.203)">
      <path id="Path_1023" data-name="Path 1023" d="M1191.834,662.243c-.656-3.284-.789-6.636-3.238-9.864-3.961-5.227-9.924-8.879-14.678-13.4-7.339-6.979-16.821-12.25-23.166-20.211-4.13-5.182-9.96-10.17-15.809-14.74-3.666-2.869-6.446-6.4-12.618-6.1a4.837,4.837,0,0,1-3.227-1.3c-7.746-8.643-20.465-11.018-31.654-15.24a75.932,75.932,0,0,1-15.64-8.52c-2.924-1.971-6.986-3.582-8.581-6.277-6.983-11.807-20.148-19.4-31.322-28.268-6.262-4.969-15.708-7.363-19.784-14.277-.987-1.679-2.852-1.679-4.771-1.608a26.815,26.815,0,0,1-12.251-2.187c-13.565-6.6-25.485-14.7-35.363-24.664-3.1-3.133-4.167-6.973-7.616-9.937-5.11-4.39-11.538-5.946-16.234-2.793-3.749,2.521-6.9,5.583-10.353,8.371-1.149.924-1.534,1.855-.99,3.13.641,1.508,2,1.482,3.551,1.283,2.8-.354,4.411.522,6.172,2.394,5.193,5.536,10.775,10.864,16.5,16.076,1.8,1.639.846,1.788-.721,2.81-5.167,3.374-11.678,5.123-16.867,8.174a110.559,110.559,0,0,0-29.839,25.626,128.036,128.036,0,0,0-21.614,38.253c-4.714,13.21-10.944,26.693-8.419,39.494a72.024,72.024,0,0,0,3.425,31.047A60.913,60.913,0,0,0,903.141,692.5c8.9,5.443,14.815,13.02,25.258,17.735,18.081,8.158,36.061,16.332,55.1,23.058q14.784,5.221,29.432,10.678c10.843,4.065,21.851,7.97,33.969,8.562,6.522.318,13.162.758,19.68.452,14.239-.668,28.985.769,42.2-5.084,4.03-1.786,7.854-3.812,12.6-4.4,5.592-.69,10.645-2.667,15.557-4.708,12.024-4.994,23.983-10.021,34.945-16.472,12.917-7.6,22.716-16.514,24.887-29.483C1198.535,682.317,1193.854,672.4,1191.834,662.243Zm-79.869-61.288c.5-.626.191-1.653,1.667-1.732,1.761-.093,1.9,1.056,2.406,1.889,2.359,3.913-1.865,9.1-7.584,9.126-1.908-.227-4.364-.306-4.757-2.33-.447-2.3,2.269-1.176,3.543-1.622C1110.193,605.253,1110.5,602.78,1111.965,600.955Zm-29.288-14.788a2.424,2.424,0,0,1,3.3-.317c5.466,3.778,13.364,4.34,18.5,8.621,1.127.94,3.215,1.448,2.384,2.976-.8,1.476-2.838,1.743-4.8,1.569-5.736-.239-10-2.229-11.189-6.709-.8-3.02-4.281-2.664-6.345-4.023C1083.682,587.728,1081.755,587.484,1082.677,586.167ZM1095.5,609.6c-2.114.039-3.59-.7-3.626-2.613-.014-.926.1-1.634,1.635-1.732,1.707.483,3.493,1.16,4.184,2.6C1098.349,609.222,1096.671,609.584,1095.5,609.6Zm-17.768-19.734c.933.73,1.17.828,1.2.957.529,2.035,3.554,3.789,1.224,6.134a2.78,2.78,0,0,1-1.61.41C1076.847,595.231,1077.063,592.949,1077.736,589.87ZM1063.9,574.728c1.462-.693,2.2.429,3.126,1.033,1.246.814,3.093,1.213,3.421,2.661,1.21,5.379,2.344,10.763,3.5,16.147a31.12,31.12,0,0,1-10.443-17.16C1063.3,576.547,1062.5,575.393,1063.9,574.728Zm-92.728-62.1a1.242,1.242,0,0,1-.3,2.173c-1.545.64-3.731.662-4.746-.289-3.831-3.6-8.6-6.821-8.657-12.646C962.058,505.443,966.675,508.991,971.176,512.629ZM954.77,507.9a7.147,7.147,0,0,1,1.189.351,6.637,6.637,0,0,1-.947.328,1.83,1.83,0,0,1-.6-.107C954.536,508.272,954.694,507.893,954.77,507.9Zm-7.335-4.761c-1.955-4.084-8.308-5.216-10.242-9.53-.6-1.339-4.4-2.546-2.351-4.132,1.833-1.415,3.828-3.593,7.652-3.411a4.278,4.278,0,0,1,3.965,2.251c1.66,2.86-2.136.528-2.535,1.594-.288.769-1.289,1.7-.421,2.265,3.785,2.465,3.169,6.8,6.641,9.286,1.649,1.179,2.82,2.684,1.109,3.686C949.015,506.464,948.083,504.5,947.434,503.141Zm-39.468,51.878a1.191,1.191,0,0,1,.907.477c.706,2.406-2.9,2.667-3.525,4.458C906.22,558.267,905.1,555.945,907.966,555.019Zm-4.646,7.773c1.077,3.882-5.913,15.7-10.285,17.845C893.432,573.605,898.149,568.359,903.321,562.792Zm-12.093,20.674c.843-.1.98.424,1.044.932-.04.651-.086,1.392-1.17,1.378a1.5,1.5,0,0,1-1.091-.9C889.892,584.239,890.238,583.582,891.228,583.466ZM883.3,656.691c-.821-8.814-3.648-17.488-2.881-26.412.68-7.908,1.16-15.824,1.754-23.737a5.392,5.392,0,0,1,3.457-5.207c1.2,4.941.137,9.676.216,14.384.068,4.126-.126,8.259.09,12.379.184,3.467-1.242,6.622-2.15,9.918-1.527,5.547,2.582,10.574,3.4,15.944a13.078,13.078,0,0,0,.659,1.917c.533,1.659.907,3.826-1.462,4.261C883.36,660.691,883.428,658.046,883.3,656.691Zm3.212,3.955c7.674,3.936,6.306,9.46,7.717,14.092C886.392,672.177,888.12,666.513,886.514,660.646Zm7.868,14.274c7.76.048,6.885,5.426,8.974,8.966C902.2,679.8,892.2,681.02,894.383,674.92Zm140.847,69.951c-15.549-3.548-29.713-9.775-44.362-14.94-11.852-4.177-23.879-8.337-35.2-13.6-6.658-3.1-14.361-5.084-20.418-8.946-5.974-3.809-13.317-6.524-18.38-12.646,5.841,1.143,8.12,5.12,12.748,5.814,6.64,1,12.319,3.775,18.459,5.682,9.078,2.821,16.032,7.826,23.753,12.085,6.953,3.838,14.2,7.206,22.726,8.66,11.816,2.016,22.169,6.891,32.961,10.838,6.161,2.251,12.917,2.774,19.132,4.893,2.939,1,6.3,1.44,9.986,3.568A61.606,61.606,0,0,1,1035.229,744.871Zm73.052-3.175c-6,2.246-11.671,1.94-18.135,2.644-20.335,0-39.871-4.57-59-10.5-15.027-4.657-29.579-10.187-45.248-13.648-7.8-1.724-13.032-7.155-19.842-10.44-7.71-3.716-15.2-7.638-23.951-9.951-6.745-1.785-13.594-3.576-18.74-8.031-4.246-3.677-10.973-5.437-13.817-10.285-4.13-7.038-9.64-13.387-13.49-20.734-10.684-20.38-3.929-41.023-4.646-61.473-.241-6.889,3.99-14.081,9.87-19.866,4.973-4.893,4.325-11.406,8.556-16.514,1.4-1.7,1.671-3.863,4.25-5.123,1.058-.516,2.2-2.049,1.955-2.886-1.4-4.87,2.445-7.854,5.744-11.24,6.55-6.737,12.629-13.69,21.956-18.51,3.5-1.808,7.357-2.176,11.016-3.228,2.8-.806,3,1.513,4.12,2.849,1.314,1.555,4.047,3.534,5.744,2.978a3.356,3.356,0,0,0,1.656-5.541c-2.063-2.706-.057-3.057,2.852-3.04,9.385.062,17.361,3.054,24.8,7.164.817.449,1.383,1.552,2.164,1.614,13.457,1.1,21.455,9.191,31.341,14.819,9.19,5.232,15.524,12.669,23.342,18.965a4.272,4.272,0,0,1,1.307,2.712c1.019,7.358,4.307,14.347,6.694,21.4,3.115,9.2,10.537,17.053,20.9,22.645,4.717,2.546,9.021,5.774,14.678,7.046,12.413,2.793,19.813.59,27.127-8.365,2.276-2.788,3.057-2.473,5.866-.343a146.356,146.356,0,0,1,21.07,20.2A7.051,7.051,0,0,1,1150,633.9c-.9,3.919.443,8.2,1.159,12.292a87.225,87.225,0,0,1,.313,28.1c-1.747,11.515-3.8,23.19-8.088,34.239C1137.763,723.029,1126.805,734.762,1108.281,741.7Zm74.874-39.547c2.276-5.637,1.066-11.085,3.706-16.245,1.069-2.086.565-4.542-.148-6.793a2.194,2.194,0,0,0-1.581-.261c-2.877,1.583-1.311,3.916-1.4,5.92a65.253,65.253,0,0,1-8.041,29.4c-2.157,3.837-7.919,5.943-12.467,8.458-1.333.736-3.094.884-4.066,2.212a2.485,2.485,0,0,1-3.3.514c-1.365-1.075.558-1.586,1.016-2.378q6.671-11.613,13.173-23.282c.3-.548.14-1.317-.943-1.564-3.947,1.171-.8,6.487-6.392,6.729-.1-3.8,2.46-7.051,3.8-10.515,2.4-6.226,4.624-12.338,3.36-18.92-.191-1-.926-2.658,1.311-2.785,2.186-.126,1.765,1.594,1.883,2.608.7,6.12,2.449,12.11-.238,18.429-.7,1.651.99,4.949,1.235,7.7,2.762-8.6,1.671-17.286,1.271-26-.263-5.727-6.6-9.735-6.281-15.509.047-.809-1.123-1.805-2.765-1.406-1.339.326-1.333,1.165-1.113,2,1.786,6.661.9,13.4,1.077,20.113l-.162.817c.022-.281.043-.561.069-.842-2.636,5.923-5.722,11.754-7.8,17.795-2.542,7.4-7.292,14.128-9.835,21.48-.223.654-4.264,3,1,2.976,1.242-.008.418,1.036.3,1.538-.644,2.8-11.012,11.021-14.574,11.506a3.186,3.186,0,0,1-2.247-.486c-.3-.373.033-1.35.511-1.757,8.9-7.579,12.845-17.25,17.793-26.4,2.621-4.842,3.093-10.468,3.979-15.7,1.786-10.566,4.447-21.039,4.847-31.8a39.974,39.974,0,0,0-6.9-24.9c5.071.157,7.811,1.606,10.634,4.166,4.646,4.216,9.846,8.034,14.5,12.318,4.933,4.537,6.014,9.9,7.782,15.03,2.506,7.268,1.555,15.063,4.944,22.342C1192.734,692.153,1187.818,700.5,1183.155,702.149Z" transform="translate(-872.72 -481.203)"/>
      <path id="Path_1024" data-name="Path 1024" d="M956.412,559.775c0-.044-.014-.095-.016-.141-.009.036-.015.071-.024.107Z" transform="translate(-637.44 -303.506)"/>
      <path id="Path_1025" data-name="Path 1025" d="M942.9,556.964c-2.481,3.47-3.977,7.616-7.371,10.537a1.289,1.289,0,0,0,1.447-.189c1.775-1.288,2.524-3.283,3.634-5.018.6-.936.818-2.125,2.212-2.3.406-.052.4-.546.431-.873a5.008,5.008,0,0,1,.718-2.542,1.132,1.132,0,0,0-.009-1.527C943.237,555.483,943.324,556.372,942.9,556.964Z" transform="translate(-687.286 -302.842)"/>
      <path id="Path_1026" data-name="Path 1026" d="M881.491,529.977c-.336,1.121-.015,2.386-.8,3.419-.161.21-.2.768.264.859.48.094.544-.339.543-.7,0-1.212.841-2.148.918-3.252.91.046.729.8.989,1.217,1.022-.7.586-1.769.777-2.785-.885-.012-1.279.724-1.831.761C881.6,529.547,881.656,529.425,881.491,529.977Z" transform="translate(-873.858 -388.665)"/>
      <path id="Path_1027" data-name="Path 1027" d="M882.394,523.333l-.008,0c-.011.012-.015.025-.026.037Z" transform="translate(-874.116 -405.029)"/>
      <path id="Path_1028" data-name="Path 1028" d="M883.029,518c-1.185,1.511-.709,3.572-1.74,5.122.572.185.552-.55.942-.647a3.806,3.806,0,0,0,.86-2.88,1.21,1.21,0,0,1,.553-1.162c.393-.243.529-.714.084-.97C883.32,517.232,883.24,517.734,883.029,518Z" transform="translate(-873.961 -410.509)"/>
      <path id="Path_1029" data-name="Path 1029" d="M887.4,539.3c-.185.263-.47.487-.506.747-.209,1.521-.067,3.1-.746,4.546-.141.3.085.459.375.5.425.066.37-.268.345-.482C886.654,542.841,887.7,541.23,887.4,539.3Z" transform="translate(-874.659 -367.672)"/>
      <path id="Path_1030" data-name="Path 1030" d="M892.756,548.121h0l.01-.01-.118-.261.108.271-.545-.122a30.5,30.5,0,0,0-1.142,4.74c-.013.243.17.355.386.367.362.021.363-.256.384-.508a12.975,12.975,0,0,1,.928-4.486Z" transform="translate(-823.861 -351.949)"/>
      <path id="Path_1031" data-name="Path 1031" d="M880.444,530.331a7.414,7.414,0,0,1,.351-3.3,4.421,4.421,0,0,0,.272-2.844C879.672,528.8,879.675,528.809,880.444,530.331Z" transform="translate(-873.764 -396.808)"/>
      <path id="Path_1032" data-name="Path 1032" d="M881.257,524.168l.016-.054,0,0c0-.006.007-.014.011-.02-.015-.005-.027,0-.043-.009C881.249,524.111,881.248,524.139,881.257,524.168Z" transform="translate(-873.954 -403.628)"/>
      <path id="Path_1033" data-name="Path 1033" d="M929.984,570.231a.65.65,0,0,0-.047.505.539.539,0,0,0,.52.1c1.038-.868,2.411-1.462,2.625-3.033C931.92,568.439,931.484,570.008,929.984,570.231Z" transform="translate(-717.227 -304.689)"/>
      <path id="Path_1034" data-name="Path 1034" d="M888.645,512.8c-.5,1.235-1.494,2.365-.787,3.819C888.111,515.338,888.46,514.084,888.645,512.8Z" transform="translate(-874.877 -421.122)"/>
      <path id="Path_1035" data-name="Path 1035" d="M882.876,536.781l0,.015a6.5,6.5,0,0,0-.964,2.954c-.041.742.707.865,1,1.338l.328-.755C881.79,539.3,882.993,537.967,882.876,536.781Z" transform="translate(-874.051 -374.816)"/>
      <path id="Path_1036" data-name="Path 1036" d="M882.393,523.335l-.033.038c.015.008.025.016.039.025Z" transform="translate(-874.116 -405.002)"/>
      <path id="Path_1037" data-name="Path 1037" d="M882.406,523.409q.113,1.3.228,2.587C883.69,524.954,883.612,524.086,882.406,523.409Z" transform="translate(-874.123 -402.276)"/>
      <path id="Path_1038" data-name="Path 1038" d="M924.778,568.364c-.433.971-1.481.829-2.474,1.292,1.627.967,2.13-.4,2.955-.911.07-.043.083-.316.018-.414A.286.286,0,0,0,924.778,568.364Z" transform="translate(-738.204 -304.747)"/>
      <path id="Path_1039" data-name="Path 1039" d="M935.722,565.174h0c1.294-.09,1.3-1.328,1.861-2.077-.44-.332-.609-.1-.827.34a4.7,4.7,0,0,1-1.051,1.716c-.413.067-.344.725-.978.655-.776-.086-1.107.469-1.054,1.226C934.774,566.879,935.763,566.6,935.722,565.174Z" transform="translate(-705.231 -303.985)"/>
      <path id="Path_1040" data-name="Path 1040" d="M933.666,567.725l-.033.005h0c0,.021-.01.039-.013.059.016-.009.028-.021.044-.029C933.664,567.747,933.667,567.738,933.666,567.725Z" transform="translate(-714.214 -304.678)"/>
      <path id="Path_1041" data-name="Path 1041" d="M882.839,543.977c-.048.8-.912,1.334-.691,2.213.079.312.123.587.533.52.379-.062.245-.342.236-.57Q882.876,545.059,882.839,543.977Z" transform="translate(-874.08 -363.565)"/>
      <path id="Path_1042" data-name="Path 1042" d="M942.505,533.692c.569-.055.25-.55.372-.841-.081-.34.174-.9-.5-.867-.556.027-.534.533-.525.893C941.863,533.259,941.923,533.748,942.505,533.692Z" transform="translate(-690.343 -387.344)"/>
      <path id="Path_1043" data-name="Path 1043" d="M915.249,566.925a.4.4,0,0,0-.224.605.473.473,0,0,0,.769-.022c.529-.6,1.051-1.207,1.575-1.81l-.006.006C916.213,565.327,916.039,566.655,915.249,566.925Z" transform="translate(-759.119 -304.376)"/>
      <path id="Path_1044" data-name="Path 1044" d="M918.46,568.39a4.691,4.691,0,0,0,2.3-2.481l-.31-.283Z" transform="translate(-749.89 -304.374)"/>
      <path id="Path_1045" data-name="Path 1045" d="M887.307,549.8a.362.362,0,0,0,.258.555.421.421,0,0,0,.493-.433c-.049-.962.4-1.878.254-2.844C887.616,547.844,888.205,549.092,887.307,549.8Z" transform="translate(-874.824 -356.85)"/>
      <path id="Path_1046" data-name="Path 1046" d="M888.491,547.064c.015-.017.023-.037.04-.054l-.045-.04C888.493,547,888.486,547.033,888.491,547.064Z" transform="translate(-875.003 -362.208)"/>
      <path id="Path_1047" data-name="Path 1047" d="M904.581,556.069a3,3,0,0,0-.79,2.259C904.875,557.864,904.466,556.875,904.581,556.069Z" transform="translate(-791.019 -341.814)"/>
      <path id="Path_1048" data-name="Path 1048" d="M904.715,556.052c.021-.021.032-.045.054-.066l-.043-.034C904.719,555.985,904.719,556.02,904.715,556.052Z" transform="translate(-789.438 -345.946)"/>
      <path id="Path_1049" data-name="Path 1049" d="M880.49,538.559c.016-.019.029-.039.045-.057l-.036-.026Z" transform="translate(-873.846 -377.592)"/>
      <path id="Path_1050" data-name="Path 1050" d="M879.708,541.211c.352.027.35-.236.375-.5.069-.715.163-1.427.249-2.141a3.356,3.356,0,0,0-.931,2.086C879.389,540.91,879.363,541.185,879.708,541.211Z" transform="translate(-873.687 -373.841)"/>
      <path id="Path_1051" data-name="Path 1051" d="M908.526,561.952c.156-.665,1.191-.9.969-1.759C908.384,560.37,908.688,561.283,908.526,561.952Z" transform="translate(-778.294 -303.587)"/>
      <path id="Path_1052" data-name="Path 1052" d="M938.249,563.116l0,.005c.014.01.022.009.036.021Z" transform="translate(-702.198 -304.011)"/>
      <path id="Path_1053" data-name="Path 1053" d="M883.956,538.39c.015-.01.025-.022.041-.032l-.042-.038C883.954,538.343,883.957,538.367,883.956,538.39Z" transform="translate(-874.347 -377.891)"/>
      <path id="Path_1054" data-name="Path 1054" d="M883.468,540.918l0,.007c.015.011.022.023.039.034,0-.03-.009-.061-.014-.09-.012.014-.014.029-.027.043Z" transform="translate(-874.276 -373.253)"/>
      <path id="Path_1055" data-name="Path 1055" d="M883.467,540.512c.557-.624.376-1.386.4-2.11C883,538.971,883.368,539.768,883.467,540.512Z" transform="translate(-874.253 -374.919)"/>
      <path id="Path_1056" data-name="Path 1056" d="M942.385,566.972c.013-.017.021-.038.032-.056-.028,0-.046.015-.077.017Z" transform="translate(-691.442 -304.561)"/>
      <path id="Path_1057" data-name="Path 1057" d="M942.43,566.593c1.106-.13.8-1.456,1.527-1.91C942.831,564.8,942.881,565.906,942.43,566.593Z" transform="translate(-687.528 -304.237)"/>
      <path id="Path_1058" data-name="Path 1058" d="M944.216,564.674c.04,0,.069-.016.111-.018l-.043-.033A.68.68,0,0,0,944.216,564.674Z" transform="translate(-686.47 -304.229)"/>
      <path id="Path_1059" data-name="Path 1059" d="M891.446,536.232c-.552-.356.246-1.348-.748-1.405a.559.559,0,0,0-.43.321C890.069,536.007,890.917,535.984,891.446,536.232Z" transform="translate(-826.391 -382.492)"/>
      <path id="Path_1060" data-name="Path 1060" d="M939.345,560.7c-.895.4-1.391,1-1.085,2.018a6.1,6.1,0,0,0,1.1-2.022Z" transform="translate(-699.662 -303.66)"/>
      <path id="Path_1061" data-name="Path 1061" d="M938.242,563.1c.006.006.039.032.039.032-.009-.027,0-.047-.011-.073C938.259,563.074,938.253,563.089,938.242,563.1Z" transform="translate(-702.201 -304.003)"/>
      <path id="Path_1062" data-name="Path 1062" d="M892.538,555.043a2.71,2.71,0,0,0,.837-1.9C892.945,553.658,892.152,554,892.538,555.043Z" transform="translate(-820.773 -347.901)"/>
      <path id="Path_1063" data-name="Path 1063" d="M890.874,515.311a.4.4,0,0,0,.528.368.765.765,0,0,0,.718-.922c-.038-.107-.17-.38-.442-.157S890.814,514.743,890.874,515.311Z" transform="translate(-824.688 -420.067)"/>
      <path id="Path_1064" data-name="Path 1064" d="M902.2,500.546c.314-.053.39-.257.347-.624.009-.232-.214-.377-.47-.375-.4,0-.472.307-.412.632A.416.416,0,0,0,902.2,500.546Z" transform="translate(-796.524 -461.883)"/>
      <path id="Path_1065" data-name="Path 1065" d="M899.09,500.615a.289.289,0,0,0-.062.269c.37.427.788.252,1.306.056C899.916,500.383,899.534,500.289,899.09,500.615Z" transform="translate(-803.071 -446.133)"/>
      <path id="Path_1066" data-name="Path 1066" d="M892.949,520.063a2.282,2.282,0,0,0-.49-.137c-.447-.032-.485.3-.422.6a.269.269,0,0,0,.459.152C892.676,520.537,892.979,520.482,892.949,520.063Z" transform="translate(-821.886 -410.46)"/>
      <path id="Path_1067" data-name="Path 1067" d="M897.227,558.155c-.1.128-.009.367.221.448.664.234.554-.539.915-.7.036-.016.071-.034.106-.052A.856.856,0,0,0,897.227,558.155Z" transform="translate(-807.945 -341.237)"/>
      <path id="Path_1068" data-name="Path 1068" d="M913.445,508.679c.288-.027.416-.237.419-.527,0-.251-.139-.351-.363-.375-.308-.033-.471.1-.476.416C913.027,508.477,913.123,508.708,913.445,508.679Z" transform="translate(-766.665 -432.614)"/>
      <path id="Path_1069" data-name="Path 1069" d="M909.652,560.141c0,.015,0,.027.006.042.012,0,.02-.006.032-.008-.009-.02-.009-.035-.016-.054-.009.005-.016.013-.025.018Z" transform="translate(-776.612 -303.577)"/>
      <path id="Path_1070" data-name="Path 1070" d="M889.805,552.084c.89.148.3-.81.722-1.01l-.009.006C889.348,550.761,889.963,551.693,889.805,552.084Z" transform="translate(-875.191 -353.236)"/>
      <path id="Path_1071" data-name="Path 1071" d="M941.741,568.5c.015,0,.025-.006.039-.007l-.044-.03C941.742,568.483,941.737,568.49,941.741,568.5Z" transform="translate(-693.094 -304.785)"/>
      <path id="Path_1072" data-name="Path 1072" d="M940.834,569.448c.522-.1.976-.25.772-.937C941.031,568.562,940.7,568.81,940.834,569.448Z" transform="translate(-693.539 -304.792)"/>
      <path id="Path_1073" data-name="Path 1073" d="M894.586,549.28c.747,0,.668-.534.644-1.032C894.423,548.2,894.8,548.938,894.586,549.28Z" transform="translate(-815.329 -358.394)"/>
      <path id="Path_1074" data-name="Path 1074" d="M895.339,548.242c.014,0,.022,0,.038,0l-.039-.034Z" transform="translate(-813.861 -360.063)"/>
      <path id="Path_1075" data-name="Path 1075" d="M917.384,523.907a.47.47,0,0,0,.574-.4c-.179-.135-.045-.549-.477-.57-.328-.015-.378.215-.438.46A.367.367,0,0,0,917.384,523.907Z" transform="translate(-755.992 -404.814)"/>
      <path id="Path_1076" data-name="Path 1076" d="M937.189,537.254c.055-.112.153-.223.156-.336.009-.333-.228-.386-.567-.374-.058.057-.235.155-.231.243C936.568,537.177,937.033,537.011,937.189,537.254Z" transform="translate(-704.865 -380.262)"/>
      <path id="Path_1077" data-name="Path 1077" d="M912.369,563.013l0-.009c0,.008,0,.013,0,.016l.052.055-.052-.079,0-.006-.009-.005Z" transform="translate(-769.508 -303.992)"/>
      <path id="Path_1078" data-name="Path 1078" d="M912.38,562.885c.333.2.654.327.736-.239.018-.121-.037-.352-.1-.369C912.488,562.137,912.543,562.626,912.38,562.885Z" transform="translate(-768.507 -303.886)"/>
      <path id="Path_1079" data-name="Path 1079" d="M894.712,501.71c.071-.251-.232-.23-.4-.29-.344.02-.356.26-.319.507.019.126.049.353.243.25A.962.962,0,0,0,894.712,501.71Z" transform="translate(-816.861 -444.292)"/>
      <path id="Path_1080" data-name="Path 1080" d="M927.673,536.8c-.2.045-.377.165-.337.384s.266.221.453.2c.212-.022.349-.124.37.091C928.06,536.767,927.87,536.759,927.673,536.8Z" transform="translate(-729.044 -379.84)"/>
      <path id="Path_1081" data-name="Path 1081" d="M880.536,538.5c-.015-.018-.013-.037-.026-.055-.006.009-.006.018-.013.026Z" transform="translate(-873.847 -377.691)"/>
      <path id="Path_1082" data-name="Path 1082" d="M880.484,536.866c-.016.449-.3.913.005,1.348A1.365,1.365,0,0,0,880.484,536.866Z" transform="translate(-873.825 -378.816)"/>
      <path id="Path_1083" data-name="Path 1083" d="M890.94,511.289a1.33,1.33,0,0,0,.29-.153.354.354,0,0,0-.468-.27c-.1.02-.24.172-.235.257C890.545,511.4,890.77,511.333,890.94,511.289Z" transform="translate(-825.955 -427.288)"/>
      <path id="Path_1084" data-name="Path 1084" d="M895.174,555.578c-.051.068-.141.134-.144.2s.068.207.121.216c.18.028.244-.1.209-.256C895.345,555.677,895.241,555.634,895.174,555.578Z" transform="translate(-814.421 -346.053)"/>
      <path id="Path_1085" data-name="Path 1085" d="M892.187,504.4c.242.036.334-.133.36-.351s.016-.392-.282-.443c-.206-.006-.3.155-.339.358S891.954,504.365,892.187,504.4Z" transform="translate(-822.35 -440.293)"/>
      <path id="Path_1086" data-name="Path 1086" d="M897.046,524.016c-.048-.072-.085-.184-.139-.193-.076-.012-.164.052-.248.084.048.065.086.17.145.185S896.963,524.045,897.046,524.016Z" transform="translate(-810.123 -403.912)"/>
      <path id="Path_1087" data-name="Path 1087" d="M888.531,547.01c0-.014,0-.03,0-.044-.016,0-.032,0-.049,0Z" transform="translate(-875.003 -362.294)"/>
      <path id="Path_1088" data-name="Path 1088" d="M888.771,546.1c-.286.173-.181.478-.227.737.305-.016.557-.1.482-.494C889.008,546.247,888.8,546.085,888.771,546.1Z" transform="translate(-875.012 -362.784)"/>
      <path id="Path_1089" data-name="Path 1089" d="M884.8,546.54a.239.239,0,0,0,.156.169c.053.008.12-.089.184-.142-.034-.08-.05-.2-.1-.226C884.873,546.28,884.778,546.38,884.8,546.54Z" transform="translate(-874.469 -362.926)"/>
      <path id="Path_1090" data-name="Path 1090" d="M893.467,551.417c.577.387.678-.207.946-.458C893.872,550.636,893.756,551.208,893.467,551.417Z" transform="translate(-818.049 -354.191)"/>
      <path id="Path_1091" data-name="Path 1091" d="M894.573,550.975l.008,0-.005-.007Z" transform="translate(-815.874 -355.112)"/>
      <path id="Path_1092" data-name="Path 1092" d="M893.466,551.511h0Z" transform="translate(-818.763 -354.148)"/>
      <path id="Path_1093" data-name="Path 1093" d="M941.781,568.49c0-.026.01-.053.015-.079-.021.016-.037.034-.057.05Z" transform="translate(-693.056 -304.777)"/>
      <path id="Path_1094" data-name="Path 1094" d="M942.281,567.035a2.337,2.337,0,0,0-.475,1.176C942.181,567.9,942.465,567.557,942.281,567.035Z" transform="translate(-691.701 -304.578)"/>
      <path id="Path_1095" data-name="Path 1095" d="M942.391,566.978l-.05-.042a.8.8,0,0,1,.019.085C942.371,567.007,942.378,566.992,942.391,566.978Z" transform="translate(-691.508 -304.564)"/>
      <path id="Path_1096" data-name="Path 1096" d="M939.824,570.146c.248-.224.744.014.831-.511A.58.58,0,0,0,939.824,570.146Z" transform="translate(-696.168 -304.948)"/>
      <path id="Path_1097" data-name="Path 1097" d="M940.8,569.638c.014,0,.025,0,.038.008h0a.3.3,0,0,1,0-.038l-.026.006C940.8,569.625,940.8,569.627,940.8,569.638Z" transform="translate(-695.554 -304.95)"/>
      <path id="Path_1098" data-name="Path 1098" d="M884,538.349l0-.091c-.019.017-.024.036-.046.053Z" transform="translate(-874.347 -377.976)"/>
      <path id="Path_1099" data-name="Path 1099" d="M884.045,536.851c-.018.577-.027.9-.037,1.2C884.31,537.782,884.188,537.453,884.045,536.851Z" transform="translate(-874.355 -379.04)"/>
      <path id="Path_1100" data-name="Path 1100" d="M888.091,536.664a.775.775,0,0,0-.144-.765C887.924,536.165,887.717,536.464,888.091,536.664Z" transform="translate(-874.914 -381.365)"/>
      <path id="Path_1101" data-name="Path 1101" d="M917.951,513.79c.277,0,.248-.244.317-.451-.062-.1-.132-.322-.207-.323-.333-.006-.323.274-.358.514C917.673,513.736,917.807,513.788,917.951,513.79Z" transform="translate(-754.809 -423.127)"/>
      <path id="Path_1102" data-name="Path 1102" d="M886.313,540.964c-.023-.054-.14-.067-.217-.1-.031.077-.1.17-.079.227a.162.162,0,0,0,.3-.13Z" transform="translate(-874.645 -372.939)"/>
      <path id="Path_1103" data-name="Path 1103" d="M941.542,557.39c-.2-.108-.375-.359-.624-.107a.25.25,0,0,0-.005.244C941.172,557.749,941.327,557.424,941.542,557.39Z" transform="translate(-693.807 -343.141)"/>
      <path id="Path_1104" data-name="Path 1104" d="M941.653,557.36h0c-.031-.12-.061-.238-.091-.357.027.12.055.24.081.361h0l0,0Z" transform="translate(-693.434 -343.569)"/>
      <path id="Path_1105" data-name="Path 1105" d="M903.757,558.82c.011-.016.016-.033.028-.05l0,0c0-.019,0-.038,0-.056-.015.006-.023.015-.038.021Z" transform="translate(-791.977 -303.373)"/>
      <path id="Path_1106" data-name="Path 1106" d="M903.871,559.916c-.067-.536-.1-.819-.133-1.078C903.554,559.1,903.557,559.375,903.871,559.916Z" transform="translate(-792.079 -303.391)"/>
      <path id="Path_1107" data-name="Path 1107" d="M917.764,565.086c0,.18,0,.359.007.538l.007-.007a2.066,2.066,0,0,1,.038-.253C917.844,565.26,918.19,565.1,917.764,565.086Z" transform="translate(-755.219 -304.296)"/>
      <path id="Path_1108" data-name="Path 1108" d="M905.125,555.546l-.24.276.312-.169Z" transform="translate(-788.698 -346.37)"/>
      <path id="Path_1109" data-name="Path 1109" d="M904.771,555.974l.091-.105-.133.073Z" transform="translate(-789.309 -346.087)"/>
      <path id="Path_1110" data-name="Path 1110" d="M940.084,559.178l-.446.245.009,0,.5-.015C940.126,559.329,940.1,559.253,940.084,559.178Z" transform="translate(-697.44 -303.44)"/>
      <path id="Path_1111" data-name="Path 1111" d="M890.6,550.142l-.088.009c.036.268.072.534.109.8l.008-.006Z" transform="translate(-875.297 -355.29)"/>
      <path id="Path_1112" data-name="Path 1112" d="M889.782,552.292c.008,0,.009-.008.018-.01a.121.121,0,0,0,0-.017c-.012,0-.018,0-.031,0C889.779,552.272,889.777,552.283,889.782,552.292Z" transform="translate(-875.19 -352.74)"/>
      <path id="Path_1113" data-name="Path 1113" d="M889.529,553c0,.009.18.012.208-.029a.594.594,0,0,0,0-.673C889.36,552.431,889.462,552.725,889.529,553Z" transform="translate(-875.145 -351.532)"/>
      <path id="Path_1114" data-name="Path 1114" d="M946.549,554.766c0,.081,0,.162,0,.243h0A.158.158,0,0,0,946.549,554.766Z" transform="translate(-636.018 -347.843)"/>
      <path id="Path_1115" data-name="Path 1115" d="M946.422,554.494c-.042.084.043.15.107.223a1.061,1.061,0,0,1,0-.138C946.544,554.427,946.481,554.378,946.422,554.494Z" transform="translate(-635.998 -348.375)"/>
      <path id="Path_1116" data-name="Path 1116" d="M893.464,551.509l.033.76c-.01-.252-.021-.505-.032-.758Z" transform="translate(-818.74 -352.88)"/>
      <path id="Path_1117" data-name="Path 1117" d="M893.53,553.038v0h0l0-.008-.028-.633C893.512,552.611,893.521,552.825,893.53,553.038Z" transform="translate(-818.643 -351.46)"/>
      <path id="Path_1118" data-name="Path 1118" d="M894.58,550.974l-.009-.032v.019Z" transform="translate(-815.878 -355.124)"/>
      <path id="Path_1119" data-name="Path 1119" d="M894.547,550.748c-.014-.387-.024-.768-.033-1.149A1.454,1.454,0,0,0,894.547,550.748Z" transform="translate(-816.203 -355.725)"/>
      <path id="Path_1120" data-name="Path 1120" d="M894.531,549.578a.718.718,0,0,1,.032-.08l-.005-.005a.315.315,0,0,0,.02-.038c-.019,0-.031,0-.05,0C894.529,549.5,894.531,549.538,894.531,549.578Z" transform="translate(-815.959 -357.665)"/>
      <path id="Path_1121" data-name="Path 1121" d="M895.94,553.542c0,.045.005.09.009.135l.035-.217C895.968,553.487,895.939,553.515,895.94,553.542Z" transform="translate(-812.288 -350.255)"/>
      <path id="Path_1122" data-name="Path 1122" d="M895.914,553.865l-.039-.005.032.053.043-.038v0l0,0h0l-.01-.157C895.931,553.764,895.923,553.814,895.914,553.865Z" transform="translate(-812.431 -349.827)"/>
      <path id="Path_1123" data-name="Path 1123" d="M893.057,546.255c.015-.1.029-.208.045-.312-.068.068-.137.137-.206.2Z" transform="translate(-820.096 -363.732)"/>
      <path id="Path_1124" data-name="Path 1124" d="M893.385,544.717c0,.023,0,.044,0,.066.015-.01.015-.023.031-.033Z" transform="translate(-818.949 -366.327)"/>
      <path id="Path_1125" data-name="Path 1125" d="M893.148,545.833l-.012.083.045-.045a.733.733,0,0,0,0-.113c-.015.023-.015.05-.033.072Z" transform="translate(-819.584 -364.303)"/>
      <path id="Path_1126" data-name="Path 1126" d="M893.179,545.618a1.189,1.189,0,0,0,.171-.824C893.043,545.019,893.169,545.331,893.179,545.618Z" transform="translate(-819.435 -365.038)"/>
      <path id="Path_1127" data-name="Path 1127" d="M944.557,562.825l-.02.483c.185-.091.184-.26.144-.439C944.675,562.846,944.6,562.84,944.557,562.825Z" transform="translate(-685.497 -303.969)"/>
      <path id="Path_1128" data-name="Path 1128" d="M944.526,563.447l0-.057a.315.315,0,0,1-.044.026Z" transform="translate(-685.942 -304.05)"/>
      <path id="Path_1129" data-name="Path 1129" d="M885.422,544.514l.029-.051-.03-.05Z" transform="translate(-874.559 -366.824)"/>
      <path id="Path_1130" data-name="Path 1130" d="M944.272,564.416c.047-.305.1-.607.148-.91C944.008,563.757,944.075,564.078,944.272,564.416Z" transform="translate(-686.238 -304.067)"/>
      <path id="Path_1131" data-name="Path 1131" d="M944.524,563.452l-.041-.032-.012.073C944.493,563.481,944.5,563.465,944.524,563.452Z" transform="translate(-685.955 -304.055)"/>
      <path id="Path_1132" data-name="Path 1132" d="M944.338,564.649c-.016-.026-.026-.052-.041-.079,0,.014,0,.027-.007.041Z" transform="translate(-686.439 -304.221)"/>
      <path id="Path_1133" data-name="Path 1133" d="M895.376,548.229l.005-.1-.046.066Z" transform="translate(-813.861 -360.102)"/>
      <path id="Path_1134" data-name="Path 1134" d="M895.4,547.781l-.015.3c.055-.08.109-.159.165-.238Z" transform="translate(-813.624 -360.421)"/>
      <path id="Path_1135" data-name="Path 1135" d="M905.871,553.121l.1,0-.053-.1Z" transform="translate(-786.374 -351.25)"/>
      <path id="Path_1136" data-name="Path 1136" d="M935.9,564.905c.022-.057.044-.114.065-.171l-.208.077.109.1-.1.013.121.01Z" transform="translate(-708.294 -304.245)"/>
      <path id="Path_1137" data-name="Path 1137" d="M935.642,564.942l0,.024.113-.015Z" transform="translate(-708.81 -304.275)"/>
      <path id="Path_1138" data-name="Path 1138" d="M946.647,559.547l-.364.017.381,0,.007-.016.094-.192-.243.073Z" transform="translate(-635.98 -303.466)"/>
      <path id="Path_1139" data-name="Path 1139" d="M939.634,559.459l-.009.005c-.027.353-.054.7-.08,1.057l.014,0Q939.595,559.988,939.634,559.459Z" transform="translate(-698.692 -303.481)"/>
      <path id="Path_1140" data-name="Path 1140" d="M898.614,557.739a.216.216,0,0,0,.049.056c-.012-.05-.025-.1-.038-.148C898.62,557.678,898.6,557.715,898.614,557.739Z" transform="translate(-805.329 -342.792)"/>
      <path id="Path_1141" data-name="Path 1141" d="M898.708,557.859c-.014-.013-.022-.027-.036-.039l.014.051h0l.024-.013-.012.006Z" transform="translate(-805.184 -342.652)"/>
      <path id="Path_1142" data-name="Path 1142" d="M945.391,555.048l1,0h0l-1,0h0v0Z" transform="translate(-635.85 -347.752)"/>
      <path id="Path_1143" data-name="Path 1143" d="M886.407,516.278l-.119.052.114.06Z" transform="translate(-874.685 -417.725)"/>
      <path id="Path_1144" data-name="Path 1144" d="M882.965,536.4c.02.115.04.23.061.345a.043.043,0,0,0,0-.021C883,536.605,882.984,536.5,882.965,536.4Z" transform="translate(-874.204 -381.014)"/>
      <path id="Path_1145" data-name="Path 1145" d="M888.208,535.9l-.246-.042-.025-.005c.009.012.01.026.02.039,0-.01.005-.021.005-.032C888.047,535.876,888.128,535.889,888.208,535.9Z" transform="translate(-874.924 -382.381)"/>
      <path id="Path_1146" data-name="Path 1146" d="M898.884,547.749a.853.853,0,0,0-.131.125l.121.034.105-.079C898.946,547.8,898.893,547.742,898.884,547.749Z" transform="translate(-804.798 -360.696)"/>
      <path id="Path_1147" data-name="Path 1147" d="M893.385,544.7l.031.033.068-.107Z" transform="translate(-818.897 -366.421)"/>
      <path id="Path_1148" data-name="Path 1148" d="M889.351,543.8a.336.336,0,0,0,.065-.117l.016.009c.008-.21-.067-.162-.146-.1a.257.257,0,0,0-.037,0l-.011.035-.119.177C889.2,543.8,889.319,543.836,889.351,543.8Z" transform="translate(-875.095 -368.148)"/>
      <path id="Path_1149" data-name="Path 1149" d="M910.534,558.59l-.009.026c-.519.28-1.146.493-.859,1.283a1.832,1.832,0,0,0,.9-1.308l-.005,0C910.552,558.594,910.544,558.591,910.534,558.59Z" transform="translate(-775.514 -324.924)"/>
      <path id="Path_1150" data-name="Path 1150" d="M910.623,558.572l.06.011.016-.043Z" transform="translate(-774.031 -341.367)"/>
      <path id="Path_1151" data-name="Path 1151" d="M895.595,519.681l-.068-.05a.512.512,0,0,0-.031.045v0l.032-.044a.675.675,0,0,0-.544.877.5.5,0,0,0,.4.033c.392-.223.337-.54.116-.863C895.5,519.681,895.595,519.681,895.595,519.681Z" transform="translate(-814.314 -410.901)"/>
      <path id="Path_1152" data-name="Path 1152" d="M956.133,561.936a4.2,4.2,0,0,0,.174-2.09C955.712,560.348,955.778,560.943,956.133,561.936Z" transform="translate(-637.367 -303.537)"/>
      <path id="Path_1153" data-name="Path 1153" d="M956.414,559.795l-.042-.036c0,.025.005.05.009.074C956.394,559.821,956.4,559.807,956.414,559.795Z" transform="translate(-637.44 -303.525)"/>
    </g>
  </g>
</svg>
