<svg xmlns="http://www.w3.org/2000/svg" viewBox="0 0 118.39 44.16"><defs><style>.cls-1{fill:#fff;}</style></defs><g id="Layer_2" data-name="Layer 2"><g id="Layer_2-2" data-name="Layer 2"><path class="cls-1" d="M56.65,40l0,0s0,0,0,0Z" transform="translate(0 0)"/><path class="cls-1" d="M53.14,40.2l0,.06h0Z" transform="translate(0 0)"/><path class="cls-1" d="M99.79,23.32a10.49,10.49,0,0,0,3.63-2.77,8.37,8.37,0,0,1,2.25-2c1.11-.73,2.38-1.2,3.21-2.39,1.91-2.73,1.83-5.57.74-8.53-.88-2.37-.84-2.26,1.5-3.44,1.87-1,4-.86,5.87-1.77.71-.35,1.61-.76,1.35-1.56A1.85,1.85,0,0,0,116.43,0c-2.28.51-4.76.64-6.68,2-1.2.86-1.92.42-2.73-.21-3.21-2.49-6.77-2-10.13-.79-2,.73-4.52.86-5.53,3.32,0,.09-.2.12-.31.18-4.58,2.43-9.16,4.86-13.88,7-2,.94-4.53,1-6.16,2.83a5.67,5.67,0,0,1-3,1.83,8.27,8.27,0,0,0-3.22,1.35c-2.34,1.63-5.09,2.6-7.23,4.57a4.77,4.77,0,0,1-2.17,1.15c-2,.39-3.56,1.51-5.31,2.33a23.66,23.66,0,0,1-3.91,1.64q-4.76,1.23-9.51,2.42a27,27,0,0,1-4.93.94c-3.37.16-6.69.76-10.07,1-2.86.19-5.74.37-8.6.51a29.78,29.78,0,0,0-8.73,2.08C3,34.74,2.29,36.09,1.19,37c-.71.55-1.64,1.26-.94,2.33s1.72.84,2.69.79a5,5,0,0,0,1.3-.52,20.83,20.83,0,0,1,2.51-.79c3.61-.69,7,.06,10.48,1.13,4.67,1.46,9.25,3.29,14.23,3.59.92.05,1.84,0,2.77.06a54.87,54.87,0,0,0,8.41.6c2-.07,3.92-.31,5.88-.41a65.57,65.57,0,0,0,9.07-1.41,18.11,18.11,0,0,0,5.77-1.84c2.26-1.31,5-1.3,7.23-2.6a28.84,28.84,0,0,1,6.1-2.77c4.18-1.21,7.87-3.41,11.73-5.27S95.86,25.28,99.79,23.32ZM97,2.61c3-.79,6-1.25,9.07.1.36.16.68.31.73.66.35,2.62,1.54,5,2,7.6.26,1.47-.91,2.43-1.26,3.74a10.5,10.5,0,0,1-.3-5.39c.11-.59.1-1.07-.42-1.39s-.91,0-1.23.36c-1.69,1.74-4,2.38-6.12,3.55a11.17,11.17,0,0,1,3.69-5.11c.34-.23.73-.4,1.06-.64a1.71,1.71,0,0,0,.8-1.64c-.15-.8-.84-.78-1.54-.78-2,0-3.86.79-5.86.65-.61,0-1-.19-1.25-.68S96.49,2.74,97,2.61ZM81.78,31.07a58.87,58.87,0,0,0-6.42,3c-2.39,1.14-4.68,2.61-7.18,3.37-2.92.9-5.79,2.08-8.87,2.45-.88.11-1.79-.65-2.62.11.13.23.39.54.32.66-.25.45-3.74.58-4.08.17-.16-.19,0-.37.16-.52-1.18-.63-2.38,0-3.57,0h0c-1.34-.07-2.68-.16-4-.22l-8.3-.34c0,.47.2.57.72.59a15.22,15.22,0,0,1,2.23.08c3.11.56,6.26,1.19,9.36-.07.07.83,1.64.27,1.34,1.45l.24-.18-.22.18c-4.81.59-9.55,1.17-14.45.31-2.39-.42-5-.39-7.42-.62a29.48,29.48,0,0,1-7.95-2.34c-1.11-.43-2.51.16-3.36-1l.06-.05h0l0,.05h0l0-.05c-.74.24-.89-.48-1.3-.71A5.17,5.17,0,0,0,14,36.61c-1.57,0-3.51-.85-4.63-.2-1.92,1.12-4.27.15-5.81,1.88-.6-.86,0-1.12.4-1.4A17.31,17.31,0,0,1,14.2,33.73c3.24-.06,6.5-.43,9.74-.69A91.16,91.16,0,0,0,35.5,31.67c2.31-.48,4.62-1.3,7-1.76a65.91,65.91,0,0,0,9.62-3.13,53,53,0,0,0,7.65-4c6.3-3.6,12.57-7.26,19.2-10.24,4.67-2.1,9.35-4.15,13.79-6.7a6.2,6.2,0,0,1,4.1-.33A25,25,0,0,0,100,6c.24,0,.6-.24.7.23a1.23,1.23,0,0,1-.2.82c-2.07,3.65-5.33,5.18-9.38,5.79a28.78,28.78,0,0,0-8.22,2.53c-.43.2-1.14.85-1.51,0-.29-.69.53-.81.94-1,1.07-.57,1.38-1.9,2.83-2.29a1.06,1.06,0,0,0-1.63.17c-1.28,1.2-2.82,2.08-3.92,3.51a4.8,4.8,0,0,1-2.62,1.43c-1.34.34-1,.88-2.19,1.49s-1.24,2.53-2.85,2.51c-.41,0-.8.05-.68.52s.53.05.81,0c1.59-.05,2.15-1.86,3.65-2.11a6.47,6.47,0,0,1,1.7-.32,1.36,1.36,0,0,1,.93-1.45A24.19,24.19,0,0,1,86.2,16c1-.08,1.49-.92,2.31-1.27,1.14-.49,2.46-.26,3.52-1l0,0h0c1.36-1.6,2.12-1.58,3.9-.36a3.83,3.83,0,0,0,3.2.13,17.69,17.69,0,0,0,4.47-2.09c.92-.56,1.35-.34,1.68.63a4,4,0,0,1-1.27,4.4c-.45.36-1,.81-1.13,1.29-.38,2.06-2.29,2.58-3.6,3.61-1.59,1.27-3.52,2.08-5.24,3.23A52,52,0,0,1,81.78,31.07Z" transform="translate(0 0)"/><path class="cls-1" d="M77.39,19.24h0s0,0,0,0Z" transform="translate(0 0)"/><path class="cls-1" d="M30,33.79h0v0Z" transform="translate(0 0)"/><path class="cls-1" d="M58.33,29.91c-.56-.41-1.1,0-1.65.1.1-.76.19-1.2,1.32-1.3,2.49-.23,4.47-2.3,7.09-2.32,0-2,1.86-1.44,2.79-2.17.65-.51,2.15-.85,1.8-1.52-.66-1.26-1.53.24-2.35.37-.09,0-.18-.06-.58-.19a9.48,9.48,0,0,0,4.5-3.16c.69-1.47,2.68-1.85,3.2-3.72-4.84,2.48-8.32,6.5-12.83,9.11a57.39,57.39,0,0,1-14.3,5.46l5.09-.8a8.62,8.62,0,0,1-5.29,2.11c-2.39.31-4.94.22-7.14,1-3.34,1.25-6.67.87-10,.87.11.36.1.75.73.68a48.89,48.89,0,0,1,6.63,0,16.78,16.78,0,0,0,6.08-1,32.17,32.17,0,0,1,9.23-1.61c1.31-.05,2.51-1,3.88-.52.91.31,1.21-.53,1.78-.85A.33.33,0,0,0,58.33,29.91Zm-4.62.54c.22-.28.29-.44.41-.51a.62.62,0,0,1,.48-.09c.25.12,0,.29-.07.34A5,5,0,0,1,53.71,30.45Zm2.53-.85c.06,0,.14,0,.15,0a4.55,4.55,0,0,1,.28.43h0Z" transform="translate(0 0)"/><path class="cls-1" d="M67.45,35.91h0s0,0,0,0h0s0,0,0,0Z" transform="translate(0 0)"/><path class="cls-1" d="M65.84,35.09c-2.52.07-4.85,1-7.31,1.36-1.87.25-3.91.16-5.61,1.26a10.13,10.13,0,0,0,4.42-.15c3.37-.49,6.83-.42,10.07-1.64C67.16,35.13,66.69,35.07,65.84,35.09Z" transform="translate(0 0)"/><path class="cls-1" d="M52.9,37.72Z" transform="translate(0 0)"/><path class="cls-1" d="M87.23,20.31a11.44,11.44,0,0,0,3.24-.18,4.05,4.05,0,0,1,3.78.39v0s0,0,0-.05c.45-.26.91-.5,1.36-.75l.15.16.09-.23-.24.06h0c-.38.26-1,.21-1.25.62,0-.46-1.29-1.3.27-1.33-.13-1.35-1.36.12-1.76-.71a4,4,0,0,1,2.39-.83c1.24-.09.47-1.5,1.27-1.92-1.74.86-4,.87-4.75,3.18a1,1,0,0,1-1.17.6c-1.16-.39-2.25.81-3.41,0a.54.54,0,0,0-.69.38C86.46,20.27,86.87,20.3,87.23,20.31Z" transform="translate(0 0)"/><path class="cls-1" d="M94.68,19h0a.06.06,0,0,0,0,0Z" transform="translate(0 0)"/><path class="cls-1" d="M97.57,18.26a17.09,17.09,0,0,0,5.57-2.43c-1.65-.08-3.21.37-4.82.26-.64,0-.72.37-.61,1.23,0,.32-.37.57-.77.32C97.08,17.92,97.07,18.38,97.57,18.26Z" transform="translate(0 0)"/><path class="cls-1" d="M96.94,17.64l0,0v0Z" transform="translate(0 0)"/><path class="cls-1" d="M68.93,33.49v0c-.82.15-1.78-.52-2.52.39,2.15,1.64,4.31.22,6.78.33C71.6,33.42,70.43,32.19,68.93,33.49Zm-.39.82c-.05,0-.15,0-.15-.07-.1-.45.31-.5.54-.69C68.93,33.87,69,34.22,68.54,34.31Z" transform="translate(0 0)"/><path class="cls-1" d="M91.29,24.49c.4-.22.93-.22,1.16-.7a.48.48,0,0,0-.17-.42c-.51-.19-.9.18-1.29.39-1.69.93-3.16,2.24-5,2.91.34,1,.94.37,1.36.13C88.69,26.07,90,25.22,91.29,24.49Z" transform="translate(0 0)"/><path class="cls-1" d="M82.94,26.16C85.11,25,87.66,24.62,89.59,23A17.13,17.13,0,0,0,82.94,26.16Z" transform="translate(0 0)"/><path class="cls-1" d="M72.47,32.14h0l0,0h0Z" transform="translate(0 0)"/><path class="cls-1" d="M77.44,19.24c1.63.2,3.13-.46,4.69-.73C80.48,18.19,78.86,18.07,77.44,19.24Z" transform="translate(0 0)"/><path class="cls-1" d="M77.39,19.24v0l.06,0Z" transform="translate(0 0)"/><path class="cls-1" d="M92.37,10c1.91-.38,3.46-1.53,5.3-2A13.59,13.59,0,0,0,92.37,10Z" transform="translate(0 0)"/><path class="cls-1" d="M82,28.91a9.72,9.72,0,0,0-5.74,2C77.93,29.91,80.17,30.57,82,28.91Z" transform="translate(0 0)"/><path class="cls-1" d="M76.26,30.89l-.14.08v0h0v0c-1.26.18-2.82-.61-3.61,1.1.48-.1,1.11-.77,1.39-.22.63,1.21,1.43.2,2.11.36L76.11,31Z" transform="translate(0 0)"/><path class="cls-1" d="M33.74,39.89c1.09-.56,2.36.88,3.39-.24C36,39.57,34.81,39,33.74,39.89Z" transform="translate(0 0)"/><path class="cls-1" d="M37.13,39.65h.07v-.06S37.15,39.63,37.13,39.65Z" transform="translate(0 0)"/><path class="cls-1" d="M33.67,39.94l.07,0h-.05Z" transform="translate(0 0)"/><path class="cls-1" d="M79.89,20.41a9.87,9.87,0,0,0-3,.11C77.91,21.48,78.9,20.93,79.89,20.41Z" transform="translate(0 0)"/><path class="cls-1" d="M80,20.36l-.09.05H80l.05,0,0-.08Z" transform="translate(0 0)"/><path class="cls-1" d="M30,33.8v0l0,0Z" transform="translate(0 0)"/><path class="cls-1" d="M27,34.14c.95-.23,2.07.69,2.89-.34C29,33.93,27.87,33.2,27,34.14Z" transform="translate(0 0)"/><path class="cls-1" d="M30.52,39l0,0v0Z" transform="translate(0 0)"/><path class="cls-1" d="M28.57,40.1,30.52,39C29.49,38.2,29.08,38.36,28.57,40.1Z" transform="translate(0 0)"/><path class="cls-1" d="M47.83,33.71c.23,1.23.93.58,1.5.44l-1.5-.44Z" transform="translate(0 0)"/><path class="cls-1" d="M49.44,34.12a.35.35,0,0,0-.11,0l.09,0h0s0,0,0,0Z" transform="translate(0 0)"/><polygon class="cls-1" points="32.39 38.95 32.39 38.95 32.39 38.95 32.39 38.95"/><path class="cls-1" d="M30.56,39l0,0,0,0Z" transform="translate(0 0)"/><path class="cls-1" d="M30.6,39c.6.58,1.21.92,1.79-.06A1.66,1.66,0,0,0,30.6,39Z" transform="translate(0 0)"/><path class="cls-1" d="M90.71,10.72a2.22,2.22,0,0,0,.36-.45c-.26,0-.43-.06-.54,0s-.34.24-.33.33C90.27,10.93,90.53,10.83,90.71,10.72Z" transform="translate(0 0)"/><path class="cls-1" d="M45.31,34.21l1.07.26C46.26,33.4,45.71,34.1,45.31,34.21Z" transform="translate(0 0)"/><path class="cls-1" d="M74.78,20.69c-.07,0-.13.23-.1.27.29.35.58.09.87,0C75.39,20.61,75.16,20.44,74.78,20.69Z" transform="translate(0 0)"/><path class="cls-1" d="M59.49,35a.37.37,0,0,0-.24.14s.07.15.11.23l.26-.15C59.58,35.1,59.53,35,59.49,35Z" transform="translate(0 0)"/><path class="cls-1" d="M96.89,17.66A4.91,4.91,0,0,0,94.74,19C95.48,18.56,96.44,18.52,96.89,17.66Z" transform="translate(0 0)"/><path class="cls-1" d="M96.92,17.61l0,.05h0S96.92,17.61,96.92,17.61Z" transform="translate(0 0)"/><path class="cls-1" d="M94.68,19v0a.71.71,0,0,0,.07-.09Z" transform="translate(0 0)"/><path class="cls-1" d="M51.46,38.27l.12,0,0-.07Z" transform="translate(0 0)"/><path class="cls-1" d="M51,38.32l.51,0-.47-.2Z" transform="translate(0 0)"/><path class="cls-1" d="M62.72,34.42s0,.17-.06.25l.59,0C63.11,34.49,63,34.33,62.72,34.42Z" transform="translate(0 0)"/><path class="cls-1" d="M65.58,33.93l-1.25.45C64.79,34.74,65.06,34.34,65.58,33.93Z" transform="translate(0 0)"/><path class="cls-1" d="M64.29,34.36l-1,.28h-.08l0,0h0l1-.28h0l.07,0Z" transform="translate(0 0)"/><path class="cls-1" d="M71.22,32.05l.43-.15c0-.06-.08-.16-.13-.17a1,1,0,0,0-.34.07C71,31.85,71,31.93,71.22,32.05Z" transform="translate(0 0)"/><path class="cls-1" d="M92.49,14.1a.21.21,0,0,0,.11-.38c-.18-.17-.38-.07-.55,0C92.13,14,92.25,14.15,92.49,14.1Z" transform="translate(0 0)"/><path class="cls-1" d="M84.06,27.72c-.1,0-.21,0-.3,0s-.14.14-.21.22l.26.09Z" transform="translate(0 0)"/><path class="cls-1" d="M32.84,39.43c.11.44.5.4.83.47C33.69,39.2,33.46,39,32.84,39.43Z" transform="translate(0 0)"/><path class="cls-1" d="M33.67,39.93l0,0h0Z" transform="translate(0 0)"/><path class="cls-1" d="M32.81,39.45l0,0s0,0,0,0Z" transform="translate(0 0)"/><path class="cls-1" d="M77.08,31.86l.28.23a2,2,0,0,0,.08-.22Z" transform="translate(0 0)"/><path class="cls-1" d="M77,31.86h.09L77,31.8Z" transform="translate(0 0)"/><path class="cls-1" d="M42.86,34a1.25,1.25,0,0,0-.1.27l.28,0A1.36,1.36,0,0,0,43,34S42.87,34,42.86,34Z" transform="translate(0 0)"/><path class="cls-1" d="M56,39.66a.17.17,0,0,0,0,.16c.17.38.43.18.66.11C56.47,39.72,56.35,39.45,56,39.66Z" transform="translate(0 0)"/><path class="cls-1" d="M56.65,40l0-.06-.05,0Z" transform="translate(0 0)"/><path class="cls-1" d="M49.91,34.36c.15.45.54.41.9.45C50.7,34.25,50.47,34,49.91,34.36Z" transform="translate(0 0)"/><path class="cls-1" d="M49.88,34.37h0s0,0,0,0Z" transform="translate(0 0)"/><path class="cls-1" d="M71.71,19.6l-.26.09C71.55,19.69,71.7,19.92,71.71,19.6Z" transform="translate(0 0)"/><path class="cls-1" d="M71.45,19.69h0c-.05,0-.11,0-.17,0h0a.05.05,0,0,0,0,0Z" transform="translate(0 0)"/><path class="cls-1" d="M46.71,34.3l1.12-.59h0Z" transform="translate(0 0)"/><path class="cls-1" d="M46.38,34.47h0l.32-.17-.32.17Z" transform="translate(0 0)"/><path class="cls-1" d="M53.71,40.22s0-.1,0-.16l-.53.18A.36.36,0,0,0,53.71,40.22Z" transform="translate(0 0)"/><path class="cls-1" d="M53.14,40.2l0,.07.09,0S53.16,40.23,53.14,40.2Z" transform="translate(0 0)"/><path class="cls-1" d="M51.58,38.32l.13-.06H51.6Z" transform="translate(0 0)"/><path class="cls-1" d="M52.89,37.73c-.4.19-.79.36-1.18.53C52.21,38.37,52.55,38,52.89,37.73Z" transform="translate(0 0)"/><path class="cls-1" d="M76.75,20.54h0l.08,0-.06-.05Z" transform="translate(0 0)"/><path class="cls-1" d="M75.65,20.94a1.42,1.42,0,0,0,1.1-.4C76.29,20.42,76,20.75,75.65,20.94Z" transform="translate(0 0)"/><path class="cls-1" d="M75.59,21h0l0,0,.08,0h-.06Z" transform="translate(0 0)"/><path class="cls-1" d="M67.46,36c0,.21.11.37.34.4,0,0,.08-.09.08-.13C67.84,36,67.69,35.9,67.46,36Z" transform="translate(0 0)"/><path class="cls-1" d="M17.88,37.83l-.13.15.2,0Z" transform="translate(0 0)"/><path class="cls-1" d="M22.67,37.13,22.61,37v0Z" transform="translate(0 0)"/><path class="cls-1" d="M77,31.86l0-.06-.11.05Z" transform="translate(0 0)"/><path class="cls-1" d="M76,32.24h0l.91-.39C76.52,31.79,76.27,32.06,76,32.24Z" transform="translate(0 0)"/><path class="cls-1" d="M85.72,26.94l.18-.21-.19.11S85.72,26.9,85.72,26.94Z" transform="translate(0 0)"/><path class="cls-1" d="M85.9,26.73l.07,0h0s0,0,0,0Z" transform="translate(0 0)"/><path class="cls-1" d="M80,20.44c0,.13.1.25.14.38l.2-.15Z" transform="translate(0 0)"/><path class="cls-1" d="M72.85,32.77l.11-.06-.12,0v0s0,0,0,0Z" transform="translate(0 0)"/><path class="cls-1" d="M32.81,39.45l0-.06h-.07Z" transform="translate(0 0)"/><polygon class="cls-1" points="32.39 38.95 32.39 38.95 32.39 38.95 32.39 38.95"/><path class="cls-1" d="M32.76,39.39,32.39,39C32.45,39.15,32.5,39.38,32.76,39.39Z" transform="translate(0 0)"/><path class="cls-1" d="M50.88,34.81a.13.13,0,0,1,0-.08l-.1.08h.07Z" transform="translate(0 0)"/><path class="cls-1" d="M25.79,37.52h0l-.12.09.1,0h0l.09-.05-.06,0Z" transform="translate(0 0)"/><path class="cls-1" d="M20.68,38.05l-.07.09.06,0,.34,0h-.33Z" transform="translate(0 0)"/><path class="cls-1" d="M22,36.61h0l-.18.08.1.1c0-.06.07-.11.1-.16l.07,0Z" transform="translate(0 0)"/><path class="cls-1" d="M22.61,37l-.52-.33.51.38Z" transform="translate(0 0)"/><path class="cls-1" d="M49.46,34.16c.06.24.2.28.41.18C49.8,34.11,49.65,34.1,49.46,34.16Z" transform="translate(0 0)"/><path class="cls-1" d="M49.88,34.37l0,0h0Z" transform="translate(0 0)"/><path class="cls-1" d="M45.28,34.1l0,.09.06,0h0A.43.43,0,0,0,45.28,34.1Z" transform="translate(0 0)"/><path class="cls-1" d="M72.5,32.15l.33.57A.46.46,0,0,0,72.5,32.15Z" transform="translate(0 0)"/></g></g></svg>