<svg xmlns="http://www.w3.org/2000/svg" viewBox="0 0 48.7 117.66"><defs><style>.cls-1{fill:#fff;}</style></defs><g id="Layer_2" data-name="Layer 2"><g id="Layer_2-2" data-name="Layer 2"><path class="cls-1" d="M36,72.87s0,0,0-.05h0Z"/><path class="cls-1" d="M34.1,75.82a.17.17,0,0,1,0,.07s0,0,0,0Z"/><path class="cls-1" d="M48.47,28.34a10.51,10.51,0,0,0,0-4.57,8.31,8.31,0,0,1-.26-3c.08-1.32.46-2.63,0-4-1.05-3.16-3.37-4.8-6.39-5.69-2.43-.71-2.32-.68-1.87-3.26.37-2.07,1.72-3.73,2.1-5.76.15-.78.36-1.75-.44-2a1.85,1.85,0,0,0-1.81,1c-.95,2.13-2.33,4.19-2.37,6.57,0,1.47-.82,1.79-1.79,2.06-3.93,1.08-5.69,4.2-6.7,7.64-.58,2-2,4.14-.65,6.43.05.07,0,.23,0,.34-.79,5.13-1.58,10.26-2.67,15.34-.47,2.2-1.88,4.24-1.41,6.62a5.61,5.61,0,0,1-.31,3.46A8.64,8.64,0,0,0,23,52.92c-.09,2.85-1,5.64-.66,8.53A4.79,4.79,0,0,1,22,63.88c-.87,1.8-.92,3.76-1.32,5.65a23.5,23.5,0,0,1-1,4.11q-1.86,4.55-3.75,9.07a26.85,26.85,0,0,1-2.2,4.51C11.78,90,10.28,93,8.43,95.87c-1.56,2.41-3.14,4.82-4.74,7.2a29.58,29.58,0,0,0-3.55,8.24c-.43,1.44.26,2.8.28,4.2,0,.9,0,2.06,1.31,2.14,1.1.07,1.7-.87,2.24-1.67a5.22,5.22,0,0,0,.36-1.36,19.29,19.29,0,0,1,.87-2.49c1.6-3.3,4.26-5.61,7.18-7.72,3.95-2.87,8.16-5.45,11.38-9.26.59-.71,1.06-1.5,1.7-2.19A54.11,54.11,0,0,0,31,86.59c1.12-1.62,2.09-3.33,3.18-5a65.57,65.57,0,0,0,4.3-8.11,18.26,18.26,0,0,0,2-5.72c.3-2.6,1.92-4.75,2.24-7.36a28,28,0,0,1,1.43-6.55c1.53-4.06,2-8.34,2.79-12.54S47.69,32.65,48.47,28.34ZM30.21,18.18c1.17-2.9,2.61-5.6,5.51-7.21.34-.19.65-.36,1-.19,2.3,1.29,4.93,1.77,7.29,2.94,1.34.67,1.4,2.18,2.25,3.24a10.39,10.39,0,0,1-4.5-3c-.41-.45-.8-.72-1.37-.51s-.52.75-.45,1.21c.38,2.39-.5,4.65-.81,7a11.24,11.24,0,0,1-1.89-6c0-.41.12-.82.12-1.23a1.73,1.73,0,0,0-.84-1.63c-.73-.35-1.12.22-1.54.78-1.19,1.58-1.68,3.56-3,5.08a1.28,1.28,0,0,1-1.29.6C30.05,19.17,30,18.67,30.21,18.18ZM43.91,47.4a56.91,56.91,0,0,0-1.47,6.91c-.52,2.6-.71,5.31-1.59,7.78-1,2.87-1.8,5.88-3.35,8.57-.44.76-1.59,1-1.48,2.16.27,0,.67,0,.73.14.2.47-1.79,3.34-2.31,3.37-.25,0-.29-.23-.33-.44-1.21.57-1.42,1.91-2.17,2.83h0c-.86,1-1.73,2.06-2.58,3.1Q26.74,85,24.13,88.26c.36.3.57.19.9-.22a15.12,15.12,0,0,1,1.4-1.75c2.3-2.16,4.69-4.29,5.54-7.54.7.45,1.2-1.15,2-.2v-.3c0,.09,0,.19,0,.28-2.4,4.21-4.77,8.36-8.39,11.77C23.79,92,22.28,94,20.61,95.88a29.71,29.71,0,0,1-6.63,5c-1,.63-1.37,2.1-2.82,2.08v-.08l0,0,0,.05h0l0-.05c-.25.74-.92.43-1.35.62a5.21,5.21,0,0,0-2,1.57c-1,1.25-2.78,2.31-2.93,3.6-.25,2.21-2.43,3.51-2,5.78-1.06,0-.89-.69-.89-1.15a17.34,17.34,0,0,1,3.62-10.15c1.89-2.63,3.54-5.46,5.28-8.22a91.84,91.84,0,0,0,5.81-10.07c1-2.15,1.72-4.49,2.75-6.63a66.38,66.38,0,0,0,3.24-9.59,52.33,52.33,0,0,0,1.39-8.5c.88-7.21,1.7-14.42,3.28-21.52,1.1-5,2.26-10,2.88-15a6.21,6.21,0,0,1,2.19-3.49,24.86,24.86,0,0,0,2.21-2.26c.15-.19.18-.62.61-.42a1.16,1.16,0,0,1,.53.65c1.69,3.85,1,7.37-1,11a28.9,28.9,0,0,0-2.9,8.1c-.09.46,0,1.42-.9,1.2-.73-.18-.34-.9-.27-1.37.19-1.2-.69-2.24-.14-3.63-1.06.36-.89,1-.84,1.41.19,1.74,0,3.5.46,5.24a4.72,4.72,0,0,1-.41,3c-.53,1.27.09,1.36-.11,2.65s1.28,2.51.3,3.79c-.25.32-.44.66,0,.84s.36-.38.52-.62c.91-1.3-.21-2.83.49-4.18a6,6,0,0,1,.77-1.56,1.34,1.34,0,0,1-.62-1.6,24.46,24.46,0,0,1,3.26-7.43c.55-.87.16-1.74.37-2.6.29-1.21,1.26-2.12,1.33-3.4l0,0s0,0,0,0h0c-.46-2,0-2.63,2-3.33a3.87,3.87,0,0,0,2-2.49,17.76,17.76,0,0,0,1-4.83c.1-1.07.53-1.29,1.5-1a4,4,0,0,1,2.77,3.65,2.91,2.91,0,0,0,.36,1.68c1.43,1.53.7,3.37.75,5,.06,2-.45,4.06-.56,6.13A51.59,51.59,0,0,1,43.91,47.4Z"/><path class="cls-1" d="M31.81,43.85h0l0,0Z"/><path class="cls-1" d="M15.1,90.56Z"/><path class="cls-1" d="M29,65.5c-.67.21-.67.88-.91,1.39-.55-.54-.85-.87-.26-1.84,1.31-2.14.84-4.95,2.39-7.07-1.6-1.16,0-2.36-.07-3.53,0-.83.61-2.24-.14-2.36-1.41-.22-.73,1.37-1.12,2.11,0,.07-.15.11-.49.34a9.56,9.56,0,0,0,.16-5.49c-.77-1.43.11-3.25-1.07-4.78-.9,5.35.23,10.55-.38,15.72A56.74,56.74,0,0,1,22.9,74.72l2.4-4.56a8.57,8.57,0,0,1-1.47,5.5c-1.18,2.11-2.78,4.09-3.44,6.35-1,3.43-3.29,5.86-5.29,8.55.35.12.65.37,1-.18a46.91,46.91,0,0,1,4-5.3,16.51,16.51,0,0,0,2.82-5.48,32.82,32.82,0,0,1,4.24-8.37c.75-1.08.7-2.6,1.9-3.41.8-.55.31-1.29.39-1.94A.33.33,0,0,0,29,65.5Zm-2.33,4c-.1-.35-.19-.5-.17-.63a.65.65,0,0,1,.22-.45c.24-.13.24.16.23.26A5.28,5.28,0,0,1,26.63,69.53ZM27.46,67s.05-.13.08-.13a4.38,4.38,0,0,1,.51,0h0Z"/><path class="cls-1" d="M39.22,61.78v0h0s0,0,0,0l0,0Z"/><path class="cls-1" d="M37.6,62.58c-1.46,2.06-2.06,4.51-3.28,6.68-.92,1.64-2.21,3.22-2.35,5.25a10.27,10.27,0,0,0,2.53-3.64c1.61-3,3.74-5.73,4.71-9.05C38.43,61.55,38.09,61.89,37.6,62.58Z"/><path class="cls-1" d="M32,74.53h0v0h0Z"/><path class="cls-1" d="M38.55,36.6a11.09,11.09,0,0,0,1.79-2.71,4,4,0,0,1,2.58-2.79h0s0,0,0-.06c.06-.52.13-1,.2-1.54l.23,0a2.39,2.39,0,0,1-.13-.21c0,.07-.07.15-.1.23h0c0,.47-.4.89-.25,1.38-.35-.3-1.81.25-.9-1-1.16-.71-.71,1.15-1.62,1a4,4,0,0,1,.76-2.42c.67-1-.92-1.27-.77-2.16C40,28.19,38.64,30,40,32a1,1,0,0,1-.21,1.29c-1,.7-.7,2.3-2,2.76a.53.53,0,0,0-.1.78C38.05,37.19,38.33,36.88,38.55,36.6Z"/><path class="cls-1" d="M42,29.86v0h0S42,29.86,42,29.86Z"/><path class="cls-1" d="M43.09,27.09a17.06,17.06,0,0,0,1.38-5.92c-1,1.27-1.62,2.79-2.67,4-.41.49-.13.79.62,1.23.28.15.24.62-.21.8C42.52,27.27,42.89,27.56,43.09,27.09Z"/><path class="cls-1" d="M42.21,27.22h0l0,0Z"/><path class="cls-1" d="M38.16,59.15h0c-.37.75-1.48,1.12-1.2,2.25,2.61-.74,2.76-3.32,4.32-5.24C39.71,57,38,57.17,38.16,59.15Zm.43.8s-.12.1-.15.08c-.41-.19-.21-.55-.23-.85C38.47,59.37,38.8,59.52,38.59,60Z"/><path class="cls-1" d="M44.33,35.84c.06-.45.38-.88.13-1.34a.48.48,0,0,0-.44-.12c-.46.3-.4.83-.46,1.27-.27,1.91-.09,3.87-.66,5.75,1,.32.86-.54.93-1C44,38.87,44.12,37.35,44.33,35.84Z"/><path class="cls-1" d="M40.67,43.54c.37-2.44,1.59-4.71,1.4-7.25A17.17,17.17,0,0,0,40.67,43.54Z"/><path class="cls-1" d="M39.2,55.5h0l0,0h0v0Z"/><path class="cls-1" d="M31.83,43.81c1.14-1.19,1.51-2.79,2.23-4.2C32.81,40.74,31.75,42,31.83,43.81Z"/><path class="cls-1" d="M31.81,43.84l0,0v-.06Z"/><path class="cls-1" d="M33.39,26.33c.83-1.76.83-3.69,1.56-5.45A13.66,13.66,0,0,0,33.39,26.33Z"/><path class="cls-1" d="M42.31,45.94a9.6,9.6,0,0,0-1.84,5.78C40.68,49.79,42.55,48.4,42.31,45.94Z"/><path class="cls-1" d="M40.47,51.72l0,.16v0h0v0c-.61,1.12-2.18,1.9-1.28,3.55.21-.44,0-1.35.66-1.25,1.34.23,1-1,1.54-1.47l-.92-.83C40.46,51.84,40.47,51.78,40.47,51.72Z"/><path class="cls-1" d="M22.25,91.18c.2-1.21,2.11-1.37,1.84-2.86C23.34,89.19,22.2,89.81,22.25,91.18Z"/><path class="cls-1" d="M24.09,88.32l0,0h0l0,0-.05,0S24.08,88.29,24.09,88.32Z"/><path class="cls-1" d="M22.24,91.26s0-.05,0-.08a.08.08,0,0,0,0,0S22.24,91.26,22.24,91.26Z"/><path class="cls-1" d="M34.24,42.54A9.71,9.71,0,0,0,32.52,45C33.91,44.76,34.07,43.65,34.24,42.54Z"/><path class="cls-1" d="M34.25,42.44v.1l0,0,.06,0-.09,0Z"/><path class="cls-1" d="M15.1,90.57l0,0s0,0,0,.06S15.1,90.58,15.1,90.57Z"/><path class="cls-1" d="M13.62,93.12c.38-.89,1.79-1.24,1.46-2.51C14.6,91.45,13.38,91.88,13.62,93.12Z"/><path class="cls-1" d="M19.62,93.23h0l0,0Z"/><path class="cls-1" d="M19.32,95.44c.13-.91.21-1.56.3-2.21C18.35,93.57,18.23,94,19.32,95.44Z"/><path class="cls-1" d="M25.73,76.19c1.12.55,1-.39,1.24-.94l-1.25.94Z"/><path class="cls-1" d="M27,75.15a.3.3,0,0,0,0,.1l.07-.06s0,0,0,0,0,0,0,0Z"/><polygon class="cls-1" points="20.69 91.7 20.69 91.7 20.68 91.7 20.69 91.7"/><path class="cls-1" d="M19.66,93.22s0,0,0,0h0Z"/><path class="cls-1" d="M19.67,93.17c.82-.14,1.46-.42,1-1.47A1.64,1.64,0,0,0,19.67,93.17Z"/><path class="cls-1" d="M32.94,28.07a1.81,1.81,0,0,0-.14-.55c-.16.2-.3.3-.33.43s0,.42.08.46C32.85,28.55,32.92,28.29,32.94,28.07Z"/><path class="cls-1" d="M24.61,78.51l.86-.7C24.53,77.26,24.77,78.12,24.61,78.51Z"/><path class="cls-1" d="M31.41,46.8c0,.09.1.25.16.25.44,0,.41-.41.52-.7C31.71,46.27,31.43,46.35,31.41,46.8Z"/><path class="cls-1" d="M33.69,67.59a.34.34,0,0,0,0,.28s.16,0,.25,0a2.54,2.54,0,0,1,0-.29C33.86,67.6,33.72,67.56,33.69,67.59Z"/><path class="cls-1" d="M42.2,27.28a4.85,4.85,0,0,0-.23,2.5C42.08,28.94,42.62,28.15,42.2,27.28Z"/><path class="cls-1" d="M42.18,27.21a.64.64,0,0,0,0,.07.08.08,0,0,0,0,0Z"/><path class="cls-1" d="M42,29.85s0,0,0,0,0-.07,0-.11S42,29.83,42,29.85Z"/><path class="cls-1" d="M31.55,76a.41.41,0,0,1,.11-.07l0-.06Z"/><path class="cls-1" d="M31.28,76.45l.27-.44-.44.25Z"/><path class="cls-1" d="M35.2,64.68s.1.14.16.2c.11-.16.23-.32.34-.49C35.49,64.41,35.27,64.43,35.2,64.68Z"/><path class="cls-1" d="M36.51,62.09l-.38,1.28C36.69,63.21,36.53,62.76,36.51,62.09Z"/><path class="cls-1" d="M36.09,63.39c-.12.3-.24.62-.35.94h0l0,0h0l.36-.94h0l0-.07S36.11,63.38,36.09,63.39Z"/><path class="cls-1" d="M38.38,56.45l.14-.44c-.07,0-.18,0-.21,0a.94.94,0,0,0-.15.32C38.1,56.5,38.16,56.55,38.38,56.45Z"/><path class="cls-1" d="M36.72,28.66a.21.21,0,0,0-.24-.31c-.24,0-.28.26-.29.48C36.4,28.87,36.61,28.89,36.72,28.66Z"/><path class="cls-1" d="M42.59,43.57a.87.87,0,0,0-.16.26.82.82,0,0,0,0,.3l.23-.16Z"/><path class="cls-1" d="M21.34,91.62c.42.18.62-.16.88-.38C21.67,90.8,21.34,90.84,21.34,91.62Z"/><path class="cls-1" d="M22.24,91.26s0,0,0,0h0S22.23,91.25,22.24,91.26Z"/><path class="cls-1" d="M21.34,91.66v0h0Z"/><path class="cls-1" d="M41.74,51.64l.35-.09L42,51.36C41.89,51.45,41.81,51.54,41.74,51.64Z"/><path class="cls-1" d="M41.68,51.71l.06-.07-.09,0Z"/><path class="cls-1" d="M23,80.34a.87.87,0,0,0,.15.24l.2-.2a1.28,1.28,0,0,0-.25-.15S23,80.32,23,80.34Z"/><path class="cls-1" d="M35.38,73.2a.19.19,0,0,0,.1.13c.41.09.4-.24.48-.47C35.71,72.86,35.42,72.79,35.38,73.2Z"/><path class="cls-1" d="M36,72.87l0-.05s0,0,0,0Z"/><path class="cls-1" d="M27.49,74.91c.45.15.65-.19.89-.45C27.87,74.22,27.5,74.22,27.49,74.91Z"/><path class="cls-1" d="M27.48,74.94s0,0,0,0h0Z"/><path class="cls-1" d="M28.7,48.62l-.09.25C28.67,48.8,29,48.81,28.7,48.62Z"/><path class="cls-1" d="M28.61,48.87s0,0,0,0a.74.74,0,0,1-.08.15h0s0,0,0,0S28.58,49,28.61,48.87Z"/><path class="cls-1" d="M25.53,77.45c.06-.42.13-.84.2-1.26h0C25.66,76.61,25.59,77,25.53,77.45Z"/><path class="cls-1" d="M25.47,77.8h0l.06-.35-.06.35Z"/><path class="cls-1" d="M34.46,75.37s-.07-.08-.11-.11c-.06.17-.12.35-.17.52A.36.36,0,0,0,34.46,75.37Z"/><path class="cls-1" d="M34.1,75.82l0,.05,0-.09S34.14,75.82,34.1,75.82Z"/><path class="cls-1" d="M31.66,75.94l0-.13s0,0-.07.07Z"/><path class="cls-1" d="M32,74.54c-.09.43-.19.85-.28,1.27C32.08,75.46,32,75,32,74.54Z"/><path class="cls-1" d="M32.46,45.14l0,0h0l0-.07-.07,0S32.45,45.11,32.46,45.14Z"/><path class="cls-1" d="M32.13,46.25a1.37,1.37,0,0,0,.33-1.11C32.09,45.43,32.19,45.87,32.13,46.25Z"/><path class="cls-1" d="M32.1,46.31a.06.06,0,0,0,0,0h0a.38.38,0,0,1,0-.1l0,0Z"/><path class="cls-1" d="M39.26,61.8a.41.41,0,0,0,.53,0,.19.19,0,0,0-.07-.14C39.5,61.5,39.35,61.58,39.26,61.8Z"/><path class="cls-1" d="M11.11,102.66a1.06,1.06,0,0,1,0,.19,1.62,1.62,0,0,1,.1-.18Z"/><path class="cls-1" d="M13.42,98.4l-.16,0,0,0Z"/><path class="cls-1" d="M41.68,51.71l0-.05,0,.12S41.65,51.73,41.68,51.71Z"/><path class="cls-1" d="M41.38,52.74h0c.07-.32.15-.64.23-1C41.34,52.05,41.41,52.41,41.38,52.74Z"/><path class="cls-1" d="M43,41.78l-.06-.28,0,.22S42.93,41.76,43,41.78Z"/><path class="cls-1" d="M42.9,41.5a.22.22,0,0,1,0-.08h0Z"/><path class="cls-1" d="M34.34,42.47l.38.1a1.93,1.93,0,0,1,0-.24Z"/><path class="cls-1" d="M39.93,55.57l0-.12,0,.12h0l0,0Z"/><path class="cls-1" d="M21.34,91.66l0,0s0,0,0,0Z"/><polygon class="cls-1" points="20.69 91.7 20.69 91.7 20.68 91.7 20.69 91.7"/><path class="cls-1" d="M21.26,91.66l-.57,0C20.89,91.77,21.09,91.87,21.26,91.66Z"/><path class="cls-1" d="M28.43,74.41l-.05-.07v.12h0l.05-.06,0,0Z"/><path class="cls-1" d="M15.59,96.14h0a.86.86,0,0,1,0,.16l0-.11v0l0-.11-.07,0Z"/><path class="cls-1" d="M13,100.54l0,.11,0,0,.19-.29-.2.28Z"/><path class="cls-1" d="M12.61,98.61h0l-.05.19.15,0a1.34,1.34,0,0,1-.07-.18l.07,0Z"/><path class="cls-1" d="M13.26,98.36l-.57.23.61-.19Z"/><path class="cls-1" d="M27.06,75.15c.22.1.34,0,.38-.22C27.22,74.85,27.12,75,27.06,75.15Z"/><path class="cls-1" d="M27.48,74.94l0,0s0,0,0,0Z"/><path class="cls-1" d="M24.51,78.46a.42.42,0,0,1,0,.1l.06,0h0Z"/><path class="cls-1" d="M39.23,55.48l.65.09A.45.45,0,0,0,39.23,55.48Z"/></g></g></svg>