<svg xmlns="http://www.w3.org/2000/svg" width="519.144" height="466.295" viewBox="0 0 519.144 466.295">
  <g id="Group_14" data-name="Group 14" transform="matrix(0.574, 0.819, -0.819, 0.574, -126.754, -906.57)">
    <g id="Group_13" data-name="Group 13" transform="translate(1032.1 106.565)">
      <path id="Path_487" data-name="Path 487" d="M1264.006,356.563c-4.583,2.678-9.12,3.8-13.84.49a64.591,64.591,0,0,1-7.474-5.593c-1.637-1.549-3.221-.4-3.308.37-.391,3.346-3.515,4.545-4.846,7.019-.671,1.246-.989,2.739-2.593,2.76-2.019.026-1.477-1.931-1.981-3.084-2.238-5.135-4.9-6.59-8.364-4.609-7.725,4.411-10.748,12.022-8.4,20.742.691,2.564.93,4.8-.662,7.7-4.2,7.652-5.622,16.293-6.442,24.955-.1,1.141.029,2.547,1.707,2.7,1,.09,1.963-.6,1.736-1.438-1.66-6.161,3.375-6.94,6.955-9.041,6.287-3.69,11.445-9.1,18.192-12.1,3.323-1.482,5.835-4.067,8.691-6.185.759-.56,1.418-1.012.639-1.99-.49-.61-.968-.805-1.628-.12-5.639,5.855-14.242,6.876-20.144,12.5-2.8,2.666-6.655,4.221-10.243,6.409.359-4.9.7-9.163,4.869-12.3,1.217-.916,2.01-3.311,2.17-5.791.286-4.429-1.774-8.265-1.715-12.574.064-4.58,3.384-6.237,6.3-6.946,3.326-.811,2.681,3.262,3.063,5.149a4.311,4.311,0,0,0,3.253,3.466c1.415.464,2.7-.318,3.658-1.981,1.575-2.739,4.764-4.192,6.109-7.36.473-1.109,2.386-3.054,4.122-.805,5.012,6.491,11.2,5.269,17.945,3.46,2.53-.677,5.826-4.382,7.731-1.4,2.246,3.521-2.4,5.094-4.338,7.448-1.278,1.558-3.856,4.4-.819,5.817,2.961,1.386,3.168,2.471,1.823,4.822a2.575,2.575,0,0,0,.808,3.65c5.164,2.672,1.622,3.145-.866,4.157-6.316,2.567-13.761,1.237-19.383,6.841-2.742,2.736-3.224,4.02-1.246,7.031,1.062,1.619,3,3.305,2.436,5.435-1,3.8-10.6,6.9-13.933,4.326-3.282-2.523-6.71-1.981-10.018-1.2a51.653,51.653,0,0,0-13.933,5.365c-2.334,1.336-4,1.677-5.94-1.222-1.555-2.322-3.06-4.507-3.615-7.218-1.17-5.709-.438-11.439-.3-17.192.1-4.07,3.548-8.974-1.829-12.437a3.4,3.4,0,0,1-.837-2.885c1.345-6.733.417-13.866,3.965-20.264,1.05-1.89,2.208-3.784,3.1-5.759a3.172,3.172,0,0,0-1.838-4.639c-1.258-.493-2.847-.257-2.862,1.155-.047,4.128-3.755,7.112-3.256,11.363.167,1.424-.256,2.751-2.109,2.8-1.269-6.687,2.369-13.542-.444-20.109-3.373.28-1.721,3.521-3.419,5.52-.5-3.238-1.922-5.82.616-8.2,1.085-1.018.257-2.264.338-3.41.435-6.229-3.373-12.454.006-18.706a2.462,2.462,0,0,0-.117-2.888c-5.041-6.491-3.119-14.161-3.478-21.44-.05-.989.475-2.4-.805-2.561-1.54-.2-1.818,1.158-1.736,2.491.192,3.1.184,7.693-3.32,7.124-3.218-.522-6.193,1.832-8.685.251-2.631-1.675-5.208-1.855-8.075-2.229s-5.19-2.217-7.571-4.338c-6.016-5.353-8.913-13.1-15-18.263-1.972-1.672-4.548-2.532-5.263-5.709-.5-2.229-2.244-4.44-5.336-3.151-3.471,1.444-1.908,4.008-.916,5.989,1.829,3.655,3.717,7.218,3.728,11.556-3.65-1.368-5.383-3.822-6.4-7.363-2.655-9.187-7.121-17.758-12-25.789-3.728-6.129-7.369-12.358-10.716-18.659-2.293-4.321-6.867-8.169-5.3-14.788,1.138,1.87,1.887,3.206,2.739,4.481.937,1.4,2.045,2.684,2.935,4.108,3.711,5.943,6.874,7.028,13.038,4.356.823-.356,1.724-.689,2.442-.076,4.332,3.7,10.292,4.277,14.721,7.751,3.439,2.7,6.153,1.555,7.386-2.658.63-2.147-.026-4.91,2.418-6.392,4.9-2.97,3.816-5.622-.274-8.393a5.632,5.632,0,0,1-1.7-3.1c-3.32-12.189-13.691-15.471-23.855-19.068-1.447-.513-3.69,1.395-4.361-1.284-.7-2.78,1.908-3.425,3.451-4.431,5.19-3.381,6.03-6.549,1.324-9.811-2.473-1.715-1.082-1.765-.464-3.294,1.006-2.5,5.324-4.146,2.331-7.877-1.844-2.293-2.482-5.38-6.351-6.042-4.781-.82-7.646,2.594-10.817,4.472-3.419,2.028-6.733,4.367-10.494,6.713.589-4.957,1.453-9.379,1.549-13.817.108-4.977,1.31-11.614-2.349-14.4-5.642-4.294-5.791-9.128-5.633-14.87.082-2.859-3.53-5.628-6.08-4.289-5.881,3.089-7.868-1.05-9.9-4.916-1.829-3.489-3.119-7.255-4.825-10.812-1.292-2.7-3.171-4.271-6.555-3.078-3.507,1.237-4,4.146-3.722,6.937.572,5.724-2.133,11.594.741,17.332.163.324,1.686,7.107-4.116,5.686-1.412-.347-2.9-1.855-3.971.076a5.2,5.2,0,0,0-.338,5.228,65.451,65.451,0,0,1,3.761,9.6c.513,1.625,2.7,3.428.9,5.032-1.762,1.564-3.267-.365-4.91-1.287-1.441-.811-3.372-2.483-5.082-1.091-1.9,1.543-.759,3.679-.146,5.633.752,2.4,1.957,4.761-.114,7.285-3.078,3.746-2.512,8.667,1.608,11.063,4.466,2.6,8.151,6.272,12.816,8.606,1.832.913,3.749,3.154,3.122,5.441-.6,2.191-3.247,1.272-5.015,1.555a11.51,11.51,0,0,1-7.209-1.441c-3.8-1.952-7.673-3.232-12.1-1.882-2.453.747-4.782,1.759-5.333,4.189-.5,2.22,1.2,4.067,2.859,5.66,2.961,2.841,5.9,5.493,6.007,10.325.052,2.474.458,6.439,4.46,6.43,3.819-.009,7.635,1.613,11.465.082.881-.35,2.109-1.152,2.675.131a3.329,3.329,0,0,1-.216,2.935c-2.643,2.885-4.207,6.614-7.629,8.924-5.386,3.632-5.745,9.023-.811,12.959a17.585,17.585,0,0,0,6.777,2.914c6.76,1.616,9.123-.02,10.768-6.923.233-.977.333-2.328,1.645-2.293,1.78.044,1.573,1.99,1.438,2.76-.9,5.266,1.254,10.12,1.885,15.156.694,5.593,4.335,7.121,9.268,4.58,2.687-1.383,3.124-3.781,3.162-6.456.035-2.605-.837-6.792,1.106-7.448,6.993-2.357,5.782-7.25,5.117-12.346-.181-1.392-1.485-3.381.552-4.125,2.3-.843,2.7,1.587,3.375,2.99,2.249,4.653,3.469,10.117,6.669,13.942,8.218,9.82,10.473,22.927,19.047,32.546,3.308,3.714,4.148,9.528,9.362,12.165-3.682-8.489-9.522-15.567-13.487-23.776-2.378-4.919-3.32-10.386-6.348-15-.586-.9-1.164-2.521.277-3.192,2.127-.989,2.08,1.228,2.474,2.267,3.288,8.7,8.431,16.533,11.6,25.3a19.82,19.82,0,0,0,5.488,8.615c4.773,4.09,5.365,7.4,2.719,11.162-2.462,3.492-5.458,6.593-6.153,11.276-.528,3.545-1.511,6.3,3.361,7.215,1.476.277,2.786,1.876,3.979,3.06a2.747,2.747,0,0,1,.744,2.27c-.49,1.491-1.879.613-2.576.3-2.249-1.012-4.37-2.311-6.529-3.521-1.115-.627-2.5-1.146-3.171.131-.7,1.339.3,1.853,1.762,2.217,6.73,1.7,6.121,9.47,10.561,13.186.586.49.093,2.24-.779,3.235-3.2,3.655-2.188,6.161,2.156,7.746.295.108.481.481.75.694,4.91,3.874,9.07,8.84,15.908,11.138-1.745-3.5-2.777-6.64-6.018-8.177-1.05-.5-1.722-1.432-1.214-2.459.627-1.263,1.566-.569,2.544-.079.855.426,2.074.131,2.92.566,3.235,1.66,8.163-.481,9.989,2.521,2.249,3.7,5.543,3.364,8.472,4.078,4.948,1.208,11.7-3.717,10.342-7.22-3.305-8.5-7.01-16.842-10.511-25.267-1.152-2.774-2.392-1.079-3.264.015-1.213,1.526-.076,2.85.805,4.163,2.188,3.273,4.017,6.716,4.49,10.806-2.226-6.929-8.7-10.762-12.116-16.938-1.01-1.826-2.935-8.481-8.586-4.624-.119.082-1.178-.75-1.356-1.3-1.214-3.758-3.7-6.727-5.867-9.907-4.169-6.106-3.139-13.5-4.846-20.214a1.6,1.6,0,0,1,.969-2.08c1.359-.607,1.826.461,2.316,1.333a28,28,0,0,0,7.045,8.635c4.63,3.571,7.32,9.846,13.54,10.972,3.976.721,6.5,2.3,8.046,5.855.493,1.132,1.269,2.15,2.7,2.01a2.422,2.422,0,0,0,2.413-2.264,3.763,3.763,0,0,1,3.585-3.7c2.211-.158,2.912,2.118,3.749,3.72a12.262,12.262,0,0,1,1.686,4.831c.306,7.915-1.071,15.783-.4,23.759.487,5.785.14,12.833,3.09,16.7,3.375,4.431,2.477,8.32,1.529,11.532-2.182,7.407-.627,13.817,1.727,20.7,2.115,6.188,5.954,12.063,4.825,19.147-.2,1.272.72,3.1-1.272,3.282-1.768.16-1.742-1.858-2.176-3.017a242,242,0,0,0-10.908-23.957c-1.546-3.054-1.786-4.852,2.456-4.709,1.167.038,2.523-.158,2.786-1.7.28-1.637-1.249-1.882-2.194-2.48a16.624,16.624,0,0,1-6.581-7.629c-.945-2.243-1.806-4.312-4.674-3.387-2.847.919-1.465,3.113-1.406,5.114.146,5.2.064,10.812-4.248,14.339a14.317,14.317,0,0,0-4.3,5.272c-2.261,4.986-7.188,6.243-11.492,6.64-4.236.388-1.622-4.747-3.2-6.937a4.866,4.866,0,0,1-.56-1.441c-1.187-3.819-3.585-4.405-6.622-2.2-2.474,1.8-5.3,3.1-7.337,5.581-.814.989-2.521,2.147-4.064.578a3.426,3.426,0,0,1-.855-4.245c1.99-3.521,3.906-7.077,8.209-8.516,3.256-1.088,6.334-2.7,9.545-3.936,1.2-.458,2.357-.77,2.235-2.313-.123-1.57,2.7-3.4.42-4.449-3.133-1.438-4.327-6.689-9.137-4.726-2.713,1.106-5.432,2.2-8.142,3.317-3.962,1.634-7.527,1.73-10.5-2.074-2.285-2.914-4.662-5.383-9.126-3.148-2.392,1.2-4.93-.849-6.7-2.43-2.614-2.34-6.182-4.3-6.853-7.973-.592-3.238,3.4-3.915,4.863-6.071,1.619-2.381,3.192-5.216-.3-7.471a50.425,50.425,0,0,0-6.523-3.533c-8.3-3.775-15.436-9.353-22.8-14.587-1.01-.718-1.462-2.547-3.329-1.771-1.036.429-.919,1.3-1.042,2.127a2.826,2.826,0,0,0,2.249,3.512c2.439.371,3.746,2.173,5.561,3.355,5.531,3.6,11,7.366,16.83,10.418,5.659,2.961,6.29,4.717,1.882,9.2-5.875,5.978-5.855,6.2.476,11.757.49.429.615,1.257,1.076,1.742a22.035,22.035,0,0,0,7.877,5.079c4.793,1.958,10.377,1.6,14.441,5.9,2.7,2.862,6.6,3.031,10.4,1.158,2.751-1.357,5.709-2.29,8.472-3.626,2.214-1.074,4.052-1.082,5.149,1.307,1.17,2.55-1.292,2.734-2.658,3.442a34.47,34.47,0,0,1-5.674,2.486c-8.326,2.553-11.314,8.892-12.139,16.807-.164,1.584-.1,3,2.063,3.425,4.822.948,9.5,1.742,12.93-3.092.805-1.138,2.112-2.092,3.454-1.733,1.6.426,1.345,2.287,1.555,3.542,1.421,8.484,1.377,8.492,9.762,5.773.82-.265,1.66-.487,2.453-.814,8.145-3.37,15.3-7.781,17.519-17.169.178-.75.342-1.374,1.106-1.432,1.275-.1,1.537,1.179,2.223,1.867,4.732,4.755,6.351,11.276,9.508,16.924.939,1.678,2.938,4.116,1.141,5.435-1.566,1.147-4.183,2.246-6.692,1.228a42.18,42.18,0,0,0-5.741-2.089c-5.753-1.409-11.5-1.677-15.984,2.97-1.363,1.409-2.054.6-3.3.6-5.695,0-10.692-4.557-16.693-2.4-1.356.487-3.414-.149-3.06,2.328.309,2.176,1.835,2.468,3.816,2.451a23.8,23.8,0,0,1,9.662,1.943c7.15,3.008,11.267,9.286,16.486,14.272,4.776,4.563,4.116,6.567-1.3,10.818-.942.738-2.048,1.269-3.042,1.946a2.565,2.565,0,0,0-1.039,3.145c1.666,5.864,7.693,9.128,13.607,8.91,5.934-.222,11.325-1.955,16.836-3.6,1.8-.537,4.172-.724,3.708,1.654-1.275,6.549,2.1,12.046,3.241,18.026,1.759,9.2,3.168,18.476,5.234,27.6,3.3,14.549,9.782,28.115,13.233,42.7,2.2,9.306,6.514,18.12,9.974,27.12,1.161,3.031,1.619,6.363,3.775,8.988.688.84,1.3,1.765,2.45.843.919-.735.178-1.555-.157-2.279-5.4-11.6-8.7-23.963-13.239-35.918,1.158,1.065.873,3.664,3.475,2.78,1.062-.359,1.068-1.254.677-2.109-2.369-5.19-2.445-11.071-4.35-16.25-6.395-17.37-8.341-35.647-11.993-53.574a5.909,5.909,0,0,1,.2-3c3.113-9.974,1.5-20.191.884-30.25-.4-6.649,2.588-11.941,9.35-11.929,5.181.009,10.651-2.15,15.485.114,5.485,2.567,9.671.047,13.808-2.284,7-3.941,9.586-6.482,4.834-12.866-1.748-2.346-.8-3.731,1.584-4.717,6.357-2.629,12.632-5.461,19.57-6.316,2.089-.257,4.1-.969,4.569-3.443.429-2.264-1.214-2.661-2.868-3.48-4-1.987-4.119-3.731-.28-6.477,3.8-2.713,1.686-5.9-.408-6.716-4.4-1.71-1.852-2.85-.382-4.472,2.967-3.27,1.689-6.552-2.232-8.773C1268.717,353.727,1266.447,355.136,1264.006,356.563ZM1112.767,168.294c1.485-1.243,3.008-.16,4.125.747,1.61,1.307.146,2.168-.657,3.3a15.118,15.118,0,0,1-3.679,4.006c-4.1,2.871-3.936,5.738.773,7.194,3.9,1.2,2.474,2.78.709,3.868-2.311,1.421-3.125,4.011-5.21,5.467a2.6,2.6,0,0,0-1.146,3.119c.408,1.435,1.54,1.444,2.771,1.745,6.888,1.677,14.027,2.506,20.223,6.5a9.122,9.122,0,0,1,4.166,4.942,13.412,13.412,0,0,0,3.936,6.406c3.761,3.4-.443,7.393.236,11.133.084.458-.826,1.415-1.964.793-5.236-2.856-11.818-2.789-16.179-7.638-1.774-1.969-3.594-2.293-4.875.834-1.082,2.643-2.751,2.261-4.058.128-3-4.9-7.2-8.945-9.656-14.245-1.821-3.918-4.157-7.471-9.447-7.27-1.96.076-.8-1.5-.89-2.576-.449-5.327,2.095-10.631.082-15.935C1096.331,172.367,1106.5,173.548,1112.767,168.294Zm-23.788,51.678c-.744,5.164-1.821,10.228-1.36,15.477.242,2.763-1.829,2.3-3.463,2.515-3.32.432-4.659,1.867-2.821,5.222a9.049,9.049,0,0,1,1.065,7.387,2.69,2.69,0,0,1-2.979,2.171c-1.646-.026-1.99-1.634-1.844-2.631.98-6.687-3.545-12.775-1.724-19.692.855-3.253-2.226-5.347-5.558-6.958-.408,4.755-3.413,8.224-3.973,12.743-.324,2.6-2.824,4.563-5.99,4.531-3-.032-5.767-1.1-7.3-3.6-1.666-2.716.554-4.787,2.407-6.395,5.683-4.924,8.361-11.958,12.714-17.81,1.541-2.071-.668-4.639-1.926-5.7-1.421-1.2-4.175-.245-5.248,1.82-2.427,4.674-6.511,4.192-10.619,3.734-.554-.061-1.044-.683-2.089-1.794,5.4,2.576,4.347-1.456,4.817-3.58.356-1.593.114-1.648-3.883-1.788-3.489-.122-9.639-5.312-10.319-8.7-.134-.665-.4-1.444.35-1.809,1.077-.519,2.331-1.056,3.425-.233,5.467,4.122,12,2.089,18,3,2.815.429,5.627-.379,7.34,2.789a2.194,2.194,0,0,0,3.159.808c1.363-.776.251-1.756.02-2.649-.3-1.158-1.164-2.576-.781-3.44,3.01-6.847-3.988-7.375-6.4-10.861-3.51-5.085-10.456-4.376-13.831-9.236-1.252-1.8-3.991-3.48.723-4.779,2.185-.6.447-3.323.531-5.047.055-1.187-1.619-2.381-.009-3.65,1.461-1.152,2.416.061,3.667.56,1.7.68,3.833,3.1,5.359.476,1.249-2.141,2.894-4.627.8-7.573-1.567-2.211-2.427-4.916-3.69-7.355-1.753-3.39-3.463-6.573,2.462-7.594,2.086-.362,2.36-2.4,1.908-4.183-1.643-6.474.834-12.69.995-19.039a2.186,2.186,0,0,1,1.508-2.308c1.19-.467,1.161.893,1.745,1.354,4.02,3.18,4.84,8.174,6.978,12.4,1.342,2.652,2.815,4.437,5.934,3.011,3.862-1.768,5.073.651,5.513,3.6a19.937,19.937,0,0,1,.2,6.552c-.426,2.418-.723,5.49,3.644,5.861,2.558.216,3.186,3.221,4.114,5.45,2.7,6.474.86,12.8-1.354,18.715-1.354,3.609,2.2,6.091.72,9.239.009-.02.024-.032.032-.05-2.917,6.614-3.366,13.773-4.484,21.017-5.613-4.268-6.829-10.809-9.3-16.626-.309-.726-.849-1.879.128-2.3,4.8-2.1,2.453-5.82,1.94-8.9-.522-3.145-1-6.121-.373-9.371.292-1.505.56-3.658-.91-5.164-1.141,5.8-2.684,11.576-.907,17.522.35,1.164.193,2.223-1.1,2.363-1.52.16-1.637-1.421-1.342-2.156.709-1.768.925-3.515-.563-4.665-1.012-.782-2.231.277-3.127,1.135-1.981,1.882-.283,3.629.449,5.123,4.72,9.618,9.6,19.161,14.458,28.71,1.065,2.089,1.954,5.587,4.516.919.181-.327,1.272-.368,1.846-.21.712.2,1.176,1.141.724,1.634-1.75,1.92-.134,3.445,1.047,5.826C1089.886,213.916,1089.53,216.145,1088.979,219.972Zm3.422-16.3c-.242.478-.222,1.2-1.042,1.155-.111-.006-.306-.2-.3-.3C1091.129,203.664,1091.824,203.755,1092.4,203.673Zm11.859,32.741c-.854.1-1.021-.7-1.176-1.333-.143-.569.175-1.079.741-.948.4.093.691.642,1.126,1.082C1104.695,235.685,1104.514,236.388,1104.26,236.414Zm-11.841-32.776-.1-.178c.05.029.091.064.14.093C1092.439,203.58,1092.433,203.612,1092.419,203.638Zm18.618,42.961c-.715.292-1.257-.105-1.5-.814-.172-.5-.178-1.018.5-1.126a1.5,1.5,0,0,1,1.692,1.027C1111.55,245.942,1111.37,246.462,1111.037,246.6Zm45.668,83.821c.391.861,1.251,2.188,2.276,1.059a2.855,2.855,0,0,0,.414-3.731,20.279,20.279,0,0,1-3.842-10.561c4.452,4.023,7.186,9.333,11.214,13.668,2.244,2.41,5.137,4.437,6.55,7.731.791,1.847,3.6-2.217,4.434.992.4,1.564,2.337,3.046.861,4.726-1.684,1.922-4.163,2.2-6.62,2.389-2.016.155-2.631-1.275-3.375-2.623-.89-1.616.146-3.915-2.252-5.365-1.648,4.6-4.292,4.265-8.347,2.281-4.23-2.068-9.426-1.812-13.352-5.2-2.15-1.852-2.929-6.051-.5-7.4,2.521-1.4,1.689-2.124-.058-2.941-2.5-1.167-5.108-1.94-1.424-5.032,1.313-1.106,1.079-3.168-.14-4.735a11.126,11.126,0,0,0-4.726-3.906c-2.888-1.05-3.86-3.192-4.139-5.934a2.572,2.572,0,0,1,2.293-2.944c2.859-.583,5.327.6,7.64,2.153.137.093.335.289.312.391-1.333,5.31,5.167,6.459,5.735,10.826.28,2.147,1.78,4.636-2.165,4.5-.916-.029-1.955-1.17-2.15.665a1.873,1.873,0,0,0,2.214,2.188C1154.2,321.236,1154.908,326.453,1156.705,330.42Zm37.765,28.085c.548,6.946,1.307,13.9.271,22C1190.313,372.392,1191.048,365.443,1194.47,358.505Zm.61,27.038c-.006-.07.339-.271.383-.236a5.265,5.265,0,0,1,.618.63c-.254.146-.51.289-.764.432A4.756,4.756,0,0,1,1195.08,385.544Zm-18.4-16.6c-.429-.082-1.085-.026-1.228-.271-.193-.336,0-.9.093-2.3.671.651,1.153.931,1.319,1.339C1177,368.042,1176.756,368.529,1176.681,368.947ZM1219.035,523.6c-.2-.16-.394-.324-.592-.484a4.9,4.9,0,0,1,.793-.449c.093-.032.269.158.406.242C1219.44,523.135,1219.239,523.365,1219.035,523.6Zm-.887-4.5c-4.221-4.534-11.571-29.993-10.876-36.662C1212.765,494.084,1213.4,507.206,1218.148,519.1Zm-12.207-42.019a3,3,0,0,1-.534-.718,2.084,2.084,0,0,1,.044-.785l.587.694C1206.009,476.547,1205.974,476.813,1205.941,477.078ZM1204,461.485c.787,3.5,3.043,6.87,1.047,11.048-2.506-3.308-2.136-6.932-3.317-10.077-.28-.744-.636-1.768.4-2.185C1203.1,459.881,1203.818,460.662,1204,461.485Zm1.4-25.752c-.5,6.284-2.273,12.457-1.147,18.884.187,1.062-.992,2.363-1.914,4.364-2.121-6.182-3.209-11.6-2.7-17.291a4.4,4.4,0,0,1,1.742-2.929c1.885-1.815,1.091-2.678-.986-4.4-6.141-5.085-14.391-7.874-17.954-15.865-1.569-3.518-5.181-5.245-7.29-8.288a2.119,2.119,0,0,0-3.466-.417c-1.108,1.173.222,2.109,1.1,2.932,6.64,6.208,11.486,14.123,18.8,19.707,1.5,1.144.866,2.241-.639,3.159-6.689,4.09-13.516,5.415-21.09,2.273-4.271-1.771-2.836-4.076-1.056-6.264a14.737,14.737,0,0,1,4.635-3.206,4.456,4.456,0,0,0,2.757-4.449c-.058-2.4-1.6-2.042-3.25-2.693-6.861-2.7-10.365-11.308-8.317-18.044.718-2.369,1.858-2.532,3.676-2.173,6.494,1.287,12.865,3.06,19.689,2.337,1.934-.2,4.128,1.925,5.164,4.256,2.64,5.94,5.278,11.888,6.456,18.315.228,1.228.554,2.019,1.61,2.217C1205.7,429.006,1205.644,432.6,1205.4,435.734Z" transform="translate(-1032.101 -106.565)" fill="#fff"/>
      <path id="Path_488" data-name="Path 488" d="M1209.436,278.528c-3.332-1.062-6.255-3.159-9.773-3.854-2.473-.487-4.592-1.759-1.931-4.315,2.317-2.229.671-4.35.041-6.071-.747-2.045-2.947-.712-4.565-.42a5.9,5.9,0,0,1-2.541.169,27.673,27.673,0,0,0-20.48,1.908c-2.345,1.126-3.877.557-6.205-1.3-3.7-2.941-9-2.214-13.647-2.859a2.49,2.49,0,0,0-2.039,1.324c-.759,3.906-4.4,4.443-6.981,6.138a15.708,15.708,0,0,0-4.951,4.907c-4.706,7.419-10.619,14.167-11.973,23.318-.073.5-.942,1.286-1.371,1.243a1.327,1.327,0,0,1-1.024-1.946c2.036-4.076.414-8.609,1.951-12.868,2.247-6.234,4.5-13.035,3.189-19.476-2.211-10.823-2.24-21.836-4.151-32.639-.152-.846-.98-2.057.709-2.418,1.269-.274,1.855.481,2.331,1.505a17.206,17.206,0,0,0,1.3,2.226c2.515,3.787,4.954,4,7.961.686,2.389-2.637,4.344-4.744,8.635-2.173,2.865,1.715,6.707-.852,8.516-3.273,1.721-2.3,1.66-5.444-1.424-8.131-2.891-2.521-5.922-4.933-8.67-7.533-3.653-3.454-8.052-4.752-12.285-6.932.642,3.343,1.044,6.167,4.248,8.3,3.116,2.077,6.879,3.142,9.49,6.307,1.106,1.339,3.527,1.832,2.311,4.035-1.144,2.071-3.556,1.462-5.062.519-3.577-2.243-5.636-.184-7.051,2.442-.694,1.287-.96,2.559-2.576,2.535-1.741-.026-1.946-1.642-2.532-2.85a19.964,19.964,0,0,0-5.064-6.062c-2.249-2.019-6.488-3.545-6.395-6.409.131-4.064-1.491-7.238-2.6-10.748-.443-1.4-.344-3.819-2.211-3.413-1.917.417-1.371,2.783-1.225,4.458.1,1.088,1.287,2.512-.409,3.107-1.963.688-2.264-1.322-2.622-2.433A32.407,32.407,0,0,0,1103.186,195c-2.4-3-1.9-6.541,1.418-8.574,3.338-2.051,5.406-4.116,3.641-8.945-2.7-7.4-4.227-15.491,1.99-22.032,2.655-2.795,2.7-5.277,2.672-8.653-.076-7.819-1.324-16,6.573-21.8a4.774,4.774,0,0,1,5.269-.753,3.7,3.7,0,0,1,2.325,4.641c-.764,2.3-.534,4.653-1.132,6.876-.942,3.507-.6,5.823,3.69,6.439,1.421.2,4.213.84,3.921,2.5-.957,5.412-.478,11.381-4.1,15.949-1.47,1.853-3.746,5.721-5.584,4.525-4.921-3.2-2.62,1.231-3.054,2.445-.449,1.252-.233,2.748-.708,3.988-2.967,7.746-3.078,16.034-4.747,24.013-.91,4.353.785,5.149,4.286,4.9.846,2.086,2.521,1.829,4.219,1.389,6.689-1.73,12.512-5.768,19.307-7.27.869-.193,2.217-1.354,2.182-2-.315-5.948,3.921-5.6,7.856-6.272a4.276,4.276,0,0,0,3.443-5.835c-.832-2.217-.061-6.509-4.718-5.826-1.6.233-3.638.155-4.3-.9-.951-1.52.846-3.515,1.765-4.21,3.463-2.617-.047-4.741-.586-6.5-.583-1.888-3.162-.023-4.309.823a20.669,20.669,0,0,1-10.056,3.7c-2.354.292-4.21-.732-2.719-3.119,1.8-2.885,2.384-6.264,4.283-9.02,3.127-4.545,2.352-9.607,1.911-14.566-.108-1.2-1.292-3.215-2.13-3.294-7.235-.686-4.417-5.12-4.011-9.149.2-2.03,2.69-5.012.4-6-3.3-1.424-4.009-4.143-5.149-6.637-1.8-3.921-4.067-2.713-5.811-.563-2.165,2.664-5.219,4.647-6.973,7.282-3.62,5.447-9.7,10.33-5.884,18.627,1.19,2.588,1.219,6.859-1.217,9.268-5.494,5.435-7.261,11.9-7.133,19.319.041,2.413-.184,4.738,1.222,6.85,1.015,1.535,3.824,3.168.519,4.8-2.407,1.19-4.776,4.061-8.031.166s-5.882-8.5-10.255-11.459c-2.474-1.669-5.257-3.515-7.754-.773-6.526,7.165-5.038,18.409,3.728,22.691,5.447,2.661,11.673,3.32,10.173,11.579a.583.583,0,0,0,.233.446c5.875,4.271,1,6.935-1.946,8.39-7.048,3.483-10.642,10.012-15.275,15.622-1.558,1.89-.385,3.807,1.57,4.957,5.286,3.1,10.479,2.343,15.38-.829,2.64-1.707,4.881-3.8,8.052-.776a3.263,3.263,0,0,0,3.912-.175c2.722-2.264,6.281-2.6,9.306-4.219,4.635-2.483,7.877-.519,7.215,4.63-.426,3.3.388,6.059,1.15,9,2.127,8.2,4.638,16.384,1.593,24.908-.464,1.292-.417,2.745.613,3.294,3.769,2.007,2.139,4.808,1.283,7.416a67.854,67.854,0,0,0-3.495,25.2c.274,4.884,1.783,9.913-.624,14.7-.939,1.87.163,3.081,1.441,3.857,1.541.934,2.707-.02,2.985-1.625.332-1.952,1.99-2.211,3.285-2.9,5.972-3.174,11.836-1.634,17.446.89,3.127,1.409,4.638,1.946,6.412-2.1,2.523-5.756,7.451-5.432,10.552.16a31.437,31.437,0,0,1,1.517,3.83c.642,1.634,1.211,3.349,3.588,2.69,2.063-.575,3.343-1.543,2.757-4.026-.951-4.035.7-2.745,2.874-1.523,1.441.808,3.527,2.737,5,.648,1.529-2.162,2.821-1.549,4.965-1.479,3.6.117,6.929,1.374,10.459,1.511,1.2.047,2.518,1.914,3.553.134a4.2,4.2,0,0,0-.51-4.411c-.756-1.1-1.794-2.594-2.891-2.768-4.323-.691-4.977-5.31-8.177-7.2-1.12-.662-1.371-2.261-.023-3.968a17.383,17.383,0,0,1,13.283-6.541c4.977,0,9.671-1.532,14.6-1.365,1.785.061,3.512-2.13,2.917-4.353C1213.832,282.718,1212.983,279.657,1209.436,278.528Zm-70.378-106.034c1.68-.662,3.752-.423,2.27,2.43-.761,1.47-2.541,2.911-1.024,4.58a4.534,4.534,0,0,0,5.593.986c1.044-.49,2.3-.945,3.288.461-.831,1.917-2.78,1.666-4.294,2-3.239.721-5.858,2.048-5.858,5.771,0,3.653-3.081,4.14-5.231,5.508s-4.487,2.375-7.127,3.74c-.059-2.29,1.6-4.038.271-6.22-2.556,2.862-3.046,7.445-7.279,8.627-1.8-2.147.006-4.431-.085-6.643-.347-8.539,1.459-16.807,3.755-25.264C1128.01,172.27,1132.844,174.942,1139.058,172.494ZM1113.385,219.7c.321,3.335-2.725,1.173-4.186,1.736-2.76,1.065-6.2.648-7.9,4.035-1.345,2.678-2.967.537-4.119-.306-3.519-2.564-5.96-3.162-8.02,1.9-1.354,3.332-5.281,3.583-8.533,3.375-1.424-.09-2.424-1.2-1.021-3.326a49.076,49.076,0,0,1,17.373-16.471c3.612-1.993,3.6-4.332.481-6.85-3.229-2.608-4.309-6.579-5.447-10.345-.756-2.5-1.365-3.982-4.63-4.224-4.968-.368-10.228-7.716-10.042-12.793a2.086,2.086,0,0,1,1.26-2.039,1.855,1.855,0,0,1,2.287.651c4.787,5.8,11.471,10.027,14.458,17.323,1.17,2.856,6.211,2.451,5.286,7.121,3.221,2.964,3.533,7.474,5.636,11.165.761,1.333,1.441,2.43,3.378,2.684C1113.219,213.8,1113.157,217.337,1113.385,219.7Zm92.159,65.757c-.534,1.908-2.7,2.535-4.717,2.308-6.579-.747-12.448-.044-17.886,4.694-6.179,5.388-6.908,7.095-2.165,13.965,1.062,1.54,2.217,3.766-.817,3.1-3.921-.858-7.571.645-11.532-.038a38.148,38.148,0,0,1-11.661-4.23c-3.51-1.879-6.094-1.021-7.477,2.13-1.85,4.216-4.592,4.992-8.524,3.6-.624-.219-1.228-.516-1.864-.671-1.535-.368-3.842,1.31-4.533-1.018-.712-2.4,2.016-2.8,3.346-3.915,8.758-7.34,19.917-9.738,29.926-14.508,2.617-1.246,3.4.394,4.379,1.955.8,1.278,1.7,2.573,3.154,1.362,1.35-1.12-.123-1.844-.884-2.751-3.489-4.166,1.5-3.944,4.023-6.509a191.135,191.135,0,0,1-20.451,6.52c-10.053,2.43-19.094,8-27.49,14.248-1.2.9-2.608,2.535-3.959,1.4-.922-.773-.294-2.7-.1-4.242,1.511-11.658,7.772-20.8,15.786-28.584a24.155,24.155,0,0,1,15.693-6.94c2.083-.093,2.748,1.354,3.285,2.678,1.505,3.72,4.309,4.493,7.4,2.821,6.733-3.638,13.825-4.268,21.224-3.585.843.076,1.712-.26,2.188.75.5,1.062-.493,1.432-.922,2.109-1.106,1.759-3.267,3.157-1.6,5.841,1.6,2.564,3.649.869,5.511.942,2.917.114,5.49,1.616,8.428,1.925C1205.311,281.034,1206.02,283.762,1205.544,285.46Z" transform="translate(-956.214 -93.704)" fill="#fff"/>
      <path id="Path_489" data-name="Path 489" d="M1097.821,210.461c.805.665,1.689,1.263,2.693.009a30.17,30.17,0,0,1-3.32-2.6c-6.366-6.555-14.1-11.141-21.973-15.558-3.612-2.028-7.142-4.2-10.68-6.36-1.447-.881-3.44-1.9-1.456-3.833,3.151-3.069,8.329-2.935,11.754.018.744.639.977,1.692,2.205,1.978,6.182,1.444,10.374,5.575,13.8,10.809,1.534-5.3-4.872-14.937-10.619-15.576-4.049-.446-7.492-1.619-10.126-4.679-1.5-1.742-3.2-1.622-4.458-.3-4.417,4.639-9.114,3.906-14.269,1.491a3.857,3.857,0,0,0-5.272,1.925c-.694,1.456.257,2.535,1.774,3.127A181.8,181.8,0,0,1,1097.821,210.461Z" transform="translate(-1005.698 21.52)" fill="#fff"/>
      <path id="Path_490" data-name="Path 490" d="M1088.833,185.4l-.069.426.331-.071Z" transform="translate(-923.455 44.597)" fill="#fff"/>
      <path id="Path_491" data-name="Path 491" d="M1048.248,124.685a.973.973,0,0,1-.128,0h0c.052.05.067.111.117.16l.02-.1Z" transform="translate(-1001.385 -71.827)" fill="#fff"/>
      <path id="Path_492" data-name="Path 492" d="M1048.807,124.637c-.05-.178-.452-.257-.692-.382.047.417.1.831.143,1.249C1048.92,125.582,1048.938,125.1,1048.807,124.637Z" transform="translate(-1001.395 -72.646)" fill="#fff"/>
      <path id="Path_493" data-name="Path 493" d="M1069.414,174.836c.026-.053-.131-.193-.207-.295-.111.087-.26.158-.315.271-.026.052.131.2.207.295C1069.21,175.019,1069.359,174.949,1069.414,174.836Z" transform="translate(-961.564 23.77)" fill="#fff"/>
      <path id="Path_494" data-name="Path 494" d="M1097.806,177.94c-1.745.782-2.249,2.413-3.346,3.635-.9,1-1.622,2.112-.479,3.069,1.068.9,2.524-.058,3.171-.805,1.17-1.351,1.753-2.982,3.763-3.766,4.379-1.71,5.96-6.109,8.174-10.123C1105.537,172.939,1102.059,176.023,1097.806,177.94Z" transform="translate(-914.582 14.966)" fill="#fff"/>
      <path id="Path_495" data-name="Path 495" d="M1098.193,179.083c4.361-2.392,8.288-3.48,9.379-7.9C1104.317,173.056,1099.64,173.26,1098.193,179.083Z" transform="translate(-905.378 17.326)" fill="#fff"/>
    </g>
  </g>
</svg>
