<svg xmlns="http://www.w3.org/2000/svg" width="406.135" height="367.159" viewBox="0 0 406.135 367.159">
  <g id="Group_68" data-name="Group 68" transform="matrix(0.454, -0.891, 0.891, 0.454, -424.471, 726.039)">
    <g id="Group_67" data-name="Group 67" transform="translate(646.793 146.838)">
      <path id="Path_3025" data-name="Path 3025" d="M816.627,455.518c3.324-7.816,6.018-15.871,8.559-23.873,1.813-5.712,4.382-11.344,5.181-17.368,1.674-12.6,3.168-25.255,4.238-37.886a68.44,68.44,0,0,1,9.632-30.221c8.9-14.689,17.061-29.793,25.962-44.485,8.671-14.315,16.687-29.2,18.694-46.593.981-8.491,1.341-16.726-.8-24.836-4.238-16.107-14.194-26.964-30.1-32.915-13.808-5.167-27.645-6.882-41.909-3.519-8.73,2.06-18.093,3.4-23.439,12.184-.383.631-.949,1.1-1.686.654-.908-.542-.666-1.462-.578-2.328.9-8.653,1.975-17.291,2.605-25.965.684-9.4,1.406-18.833-2.717-27.839-.978-2.137-2.534-4.132-4.326-3.6-2.812.825-5.812-.377-7.937.516-2.169.914-7.073-.681-6.46,3.148a66.98,66.98,0,0,0,6.781,20.642l.144-.029-.141.029c-.206,1.5-.831,3.015.065,4.489.784-1.462,1.385-2.941.421-4.586.693-4.4-1.571-8.347-2.411-12.446-.622-3.021-1.656-4.7,1.969-5.718,3.755-1.049,8-1.447,8.78,3.212,1.686,10.077,1.689,20.33,1.659,30.566-.02,7.244-1.6,14.415-.731,21.668a9.043,9.043,0,0,1-4.9-9.337c1.017-6.619-2.806-11.972-3.183-18.114-.086-1.4,1.435-4.253-1.559-5.037-1.683,5.78,2.069,11.317,1.276,17.247-4.291-1.459-4.839-5.7-7.539-7.934-6.72-5.558-12.036-12.243-21.745-14.559a142.367,142.367,0,0,0-35.52-4.335c-8.815.141-17.3,2.906-24,8.877-4.716,4.2-11.309,5.709-15.022,11.173-5.576,8.2-13.737,14.433-17.415,24.182-1.173,3.1-1.423,6.316-2.658,9.31-3.84,9.319-8.921,18.376-7.754,28.959.687,6.239-2.629,12.24-.637,18.506,1.509,4.751,1.105,9.808,1.966,14.715a163.542,163.542,0,0,0,4.515,20.121c2.971,9.6,7.094,18.859,9.873,28.508,2.452,8.509,1.633,17.56,3.372,26.357,2.47,12.484-.769,24.957-3.581,37.256-.56,2.446-1.459,4.789-1.515,7.512-.189,8.918-1.412,17.819.012,26.737,1.612,10.13,3.982,20.038,12.57,26.746,7.454,5.824,15.04,10.174,25.558,10.513,12.818.416,23.6-2.287,33.068-10.519,1.677-1.456,2.756-1.256,4.539-.687,7.61,2.428,12.959,7.51,17.315,13.958,4.987,7.383,16.852,11.647,25.573,9.965a65.031,65.031,0,0,0,16.136-5.4C804.959,469.182,812.7,464.755,816.627,455.518ZM779.7,472.989c-12.493,1.754-20.51-4.863-27.153-14.052-5.379-7.445-15.137-9.755-22.034-3.964-6.608,5.547-14.259,6.142-22.075,6.814-5.629.486-11.132-1.4-16.631-2.051-4.182-.5-9.184-3.528-12.726-7.277a41.794,41.794,0,0,1-11.618-27c-.274-4.512-.955-9.013-.949-13.519.009-8.391,2.514-16.4,4.091-24.562,1.356-7.02,2.977-13.937,2.066-21.494-.834-6.935-.8-14.07-1.975-21.037a247.42,247.42,0,0,0-11.064-43.536,93.556,93.556,0,0,1-5.573-26.973,123.9,123.9,0,0,0-.967-13.628c-1.312-7.928.563-15.435,2.14-22.841,2.52-11.839,5.4-23.649,12.06-34.194,5.376-8.5,12.523-15.228,20.026-21.562a47.437,47.437,0,0,1,26-11.317c5.461-.551,11.185-.967,16.5.053,9.366,1.795,19.4,1.818,27.774,6.9,8.756,5.32,15.1,13.215,19.944,22.284.71,1.329.277,2.269-.006,3.407-.616,2.5-2.446,5.087,2.994,4.173,3.245-.542,1.565,4.158,3.015,6.3,3.139-.274,2.541-4.023,4.612-5.287,2.994,4.621,5.125,4.014,8.45-.365,4.17-5.491,11.317-6.3,17.521-8.249,19.552-6.151,37.547-1.291,54.261,8.98,9.882,6.071,14.654,16.074,16.634,27.3a51.567,51.567,0,0,1-1.084,23.929c-5.184,16.985-13.2,32.708-22.7,47.819-5.6,8.907-12.877,16.737-16.425,27.182-1.633,4.8-6.319,8.954-8.785,13.931-4.285,8.65-4.8,18.314-6.493,27.539-1.359,7.374-2.048,15.057-2.8,22.614-.911,9.213-2.255,18.6-5.555,27.492-3.171,8.547-5.208,17.471-9.434,25.679C804.977,465.624,793.592,471.041,779.7,472.989Z" transform="translate(-646.793 -146.838)" fill="#bc7987"/>
      <path id="Path_3026" data-name="Path 3026" d="M691.5,156.637c-.03.053-.05.106-.079.159.053.012.079.038.13.05l.012-.062C691.53,156.734,691.53,156.684,691.5,156.637Z" transform="translate(-559.892 -127.757)" fill="#bc7987"/>
      <path id="Path_3027" data-name="Path 3027" d="M670.982,168.11c.027-.038.071-.071.1-.106-.056-.044-.1-.091-.159-.133Z" transform="translate(-599.806 -105.882)" fill="#bc7987"/>
      <path id="Path_3028" data-name="Path 3028" d="M663.633,233.065q.685-1.225,1.373-2.455A9.5,9.5,0,0,0,663.633,233.065Z" transform="translate(-614.001 16.285)" fill="#bc7987"/>
      <path id="Path_3029" data-name="Path 3029" d="M669.978,205.034l.012.024c.021-.024.021-.041.044-.065Z" transform="translate(-601.646 -33.597)" fill="#bc7987"/>
      <path id="Path_3030" data-name="Path 3030" d="M667.783,236.932l.032-.056c-.024-.021-.053-.038-.077-.062Z" transform="translate(-606.006 28.365)" fill="#bc7987"/>
      <path id="Path_3031" data-name="Path 3031" d="M667.577,201.674c-.009-.071-.009-.139-.015-.206-.038.083-.068.165-.106.248l-.018.006c.068.044.121.032.189.074-.006-.044-.018-.085-.024-.13Z" transform="translate(-606.592 -40.461)" fill="#bc7987"/>
      <path id="Path_3032" data-name="Path 3032" d="M671.353,166.632c0-.035.012-.053.015-.088-.029-.024-.038-.041-.068-.065Z" transform="translate(-599.072 -108.592)" fill="#bc7987"/>
      <path id="Path_3033" data-name="Path 3033" d="M665.383,218.317a.747.747,0,0,1,.012-.08l-.032-.018Z" transform="translate(-610.634 -7.841)" fill="#bc7987"/>
      <path id="Path_3034" data-name="Path 3034" d="M741.5,386.413c.433-1.052.445-1.491-.56-2.479-5.175-5.072-4.158-18.3,1.553-22.977,5.953-4.872,6.039-5.694,3.348-12.912-1.4-3.772-3.092-7.548-3.209-11.668-.053-1.869-.021-4.017,2.042-5.007,1.924-.925,3.012.477,4.359,1.706,2.417,2.208,6.832,1.388,7.032-1.341.227-3.142,1.244-6.558-.3-9.57-2.585-5.025-.967-10.286-1.5-15.382-.628-5.986,3.569-11.482,1.049-17.377a10.738,10.738,0,0,1,1.524-11.255c4.056-5.237,3.722-11.362,4.495-17.327,1.155-8.915,1.055-18.344,5.258-26.336,4.327-8.226,4.026-15.523-.218-23.218-.5-.9-1.774-1.933-1.577-2.555,1.553-4.931-6.581-11.226,2.084-15.131a1.543,1.543,0,0,0,.642-1.35c-1.821-4.132-.368-9.773-4.282-12.67-6.063-4.492-10.395-10.849-17.135-14.612-8.388-4.686-16.687-8.7-26.714-6.351-5.535,1.3-11.132,2.426-16.755,3.254a39.831,39.831,0,0,0-17.524,7.082c-8.683,6.192-13.926,15.175-17.392,21.647-5.485,10.731-8.789,19.054-12.269,27.315-4.02,9.546-3.861,19.172-4.132,28.812-.224,7.825,1.076,15.777,2.452,23.537,1.427,8.055,2.479,16.192,5.4,23.99,3.649,9.738,6.8,19.687,8.382,30.02.693,4.521-.368,9.593.8,13.584,2.025,6.9,2,13.764,1.907,20.533-.192,14.082-2.464,28.058-2.57,42.207-.091,11.969,3.849,21.379,14.491,26.982,7.53,3.961,15.679,7.194,23.548.336,3.168-2.759,7.02-4.014,10.757-5.511,1.4-.557,3.124-1.173,2.8-2.532-1.544-6.516,3.743-4.866,6.667-5.6,4.07-1.023,7.79-2.738,8.65-6.929A116.537,116.537,0,0,1,741.5,386.413Zm-.333-39.546c.867.651,1.471,1.415.825,2.535-.342.6-.8,1.082-1.609.7a1.9,1.9,0,0,1-.628-2.623C740.019,346.823,740.341,346.251,741.163,346.867ZM726.9,368.753c2.57.445,5.32.651,4.721,4.412-.648-.065-1.435.027-1.833-.324-1.444-1.27-4.359-.74-4.506-3.478C725.245,368.582,726.176,368.627,726.9,368.753Zm-9.272,14.2c1.863.363,2.039,2.216,1.429,3.749-1.2,3.03-3.339.855-6.51,1.235C715.133,385.564,714.673,382.375,717.632,382.953ZM709.4,396.036a1.035,1.035,0,0,1-1.149-1.314c.855-2.994,3.743-2.122,5.889-3.528C714.069,394.969,711.9,395.729,709.4,396.036Zm6.286-14.12c-.351.587-.59,1.241-1.185,2.523-.672,3.587-5.269,4.836-7.159,8.349a1.5,1.5,0,0,1-2.24.454,3.027,3.027,0,0,1-1.471-2.546c-.354-3.05,3.787-9.313,7.085-10.5.922-.333,2.019.044,2.829-.9s2.066-1.677,3.142-.675C718.322,380.138,716.312,380.878,715.687,381.915Zm-2.14-11.5a5.24,5.24,0,0,1,1.046-.831c0,.3.009.6.015,1.032-.324.209-.7.448-1.07.69C713.533,371,713.4,370.607,713.547,370.418Zm1.86,2.128c.138-.177.548-.144.837-.206-.018.318.062.71-.094.922-.13.171-.545.133-.834.186C715.336,373.139,715.248,372.747,715.407,372.546Zm12.452-14.931c.253,2.228-.271,3.492-2.249,3.593a1.358,1.358,0,0,1-.955-.931C724.7,358.529,726.144,358.2,727.859,357.616Zm22.484-38.063c2.37,1.317-.047,4.161,2.016,5.146-.976,1.786-1.9,1.86-2.891,1.146-1.892-1.359-1.833-3.5-1.665-5.405C747.9,319.375,749.347,319,750.343,319.552Zm-9.2,1.205c.522.127,1,.427.392.981-.168.153-.619,0-.934-.018l-.362-.837A2.613,2.613,0,0,1,741.139,320.758ZM736.17,328.3c-.171,3.059,3.174,5.149,1.624,8.1-.548,1.043-1.757.528-2.142-.133-1.285-2.2-4.253-3.755-2.941-7.023C734.172,329.464,736.259,326.723,736.17,328.3Zm-2.311-2.446c1.026,1.512-.407,2.3-1.179,3.263-.513-1.04-2.479-1.627-1.008-3.289A1.322,1.322,0,0,1,733.859,325.856Zm-11.306,16.189c-.48.878-1.3.9-2.148.475-.76-.421-1.477-.931-1-1.93.542-1.147,1.459-1.191,2.49-.622A1.4,1.4,0,0,1,722.554,342.045Zm19.248-37.99c.643,1.471-.029,2.261-.825,3.186-.993,1.161-2.081,1.026-3.195.233-1.264-.9-2.5-1.842-3.76-2.747-.9-.645-2.653-.875-1.783-2.505.666-1.25,1.695-.168,2.644.062,4.633,1.12,1.992-3.769,4.536-5.184C740.187,299.4,740.815,301.807,741.8,304.056Zm-44.836,16.811c-3.914,3.442-7.259,2.638-8.111-2.555-.536-3.271-3.269.038-3.846-1.883,0,.053.018.088.02.141a15.911,15.911,0,0,0-5.317-5.42c1.214-2.063-.872-2.476-1.836-3.451-.012.021-.006.035-.015.059q-1.057-1.194-2.113-2.381c1.727-2.732-.537-3.7-2.243-4.919l0,.1c-1.733-3.227,3.13-3.593,2.829-6.2-2.145.875-5.113,2.6-5.641-.908-.309-2.066-4.624-6.23,1.978-7.518,2.122-.413,5.24-1.335,6.781-3.876,4.4,2.128,4.291,7.483,7.495,10.6,1.35,1.312-.563,2.39-2.093,2.258-1.394-.118-2.726.059-2.49,1.589.245,1.612,2.028.7,3.08,1.058,1.594.548,2.62-1.456,4.391-.672a5.734,5.734,0,0,1,2.965,8.134c-1.085,2.166-2.346,4.241-3.979,7.162,1.029-.763,1.27-.911,1.471-1.1,2.128-2.025,2.092-6.664,6.092-6.222,4.344.477,3.027,5.532,5.17,7.981.457.522-.908,2.387,1.076,1.957,1.624-.354,3.646-2.075,4.574.041.94,2.137-1.8,3.413-2.815,5.116-.781,1.311-2.6,1.291-3.76,1.034-2.143-.478.516-2.42-.713-3.484C698.175,317.925,698.11,319.859,696.966,320.867Zm12.367-9.036c.451-.9,1.191-.242,1.874-.354.277.474.837,1.076.716,1.285-.572.984-1.45.419-2.243.23S709.126,312.243,709.333,311.831Zm-1.984,6.92c2.007-1.09,3.434-2.744,5.161-4.076,3.05-2.352,2.605-3.787-.445-5.5-1-.56-3.159-1.014-2.063-2.85.934-1.562,2.479-.318,3.708.1a26.048,26.048,0,0,1,2.664,1.285c1.208,2.39,7.978,2.352,3.613,8.161-.433.578,1.3,5.087,2.355,7.648.5,1.211.878,2.372.118,3.407-1.129,1.541-2.193-.018-3.068-.472-3.725-1.927-8.155-1.085-11.836-3.292C704.915,321.586,704.806,320.133,707.349,318.751Zm15.452-9.074a7.7,7.7,0,0,1,.857-1.064,5.079,5.079,0,0,1,.6.816,4.117,4.117,0,0,1-1,.8C723.223,310.251,722.757,309.753,722.8,309.676Zm27.447-32.514c-.61.684-1.415,1.927-2.526.981-1.65-1.4-.521-3.112-.136-4.7l-.026-.012c1.6-.6,3.392-2.284,4.721-.433C753.523,274.728,751.316,275.963,750.249,277.162Zm-20.179-3.289c3.292-1.105,4.951,1.149,6.764,2.832C732.931,276.361,732.931,276.361,730.07,273.873Zm.1,9.413c1.373-1.167,2.34-1.986,3.6-3.059C734.148,283.216,732.851,283.7,730.173,283.287Zm2.163,8.008c1.559,1.347,4.079,2.163,2.243,5.19-1.568,2.585-3.5,3.431-5.809,1.335-1.954-1.777-6.018-3.13-4.271-6.446C726.329,287.893,729.61,290.363,732.336,291.294Zm4.606-.581a9.522,9.522,0,0,1-2.378-6.416c.036-1.176,2.936-2.573,4.7-1.485,2.888,1.777,1.25,4.011.115,5.818C738.593,289.723,738.725,292.512,736.942,290.714Zm10.5-17.327c-1.279-.634-3.781.654-3.584-2.19a3.253,3.253,0,0,1,1.789-2.956c1.22-.533.66.843,1.173,1.117C748.87,270.446,748.637,271.86,747.446,273.387Zm8.968-9.97c.336.69-.191,2.617-.657,2.744-2.37.642-2.9-1.568-4.347-3.327C753.435,262.509,755.194,260.906,756.415,263.417Zm7.483-36.955c1.029.554.672,1.326.262,2.084-.439.489-.872,1.085-1.624.651-.993-.572-.578-1.438-.253-2.154A1.091,1.091,0,0,1,763.9,226.461Zm-2.225,3.914c.368.183.592.654,1.294,1.5-1.553-.218-2.1-.141-2.361-.38-.239-.221-.162-.781-.224-1.191A3.263,3.263,0,0,1,761.672,230.375Zm-6.045-.539c1.155-.354,2.211.955,1.777,2.4-.884,2.941,1.759,5.084,1.627,7.851a7.054,7.054,0,0,0,.489,2.122c-1.02,2.37-2.573.581-3.8.911-.949.253-3.109.065-2.549-1.494,1.12-3.127-.289-5.995-.277-8.977C752.91,230.393,754.623,230.142,755.628,229.836Zm-2.44,22.437c-.009,1.02,1.645,1.916,3.024,2.482,2.355.967,1.247,2.832.548,4.368-.757,1.662-2.2,1.167-2.93.271-3.457-4.253-5.948-9.251-10.168-13C747.856,247.11,753.237,245.571,753.187,252.273Zm-25.152,19.413c-1.368,2.028-2.673.224-3.958-.339a15.278,15.278,0,0,1-1.359-.752c-.065.085-.127.168-.189.253-1.877-1.509-3.734-3.042-5.635-4.518a1.69,1.69,0,0,1-.4-2.647c.672-.949,1.653-1.565,2.62-.81,2.381,1.86,5.638,2.272,7.58,4.937C727.614,269.066,729.194,269.962,728.036,271.686Zm-6.787-11.642c1.948-1.279,3.56-1.933,5.1-.448a1.392,1.392,0,0,1-.451,2.207C723.91,263.057,722.819,261.463,721.248,260.045Zm20.616-17.12c.707.407,1.518.928.719,1.892a1.64,1.64,0,0,1-2.4.469c-.687-.483-.362-1.253.012-2.019C740.6,242.444,741.272,242.586,741.864,242.925Zm-6.8,5.022c-2.446,1.986.71,5.317-1.5,6.879-1.586,2.691-8.488,3.221-10.268,1.176a2.315,2.315,0,0,1-.368-2.859c.678-1.105,1.429-.33,2.175.074,2.585,1.4,3.784,1.285,3.215-2.287-.295-1.854,4.7-2.647,1.665-5.685.433-.218.911-.681,1.3-.616C733.179,244.955,733.892,246.729,735.065,247.947Zm.3-17.147c1.777.333,3.772.268,5.2,2.449C738.168,233.3,737.134,231.206,735.366,230.8Zm17.618-19.864c.177.256.357.513.534.769-.162.044-.4.174-.472.112a4.269,4.269,0,0,1-.528-.69Zm-8.3,13.82c-1.4,1.824-2.5.76-3.5.321-1.754-.781-2.284-2.025-.967-3.675.737-.922,1.736-2.461,2.794-1.208C744.057,221.422,744.228,223.387,744.688,224.755Zm5.741-14.659c-.828.622-2.29,1.877-3.053.215-1.665-3.607-5.673-4.595-7.893-7.509A3.014,3.014,0,0,0,741,200.24c.165-1.223-2.311-2.311-.41-3.569,2.057-1.365,2.3,1.394,3.613,1.9,3.737,1.447,3.613,6.351,7.292,8.143C752.872,207.384,751.5,209.291,750.429,210.1Zm-9.661,9.534c-.7,1.176-1.533,1.848-2.9.887-1.344-.94-.978-2.069-.309-3.136a1.831,1.831,0,0,1,2.638-.719C741.7,217.428,741.478,218.469,740.768,219.63Zm-1.394-16.779c.044,2.2,4.238,2.143,2.98,4.427-1.5,2.729-3.952-.309-6,.012a22.366,22.366,0,0,0-2.425.489c-.716.194-1.5.265-1.618-.566a2.025,2.025,0,0,1,.7-1.733C735.08,204.5,737.243,203.706,739.374,202.851Zm11.8-3.13a5.2,5.2,0,0,1,.5.628c-.245.109-.486.215-.728.318a4.293,4.293,0,0,1-.139-.769C750.809,199.836,751.136,199.686,751.174,199.721Zm1.347-4.68a2.413,2.413,0,0,1-.973,2.093c-1.889.837-2.066-1.093-2.741-2.09a13.925,13.925,0,0,1-1.02-2.216,5.987,5.987,0,0,0,1.86.156A2.3,2.3,0,0,1,752.521,195.041Zm-4.612-5.865a1.358,1.358,0,0,1,1.285.2c.737,1.606-.551,2.408-1.444,3.357C747.21,191.516,746.382,190.255,747.909,189.176Zm-3.348,4.674a1.151,1.151,0,0,1-.893-1.359l1.35,1.2C744.864,193.747,744.679,193.892,744.561,193.85Zm.457-10.631c-.23.027-.463.053-.693.077q-.04-.977-.079-1.96c.289.032.681-.041.849.121C745.69,182.032,745.392,182.642,745.018,183.22Zm4.659-10.536A1.641,1.641,0,0,1,747.9,174.2c-2.405-.365-2.29-2.119-2.019-4.02C747.543,170.52,749.574,170.311,749.677,172.683Zm-87.45,110.424c-1.609-4.854-1.662-9.864-2.561-14.774-2.081-11.409-3.192-22.847-1.966-34.465.781-7.386,3.159-14.4,4.495-21.65a1.767,1.767,0,0,1,.451-.928c7.377-6.82,6.994-17.539,13.065-25.32a85.655,85.655,0,0,1,18.234-17.692c4.474-3.13,11.152-3.3,16.929-4.309,3.168-.554-.649,3.03,1.535,3.507,3.2-.952,4.8-4.477,8.5-4.975a10.93,10.93,0,0,1,4.907.457c.955.289,2.137.613,2.022,1.9-.115,1.332-1.144,1.25-2.272,1.291-3.82.139-3.6,3.463-4.412,5.939l-.042-.006c1.447.793,2.39.059,3.643-.769,5.491-3.619,13.5-1.043,15.962,4.966.616,1.5.616,1.5-1.208,2.641l.062.153c-.08,4.209,3.351,5.977,5.841,8.4l.088-.074.056.065c-2.2.946-.224,3.693-2,4.842-2.311.4-3.758-.295-3.333-2.968.33-2.051-.89-3.958-2.228-4.191-4.191-.731-7.8-3.879-12.567-2.579-1.848.5-3.283.634-3.828,2.623-.342,1.25-.79,2.6-2.411,1.68-1.3-.737-3.454.15-3.973-1.871-.5-1.972,1.642-1.256,2.387-2.025.781-.808,1.447-1.73.993-2.762-.536-1.226-1.771-1.076-2.632-.407-1.748,1.365-5.47-.445-5.623,3.422,2.608,2.1-.026,2.938-1.02,4.17,3.065,2.47,5.237,5.187,2.352,9.437,1.382-1.261,2.8-1.992,4.524-1.27.7,1.863-3.168,3.678-.7,4.919,3.716,1.869,4.987,8.17,10.955,6,2.6-.946,4.094-1.91,3.148,3.009-.978,5.078-2.478,11.4,2.378,16.348,2.405,2.449-.389,4.984-1.476,6.852-.875,1.506-1.739,1.919-.964,4.076,1.035,2.874-.469,5.721-3.08,7.613-.5.365-1.639.79-1.739.648-3.781-5.193-9.069.943-13.481-1.774-1.323-.816-4.544.18-6.953.106-2.871-.085-3.985,2.3-4.288,4.81-.439,3.646-2.334,5.877-5.715,7.259-1.438.587-2.573.513-3.027-.678-.487-1.285-.619-3.351-2.234-1.842-1.055.987-3.148,1-3.283,2.859-.156,2.122,1.736,2.37,3.095,2.944,1.093.463,2.812,1.264,3.407.808,4.816-3.7,7.645.666,10.97,2.57,2.393,1.373,4.338,2.909,7.577,2.417,3.348-.51,3.578,3.575,5.461,5.364-2.29,1.149-1.689,6.7-6.569,4.105-1.559-.825-4.1-2.016-5.057,1.459,1.388,1.341,7.6-2.387,4.108,4.536,2.856-2.9,7.916-.643,9.139-6.113.372-1.659,3.979-.9,4.91,1.948.622,1.913,1.6,3.581,4,3.1,1.55-.312,3.218-2.007,4.332.448.531,1.167-.687,1.807-1.379,2.543a3.563,3.563,0,0,1-5.119.625c-1.942-1.326-3.876-2.667-6.7-4.615.8,2.782,2.532,2.991,3.581,3.879,1.105.934,3.2,1.2,2.552,3.363a5.4,5.4,0,0,1-3.089,3.837c-4.241,1.851-4.616,3.976-1.429,7.731,2.8,3.295,6.905,4.533,10.613,6.4,1.388.7,3.84,1.011,2.759,3.507-.973,2.246-2.953.8-4.056.274-2.313-1.1-5.025.189-6.979-1.173-2.514-1.751-1.668,3.207-4.05,1.633-1.96-1.294-.81-4.088-3.08-5.137-3.036-1.4-6.846-1.712-8.344-5.476-2.255,2.44-1.3,4.147,1.226,5.665.893.533,2.529.922,1.653,2.623-.707,1.379-1.883,1.341-3.092.734-1.653-.828-4.686,1-5-.887-.663-4.008-5.806-8.179.451-12.517,1.889-1.309,1.863-5.579,3.537-8.458-1.376,2.8-3.127,4.409-6.089,2.714.445,2.776,1.559,5.5-.5,8.232-1.105,1.465-2.319,1.314-2.841.159a42.328,42.328,0,0,0-11.361-14.539c-.5-.43-1.046-.934-.7-1.759a1.51,1.51,0,0,1,2.187-.719c3.878,1.541,6.245-.6,5.824-3.837-.439-3.351-4.073-5.671-7.289-5.125-3.047.516-5.284.749-7.244-1.768-1.45-1.863-2.582,1.88-4.129.25-.1-.106-1.067,1.264-.48,2.075,2.21,3.059.289,3.811-2.287,4.244-1.152.192-2.16.849-1.677,2.01.613,1.482,1.647,1.014,2.909.295,1.6-.914,4.63-2.776,4.96-1.91.972,2.555,4.244,4.391,2.935,7.745-4.621.307-8.674,2.888-13.38,3.3C663.592,285.479,663.07,285.653,662.227,283.107Zm66.283-90.318c-1.323-.878-2.364-1.845-1.255-3.033,1.07-1.149,2.32-2.635,4.315-1.706,1.182.551,1.486,1.556.554,2.42C731.048,191.469,730.665,193.954,728.51,192.789Zm-2.178,6.225a2.148,2.148,0,0,1-1.73.545,1.275,1.275,0,0,1-.917-1.9c.41-1,1.173-.984,2.022-.483C726.615,197.537,727.072,198.206,726.332,199.014Zm-16.705,60.76c-.445,1.479-2.44.012-3.767-.309-1.1-1.117-3.342-1.574-2.484-3.929a4.28,4.28,0,0,1,5.367-2.935c3.036.884,5.476,1.164,7.928-1.338.769-.781,2.921-1.037,3.578.631.613,1.559-1.3,1.491-2.036,2.21C715.713,256.532,710.983,255.3,709.627,259.774Zm-34.258,117-.292-.321a2.406,2.406,0,0,1,.6-.1c.056,0,.094.262.141.4Zm-.734,14.972c-1.374-.047-.7-1.12-.922-1.842-1.058-3.487-.018-6.537,1.786-9.458-.153,3.257,1.388,6.384.192,9.54C675.425,390.689,675.985,391.792,674.635,391.745Zm.746,15.237c-.808-.23-.793-.846-.557-1.506-3.174-1.916-1.085-4.38-.769-6.661.348,2.21,3.422,4.126.784,6.655.61.2,1.279.374,1.238,1.191C676.07,406.787,675.578,407.038,675.381,406.982Zm2.311,9.01a16.621,16.621,0,0,1-1.27-2.275c2.464.707,4.008,1.291,3.6,2.561C679.575,417.671,678.384,416.778,677.691,415.991Zm5.432-16.248c3.59,3.36,2.862,7.483,4.963,10.318C682.87,408.715,684.582,404.076,683.123,399.743Zm-1.285,19.007a1.2,1.2,0,0,1-.265-.289c.088-.068.215-.215.259-.192.109.05.18.18.265.28C682.009,418.62,681.876,418.773,681.838,418.75Zm5.382-7.191.9-1.2c-.083.519-.162,1.04-.245,1.562Zm34.3-15.1c-5.971,6.407-13.881,10.71-19.116,17.934a5.32,5.32,0,0,1-7.681.908c-2.131-2.069-2.534-5.729,1.4-7.622,2-.964,3.1-2.434,3.251-5.5-1.73,1.58-3.171,2.505-4.085,3.8-2.726,3.867-5,3.716-6.484-.728-2.054-6.139-5.688-11.972-4.085-18.936.183-.793.728-2.275-1.156-2.087-2.263.23-1.241-1.5-.754-1.745,3.227-1.621,3.69-4.978,4.866-7.86-.23.413-.454.825-.69,1.235-.949,1.645-2.154,4.111-4.114,2.82-1.774-1.167-.2-3.825.84-5.063,2.075-2.464,3.236-5.311,4.5-8.058-.519.716-1.046,1.559-1.686,2.3-.716.837-.967,2.605-2.588,1.925-1.459-.613-.6-1.986-.71-3.124-.528-5.638.083-10.893,3.534-15.623.79-1.082-.236-1.8-1.135-2.349-.124,1.073-.5,2.3-1.553,2.349-2.116.085-.416-1.37-.577-2.1-.507-2.284-2.7-1.96-3.784-1.715-3.89.878-3.926-1.521-4.159-4.105-.707-7.843-2.322-15.561-2.983-23.43-.38-4.53-2.261-8.915-3.734-13.318-1.783-5.329-2.67-10.993-4.718-16.307a1.35,1.35,0,0,1,1.385-1.762,2.339,2.339,0,0,1,2.514,2.093c.787,3.112,1.494,6.289,3.492,8.912a7.353,7.353,0,0,0,1.992,1.373c-.112,1.957-.065,3.843,2.193,4.754.33,1.126,1.394,1.6,2.16,2.343-1.025,1.966.422,2.7,1.795,3.472a8.473,8.473,0,0,0,5.39,5.364c.271,3.619,1.594,5.178,4.253,6.375,1.391.628,4.164.7,3.345,3.672-.121.43-.021,1.32.171,1.379,8.332,2.588.074,5.1,0,7.63,1.5,1.276,2.358.442,3.248-.89,1.194-1.78,1.889-4.3,5.007-3.546a1.547,1.547,0,0,0,1.73-1.562c-.551-7.486,4.775-3.557,7.412-3.481,3.867.112,7.115,3.139,11.294,3.1,2.977-.027,2.98,3.263,3.363,5.066.448,2.1-1.922,1.238-3.1,1.158-7.627-.528-7.61-.554-9.2,6.678a15.9,15.9,0,0,1-1.02,2.573c3.345-1.055,6.006.542,8.579,2.2,1.595,1.032,2.956,2.417,4.527,3.487,2.49,1.695,5.691,3.1.059,5.052-1.123.392-1.715,2.47-2.435,3.831-2,3.8-4.966,6.015-9.4,5.862-3.195-.106-6.192,1.589-5.8,4.394.6,4.262-1.055,5.759-4.506,6.781-.368.109-.471,1.108-.678,1.751-.006-.018,0-.038-.009-.056-.646,2.316-2.567,4.312-.71,7.212.846,1.32-.2,3.613-1.314,5.228,1.2,1.135,2.9,1.771,3.5,3.5,1.359,3.9,4.079,5.281,7.949,4.035,1.986-.637,7.112,2.122,4.489-4.185-.654-1.574,2.956-2.67,4.433-4.209.872-.911,1.609,1.011,1.945,1.745C722.955,393.1,723.161,394.7,721.52,396.463Zm-17.244-13.74c-3.837.159-1.907-2.788-2.375-4.515,3.375-2.125,3.584,1.158,4.388,2.823C707.267,383.05,704.381,382.72,704.275,382.723Zm23.917,11.338c.961-3.622.088-6.808-.421-10.306-.539-3.708,1.5-7.327,3.881-10.421,2.649,7.191.828,14.692,1.382,22.033.094,1.211-.519,3.637-2.476,3.286C728.372,398.261,727.824,395.44,728.192,394.061Zm-1.933,11.149c-.085-.094-.053-.3-.074-.454l1.432.416A.816.816,0,0,1,726.259,405.21Zm1.53-.118c.065-.651.295-1.188,1.058-1.3.071-.012.283.289.259.41C728.961,404.933,728.619,405.408,727.788,405.092Z" transform="translate(-638.045 -125.28)" fill="#bc7987"/>
      <path id="Path_3035" data-name="Path 3035" d="M662.905,222.635l.094.065.015-.085Z" transform="translate(-615.419 0.715)" fill="#bc7987"/>
      <path id="Path_3036" data-name="Path 3036" d="M748.451,353.478a53.847,53.847,0,0,1,7.507-22.125c7.79-12.2,13.439-25.149,19.016-38.305,1.479-3.492.362-7.851,3.277-10.572,3.413-3.18,4.612-7.153,5.93-11.373,3.463-11.1,10.377-20.563,15.6-31.739,1.615-2.151,1.774-5.5,2.543-8.78a163.869,163.869,0,0,0,4.029-33.74c.047-1.984.027-5.084-1.12-5.788-5.1-3.136-6.057-9.11-9.876-13.118a40.65,40.65,0,0,0-19.062-11.085,29.761,29.761,0,0,0-18.889,1.37c-6.726,3-15.794,1.565-19.826,10.053-.6,1.258-2.794,2.334-3.658.442-1.757-3.855-3.118-1.521-4.377.038a29.535,29.535,0,0,1-4.8,4.58c-2.853,2.261-5.385,5.069-3.608,9.4.354.866.021,2.045-.088,3.068-.943,8.647-2.086,17.247-5.352,25.414a11.941,11.941,0,0,0-.828,5.476c.528,7.365.136,14.939-2.968,21.594-3.861,8.293-3.2,17.627-7.1,25.812a14.559,14.559,0,0,0-1.488,7c.84,11.226,2.181,22.352,7.607,32.57,1.494,2.818,1.329,5.473-3.089,6.127-6.2.914-7.333,2.8-8.019,9.543-.961,9.4-3.522,18.3-9.166,26.092-.7.964-1.677,2.084-1.686,3.139-.053,9.349-2.891,17.954-6.726,26.307-2.708,5.9-1.556,13.864,2.912,18.55,2.611,2.735,5.016,5.821,5.956,9.337,1.981,7.389,11.91,15.835,19.558,15.514,4.922-.209,9.022-2.181,13.31-5.078,5.924-4.005,9.514-9.8,14.141-14.727,6.065-6.466,7.5-15.441,9.673-23.593C750.493,374.73,747.131,364.117,748.451,353.478Zm53.085-144.888c-.024.062-.136.088-.253.115l.321-.56A1.838,1.838,0,0,1,801.536,208.589ZM720.606,220.1a162.391,162.391,0,0,0,5.376-25.482c.1-.849.542-1.972.165-2.5-1.6-2.266-.542-3.867.987-5.461.742-.778,2.057-.716,2.178-.015.365,2.134,2.714,3.652,1.872,6.083a46.919,46.919,0,0,1-2.043,5.334c-1.164,2.373-2.9,4.624,1.176,6.024,1.332.46.961,1.568.13,2.473-2.054,2.237-1.25,5.273-2.113,7.86-.531,1.592.224,2.927,2.134,3.492a5.7,5.7,0,0,1,1.845,9.888A15.542,15.542,0,0,1,724.8,231.6c-2.977.413-2.655-1.706-1.291-3.56C718.876,226.8,719.81,222.9,720.606,220.1Zm28.429-27.291,2.284.08-.018.021c2.924,3.454,1.7,6.26-1.315,8.783-2.608-.613-6.054,3.36-7.91-1.359C743.777,197.225,746.96,195.53,749.034,192.807Zm-9.8,16.652c.109,1.63.206,1.9.749,1.742,1.406-.407,3.171-1.544,3.646.746.516,2.5-2.314,1.123-3.26,2.21-.875,1.008-2.057,1.96-3.554.89a2.52,2.52,0,0,1-.875-3.183C736.506,210.343,737.024,208.675,739.235,209.459Zm.059-1.255.445.1c-.138.265-.274.531-.413.8C739.318,208.8,739.306,208.5,739.294,208.2Zm2.667-7.8c-.383,1-.295,2.346-1.848,2.449-.209.015-.64-.424-.643-.66C739.447,200.428,740.95,200.753,741.961,200.4ZM709.89,282.184c-.645.024-1.586-.274-1.421-1.1.548-2.773-1.173-6.3,3.006-8.364-.18,2.747-1.064,5.184-.259,7.639A1.4,1.4,0,0,1,709.89,282.184Zm12.623-22.534a14.944,14.944,0,0,1-7.512.021c-1.285-.315-1.158-2.744-.731-4.085,2.081-6.525,5.473-12.676,5.376-19.805a2.614,2.614,0,0,1,2.16-2.62c1.3-.236,1.924.563,2.243,2.1.692,3.354,3.778,3.852,6.436,3.8,1.518-.027,2.591.088,3.6,1.073-3.7,1.079-6.092,3.7-8.24,6.726-.864,1.217-1.689,2.184-.763,3.681,1.276,2.06,1.194,3.492-1.662,3.884a1.969,1.969,0,0,0-1.07,1.6C722.483,257.283,725.651,258.713,722.512,259.65Zm11.63-19.549c.242-1.892-3.345-4.769,1.161-5.464,2.089-.321,5.7-1.748,6.186,1.167.389,2.325-2.794,3.861-5.535,4.008C735.318,239.847,734.676,239.556,734.142,240.1Zm5.314-14.547c.675-1.636,2.143-.81,3.094-.551a1.8,1.8,0,0,1,1.424,2.387,4.024,4.024,0,0,1-3.625.808A1.946,1.946,0,0,1,739.456,225.553Zm-6.407,23.056c1.477-.878,2.774-1.845,3.946-.265,1.291,1.739-.053,2.971-1.674,3.286-1.969.383-2.546.445-1.338,2.72.687,1.294-1.695,2.373-3.327,2.773l-.021-.009c.018-.015.041-.006.059-.027C730.821,254.094,729.382,250.788,733.049,248.61Zm-3.33,8.3c-.56.23-1.014.973-1.671.731C728.257,255.739,729.011,256.434,729.718,256.912Zm-16.566,48.031c-.51-1.023-1.1-1.674-.133-2.549a1.44,1.44,0,0,1,2.234.3c2.594,3.967,4.907.587,7.318-.186-4.615-2.676-9.7-14.273-7.356-18.155,1.636-2.706,3.655,1.087,5.691.9l-.018.027.035-.024h0l-.018-.012c-3.543-1.273-3.672-4.833-3.413-7.291.274-2.629,1.182-6.127,4.833-6.888,1.088-.227,3.363-1.105,1.969,1.754l.044.05-.038-.041-.015.032c.029.018.047.018.077.038l.009.012c.339,1.957,2.72,1.37,3.525,2.773.769,3.519-3.062,4.164-4.253,6.493-.557,1.082-1.562,1.925-.737,3.177a2.031,2.031,0,0,0,3.13.548,2.222,2.222,0,0,1,2.95.2c-1.058,2.146-2.311,4.108-4.925,4.5-4.37.654-2.75,2.281-.751,4.038a3.256,3.256,0,0,0,2.166,2.393c-.864,1.594-.038,3.734-1.636,5.093a4.126,4.126,0,0,1,3.713-.289q-.986,1.76-1.969,3.522c-1.686-.5-2.493.728-3.378,1.8C719.106,306.867,715.377,309.417,713.152,304.943Zm39.814-76.348a11.3,11.3,0,0,1-2.1,5.841c-.719-.189-1.547.433-2.2-.224C750.484,232.644,750.358,229.544,752.966,228.595Zm-6.616,11.86q-.3,1.534-.6,3.071c-.8-.749-1.928-1.338-1.409-2.75C744.8,239.526,745.678,240.608,746.35,240.455Zm1.1-5.426c-.171-.875.36-.672.775-.648C747.968,234.6,747.711,234.814,747.452,235.029Zm-43.021,96.333c-.109-1.518-.233-4,2.039-4.073,2.069-.074,1.816,1.827,1.683,3.5-.15,1.892,2.723,3.831.024,5.732C705.242,336.045,704.6,333.666,704.431,331.362Zm3.781,5.234c2.932-.5,4.1.5,3.174,3.649-.578,1.96-.884,4.014.251,5.948-4.241.088-2.552-5.06-5.314-6.3C706.951,338.789,707.582,337.692,708.213,336.6Zm-5.252,5.066c.41-1.807,1.362-2.567,3.115-1.677-.6,1.12.545,3.207-1.766,3.325A1.237,1.237,0,0,1,702.961,341.662Zm-8.3,27.424c-2.656-3.283-.136-6.068.569-9.841C697.246,363.315,697.9,366.354,694.661,369.086Zm11.429-21.409c1.83-2.14,3.36-1.777,4.636.457a12.946,12.946,0,0,0-1.029,1.02c-1.1,1.5-2.087,3.734-4.326,2.084C703.974,350.209,705.183,348.738,706.09,347.677Zm-15.868,31.574c-.224.245-.448.492-.672.737l.362-1.008Zm-.754.97a6.3,6.3,0,0,1,1.256.312,104.019,104.019,0,0,1-1.848,15.944C685.528,390.828,687.67,385.532,689.468,380.221Zm33.76-23.386c-.059,3.115-2.561,4.866-4.064,7.176-3.248-1.807-3.531-3.584.206-5.334C720.661,358.072,721.944,357.45,723.229,356.834ZM711.82,370.784c-2.334.545-3.319,2.685-4.928,4.1-1.309,1.152-3.448,1.783-4.536.1-1.4-2.172.118-2.717,2.287-3.015,1.335-.183,3.051-1.653,1.68-3.451-2.664-3.492.4-4.014,2.423-5.034,1.954-.984,3.991-1.8,6.5-2.915-.018,3.764-.029,6.118-.041,8.45C713.506,368.458,712.8,369.908,711.82,370.784Zm8.594-23.911c-1.4-.569-2.19-2.605-1.138-3.448,2.216-1.774,4.58-4.141,7.866-3.151,1.382.416.357,1.733,0,2.959C724.428,343.38,724.222,348.429,720.414,346.873Zm-2.561,6.148c-3.109,3.955-5.853,6.472-10.318,6.658C708.566,354.294,712.663,353.828,717.853,353.021ZM701,382.938a4.929,4.929,0,0,1-1.969-5.8c.324-.937,1.795-2.09,2.287-1.082.911,1.869.978,4.144,1.479,6.673A1.174,1.174,0,0,1,701,382.938Zm-.05,15.538c-3.8-.89-3.192-3.313-2.467-5.918.758-2.738.828-6.384,5.32-4.786a23.229,23.229,0,0,1,4.3,2.608c-.038,1.981,1.924,3.911.242,5.936-1.338-1.135-2.119-.224-2.88.778C703.756,396.74,702.887,398.927,700.953,398.476Zm22.7,17.056c-2.629,2.051-5.214,4.309-8.17,5.744-2.119,1.029-5.546,2.269-5.39-2.567.032-.964-.233-1.992-.981-2.225-4.445-1.382-4.78-6.236-7.725-8.942-3.018-2.779-.177-5.379,1.476-7.56.719-.946,2.025-1.527,2.656-2.708,1.353,1.143,2.089.024,2.888-.867,2.355-.7,3.21,1.306,4.48,2.558a10.9,10.9,0,0,0-1.907,2.832c-.425,1.365-3.493,1.4-2.119,3.071,2.284,2.776,3.41,8.143,8.93,5.62a6.026,6.026,0,0,1,4.442-.256C724.891,411.131,727.151,412.793,723.65,415.531Zm6.23-11.459c-2.582-.139-4.851,2.93-7.745,2.311-2.349-.5-5.252-.584-5.246-4.509,0-1.553-2.317-2.34-3.914-3.024l-.05.062c-1.789-3.719,1.945-5.228,3.186-7.733q1.6.261,3.192.519l2.635-4.518a12.245,12.245,0,0,1,7.548,1.37c-1.444-3.021-.984-5.411,1.839-7.4-3.778,1.925-4.771-.071-4.577-4.12.015-.315-.725-.672-1.114-1.008-.64.937-.469,2.776-2.387,2.278-.059-1.465-1.164-1.992-2.311-2.479.018,1.5,1.282,1.889,2.246,2.546,2.932,3.416,2.476,6.322-1.285,8.733-1.58-.5-3.283-.911-2.2-3.26h0l.006-.015c-.018,0-.029,0-.044,0l.029.009c-2.376,1.863-1.347,5.458-3.722,7.321l.018,0c-2.815,1.83-5.4,1.574-7.748-.881a12.22,12.22,0,0,1,3.333-6.266c4.374-4.067,4.2-6.107.021-10.931-.69-.8-.124-1.533.292-2.243,1.476.174,2.4-.778,3.348-1.659.61.893.9,2.075,2.137,2.393a5.347,5.347,0,0,0-.881,3.177q.955-1.335,1.91-2.667a4.23,4.23,0,0,1,2.782,1.518,14.68,14.68,0,0,1-1.86-9.234c1.138,1.093,3.156-1.014,4.052.952.112-3.979,3.991-6.148,4.733-9.82-1.253,1.659-2.257,4.226-4.76,1.276.15-.309.471-.663.407-.925-1.264-5.234.9-6.667,6.039-6.67,3.793,0,5-3.737,5.729-7.109.693-3.212.9-6.555-2.434-8.223-2.776-1.382-4.948-4.238-9.26-2.393-4.459,1.907-10.041-4.1-8.17-8.456a19.886,19.886,0,0,0,1.6-9.938c-.171-2.037.074-4.132,2.944-2.249a4.125,4.125,0,0,0,1.008,4.223c1.079-.539,1.4-1.609,1.807-2.623a1.8,1.8,0,0,0,2.411.018,2.619,2.619,0,0,0-2.411-.159q-1.353-.747-2.708-1.488c-.315-1.742,1.2-2.461,2.022-3.569a2.757,2.757,0,0,0,3.342-1.715q1.574.314,3.151.631c.483,2.4-.858,4.182-2.148,5.977,1.429-1.244,2.832-1.913,4.111.065l1.273-4.615s.071-.012.059-.015c-1.474.351-2.211-.772-3.145-1.488,1.565-1.989,1.152-3.422-1.2-4.306.306-.772.471-1.642,1.427-1.948h-.047c-.527-1.789-2.652-1.577-3.578-2.865-.162-1.279-1.347-1.639-2.157-2.34,3.277-2.476,7.692-3.277,10.124-7.1.419-.66,1.683.115,2.037,1.22,1.085-4.38-2.915-11.311-7.589-13.145,1.238-2.216-1.524-5.88,2.656-7.126,1.026-.306,1.925-1.839,2.974-.628.415.477.006,1.665-.13,2.614,1.123-.439,2.152-1.491,3.487-.589.592-.919,1.152-1.765.687-3.05-.931-2.582.206-2.458,1.927-1.3.436-.4.87-.807,1.309-1.208-.142.56-.28,1.123-.421,1.683,2.985.065,4.536-2.125,6.3-3.982l.059.026a20.656,20.656,0,0,0,5.8,7.949c-.56-2.614-2.06-4.382-4.4-6.354,2.918-.483,3.976.849,5.007,1.68,2.467,1.992,3.987,1.108,5.387-1.205,1.583-2.611-.212-3.4-2.157-3.982-1.435-.433-1.468-1.067-.678-2-3.059-1.456-3.946,2.685-6.546,2.644-.928-.015-2.092,1.114-2.8.05-.616-.925-1.158-3.053-.813-3.286,3.6-2.426.982-5.782,1.541-8.606a15.513,15.513,0,0,1,.952-2.629l1.671,1.512v-.059c3.286-4.439-2.128-4.884-3.3-7.274.059-3.033,3.154-3.749,4.456-5.833,2.048.952,3.949-1.58,6.009-.342q.99-1.773,1.978-3.548c-1.706-1.347-4.341-.327-5.839-2.2-.781-5.255-5.847-8.152-7.25-13.159-.345-1.229-.967-2.367-.077-3.189,1.182-1.09,2.16.236,2.992.967,1.78,1.565,3.062,3.767,5.641,4.268-.76,2.361,1.836,2.5,2.667,3.811-.015.265-.027.531-.038.8l.9-.23c6.292,3.7,6.286,3.7,1.426,8.049a1.5,1.5,0,0,0-.286.772c2.155-.3,4.161-1.485,6.431-1.09.81-2.476,3.9-2.334,5.078-4.388,2.157-.716,4.353-1.341,6.442-2.216,1.173-.489,3.1-2.216,1.874-2.756-2.629-1.149-2.287-4.733-5.152-5.24-1.589,2.632-5.55,4.627-2.3,8.612.124.15-.569.964-.967,1.538a77.17,77.17,0,0,1-8.812-4.845,14.706,14.706,0,0,0-2.158-1.291q-.76,1.362-1.523,2.717c-.283-.156-.566-.309-.852-.466-.121-1.762-1.536-2.673-2.573-3.828,1.609-1.388,3.118-.64,4.618.292l2.511-4.447A19.929,19.929,0,0,1,763,217.387c.18,1.733.581,3.5,2.461,3.1,2.122-.451,3.48-3.478,2.862-4.556-.9-1.571-1.435-1.765.239-3.151,2.287-1.9,3.389-.286,4.836.855-.345-2.921,1.515-4.648,3.363-6.381-2.576-.05-5.4,2.131-7.657-.725.053,1.194-.027,3.095-1.076,2.567-4.645-2.328-4.654,2.063-6.4,3.92l.021.05c-1.892,1.1-3.516,1.559-4.494-1.326a17.787,17.787,0,0,0-2.2-3.643l1.907-2.375-.165.1c-.575-1.323-1.863-1.645-3.018-2.149-2.066,2.154-.513,3.3,1.17,4.4.029.315.112.672-.03.852-1.624,2.028,3.932,5.225-.315,5.833-1.966.283-7.386-1.258-5.839-6.555.047-.165.186-.345.147-.483a5.833,5.833,0,0,1,1.294-5.953c.772.041,1.544.08,2.316.121.368-2.717,5.732-3.236,3.041-7.651-.71-1.161,2.134-3.569,4.123-3.905,2.075-.348,1.518,2.178,2.319,3.277a4.918,4.918,0,0,1,1.255,3.734c-.415,3.36,1.913.911,2.9,1.338.66-1.91,1.285-3.828,1.986-5.721.922-2.5,2.373-1.568,3.8-.71-.592-2.464-1.232-4.916-1.745-7.395-.321-1.553-1.438-3.009-2.661-2.266-5.423,3.307-12.054,4.769-16.071,10.256a2.605,2.605,0,0,0-2.293-.109l-2.093-.094c.094-.607.233-1.173.931-1.2-.663-.127-1.444-.516-1.951-.292-1.721.76-3.292,3.652-5.207,1.294-1.35-1.659,1.058-3.268,1.924-4.845a14.964,14.964,0,0,0,1.438-2.765c2.172-7.265,7.457-9.024,14.22-8.025,1.662.245,2.962.312,4.093-1.241,3.837-5.273,9.529-6.113,16.316-3.843,10.861,3.628,14.928,12.658,18.889,21.98l.012-.006c-.377,3.357.646,6.431,1.972,9.443-.224-3.248.8-6.746-1.854-9.5.74-.274,1.718-1.205,2.084-.242,1.751,4.6,4.435,9.16,1.842,14.332-.274-.144-.548-.289-.819-.433a2.114,2.114,0,0,0-.9-2.909c-.416,1.191-.386,2.255.819,2.98l.372,1.362-.053.012c2.163,5.414-.171,9.864-3.036,14.2-.023-.024-.053-.044-.079-.068l-.136.077a1.758,1.758,0,0,0,.212,0l-.006.009-.206-.006c.884.822,1.235,5.278.572,7.474a3.639,3.639,0,0,1-.421.946c-8.635,13.083-12.532,28.4-19.864,42.107-1.845,3.442-5.055,6-6.157,9.873,2.452-1.123,2.59.112,1.747,2.069-3.846,8.918-7.583,17.893-12.555,26.266-3.716,6.269-7.6,12.44-11.311,18.709-5.591,9.434-6.334,19.914-6.3,30.51.044,13.115.819,26.319-6.834,38.072C735.032,401.585,733.989,404.294,729.88,404.073Zm-12.228-32.526c.25-.085.5-.168.752-.253l-.079.657C718.1,371.815,717.876,371.683,717.652,371.547Zm28.193-127.818c1.273.2,2.231.687,2.083,2.2C746.783,245.645,745.336,245.656,745.846,243.729Zm-3.024,17.831c.964-1.583,2.028-.539,3.05.038a7.387,7.387,0,0,0,.872.371,11.869,11.869,0,0,1-1.164.852c-.952.551-1.818,2-3.039.61C742.265,263.113,742.506,262.075,742.822,261.56Zm20.1-72.054c.419-.775.831-1.474,1.91-1,1.185.516,1.338,1.359,1.055,2.019-.666,1.258-1.205,1.771-2.157,1.034C763.042,191.03,762.362,190.532,762.919,189.506Z" transform="translate(-580.6 -109.671)" fill="#bc7987"/>
      <path id="Path_3037" data-name="Path 3037" d="M711.761,205.989c.021-.08.071-.141.092-.221-.068.029-.115.044-.189.077Z" transform="translate(-520.474 -32.088)" fill="#bc7987"/>
      <path id="Path_3038" data-name="Path 3038" d="M703.795,174.661c-.015,0-.021,0-.038,0l.027,0c-.041-.041-.074-.083-.112-.124l-.065.138-.047,0,.041.012Z" transform="translate(-536.256 -92.908)" fill="#bc7987"/>
      <path id="Path_3039" data-name="Path 3039" d="M670.048,173.2l.012.041c.044-.032.086-.053.127-.088Z" transform="translate(-601.51 -95.591)" fill="#bc7987"/>
      <path id="Path_3040" data-name="Path 3040" d="M660.786,180.819c1.736-1.344,2.823-3.522,6.012-2.281,3.21,1.247,1.468,3.551,2.211,5.214,1.624,3.649.018,7.678,1.91,11.143l-.147.1c.08.038.121.1.194.141a1.417,1.417,0,0,1-.041-.227c4.515-2.838,3.062.917,3.189,2.927,3.492,2.331,1.524,4.312-.413,6.292l.053-.009a12.665,12.665,0,0,0,2.113,2.287c1.379.914-.728,4.677,2.146,3.484,2.62-1.088,7.512.038,7.144-5.544-.171-2.579,1.954-4.17,4.1-5.4.012.035.041.068.056.1.038-.068.035-.121.079-.189l.012-.006s-.168.08-.153.074c-.212-1.606-.153-3.478-2.711-2.812a1.392,1.392,0,0,0-.012-.153l-.074.044.086.109h0l-.083-.109c-.277,5.532-5.629,1.314-7.577,3.882-.4.525-1.795-.206-1.933-1.141-.643-4.374-1.957-8.98,2.193-12.423,1.494-1.241,3.79-5.473,4.86.533.153.846,1.789,1.429,2.741,2.134a1.32,1.32,0,0,0,.065.153l.012,0s-.065-.136-.077-.156h0l.074.156c-1.9-3.227.306-5.29,2.358-7.023,1.247-1.052,2.552-1.624,1.68-3.49-3.153,2.5-5.656,2.175-7.336-1.686-1.727,3.66-5.747,3.9-8.733,5.665-.934.554-1.815.592-2.157-1-.625-2.935-2.322-5.856-2.139-8.691.23-3.584-1.294-2.591-2.841-1.712a5.181,5.181,0,0,1-2.614,1.132C659.218,172.638,658.033,175.149,660.786,180.819Z" transform="translate(-622.3 -100.985)" fill="#bc7987"/>
      <path id="Path_3041" data-name="Path 3041" d="M659.962,174l-.029-.071c-.042.032-.08.071-.124.1Z" transform="translate(-621.447 -94.091)" fill="#bc7987"/>
      <path id="Path_3042" data-name="Path 3042" d="M671.011,168.116l-.059-.245-.044.077C670.94,168.01,670.982,168.051,671.011,168.116Z" transform="translate(-599.835 -105.882)" fill="#bc7987"/>
      <path id="Path_3043" data-name="Path 3043" d="M667.41,165.557c-.5,4.559-2.216,8.615,1.126,12.216a2.815,2.815,0,0,1,1.143-2.231c2.712.38,5.8.295,4.724,5.933,2.2-3.949,3.628-6.49,5.04-9.021C676.865,167.753,669.458,172.032,667.41,165.557Z" transform="translate(-608.371 -110.388)" fill="#bc7987"/>
      <path id="Path_3044" data-name="Path 3044" d="M658.984,189.276c-.015.062-.021.127-.036.189l.121-.047C659.045,189.367,659.01,189.323,658.984,189.276Z" transform="translate(-623.124 -64.202)" fill="#bc7987"/>
      <path id="Path_3045" data-name="Path 3045" d="M665.4,194.119c1.491-1.279-.828-7.165-2.567-6.782-3.369.743-3.584-1.871-4.813-3.469-3.837,7.05,2.511,10.9,5.1,15.936C663.607,197.827,663.486,195.761,665.4,194.119Z" transform="translate(-627.264 -74.73)" fill="#bc7987"/>
      <path id="Path_3046" data-name="Path 3046" d="M671.66,178.547l.03-.053-.127.044C671.6,178.535,671.625,178.55,671.66,178.547Z" transform="translate(-598.56 -85.197)" fill="#bc7987"/>
      <path id="Path_3047" data-name="Path 3047" d="M671.351,184.315c1.176,1.615,3.307,3.145,5.281,2.782,2.373-.436,3.162-2.862,3.422-5.2l.071.044c-1.992-1.8-3.979-3.61-6.941-3.422C672.318,180.4,669.612,181.922,671.351,184.315Z" transform="translate(-600.084 -85.171)" fill="#bc7987"/>
      <path id="Path_3048" data-name="Path 3048" d="M668.418,205.1c1.008-.413,1.079-1.023.239-1.883-1.751-1.792-2.484-4.618-4.111-6.074-2.532-2.272-.616-7.586-5.553-7.789.242,6.145,5.541,9.944,7.221,15.44C666.529,205.82,667.693,205.393,668.418,205.1Z" transform="translate(-623.036 -64.061)" fill="#bc7987"/>
      <path id="Path_3049" data-name="Path 3049" d="M658.948,189.373c.05,0,.079.021.133.024a.7.7,0,0,0-.012-.074Z" transform="translate(-623.124 -64.11)" fill="#bc7987"/>
      <path id="Path_3050" data-name="Path 3050" d="M657.777,180.228c.018-.18-.834-.628-1.288-.634-.931-.015-1.126.784-.875,1.438.59,1.541.7,3.867,1.468,4.562,2,1.81-.448,5.9,3.4,6.369C661.12,187.717,657.365,184.451,657.777,180.228Z" transform="translate(-629.811 -83.055)" fill="#bc7987"/>
      <path id="Path_3051" data-name="Path 3051" d="M657.2,183.791c0,.035,0,.068,0,.106l.006,0c.032.038.056.085.086.127.038-.068.041-.124.08-.192C657.3,183.823,657.27,183.8,657.2,183.791Z" transform="translate(-626.53 -74.882)" fill="#bc7987"/>
      <path id="Path_3052" data-name="Path 3052" d="M671.434,183.412a3.285,3.285,0,0,0,1.22.855C672.8,183.751,672.23,183.542,671.434,183.412Z" transform="translate(-598.811 -75.62)" fill="#bc7987"/>
      <path id="Path_3053" data-name="Path 3053" d="M673.774,186.115a5.791,5.791,0,0,1-1.1-4.091C667.659,185.988,671.573,185.746,673.774,186.115Z" transform="translate(-601.151 -78.323)" fill="#bc7987"/>
      <path id="Path_3054" data-name="Path 3054" d="M671.373,164.9c.342-.755.144-1.409-.7-1.553-.386-.065-.849.3-1.279.472,1.094,1.942-.946,3.784-.18,5.721C669.938,167.989,670.672,166.45,671.373,164.9Z" transform="translate(-603.475 -114.712)" fill="#bc7987"/>
      <path id="Path_3055" data-name="Path 3055" d="M673.466,165.538l.041.144c.1-1.5,1.35-2.956.174-4.495C671.191,162.455,669.552,163.782,673.466,165.538Z" transform="translate(-599.416 -118.895)" fill="#bc7987"/>
      <path id="Path_3056" data-name="Path 3056" d="M672,161.252c.05-.024.088-.047.138-.071l.012,0c-.024,0-.026-.018-.05-.024-.041.012-.08.035-.121.047C672,161.22,671.993,161.235,672,161.252Z" transform="translate(-597.74 -118.959)" fill="#bc7987"/>
      <path id="Path_3057" data-name="Path 3057" d="M659.965,173.95l-.156.032c.032.068.071.13.106.195Z" transform="translate(-621.447 -94.045)" fill="#bc7987"/>
      <path id="Path_3058" data-name="Path 3058" d="M660.61,176.119l-.05-.024v.012C660.531,176.116,660.61,176.119,660.61,176.119Z" transform="translate(-619.997 -89.868)" fill="#bc7987"/>
      <path id="Path_3059" data-name="Path 3059" d="M662.221,180.122c.418-2.426-1.132-4.159-2.1-6.095C659.575,176.47,659.015,178.917,662.221,180.122Z" transform="translate(-621.658 -93.895)" fill="#bc7987"/>
      <path id="Path_3060" data-name="Path 3060" d="M660.454,180.246a3.105,3.105,0,0,1,.286,3.666c3.286-2.16-1.253-5.5,1.061-7.79C660.119,177.1,659.243,178.475,660.454,180.246Z" transform="translate(-621.288 -89.813)" fill="#bc7987"/>
      <path id="Path_3061" data-name="Path 3061" d="M660.616,176.117c.024-.006-.056-.009-.026-.018-.024.024-.027.05-.05.071C660.569,176.152,660.586,176.131,660.616,176.117Z" transform="translate(-620.026 -89.86)" fill="#bc7987"/>
      <path id="Path_3062" data-name="Path 3062" d="M660.183,178.831l0,0,.006.006c2.806.793-.13,4.438,2.493,5.317-.1-2.116,1.152-4.851-2.5-5.332.012-.018.012-.035.023-.053-.023.015-.026.032-.05.047Z" transform="translate(-620.76 -84.667)" fill="#bc7987"/>
      <path id="Path_3063" data-name="Path 3063" d="M667.7,200.917l.012.053.141-.032C667.788,200.938,667.759,200.92,667.7,200.917Z" transform="translate(-606.082 -41.534)" fill="#bc7987"/>
      <path id="Path_3064" data-name="Path 3064" d="M666.8,199.242c.916,1.627-.961,4.825,2.65,4.937C669.023,202.275,668.531,200.412,666.8,199.242Z" transform="translate(-607.832 -44.796)" fill="#bc7987"/>
      <path id="Path_3065" data-name="Path 3065" d="M661.226,180.69c-.091-.021-.127-.071-.206-.1,0,.056-.006.115,0,.171Z" transform="translate(-619.095 -81.109)" fill="#bc7987"/>
      <path id="Path_3066" data-name="Path 3066" d="M665.47,188.44c-.643-1.869,1.954-3.946-1.4-4.636C665.526,184.971,662.8,186.987,665.47,188.44Z" transform="translate(-613.156 -74.857)" fill="#bc7987"/>
      <path id="Path_3067" data-name="Path 3067" d="M664.234,183.888c-.05-.041-.068-.088-.13-.127l-.124.059C664.087,183.838,664.137,183.867,664.234,183.888Z" transform="translate(-613.323 -74.941)" fill="#bc7987"/>
      <path id="Path_3068" data-name="Path 3068" d="M671.949,178.708c-.168-.112-.345-.215-.519-.324a1.064,1.064,0,0,0,.389.368Z" transform="translate(-598.819 -85.411)" fill="#bc7987"/>
      <path id="Path_3069" data-name="Path 3069" d="M666.827,199.126c-.029.041-.062.083-.088.124l-.024.009c.1.059.159.144.253.209a1.628,1.628,0,0,0-.136-.265Z" transform="translate(-608 -45.022)" fill="#bc7987"/>
      <path id="Path_3070" data-name="Path 3070" d="M666.662,197.924l.268,3.543C667.782,200.211,669.494,198.9,666.662,197.924Z" transform="translate(-608.103 -47.362)" fill="#bc7987"/>
      <path id="Path_3071" data-name="Path 3071" d="M669.545,204.121a.921.921,0,0,0-.575.693c.206,1.8,1.709,1.615,2.912,1.889C671.137,205.8,671.485,203.906,669.545,204.121Z" transform="translate(-603.61 -35.328)" fill="#bc7987"/>
      <path id="Path_3072" data-name="Path 3072" d="M670,205.051a.429.429,0,0,0,.071-.044c-.035-.009-.077-.012-.115-.021C669.976,205.007,669.984,205.033,670,205.051Z" transform="translate(-601.685 -33.611)" fill="#bc7987"/>
      <path id="Path_3073" data-name="Path 3073" d="M664.1,183.818c-.009-.027-.012-.056-.024-.086-.03.047-.062.094-.089.139Z" transform="translate(-613.316 -74.997)" fill="#bc7987"/>
      <path id="Path_3074" data-name="Path 3074" d="M663.884,182.605c.009-.029,0-.056.006-.085s-.018.08-.018.08Z" transform="translate(-613.536 -77.363)" fill="#bc7987"/>
      <path id="Path_3075" data-name="Path 3075" d="M664.383,186.039c.757-1.253,2.131-2.558-.41-3.492A5.3,5.3,0,0,0,664.383,186.039Z" transform="translate(-613.625 -77.304)" fill="#bc7987"/>
      <path id="Path_3076" data-name="Path 3076" d="M670.723,183.431c1.727-1.618-.472-2.255-.952-3.319C668.975,181.524,669.568,182.552,670.723,183.431Z" transform="translate(-602.759 -82.046)" fill="#bc7987"/>
      <path id="Path_3077" data-name="Path 3077" d="M661.341,182.819c-.1.383-.215.949-.018,1.176s.766.1,1.462.162a5.344,5.344,0,0,0-.613-1.37A1.014,1.014,0,0,0,661.341,182.819Z" transform="translate(-618.711 -76.987)" fill="#bc7987"/>
      <path id="Path_3078" data-name="Path 3078" d="M667.281,172.119c1.365-.516.489-1.385.31-2.131C667.175,170.636,666.432,171.232,667.281,172.119Z" transform="translate(-607.655 -101.76)" fill="#bc7987"/>
      <path id="Path_3079" data-name="Path 3079" d="M667.149,170.545a1.13,1.13,0,0,0,.23-.793l.012-.032-.012-.018c0,.044-.029.071-.026.115A.673.673,0,0,0,667.149,170.545Z" transform="translate(-607.213 -102.317)" fill="#bc7987"/>
      <path id="Path_3080" data-name="Path 3080" d="M670.477,161.548c-.66.1-1.491-.05-1.5,1.079C670.1,163.06,670.173,162.149,670.477,161.548Z" transform="translate(-603.601 -118.194)" fill="#bc7987"/>
      <path id="Path_3081" data-name="Path 3081" d="M669.9,161.646l.236.065c-.035-.053-.068-.106-.1-.159.038-.041.109-.041.139-.1l-.227-.059-.009.009,0,0,0,0a.786.786,0,0,0-.448.442A1.02,1.02,0,0,0,669.9,161.646Z" transform="translate(-602.608 -118.492)" fill="#bc7987"/>
      <path id="Path_3082" data-name="Path 3082" d="M666.566,164.992c0-.186,0-.348,0-.516a4.2,4.2,0,0,0-.784.256c-.071.038-.012.306-.015.469C666.039,165.13,666.3,165.063,666.566,164.992Z" transform="translate(-609.879 -112.493)" fill="#bc7987"/>
      <path id="Path_3083" data-name="Path 3083" d="M672.734,177.534c.221.006.454-.4.678-.625-.121-.274-.239-.542-.354-.81-.274.136-.666.2-.8.421C671.974,177,672.051,177.517,672.734,177.534Z" transform="translate(-597.506 -89.86)" fill="#bc7987"/>
      <path id="Path_3084" data-name="Path 3084" d="M667.607,172.534l-.071.086,0,0c.024.059.05.1.077.153.032-.074.08-.127.112-.2C667.686,172.558,667.648,172.543,667.607,172.534Z" transform="translate(-606.401 -96.802)" fill="#bc7987"/>
      <path id="Path_3085" data-name="Path 3085" d="M670,172.474c-.931-.887-1.9-1.621-2.714.074-.613,1.276.186,1.715,1.223,1.945.545-.678,1.1-1.356,1.645-2.034Z" transform="translate(-607.304 -98.761)" fill="#bc7987"/>
      <path id="Path_3086" data-name="Path 3086" d="M663.952,182.686l1.739-2.358-1.612-.884C664.173,180.511,663.151,181.548,663.952,182.686Z" transform="translate(-613.981 -83.347)" fill="#bc7987"/>
      <path id="Path_3087" data-name="Path 3087" d="M664.338,179.832l.106.059c-.006-.056,0-.13,0-.189l-.006,0Z" transform="translate(-612.628 -82.85)" fill="#bc7987"/>
      <path id="Path_3088" data-name="Path 3088" d="M662.865,189.212a2.99,2.99,0,0,0,1.259-3.077C662.544,186.621,661.945,187.538,662.865,189.212Z" transform="translate(-616.342 -70.318)" fill="#bc7987"/>
      <path id="Path_3089" data-name="Path 3089" d="M663.2,186.144c-.109.012-.141-.038-.23-.041.018.024.047.041.065.065l.035,0a.118.118,0,0,0,0,.032C663.121,186.183,663.151,186.159,663.2,186.144Z" transform="translate(-615.29 -70.38)" fill="#bc7987"/>
      <path id="Path_3090" data-name="Path 3090" d="M665.892,189.954c.2.245.368.64.6.687.206.044.492-.309.743-.489-.2-.245-.365-.642-.6-.69C666.428,189.421,666.142,189.775,665.892,189.954Z" transform="translate(-609.602 -63.846)" fill="#bc7987"/>
      <path id="Path_3091" data-name="Path 3091" d="M670.239,175.816l-.056-.239c-.03.074-.077.15-.053.218Z" transform="translate(-601.362 -90.877)" fill="#bc7987"/>
      <path id="Path_3092" data-name="Path 3092" d="M670.065,175.214c.077.357.156.713.233,1.07C670.46,175.892,671.1,175.438,670.065,175.214Z" transform="translate(-601.477 -91.583)" fill="#bc7987"/>
      <path id="Path_3093" data-name="Path 3093" d="M670.334,176.333c.08.875.156,1.751.236,2.626C671.8,177.954,672.583,176.993,670.334,176.333Z" transform="translate(-600.953 -89.405)" fill="#bc7987"/>
      <path id="Path_3094" data-name="Path 3094" d="M670.42,177.356l-.035.006.091-.009c.247,1.83,1.671,2.543,2.988,3.36-.878-1.232.162-4.25-2.988-3.366l-.006-.053-.068.062Z" transform="translate(-600.854 -87.74)" fill="#bc7987"/>
      <path id="Path_3095" data-name="Path 3095" d="M670.388,176.413l-.012-.121-.071.083C670.344,176.386,670.35,176.4,670.388,176.413Z" transform="translate(-601.007 -89.484)" fill="#bc7987"/>
      <path id="Path_3096" data-name="Path 3096" d="M661.218,180.627l-.2.071c.044.029.062.074.1.1C661.163,180.742,661.171,180.692,661.218,180.627Z" transform="translate(-619.093 -81.043)" fill="#bc7987"/>
      <path id="Path_3097" data-name="Path 3097" d="M662.524,183.377c-.2-.967-.233-2-1.117-2.691C660.461,182.077,660.727,183.014,662.524,183.377Z" transform="translate(-619.38 -80.928)" fill="#bc7987"/>
      <path id="Path_3098" data-name="Path 3098" d="M668.3,171.408c-.551.4-.259.793-.015,1.185l.454-1.123C668.589,171.444,668.385,171.346,668.3,171.408Z" transform="translate(-605.526 -99.033)" fill="#bc7987"/>
      <path id="Path_3099" data-name="Path 3099" d="M668.128,171.8l-.062.153.144-.021C668.184,171.885,668.157,171.841,668.128,171.8Z" transform="translate(-605.369 -98.237)" fill="#bc7987"/>
      <path id="Path_3100" data-name="Path 3100" d="M674.545,162.256l-.215.3q.955.531,1.907,1.067s.042.006.03,0C675.683,163.158,675.114,162.707,674.545,162.256Z" transform="translate(-593.172 -116.816)" fill="#bc7987"/>
      <path id="Path_3101" data-name="Path 3101" d="M673.243,183.333v.009l.006-.006-.006-.006h0q-1.662-.99-3.3-1.984C670.581,182.723,671.9,183.039,673.243,183.333Z" transform="translate(-601.722 -79.641)" fill="#bc7987"/>
      <path id="Path_3102" data-name="Path 3102" d="M670.173,181.559a2.773,2.773,0,0,1-.144-.245l-.018,0c-.035-.027-.059-.053-.091-.08-.041.038-.053.071-.1.109Z" transform="translate(-601.956 -79.853)" fill="#bc7987"/>
      <path id="Path_3103" data-name="Path 3103" d="M664.983,188.463l1.406.911c.086-.233.174-.466.262-.7C666.094,188.6,665.54,188.534,664.983,188.463Z" transform="translate(-611.372 -65.785)" fill="#bc7987"/>
      <path id="Path_3104" data-name="Path 3104" d="M665.086,187.125c.042.024.165-.109.251-.171a1.237,1.237,0,0,0-.286-.283c-.042-.021-.165.109-.251.171A1.367,1.367,0,0,0,665.086,187.125Z" transform="translate(-611.729 -69.278)" fill="#bc7987"/>
      <path id="Path_3105" data-name="Path 3105" d="M662.575,185.478l-.177-.141c0,.012.006.021.006.032a.556.556,0,0,1,.012.144l.024-.006a1.666,1.666,0,0,0,.492,1.008A2.774,2.774,0,0,0,662.575,185.478Z" transform="translate(-616.406 -71.872)" fill="#bc7987"/>
      <path id="Path_3106" data-name="Path 3106" d="M663.734,186.816c-.342-.4-.8-.7-1.155-1.079C662.7,186.306,662.936,186.789,663.734,186.816Z" transform="translate(-616.054 -71.093)" fill="#bc7987"/>
      <path id="Path_3107" data-name="Path 3107" d="M665.337,188.278c-.115.138-.233.28-.351.418a.51.51,0,0,0,.268-.044C665.334,188.593,665.313,188.408,665.337,188.278Z" transform="translate(-611.367 -66.145)" fill="#bc7987"/>
      <path id="Path_3108" data-name="Path 3108" d="M665.091,188.42c-.059,0-.106.021-.159.027l.056.088h0l0,0v0l.088.012-.062-.041Z" transform="translate(-611.472 -65.868)" fill="#bc7987"/>
      <path id="Path_3109" data-name="Path 3109" d="M667.027,197.579c-.112.309-.227.619-.357.94l-.032.047c.029.009.041.021.071.029l-.009-.118C666.809,198.177,666.918,197.877,667.027,197.579Z" transform="translate(-608.15 -48.034)" fill="#bc7987"/>
      <path id="Path_3110" data-name="Path 3110" d="M668.935,177.3c.018.015.292-.141.315-.248.015-.065-.047-.144-.091-.224l-.728-.121A6.083,6.083,0,0,0,668.935,177.3Z" transform="translate(-604.658 -88.668)" fill="#bc7987"/>
      <path id="Path_3111" data-name="Path 3111" d="M668.594,179.382c.183-.115.362-.227.542-.342C668.526,178.7,668.565,179.043,668.594,179.382Z" transform="translate(-604.368 -84.402)" fill="#bc7987"/>
      <path id="Path_3112" data-name="Path 3112" d="M663.678,179.3c.009.1.089.162.083.28l.251.138c-.006-.059.02-.118.009-.177C663.9,179.464,663.79,179.382,663.678,179.3Z" transform="translate(-613.913 -83.623)" fill="#bc7987"/>
      <path id="Path_3113" data-name="Path 3113" d="M664.4,180.311a1.891,1.891,0,0,0-1.1-1.527A2.264,2.264,0,0,0,664.4,180.311Z" transform="translate(-614.64 -84.632)" fill="#bc7987"/>
      <path id="Path_3114" data-name="Path 3114" d="M671.909,162.849l.068-.038-.047-.147A1.659,1.659,0,0,0,671.909,162.849Z" transform="translate(-597.886 -116.023)" fill="#bc7987"/>
      <path id="Path_3115" data-name="Path 3115" d="M672.349,162.726c-.224.127-.445.253-.666.38C672.346,163.51,672.317,163.086,672.349,162.726Z" transform="translate(-598.326 -115.9)" fill="#bc7987"/>
      <path id="Path_3116" data-name="Path 3116" d="M672.271,164.532c-.053-.124-.074-.295-.168-.357s-.268-.029-.4-.035c.053.124.077.295.171.36S672.135,164.526,672.271,164.532Z" transform="translate(-598.295 -113.156)" fill="#bc7987"/>
      <path id="Path_3117" data-name="Path 3117" d="M670.113,172.674a.625.625,0,0,0-.454.168c.03.752.566,1.008,1.155,1.211C671.068,173.364,670.9,172.863,670.113,172.674Z" transform="translate(-602.267 -96.538)" fill="#bc7987"/>
      <path id="Path_3118" data-name="Path 3118" d="M670.048,173.236l.138-.047c-.044-.018-.085-.035-.129-.05C670.042,173.177,670.063,173.2,670.048,173.236Z" transform="translate(-601.51 -95.624)" fill="#bc7987"/>
      <path id="Path_3119" data-name="Path 3119" d="M663.882,183.854c.021-.021-.018.08,0,.065.377-.7.74-1.4,1.1-2.087l-.056.012C664.569,182.525,664.215,183.2,663.882,183.854Z" transform="translate(-613.528 -78.697)" fill="#bc7987"/>
      <path id="Path_3120" data-name="Path 3120" d="M661.353,181.593l.277.242.006-.206-.006,0,0-.006-.026,0-.015-.006,0,.006A2.187,2.187,0,0,0,661.353,181.593Z" transform="translate(-618.441 -79.162)" fill="#bc7987"/>
      <path id="Path_3121" data-name="Path 3121" d="M662.57,185.4l-.251.053C662.54,185.709,662.6,185.645,662.57,185.4Z" transform="translate(-616.56 -71.755)" fill="#bc7987"/>
      <path id="Path_3122" data-name="Path 3122" d="M667.491,202.457q.323-.752.631-1.5A1.373,1.373,0,0,0,667.491,202.457Z" transform="translate(-606.522 -41.45)" fill="#bc7987"/>
      <path id="Path_3123" data-name="Path 3123" d="M667.724,200.953l-.03.074a.921.921,0,0,1,.147-.1Z" transform="translate(-606.094 -41.517)" fill="#bc7987"/>
      <path id="Path_3124" data-name="Path 3124" d="M671.466,166.635l-.053-.156-.171.345C671.316,166.762,671.393,166.7,671.466,166.635Z" transform="translate(-599.185 -108.592)" fill="#bc7987"/>
      <path id="Path_3125" data-name="Path 3125" d="M681.116,165.1l.365.086-.063-.147Z" transform="translate(-579.958 -111.392)" fill="#bc7987"/>
      <path id="Path_3126" data-name="Path 3126" d="M670.905,177.62l.071-.08c-.162-.622-.324-1.241-.489-1.866l-.112-.024C669.635,176.55,670.077,177.134,670.905,177.62Z" transform="translate(-601.607 -90.733)" fill="#bc7987"/>
      <path id="Path_3127" data-name="Path 3127" d="M687.169,227.34c-.578-1.653-.454-.4-1.055-.445-1.81-.139-5.057,1.686-5.093-1.4-.065-5.585-2.364-3.089-4.471-1.689a4.308,4.308,0,0,1-3.239.993c-3.879-.525-5.5,2.184-6.976,5.214,2.346-2.231,4.421-2.523,6,.569.478.931.622,2.078,1.992,1.86,7.12-1.129,3.935,2.776,2.72,5.785,2.093-3.64,4.559-6.879,8.641-7.937C687.976,229.695,688.018,229.76,687.169,227.34Z" transform="translate(-608.74 -0.442)" fill="#bc7987"/>
      <path id="Path_3128" data-name="Path 3128" d="M663.705,250.645c2.744-8.131,9.325-13.819,13.51-21.031C671.436,235.812,665.7,242.037,663.705,250.645Z" transform="translate(-613.861 14.345)" fill="#bc7987"/>
      <path id="Path_3129" data-name="Path 3129" d="M665.458,235.218c2.166-2.806,5.217-4.919,6.284-8.526C670.005,229.857,664.927,230.255,665.458,235.218Z" transform="translate(-610.524 8.656)" fill="#bc7987"/>
      <path id="Path_3130" data-name="Path 3130" d="M673.078,219.6l-.044.029c-5.016-.392-3.525,4.15-4.83,6.572Q670.639,222.9,673.078,219.6Z" transform="translate(-605.102 -5.162)" fill="#bc7987"/>
      <path id="Path_3131" data-name="Path 3131" d="M663.28,214.334a1.4,1.4,0,0,0-1.294.295c-1.429,2.806,2.272,3.345,2.493,5.467a3.336,3.336,0,0,0,.448.012C663.652,218.375,665.935,215.4,663.28,214.334Z" transform="translate(-617.845 -15.506)" fill="#bc7987"/>
      <path id="Path_3132" data-name="Path 3132" d="M674.358,219.007c.911-1.238-.259-1.783-1.182-2.334-1.049-.165-2.087-1.659-3.195-.321-1.155,1.394.056,2.281,1.1,2.812C672.1,219.685,673.474,220.207,674.358,219.007Z" transform="translate(-602.554 -12.554)" fill="#bc7987"/>
      <path id="Path_3133" data-name="Path 3133" d="M667.906,236.935l-.044-.121-.186.333C667.761,237.082,667.815,237,667.906,236.935Z" transform="translate(-606.129 28.365)" fill="#bc7987"/>
      <path id="Path_3134" data-name="Path 3134" d="M666.077,245.359q2.356-4.217,4.713-8.432C668.01,238.981,666.941,242.108,666.077,245.359Z" transform="translate(-609.242 28.585)" fill="#bc7987"/>
      <path id="Path_3135" data-name="Path 3135" d="M665.417,218.35l-.024-.13c0,.091-.041.171-.047.259Z" transform="translate(-610.666 -7.841)" fill="#bc7987"/>
      <path id="Path_3136" data-name="Path 3136" d="M667.484,218.308c-.861,1.574-1.739,3.148-3.236,5.83C666.093,221.656,667.328,220.235,667.484,218.308Z" transform="translate(-612.804 -7.67)" fill="#bc7987"/>
      <path id="Path_3137" data-name="Path 3137" d="M676.3,226.018c.035-.442.171-.943.065-1a6.409,6.409,0,0,0-1.332-.433c-.021.295-.171.76-.044.855A6.092,6.092,0,0,0,676.3,226.018Z" transform="translate(-591.982 4.549)" fill="#bc7987"/>
      <path id="Path_3138" data-name="Path 3138" d="M673.4,217.776c.828-.365.339-.746-.012-.976a1.027,1.027,0,0,0-1.63.48,6.341,6.341,0,0,0-.25,1.574C672.321,218.383,672.837,218.026,673.4,217.776Z" transform="translate(-598.667 -11.055)" fill="#bc7987"/>
      <path id="Path_3139" data-name="Path 3139" d="M664.925,226.815a3.09,3.09,0,0,0-.206.881c.253-.091.5-.186.852-.312.009-.38.018-.784.027-1.188A3.085,3.085,0,0,0,664.925,226.815Z" transform="translate(-611.886 7.69)" fill="#bc7987"/>
      <path id="Path_3140" data-name="Path 3140" d="M663.872,222.041c-.3.507-.6,1.011-.9,1.518.407-.4.8-.8,1.176-1.205C664.161,222.345,663.969,222.15,663.872,222.041Z" transform="translate(-615.281 -0.401)" fill="#bc7987"/>
      <path id="Path_3141" data-name="Path 3141" d="M662.917,222.742c-.026.006.083-.015.083-.015l.1-.171C663.038,222.618,662.982,222.68,662.917,222.742Z" transform="translate(-615.404 0.602)" fill="#bc7987"/>
      <path id="Path_3142" data-name="Path 3142" d="M671.151,217.906c-.13.1-.3.183-.38.318a1.469,1.469,0,0,0-.073.5C670.85,218.448,671,218.177,671.151,217.906Z" transform="translate(-600.246 -8.453)" fill="#bc7987"/>
      <path id="Path_3143" data-name="Path 3143" d="M668.646,240.454l.289-.271c-.156.009-.315.015-.471.024Z" transform="translate(-604.596 34.926)" fill="#bc7987"/>
      <path id="Path_3144" data-name="Path 3144" d="M669.913,219.528l-.071.23.05-.038C669.9,219.652,669.91,219.6,669.913,219.528Z" transform="translate(-601.911 -5.294)" fill="#bc7987"/>
      <path id="Path_3145" data-name="Path 3145" d="M669.993,219.365c-.026.071-.05.13-.1.236a.6.6,0,0,0-.029.245,1.341,1.341,0,0,0,.056-.183A2.669,2.669,0,0,1,669.993,219.365Z" transform="translate(-601.864 -5.612)" fill="#bc7987"/>
      <path id="Path_3146" data-name="Path 3146" d="M669.909,219.5c.106-.268.077-.274,0,0Z" transform="translate(-601.78 -5.746)" fill="#bc7987"/>
      <path id="Path_3147" data-name="Path 3147" d="M661.627,204.272c-.4-.018-.8-.035-1.191-.05.3.236.6.475.893.713C661.429,204.714,661.527,204.493,661.627,204.272Z" transform="translate(-620.227 -35.099)" fill="#bc7987"/>
      <path id="Path_3148" data-name="Path 3148" d="M660.466,204.343l.227.012-.251-.2c-.044.1-.094.124-.138.2l.162,0Z" transform="translate(-620.483 -35.231)" fill="#bc7987"/>
      <path id="Path_3149" data-name="Path 3149" d="M661.317,204.255c-.507-.012-1.017-.027-1.524-.047h0l-.006,0h0v.009l.006,0C660.332,204.559,660.875,204.965,661.317,204.255Z" transform="translate(-621.496 -35.132)" fill="#bc7987"/>
      <path id="Path_3150" data-name="Path 3150" d="M703.087,214.655l.189-.009a20.138,20.138,0,0,1,3.7,1.456c1.8,1.138,2.826,2.588.36,4.209l.068-.006c1.329,1.6,2.9,3.121,4.435.507a7.645,7.645,0,0,1,5.535-3.929,5.222,5.222,0,0,0,3.661-4.642c.071-2.346-2.561-1.677-3.752-2.546-4.135-3.018-6.124-.292-8.294,2.467l.006.027c-1.32.548-2.971.793-3.593-.483-1.247-2.555-3.646-3-5.78-3.934C702.011,209.361,701.522,212.595,703.087,214.655Zm5.921-2.408c.271,1.011.174,1.889-.952,2.355a.635.635,0,0,1-.436-.091A2.354,2.354,0,0,1,709.008,212.247Z" transform="translate(-543.913 -28.19)" fill="#bc7987"/>
      <path id="Path_3151" data-name="Path 3151" d="M700.143,208.04a4.32,4.32,0,0,0-.681-.407.871.871,0,0,0-.1.035C699.615,207.8,699.878,207.925,700.143,208.04Z" transform="translate(-544.429 -28.46)" fill="#bc7987"/>
      <path id="Path_3152" data-name="Path 3152" d="M699.453,207.722c-.012-.05-.05-.088-.065-.136-.012.05-.006.112-.021.165A.765.765,0,0,1,699.453,207.722Z" transform="translate(-544.42 -28.548)" fill="#bc7987"/>
      <path id="Path_3153" data-name="Path 3153" d="M720.759,206.6c-1.42,1.609-3.655,3.333-5.594,3.41-1.848.074,1.17-2.614-.522-3.772-.913.48-1.9,1.471-2.641,1.314-6.858-1.456-5.367,4.291-6.21,7.539-.236.908.056,2.384-.259,3.631,1.527-.469,3-1.659,4.674-.542,2.352,1.571,3.722.454,5-1.55,3.451-5.4,7.445-10.471,9.617-16.616C723.382,202.171,722.436,204.712,720.759,206.6Z" transform="translate(-532.411 -43.287)" fill="#bc7987"/>
      <path id="Path_3154" data-name="Path 3154" d="M709.024,189.993c-1.291,1.376.336,3.823-1.774,4.916-.681.354-1.158.766.109,1.014,3.5.69,5.06,2.65,5.279,6.4.168,2.9,3.43,2.432,5.429,2.859,1.689.36,2.673-1.158,3.047-2.838.345-1.55.867-3.266-1.229-3.876-5.791-1.689-4.25-4.695-1.907-7.9A7.721,7.721,0,0,1,709.024,189.993Z" transform="translate(-530.398 -62.805)" fill="#bc7987"/>
      <path id="Path_3155" data-name="Path 3155" d="M713.532,179.888c-.062.056-.121.118-.183.177a2.391,2.391,0,0,1,.254-.009Z" transform="translate(-517.193 -82.482)" fill="#bc7987"/>
      <path id="Path_3156" data-name="Path 3156" d="M713.88,183.143c4.188,1.073,5.47,5.013,7.793,7.934.707.89,1.429,2.325,2.865,1.182,1.191-.946.059-1.736-.466-2.594-2.216-3.6-4.453-7.194-5.488-11.367-1.854,1.827-3.631,1.506-5.364-.065C713.6,179.848,714.537,181.389,713.88,183.143Z" transform="translate(-517.444 -85.705)" fill="#bc7987"/>
      <path id="Path_3157" data-name="Path 3157" d="M713.482,180.056c.021-.047.009-.088.026-.136-.035-.009-.062-.024-.1-.032Z" transform="translate(-517.073 -82.482)" fill="#bc7987"/>
      <path id="Path_3158" data-name="Path 3158" d="M713.368,178.383c-.018-.077-.047-.15-.065-.227l-.159.053C713.218,178.283,713.294,178.315,713.368,178.383Z" transform="translate(-517.592 -85.855)" fill="#bc7987"/>
      <path id="Path_3159" data-name="Path 3159" d="M723.77,186.576c1.7-3.009.227-5.113-1.376-7.15-2.231-1.323-4.727.271-4.937,1.149-.6,2.558-.463,5.52,2.252,7.244C721.391,188.886,722.694,188.486,723.77,186.576Z" transform="translate(-509.763 -84.366)" fill="#bc7987"/>
      <path id="Path_3160" data-name="Path 3160" d="M697.934,239.68a17.453,17.453,0,0,0,1.854-1.105A13.875,13.875,0,0,0,697.934,239.68Z" transform="translate(-547.21 31.794)" fill="#bc7987"/>
      <path id="Path_3161" data-name="Path 3161" d="M697.584,241.595c-.089-.056-.183-.083-.274-.133.036.071.053.136.089.209Z" transform="translate(-548.425 37.416)" fill="#bc7987"/>
      <path id="Path_3162" data-name="Path 3162" d="M723.8,194.3c-.486-.28-.973-.563-1.456-.843-2.938,4.763-5.449,9.788-9.316,13.979q.92.579,1.833,1.158Q719.335,201.446,723.8,194.3Z" transform="translate(-517.81 -56.058)" fill="#bc7987"/>
      <path id="Path_3163" data-name="Path 3163" d="M707.4,188.053h0c.018-.056.026-.121.041-.183-.026,0-.053.015-.083.018l-.056.1c.03.024.065.035.1.062Z" transform="translate(-528.972 -66.939)" fill="#bc7987"/>
      <path id="Path_3164" data-name="Path 3164" d="M706.717,189.142c-.018-.012-.038-.012-.059-.027l-.044.08Z" transform="translate(-530.308 -64.515)" fill="#bc7987"/>
      <path id="Path_3165" data-name="Path 3165" d="M718.568,196.142c-.781-3.976-2.75-6.366-6.56-6.929q-.694,1.238-1.388,2.473C713.982,191.612,715.514,195.143,718.568,196.142Z" transform="translate(-522.509 -64.324)" fill="#bc7987"/>
      <path id="Path_3166" data-name="Path 3166" d="M710.737,190.049c-.1.139-.194.274-.3.413.138-.077.271-.1.41-.183l.121-.218c-.08,0-.15-.018-.233-.012Z" transform="translate(-522.859 -62.699)" fill="#bc7987"/>
      <path id="Path_3167" data-name="Path 3167" d="M711.121,189.277l.056-.1-.1.086Z" transform="translate(-521.623 -64.389)" fill="#bc7987"/>
      <path id="Path_3168" data-name="Path 3168" d="M711.912,175.211l.012-.209c-.083-.047-.165-.1-.245-.144l.044.186C711.8,175.093,711.841,175.161,711.912,175.211Z" transform="translate(-520.445 -92.279)" fill="#bc7987"/>
      <path id="Path_3169" data-name="Path 3169" d="M716.1,181.817c-.837-2.608-1.763-5.161-4.126-6.84-.106,2.1-.215,4.2-.327,6.419C713.141,181.467,714.777,180.63,716.1,181.817Z" transform="translate(-520.507 -92.045)" fill="#bc7987"/>
      <path id="Path_3170" data-name="Path 3170" d="M693.961,242.545l-.089-.015-.026.047Z" transform="translate(-555.17 39.496)" fill="#bc7987"/>
      <path id="Path_3171" data-name="Path 3171" d="M715.005,178.19c.018.035.027.077.044.112l.038.015.021.065c.018-.015.035-.018.053-.035Z" transform="translate(-513.969 -85.789)" fill="#bc7987"/>
      <path id="Path_3172" data-name="Path 3172" d="M714.732,174.889c-2.626,4.332.162,7.017,2.856,9.729A30.6,30.6,0,0,1,714.732,174.889Z" transform="translate(-516.551 -92.216)" fill="#bc7987"/>
      <path id="Path_3173" data-name="Path 3173" d="M703.358,209.064c.9-3.466-1.4-5.564-3.407-7.79C699.285,204.643,701.923,206.6,703.358,209.064Z" transform="translate(-543.488 -40.839)" fill="#bc7987"/>
      <path id="Path_3174" data-name="Path 3174" d="M699.826,201.279c.053.059.109.115.162.174.015-.077.009-.144.027-.221l-.08.021.077-.021c-.044-.032-.08-.024-.121-.05l-.059.1Z" transform="translate(-543.525 -41.018)" fill="#bc7987"/>
      <path id="Path_3175" data-name="Path 3175" d="M697.736,215.676l.268.2c-.032-.068-.056-.139-.089-.206h-.032c-.035-.062-.077-.071-.112-.127l-.035.13Z" transform="translate(-547.595 -13.048)" fill="#bc7987"/>
      <path id="Path_3176" data-name="Path 3176" d="M701.484,217.721c-.047.012-.088.009-.133.021.021.009.038.03.062.038-1.939,1.2-2.458,3.2-3.021,5.187,1.323-1.821,4.238-1.182,5.331-3.36l-.024,0-2.255-1.827Z" transform="translate(-546.318 -8.813)" fill="#bc7987"/>
      <path id="Path_3177" data-name="Path 3177" d="M717.169,170.671c-.277-.08-.946.442-1.093.819-.566,1.415.678,2.163,1.421,2.962a7.267,7.267,0,0,0,1.839,1.264,3.3,3.3,0,0,1-1.4-2.042C717.691,172.661,718.961,171.2,717.169,170.671Z" transform="translate(-512.163 -100.445)" fill="#bc7987"/>
      <path id="Path_3178" data-name="Path 3178" d="M717.75,172.761c-.212-.136-.439-.256-.663-.383a2.987,2.987,0,0,0,.634.427l-.062.141.174-.068Z" transform="translate(-509.914 -97.106)" fill="#bc7987"/>
      <path id="Path_3179" data-name="Path 3179" d="M703.425,213.266c-1.594.436-3.519.088-4.539,1.913C701.288,216.823,702.016,214.171,703.425,213.266Z" transform="translate(-545.356 -17.488)" fill="#bc7987"/>
      <path id="Path_3180" data-name="Path 3180" d="M701.325,213.336l-.009,0h0a1.976,1.976,0,0,1-.05-.265l-.109.3a1.718,1.718,0,0,0-.728.262,3.324,3.324,0,0,0,.707-.206Z" transform="translate(-542.357 -17.862)" fill="#bc7987"/>
      <path id="Path_3181" data-name="Path 3181" d="M703.315,206.691c.925,1.594-.94,2.5-.964,3.858,1.886-.1,2.859-1.615,4.173-2.626C705.661,206.709,704.455,206.791,703.315,206.691Z" transform="translate(-538.609 -30.291)" fill="#bc7987"/>
      <path id="Path_3182" data-name="Path 3182" d="M709.731,198.144c1.193.156.445-2.237.1-2.187-1.91.265-2.741,1.86-3.507,3.431C707.411,198.987,708.122,197.932,709.731,198.144Z" transform="translate(-530.878 -51.193)" fill="#bc7987"/>
      <path id="Path_3183" data-name="Path 3183" d="M706.494,197.121a1.456,1.456,0,0,1-.168.08l0,.015c-.044.047-.059.085-.1.133.044.024.08.021.127.044C706.4,197.3,706.453,197.212,706.494,197.121Z" transform="translate(-531.051 -48.926)" fill="#bc7987"/>
      <path id="Path_3184" data-name="Path 3184" d="M701.944,221.225c-.769-.236-1.214.242-1.353.97-.109.578-.678,1.409.3,1.594.46.085,1.055-.542,1.456-.769C702.663,222.159,702.786,221.485,701.944,221.225Z" transform="translate(-542.548 -2.108)" fill="#bc7987"/>
      <path id="Path_3185" data-name="Path 3185" d="M718.093,173.927c-.1-.068-.651.25-.713.472a1.852,1.852,0,0,0,1.521,2.529C719.248,175.766,719.269,174.676,718.093,173.927Z" transform="translate(-509.565 -94.107)" fill="#bc7987"/>
      <path id="Path_3186" data-name="Path 3186" d="M717.842,174.939c-.015.044-.018.088-.032.136l.18-.08C717.934,174.98,717.9,174.954,717.842,174.939Z" transform="translate(-508.507 -92.119)" fill="#bc7987"/>
      <path id="Path_3187" data-name="Path 3187" d="M708.252,213.776c-1.81.156-3.068.572-3.118,2.293-.009.327.669,1,.97.961C707.825,216.841,708.01,215.45,708.252,213.776Z" transform="translate(-533.19 -16.495)" fill="#bc7987"/>
      <path id="Path_3188" data-name="Path 3188" d="M718.057,190.214c.745.754,1.261-.15,1.524-.684s.492-1.518.218-1.8c-.737-.76-1.111.221-1.81.84C717.995,189.009,717.741,189.893,718.057,190.214Z" transform="translate(-508.335 -67.751)" fill="#bc7987"/>
      <path id="Path_3189" data-name="Path 3189" d="M710.931,207.459c.713-.5,1.424-1,2.131-1.5C712.016,205.924,710.456,205.069,710.931,207.459Z" transform="translate(-522.072 -32.061)" fill="#bc7987"/>
      <path id="Path_3190" data-name="Path 3190" d="M711.888,205.93l-.091-.136-.2.141A1.583,1.583,0,0,0,711.888,205.93Z" transform="translate(-520.607 -32.037)" fill="#bc7987"/>
      <path id="Path_3191" data-name="Path 3191" d="M694.62,216.568l-.035-.05c-.047.024-.077.062-.13.085Z" transform="translate(-553.984 -11.155)" fill="#bc7987"/>
      <path id="Path_3192" data-name="Path 3192" d="M697.514,241.509c.012-.006-.174.071-.174.071l.109.141C697.475,241.648,697.481,241.586,697.514,241.509Z" transform="translate(-548.366 37.507)" fill="#bc7987"/>
      <path id="Path_3193" data-name="Path 3193" d="M699.965,244.805l-2.482-3.224C696.75,243.647,698.68,244.033,699.965,244.805Z" transform="translate(-548.401 37.648)" fill="#bc7987"/>
      <path id="Path_3194" data-name="Path 3194" d="M707.744,194.93c-.849-.283-1.662-.46-2.19.566a1.082,1.082,0,0,0,.642,1.639c.769.286,1.7.513,2.154-.607C708.619,195.817,708.587,195.213,707.744,194.93Z" transform="translate(-532.702 -53.619)" fill="#bc7987"/>
      <path id="Path_3195" data-name="Path 3195" d="M719.992,187.118c.062-.2-.239-.507-.38-.769-.25.192-.5.377-.754.566.153.283.295.548.436.81C719.541,187.528,719.912,187.369,719.992,187.118Z" transform="translate(-506.468 -69.901)" fill="#bc7987"/>
      <path id="Path_3196" data-name="Path 3196" d="M698.613,201.47l.112.138,0,.012c.006-.074.027-.159.038-.239-.029.012-.056.032-.086.041S698.637,201.459,698.613,201.47Z" transform="translate(-545.887 -40.629)" fill="#bc7987"/>
      <path id="Path_3197" data-name="Path 3197" d="M698.115,201.444a.945.945,0,0,0-.141.908c.843.967,1.37-.032,2.01-.36C699.492,201.388,699.02,200.687,698.115,201.444Z" transform="translate(-547.258 -41.15)" fill="#bc7987"/>
      <path id="Path_3198" data-name="Path 3198" d="M701.438,210.566l-.189.009c-1.185-.931-2.252-.08-3.354.227l.047.015C699.2,212,700.256,210.421,701.438,210.566Z" transform="translate(-547.285 -23.553)" fill="#bc7987"/>
      <path id="Path_3199" data-name="Path 3199" d="M713.367,175.245c.245.7.917.719,1.562.634-.171-.834-.342-1.671-.51-2.505C713.753,173.825,713.034,174.3,713.367,175.245Z" transform="translate(-517.323 -95.166)" fill="#bc7987"/>
      <path id="Path_3200" data-name="Path 3200" d="M699.083,216.6l-1.255-.943c.233.5.451,1,.663,1.506Z" transform="translate(-547.418 -12.828)" fill="#bc7987"/>
      <path id="Path_3201" data-name="Path 3201" d="M698.447,217.652c.572,1.309,1.609,1.424,2.8,1.167C700.318,218.4,700.177,216.211,698.447,217.652Z" transform="translate(-546.211 -9.891)" fill="#bc7987"/>
      <path id="Path_3202" data-name="Path 3202" d="M695.744,218.936a1.9,1.9,0,0,0-1.229-2.358C694.512,217.568,694.507,218.559,695.744,218.936Z" transform="translate(-553.867 -11.039)" fill="#bc7987"/>
      <path id="Path_3203" data-name="Path 3203" d="M694.629,216.534l-.174.038a1.661,1.661,0,0,1,.177.091C694.632,216.619,694.629,216.578,694.629,216.534Z" transform="translate(-553.984 -11.124)" fill="#bc7987"/>
      <path id="Path_3204" data-name="Path 3204" d="M699.491,211.1c.038.253.074.507.109.76.15-.009.295-.021.442-.029a5.276,5.276,0,0,0-.13-.754A1.83,1.83,0,0,0,699.491,211.1Z" transform="translate(-544.178 -21.776)" fill="#bc7987"/>
      <path id="Path_3205" data-name="Path 3205" d="M702.483,212.071c-.13.156-.259.318-.386.477A.6.6,0,0,0,702.483,212.071Z" transform="translate(-539.103 -19.815)" fill="#bc7987"/>
      <path id="Path_3206" data-name="Path 3206" d="M701.99,212.955a2.465,2.465,0,0,0,.79-.722c-.212.074-.466.083-.7.147C701.58,212.525,701.719,213.088,701.99,212.955Z" transform="translate(-539.786 -19.499)" fill="#bc7987"/>
      <path id="Path_3207" data-name="Path 3207" d="M702.228,212.165c.038-.047.074-.1.115-.141l-.071.012C702.266,212.094,702.24,212.114,702.228,212.165Z" transform="translate(-538.848 -19.908)" fill="#bc7987"/>
      <path id="Path_3208" data-name="Path 3208" d="M699.038,238.19c.389-.041.843.666,1.176-.094l.15-.174-.029.006a.511.511,0,0,1-.139,0l0,.032Z" transform="translate(-545.06 30.523)" fill="#bc7987"/>
      <path id="Path_3209" data-name="Path 3209" d="M695.508,219.169a3.621,3.621,0,0,0,.557.277l-1.046-.772h.006c-.05-.024-.047-.062-.091-.088-.015.029,0,.047-.018.077A5.719,5.719,0,0,0,695.508,219.169Z" transform="translate(-553.088 -7.131)" fill="#bc7987"/>
      <path id="Path_3210" data-name="Path 3210" d="M703.219,204.939l.981-.23a5.552,5.552,0,0,0-.754-.112C703.375,204.594,703.3,204.818,703.219,204.939Z" transform="translate(-536.918 -34.368)" fill="#bc7987"/>
      <path id="Path_3211" data-name="Path 3211" d="M704.9,206.689a.9.9,0,0,0,.112.878c.9.651,1.494.318,1.795-.654C706.245,206.3,705.67,205.637,704.9,206.689Z" transform="translate(-533.784 -31.371)" fill="#bc7987"/>
      <path id="Path_3212" data-name="Path 3212" d="M705.5,206.468l.074.074v0c.018-.056.015-.118.029-.177l-.068.027C705.526,206.421,705.511,206.439,705.5,206.468Z" transform="translate(-532.479 -30.926)" fill="#bc7987"/>
      <path id="Path_3213" data-name="Path 3213" d="M702.2,204.8c.041-.021.059-.053.1-.074l-.121.035Z" transform="translate(-538.938 -34.107)" fill="#bc7987"/>
      <path id="Path_3214" data-name="Path 3214" d="M701.482,207.96c.926-.917,3.905-.5,2.084-3.2C702.269,205.431,702.007,206.781,701.482,207.96Z" transform="translate(-540.301 -34.059)" fill="#bc7987"/>
      <path id="Path_3215" data-name="Path 3215" d="M705.309,204.26l-.985.159a6.4,6.4,0,0,0,.772.156C705.155,204.581,705.238,204.372,705.309,204.26Z" transform="translate(-534.767 -35.025)" fill="#bc7987"/>
      <path id="Path_3216" data-name="Path 3216" d="M702.371,204.747c-.08,0-.147-.021-.224-.024l.071.068Z" transform="translate(-539.006 -34.123)" fill="#bc7987"/>
      <path id="Path_3217" data-name="Path 3217" d="M701.3,204.262c-.021-.05-.053-.08-.071-.133l-.018.006c-.042-.077-.094-.147-.136-.218-.023.091-.023.174-.053.268A2.725,2.725,0,0,1,701.3,204.262Z" transform="translate(-541.202 -35.692)" fill="#bc7987"/>
      <path id="Path_3218" data-name="Path 3218" d="M704.16,206.065a6.526,6.526,0,0,0-3.047-2.031A3.135,3.135,0,0,0,704.16,206.065Z" transform="translate(-541.019 -35.465)" fill="#bc7987"/>
      <path id="Path_3219" data-name="Path 3219" d="M705.1,194.076c.324.041.463,1.093.958.192q-.933-.3-1.86-.589v.056A4.16,4.16,0,0,0,705.1,194.076Z" transform="translate(-535.011 -55.63)" fill="#bc7987"/>
      <path id="Path_3220" data-name="Path 3220" d="M709.616,187.581a3.654,3.654,0,0,0,1.93,2.1C711.635,188.318,710.42,188.135,709.616,187.581Z" transform="translate(-524.462 -67.502)" fill="#bc7987"/>
      <path id="Path_3221" data-name="Path 3221" d="M709.8,187.739c-.021-.083-.065-.141-.08-.23-.059-.015-.118,0-.177-.009-.006.018-.018.032-.026.053A2.331,2.331,0,0,0,709.8,187.739Z" transform="translate(-524.649 -67.66)" fill="#bc7987"/>
      <path id="Path_3222" data-name="Path 3222" d="M710.44,188.447l1.709,1.871A3.937,3.937,0,0,0,710.44,188.447Z" transform="translate(-522.858 -65.816)" fill="#bc7987"/>
      <path id="Path_3223" data-name="Path 3223" d="M710.769,188.747l-.292-.321-.206-.133c0,.068.032.1.021.171C710.46,188.549,710.613,188.65,710.769,188.747Z" transform="translate(-523.187 -66.116)" fill="#bc7987"/>
      <path id="Path_3224" data-name="Path 3224" d="M711.282,189.371l-.262-.289a3.546,3.546,0,0,1,.159.374Z" transform="translate(-521.728 -64.579)" fill="#bc7987"/>
      <path id="Path_3225" data-name="Path 3225" d="M706.656,189.167c-.026,1.421,1.043,1.818,2.081,2.246C708.752,190.022,707.523,189.759,706.656,189.167Z" transform="translate(-530.226 -64.414)" fill="#bc7987"/>
      <path id="Path_3226" data-name="Path 3226" d="M707.362,189.929c0,.056.03.083.024.139.032.024.062.029.091.05.032-.032.044-.074.08-.106Z" transform="translate(-528.851 -62.93)" fill="#bc7987"/>
      <path id="Path_3227" data-name="Path 3227" d="M706.614,189.177c.038.029.086.047.124.074,0-.05-.024-.074-.021-.127Z" transform="translate(-530.308 -64.498)" fill="#bc7987"/>
      <path id="Path_3228" data-name="Path 3228" d="M700.217,218.616c.085-.13.171-.256.257-.386-.091.127-.186.256-.28.383Z" transform="translate(-542.811 -7.822)" fill="#bc7987"/>
      <path id="Path_3229" data-name="Path 3229" d="M702.425,217.146l-.006.009h-.006l0,.006-2.128,3.18,2.361-3.195Z" transform="translate(-542.626 -9.933)" fill="#bc7987"/>
      <path id="Path_3230" data-name="Path 3230" d="M696.392,220.5a5.709,5.709,0,0,0-.4.754l.66.106c.047-.3.091-.6.135-.89C696.651,220.479,696.442,220.434,696.392,220.5Z" transform="translate(-550.993 -3.472)" fill="#bc7987"/>
      <path id="Path_3231" data-name="Path 3231" d="M699.014,229.52c.024-.047-.124-.18-.195-.274a1.45,1.45,0,0,0-.309.321c-.024.047.124.18.191.274A1.34,1.34,0,0,0,699.014,229.52Z" transform="translate(-546.094 13.629)" fill="#bc7987"/>
      <path id="Path_3232" data-name="Path 3232" d="M697.4,230.41c-.165-.059-.333-.118-.5-.18l.26.483Z" transform="translate(-549.221 15.545)" fill="#bc7987"/>
      <path id="Path_3233" data-name="Path 3233" d="M697.022,230.308l-.062-.118-.091.059v0h0c-.006.038-.024.068-.03.106l.065-.091Z" transform="translate(-549.342 15.467)" fill="#bc7987"/>
      <path id="Path_3234" data-name="Path 3234" d="M699.089,210.251l-.056.13s.189-.009.177-.012C699.171,210.331,699.13,210.289,699.089,210.251Z" transform="translate(-545.069 -23.359)" fill="#bc7987"/>
      <path id="Path_3235" data-name="Path 3235" d="M699.238,210.639c.082-.2.168-.389.251-.587C698.681,210.1,698.961,210.367,699.238,210.639Z" transform="translate(-545.219 -23.746)" fill="#bc7987"/>
      <path id="Path_3236" data-name="Path 3236" d="M701.371,210.714c-.112-.186-.23-.374-.348-.563-.1.144-.192.289-.286.433Z" transform="translate(-541.752 -23.553)" fill="#bc7987"/>
      <path id="Path_3237" data-name="Path 3237" d="M700.889,210.244l.091-.141-.174.009C700.836,210.156,700.86,210.2,700.889,210.244Z" transform="translate(-541.618 -23.647)" fill="#bc7987"/>
      <path id="Path_3238" data-name="Path 3238" d="M697.288,211.326c-.035.018-.056.047-.094.065h.047Z" transform="translate(-548.651 -21.265)" fill="#bc7987"/>
      <path id="Path_3239" data-name="Path 3239" d="M697.947,210.372c-.027.062-.05.124-.077.183l.121-.168Z" transform="translate(-547.334 -23.123)" fill="#bc7987"/>
      <path id="Path_3240" data-name="Path 3240" d="M699.124,210.434q-.95,1.313-1.9,2.629C698.334,212.529,698.688,211.454,699.124,210.434Z" transform="translate(-548.588 -23.002)" fill="#bc7987"/>
      <path id="Path_3241" data-name="Path 3241" d="M697.873,219.715c.416.085.834.168,1.253.253C698.754,219.668,698.51,218.907,697.873,219.715Z" transform="translate(-547.328 -5.632)" fill="#bc7987"/>
      <path id="Path_3242" data-name="Path 3242" d="M698.3,219.684c.056.044.106.106.168.121l.015.027c.032-.109.065-.218.094-.33-.05.074-.118.124-.165.2Z" transform="translate(-546.501 -5.347)" fill="#bc7987"/>
      <path id="Path_3243" data-name="Path 3243" d="M694.109,243.077c0-.024-.006-.032,0-.056l-.13.032A.968.968,0,0,1,694.109,243.077Z" transform="translate(-554.917 40.452)" fill="#bc7987"/>
      <path id="Path_3244" data-name="Path 3244" d="M695.866,244.461c0,.068,0,.127.006.194l.077-.121-.08-.074h0l.077.074c-.483-.707-.928-1.468-1.916-1.494C693.874,244.472,694.8,244.558,695.866,244.461Z" transform="translate(-554.841 40.489)" fill="#bc7987"/>
      <path id="Path_3245" data-name="Path 3245" d="M694.877,243.871a.614.614,0,0,0-.006-.283l-.342.551C694.65,244.051,694.83,243.989,694.877,243.871Z" transform="translate(-553.84 41.556)" fill="#bc7987"/>
      <path id="Path_3246" data-name="Path 3246" d="M694.847,244.927l.3.345.151-.289Z" transform="translate(-553.221 44.164)" fill="#bc7987"/>
      <path id="Path_3247" data-name="Path 3247" d="M697.267,238.6l-.041-.062c-.009-.032.006-.062,0-.094l-.021.059q-.628-.942-1.25-1.883c.245-.808.846-1.6.042-2.443-.2.808-.908,1.6-.136,2.44a1.81,1.81,0,0,0,1.323,1.939c-.3,1.088-1.164,2.072-.592,3.321a4.094,4.094,0,0,0,.64-3.3Z" transform="translate(-551.939 23.232)" fill="#bc7987"/>
      <path id="Path_3248" data-name="Path 3248" d="M699.347,244.431a4.678,4.678,0,0,0,.121-.793c-.141.038-.374.047-.4.13a4.142,4.142,0,0,0-.138.778C699.082,244.507,699.324,244.5,699.347,244.431Z" transform="translate(-545.272 41.653)" fill="#bc7987"/>
      <path id="Path_3249" data-name="Path 3249" d="M718.558,175.769l-.006,0v-.009l-.035-.006-.242-.1c.079.115.162.23.242.345Z" transform="translate(-507.601 -90.727)" fill="#bc7987"/>
      <path id="Path_3250" data-name="Path 3250" d="M717.81,175.036l.121.174c.03-.091.006-.147.053-.251Z" transform="translate(-508.507 -92.08)" fill="#bc7987"/>
      <path id="Path_3251" data-name="Path 3251" d="M719.165,176.842c-.413-.6-.828-1.2-1.25-1.8C717.532,176.193,718.351,176.515,719.165,176.842Z" transform="translate(-508.491 -91.914)" fill="#bc7987"/>
      <path id="Path_3252" data-name="Path 3252" d="M717.39,173.078c.071-.171.145-.339.218-.507-.165.065-.33.133-.5.195Z" transform="translate(-509.864 -96.73)" fill="#bc7987"/>
      <path id="Path_3253" data-name="Path 3253" d="M713.3,178.234c-.041-.041-.041-.077-.077-.118l-.083.171Z" transform="translate(-517.592 -85.933)" fill="#bc7987"/>
      <path id="Path_3254" data-name="Path 3254" d="M713.4,179.467c.339-.669.634-1.338.124-2.045C713.154,178.085,712.747,178.742,713.4,179.467Z" transform="translate(-517.767 -87.284)" fill="#bc7987"/>
      <path id="Path_3255" data-name="Path 3255" d="M713.323,177.663c.035-.059.071-.121.1-.18-.083-.1-.18-.106-.265-.186.018.065.044.127.062.192A1.058,1.058,0,0,1,713.323,177.663Z" transform="translate(-517.565 -87.525)" fill="#bc7987"/>
      <path id="Path_3256" data-name="Path 3256" d="M703.436,174.352c.153.177.313.357.475.536l.239-.513Z" transform="translate(-536.496 -93.262)" fill="#bc7987"/>
      <path id="Path_3257" data-name="Path 3257" d="M703.708,206.576c.042-.041-.065-.221-.1-.339l-.928,1.326v.012h0v0C703.025,207.242,703.382,206.924,703.708,206.576Z" transform="translate(-537.974 -31.175)" fill="#bc7987"/>
      <path id="Path_3258" data-name="Path 3258" d="M701.409,206.091l0,.024.153-.1v0l.012-.006-.009,0c.024-.053.044-.112.068-.168a.9.9,0,0,0-.192.233Z" transform="translate(-540.449 -31.942)" fill="#bc7987"/>
      <path id="Path_3259" data-name="Path 3259" d="M701.257,206.256c-.03.053.141.3.251.327.053.015.127-.053.2-.1l.044-.837A4.4,4.4,0,0,0,701.257,206.256Z" transform="translate(-540.745 -32.331)" fill="#bc7987"/>
      <path id="Path_3260" data-name="Path 3260" d="M705.562,204.522l.015-.009.25-.038c-.05-.012-.1-.021-.144-.029-1-.489-1.58-.121-1.851.9l0,.009-.277.065c.077.012.153.021.233.032C704.79,205.949,705.494,205.857,705.562,204.522Z" transform="translate(-536.27 -35.08)" fill="#bc7987"/>
      <path id="Path_3261" data-name="Path 3261" d="M702.432,207.92c-.053.091-.106.186-.156.277l.215-.021,0-.006.006,0,0-.012h0C702.479,208.073,702.456,208,702.432,207.92Z" transform="translate(-538.755 -27.898)" fill="#bc7987"/>
      <path id="Path_3262" data-name="Path 3262" d="M699.572,238.081l-.024-.239C699.265,238.028,699.321,238.09,699.572,238.081Z" transform="translate(-544.435 30.367)" fill="#bc7987"/>
      <path id="Path_3263" data-name="Path 3263" d="M694.8,217.953l-.033-.024-.026.08Z" transform="translate(-553.425 -8.408)" fill="#bc7987"/>
      <path id="Path_3264" data-name="Path 3264" d="M694.913,217.561l.041-.018.021-.162-.006,0v.009C694.951,217.443,694.931,217.5,694.913,217.561Z" transform="translate(-553.092 -9.481)" fill="#bc7987"/>
      <path id="Path_3265" data-name="Path 3265" d="M695.208,218.881c.159-.477.315-.958.478-1.441-.357.159-.813.242-1.02.516C694.2,218.572,694.958,218.6,695.208,218.881Z" transform="translate(-553.865 -9.36)" fill="#bc7987"/>
      <path id="Path_3266" data-name="Path 3266" d="M694.106,243.085c-.05-.027-.05-.068-.094-.1-.029.05,0,.08-.035.13Z" transform="translate(-554.917 40.387)" fill="#bc7987"/>
      <path id="Path_3267" data-name="Path 3267" d="M694.306,243.794c.33-.525.148-.911-.333-1.22A.815.815,0,0,0,694.306,243.794Z" transform="translate(-555.212 39.581)" fill="#bc7987"/>
      <path id="Path_3268" data-name="Path 3268" d="M693.961,242.535l-.115.032c.041.024.044.059.085.083C693.955,242.609,693.929,242.579,693.961,242.535Z" transform="translate(-555.17 39.505)" fill="#bc7987"/>
      <path id="Path_3269" data-name="Path 3269" d="M694.774,218.025c.02-.032,0-.053.024-.088l-.053.056C694.762,218,694.759,218.017,694.774,218.025Z" transform="translate(-553.421 -8.392)" fill="#bc7987"/>
      <path id="Path_3270" data-name="Path 3270" d="M695.421,219.788a1.224,1.224,0,0,0-.492-1.821A1.146,1.146,0,0,0,695.421,219.788Z" transform="translate(-553.577 -8.334)" fill="#bc7987"/>
      <path id="Path_3271" data-name="Path 3271" d="M700.031,213.933l.009.133c.027-.053.074-.062.1-.112-.038-.029-.068-.029-.109-.059h0c-.592.077-1.188.156-1.789.23.592-.018,1.193-.029,1.8-.05Z" transform="translate(-546.61 -16.263)" fill="#bc7987"/>
      <path id="Path_3272" data-name="Path 3272" d="M698.357,213.973l-.124.006c.012,0-.059.015-.05.018Z" transform="translate(-546.725 -16.111)" fill="#bc7987"/>
      <path id="Path_3273" data-name="Path 3273" d="M720.512,185.215c.041.03.079.065.118.1l.127-.068Z" transform="translate(-503.245 -72.109)" fill="#bc7987"/>
      <path id="Path_3274" data-name="Path 3274" d="M709.895,202.245c-.026-.15-.053-.3-.079-.445-.147.032-.362.018-.421.109s.032.283.062.43Z" transform="translate(-524.935 -39.815)" fill="#bc7987"/>
      <path id="Path_3275" data-name="Path 3275" d="M713.966,174.248l.012-.027-.074.009.018.094c-.174.7-.245,1.359.534,1.783l.015.035.009.047.006-.012C714.308,175.544,714.128,174.9,713.966,174.248Z" transform="translate(-516.298 -93.517)" fill="#bc7987"/>
      <path id="Path_3276" data-name="Path 3276" d="M713.212,172.989c.059.056.124.109.183.168a1.049,1.049,0,0,1-.006-.218Z" transform="translate(-517.46 -96.013)" fill="#bc7987"/>
      <path id="Path_3277" data-name="Path 3277" d="M713.638,173.346l.056.05.024,0,.009.035.059-.044C713.738,173.37,713.688,173.358,713.638,173.346Z" transform="translate(-516.631 -95.221)" fill="#bc7987"/>
      <path id="Path_3278" data-name="Path 3278" d="M714.348,173.994c-.368-.327-.722-.654-1.073-.981C713.245,173.723,713.811,173.844,714.348,173.994Z" transform="translate(-517.34 -95.869)" fill="#bc7987"/>
      <path id="Path_3279" data-name="Path 3279" d="M713.21,172.71c.041.147.08.292.118.439a.619.619,0,0,0,.065-.162C713.4,172.9,713.278,172.8,713.21,172.71Z" transform="translate(-517.464 -96.459)" fill="#bc7987"/>
      <path id="Path_3280" data-name="Path 3280" d="M713.212,173.142l.177-.047-.065-.236C713.289,172.953,713.253,173.048,713.212,173.142Z" transform="translate(-517.46 -96.169)" fill="#bc7987"/>
      <path id="Path_3281" data-name="Path 3281" d="M695.889,186.675c-.159.218-.315.436-.474.657.177-.094.357-.183.522-.292C695.98,187.011,695.906,186.8,695.889,186.675Z" transform="translate(-552.117 -69.266)" fill="#bc7987"/>
      <path id="Path_3282" data-name="Path 3282" d="M695.671,186.9c-.1.053-.2.112-.307.168l0,.015c-.032.041-.053.083-.085.124.05.015.08.038.13.05C695.5,187.134,695.586,187.016,695.671,186.9Z" transform="translate(-552.374 -68.832)" fill="#bc7987"/>
      <path id="Path_3283" data-name="Path 3283" d="M693.97,207.72v-.012a2.87,2.87,0,0,1,.292-.1l-.286-.038c0-.091.009-.174.012-.259-.047.08-.091.162-.138.242Z" transform="translate(-555.164 -29.091)" fill="#bc7987"/>
      <path id="Path_3284" data-name="Path 3284" d="M693.9,209.026q.734-1.3,1.465-2.6A2.909,2.909,0,0,0,693.9,209.026Z" transform="translate(-555.072 -30.811)" fill="#bc7987"/>
      <path id="Path_3285" data-name="Path 3285" d="M695.581,203.6l-.009.018-.864.513.8-.386h0c.731-.186,1.432-.413,1.671-1.256C695.873,201.65,695.378,202.078,695.581,203.6Z" transform="translate(-553.489 -39.296)" fill="#bc7987"/>
      <path id="Path_3286" data-name="Path 3286" d="M709.821,177.13c.018-.021.021-.035.038-.056h0c-.035-.026-.085-.018-.127-.035l-.024.071C709.756,177.113,709.777,177.124,709.821,177.13Z" transform="translate(-524.281 -88.03)" fill="#bc7987"/>
      <path id="Path_3287" data-name="Path 3287" d="M712.31,181.582c-.112-1.754,1.323-4.191-2-4.512C707.977,179.941,711.066,180.338,712.31,181.582Z" transform="translate(-524.766 -87.969)" fill="#bc7987"/>
      <path id="Path_3288" data-name="Path 3288" d="M710.4,177.922c-1.571-.743-1.671,1.314-2.773,1.553l.177-.091c.9.457,1.86,1.129,2.608-.141C710.613,178.9,710.586,178.008,710.4,177.922Z" transform="translate(-528.335 -86.623)" fill="#bc7987"/>
      <path id="Path_3289" data-name="Path 3289" d="M710.551,178.908c.044-.038.038-.062.089-.1h0a2.33,2.33,0,0,0-.212-.2,2.17,2.17,0,0,0,.006.242C710.474,178.863,710.51,178.887,710.551,178.908Z" transform="translate(-522.883 -84.988)" fill="#bc7987"/>
      <path id="Path_3290" data-name="Path 3290" d="M711.709,181.357c1.474-1.353.472-2.031-.731-2.652C709.426,180.061,710.5,180.727,711.709,181.357Z" transform="translate(-523.311 -84.786)" fill="#bc7987"/>
      <path id="Path_3291" data-name="Path 3291" d="M710.768,179.6c-.038.035-.035.059-.077.1.056.08.118.115.177.189-.006-.074,0-.165-.006-.23Z" transform="translate(-522.369 -83.033)" fill="#bc7987"/>
      <path id="Path_3292" data-name="Path 3292" d="M706.664,179.341l-.124.354.156-.094A2.509,2.509,0,0,1,706.664,179.341Z" transform="translate(-530.452 -83.547)" fill="#bc7987"/>
      <path id="Path_3293" data-name="Path 3293" d="M707.68,178.592l.115-.28s-.177.091-.162.085A1,1,0,0,1,707.68,178.592Z" transform="translate(-528.326 -85.551)" fill="#bc7987"/>
      <path id="Path_3294" data-name="Path 3294" d="M692.954,237.159v-.009a1.332,1.332,0,0,1,.242-.035l-.23-.1c0-.083.02-.159.02-.239l-.135.189Z" transform="translate(-557.107 28.297)" fill="#bc7987"/>
      <path id="Path_3295" data-name="Path 3295" d="M695.986,240.593q-1.521-.553-3.044-1.111A3.17,3.17,0,0,0,695.986,240.593Z" transform="translate(-556.932 33.56)" fill="#bc7987"/>
      <path id="Path_3296" data-name="Path 3296" d="M693.239,238.378c.018.121.044.239.065.36l.189-.053Z" transform="translate(-556.352 31.411)" fill="#bc7987"/>
      <path id="Path_3297" data-name="Path 3297" d="M693.091,238.2c.145.177.289.351.436.528a3.889,3.889,0,0,0-.088-.463C693.424,238.214,693.212,238.22,693.091,238.2Z" transform="translate(-556.64 31.062)" fill="#bc7987"/>
      <path id="Path_3298" data-name="Path 3298" d="M693.261,238.533c.05.091.032.162.065.248l.118-.3Z" transform="translate(-556.309 31.615)" fill="#bc7987"/>
      <path id="Path_3299" data-name="Path 3299" d="M693.961,238.584q-.513,1.322-1.023,2.632l0,.006,0,0,0,.006.018.006-.015-.012C693.474,240.4,694.391,239.719,693.961,238.584Z" transform="translate(-556.944 31.812)" fill="#bc7987"/>
    </g>
  </g>
</svg>
