<svg xmlns="http://www.w3.org/2000/svg" width="683.836" height="605.252" viewBox="0 0 683.836 605.252">
  <g id="Group_56" data-name="Group 56" transform="matrix(0.819, 0.574, -0.574, 0.819, -442.593, -920.128)">
    <g id="Group_55" data-name="Group 55" transform="translate(1032.58 400.248)">
      <path id="Path_2650" data-name="Path 2650" d="M1087.837,414.915l.02.006-.049-.046Z" transform="translate(-827.334 -345.889)" fill="#bc7987"/>
      <path id="Path_2651" data-name="Path 2651" d="M1048.364,409.005c-.061.028-.123.038-.18.061l.156.227Z" transform="translate(-974.591 -367.705)" fill="#bc7987"/>
      <path id="Path_2652" data-name="Path 2652" d="M1653.131,651.162c4.211-9.768,1.716-20.493-1.179-30.435-1.774-6.08-5.17-11.73-8.188-17.389-3.617-6.777-3.612-15.446-9.994-20.667-4.622-3.778-6.367-8.6-6.862-14.045-.15-1.622.51-3.552-.91-4.589-11.347-8.282-19.625-20.71-33.642-25.332-3.532-1.165-8.409-.113-10.735-2.976-9.508-11.711-27.085-13.012-34.538-27.209a5.059,5.059,0,0,0-3.259-2.443c-7.405-.84-13.88-3.905-20.761-6.438-20.139-7.424-39.216-18.5-61.129-20.875-1.651-.184-3.132-2.146-4.65-3.335-5.5-4.32-11.649-8.994-18.318-8.961-6.6.033-10.593-2.49-13.71-6.975a14.632,14.632,0,0,0-12.749-6.188c-11.216.538-20.87-7.2-32.123-5.126-13.72-11.046-32.694-1.042-46.551-11.593a1.9,1.9,0,0,0-1.613-.075c-8.82,3.966-15.89.113-22.677-5.023-1.783-1.349-3.57-.552-5.5-.424-6.668.429-13.135-.118-18.846-4.49-2.546-1.948-5.829-1.986-9.267-2.07-9.7-.231-19.262-1.6-28.515-5.311-5.089-2.042-10.933-2.405-16.493-3.056-11.475-1.344-24.2,3.25-33.661-7.419a3.79,3.79,0,0,0-2.972-1.174c-12.375,2.542-23.389-3.085-34.849-5.806-5.985-1.424-12.078-2.693-17.455.528-5.99,3.589-11.885,5.716-18.729,3.726a12.084,12.084,0,0,0-11.621,2.462c-4.75,4.047-9.249,6.655-15.512,3.141-2.466-1.382-4.957.679-6.683,2.165-2.556,2.193-4.655,2.731-8.117,1.924-6.622-1.538-12.277-.089-14.414,7.754-.745,2.721-3.4,4-5.9,5.48-13.032,7.7-22.757,18.219-24.195,33.958-.491,5.4-.411,10.291-2.963,15.564-1.919,3.962-1.476,10.1.062,14.517,5.254,15.107,11.484,29.576,22.681,41.877,10.947,12.027,19.587,26.063,34.467,34.264,5.566,3.07,11.574,5.065,16.956,8.763,9.819,6.744,20.172,12.668,27.562,21.832,4.967,1.627,7.971,5.419,12.673,7.042,14.71,5.075,28.44,12.739,42.759,18.507,15.007,6.051,29.784,12.635,44.781,18.521,11.64,4.566,23.747,7.754,34.7,14.253,4.556,2.7,9.989,4.151,15.2,5.495,12.9,3.334,25.864,6.485,38.886,9.324,10.494,2.287,21.559,1.99,31.4,7.324,1.476.8,3.763.34,5.64.142,7.226-.759,14.244,1.269,20.365,4.075,12.829,5.867,26.813,7.787,40.075,11.4,12.918,3.514,26.624,8.164,40.9,5.952,16.394-2.537,32.788,4.245,49.446-.292a64.858,64.858,0,0,1,26.492-1.67c6.315.943,12.267-1.6,18.333-2.731,3.485-.651,6.819-.231,10.13-.387,9.074-.424,18.314.491,27.123-.651,11.616-1.509,23.308-4.461,33.053-12.3,7.23-5.811,12.749-13.479,21.021-18.182C1653.852,662.51,1651.05,655.982,1653.131,651.162Zm-6.5-20.917a1.426,1.426,0,0,1-2.589.264c-2.217-2.886-4.825-5.825-1.684-9.612a10.772,10.772,0,0,1,1,.957C1645.414,624.274,1647.886,626.618,1646.627,630.245ZM1056.251,455.032c-2.263,3.372-5.872,5.848-9.207,9.06-2.561-3.966-.457-6.6,1.382-9.211,3.047-4.339,7.216-7.419,8.306-13.711.556-3.226,8.1-5.5,12.753-7.607,1.5-.679,3.971-.967,3.764-2.415-1.184-8.353,4.678-5.768,9.155-7.056,12.012-3.448,25.7-.905,36.165-9.98,2.542-2.2,4.811-.665,6.249,1.656,2.2,3.561,5.551,3.528,7.7,1.226,5.263-5.646,11.182-5.287,17.771-3.726,1.4.33,3.938.5,4.584.123,10.6-6.093,19.6-2.335,28.374,3.966,1.674,1.2,3.056-.665,4.575-1.089,6.277-1.75,11.164-.863,13.71,6.1,1.34,3.674,4.995,2.32,7.353,1.792,10.767-2.41,21.53,1.169,32.42-.5,5.122-.788,10.206,3.839,14.71,7.155,2.745,2.023,5.74,4.179,9.041,2.273,9.032-5.226,16.064.052,23.455,3.872,2.179,1.127,4.155,2.028,6.98,1.821,6.853-.5,13.753-1.165,19.436,4.924,2.557,2.736,6.508,3.74,11.362,1.679,4.566-1.939,10.386-.726,14.654,2.877,3.349,2.825,6.409,2.736,10.583,1.632,8.367-2.207,17.2-2.462,23.917,4.094,4.948,4.825,10.225,3.245,15.333,2.254,3.656-.708,6.226-.349,9.06,1.924a14.279,14.279,0,0,0,6.655,3.24c8.4,1.038,16.04,3.1,21.337,10.484.792,1.1,3,1.778,4.5,1.679,8.56-.561,15.187,3.547,20.592,9.258,3.481,3.674,7.009,4.844,11.513,3.915,6.287-1.3,11.38.481,15.922,4.929,3.82,3.735,7.942,5.8,14.036,4.834,3.881-.613,9.291,1.222,12.31,3.891a52.088,52.088,0,0,0,19.932,11.022c9.145,2.419,16.059,5.66,21.167,13.281,18.116-.486,25.841,21.323,44.093,20.554,6.263,6.825,18.625,7.221,19.979,19.361.406,3.608,6.339,2.429,6.985,5.065,2.145,8.777,4.857,16.833,13.762,21.044-2.919,8.862,6.018,13.192,7.891,20.313a55.915,55.915,0,0,1,1.594,9.2c-6.984-7.357-11.72-16.446-18.262-24.233-2.612-3.108-5.084-7.362-8.05-10.088-8.593-7.891-14.814-18.922-27.322-22.04-1.566-.387-3.6-1.165-4.3-2.4-4.844-8.556-14.913-11.659-20.417-18.309-7.763-9.385-17.738-8.664-27.015-11.7-.948-.311-2.943.415-3.075.094-3.372-8.188-12.206-6.169-17.9-9.782a98.548,98.548,0,0,0-38.778-13.96c-2.7-.4-5.626-.726-6.159-3.075-2.532-11.178-10.876-9.522-18.729-8.928-3.023.231-5.721-.217-7.452-2.7-3.806-5.466-8.928-7.1-14.951-4.957-5.839,2.08-11.291-.646-16.937-.557-1.811.028-3.806-1.08-4-2.5-1.4-10.249-9.848-8.164-15.97-8.527-3.815-.222-8-.627-9.951-2.844-5.117-5.839-10.772-4.183-16.357-2.467-6.7,2.061-11.748.665-15.3-5.362-2.542-4.32-5.174-4.721-10.112-2.849-8.518,3.231-17.607,5.037-24.573-4.037-1.118-1.458-3.533-3.523-4.589-3.155-6.428,2.269-11.3-1.542-15.068-4.877-6.976-6.164-13.966-6.513-21.95-3.481-3.5,1.335-6.877,1.886-9.928-1.2-2.3-2.325-4.641-1.146-7.523-.571-6.994,1.391-14.621,4.735-19.922-4.5-2.42-4.226-7.508-.141-11.385-.443-2.165-.17-5.551,1.382-6.89-.222-5.542-6.631-12.9-4.537-19.592-4.447-7.693.1-12.177-7.4-19.639-7.268-10.248.174-20.507-1.047-30.647-1.731-10.744-.722-21.181,3.938-32.661-.849-5.415-2.259-15,3.141-23.252,2.948-2.014-.047-4.551,4.1-8.282,1.877-.608-.363-2.5.245-2.947.948C1075.814,442.237,1062.929,445.048,1056.251,455.032Zm46.536-18.37-.009,0,0,0Zm-3.768,3.811c-.485-.2-.976-.406-1.461-.613l.467-.623C1098.359,439.647,1098.689,440.058,1099.018,440.473Zm-31.137,12.418c6.745-.425,9.527-4.726,13.2-8.617,2.358-2.49,4.075-4.056,8.377-2.179,5.127,2.236,11.191,1.839,16.714-.486q-1.683-2.476-3.372-4.947c13.159-2.16,26.157-.467,39.325.344,9.579.585,19.8-1.844,29.525-.83,8.758.915,17.931,2.919,24.775,9.721l.052-.278c5.15-2.108,9.612,0,14.715,1.061,10.465,2.165,20.818,5.1,31.312,6.8a142.9,142.9,0,0,0,34.9,1.533c1.614-.137,3.707-1.434,4.716-.806,10.207,6.343,23.158,7.145,32.1,15.913.863.844,2.65,1.509,1.777,3.25-.919,1.844-2.5,1.679-4.249,1.17-6.2-1.811-12.428-3.514-18.649-5.259,6.306,7.424,22.431,10.767,30.458,6.617,8.81-4.561,18.026-7.409,25.907,1.321,4.495,4.98,10.277,3.382,14.361,2.363,5.764-1.443,10.14.16,15,1.8,9.607,3.24,20.54,2.589,28.058,11.876,3.108,3.844,9.338,4.32,14.738,2.462,5.108-1.754,10.433-.892,13.847,2.6,4.174,4.259,9.079,5.174,14.1,5.184,6.5.019,11.041,2.019,15.71,6.862,3.622,3.759,8.485,8.192,15.408,6.353,1.759-.467,4.6.674,6.08,2.028,7.3,6.711,17.366,7.754,25.69,12.706,7.032,4.184,15.607,8.367,25.209,7.876a15.571,15.571,0,0,1,13.559,6.947,11.3,11.3,0,0,1,.769,1.485c3.905,8.4,16.22,3.424,19.766,12.494,3.24,8.287,9.824,12.069,18.28,13.583,1.99.358,4.688,1.948,5.368,3.646,4.428,11.074,16.05,15.847,21.893,25.417,4.924,8.065,12.659,14.253,15.1,24.077,1.019,4.113.66,5.216-3.292,4.641-11.7-1.707-21.5-7.372-30.472-14.776-6.447-5.315-11.8-12.663-21.775-11.645-1.269.127-2.971-1.434-4.07-2.6-4.594-4.849-10.8-5.98-15.64-2.764-6.8,4.518-10.329.259-11.319-4.08-2.155-9.485-9.9-8.277-15.866-9.386-4.721-.877-6.862-1.533-8.013-6.876-1.659-7.73-9.126-5.528-13.578-4.075-8.683,2.835-14.494,2.372-17.064-7.56-1-3.853-4.16-4.877-7.9-4.495-4.051.415-8.155.462-12.144,1.174-3.405.608-5.792-.283-6.173-3.65-.8-7.122-5.609-6.31-9.575-4.325-3.656,1.83-7.16-.727-10.5,1.014a1.92,1.92,0,0,1-2.7-1.208c-.82-12.725-10.451-7.641-16.649-7.6-4.3.023-7.051.773-8.928-4.24-1.467-3.91-6.014-3.726-9.465-3.094-6.617,1.2-11.065-.863-12.074-7.584-.948-6.292-5.943-4.207-8.772-4.061a47.158,47.158,0,0,0-16.46,3.58c-5.56,2.476-6.5-.556-7.268-4.325-1.014-4.976-3.349-6.947-8.594-5.678-4.6,1.113-10.3,4.636-11.437-4.655-.363-2.962-4.226-2.165-7.061-1.146-4.886,1.75-9.885,3.825-13.951-2.1-1.415-2.066-3.8-1.8-6.655-.844-7.508,2.5-15.4,4.235-23.082.307-2.292-1.174-4.811-1.052-6.306.2-5.235,4.372-11.526,2.533-15.5.288-7.773-4.391-16.512-7.669-23.129-13.461-4.645-4.07-9.145-4.391-13.2-2.6-4.537,2.009-7.174.589-10.607-1.538-11.668-7.216-24.143-10.758-37.749-6.565-2.236.689-4.245.821-5.183-.783-3.778-6.452-9.829-7.485-16.38-7.485-3.646,0-5.23-1.509-6.108-5.188-1.179-4.924-4.81-6.339-9.541-4.193-6.438,2.919-12.857,4.438-18.932-.712-2.444-2.075-4.688-.2-7.028-.047-4.933.33-9.848,2.622-14.111-2.9-3.085-3.985-6.994.986-10.423,1.618-3.311.6-6.339,1.292-8.286-1.061-4.481-5.429-9-3.8-13.928-1.226-1.9,1-16.918-4.985-16.559-6.688C1059.963,457.73,1064.156,453.127,1067.881,452.891Zm100.893,48.159c-.977-6.084-4.754-7.042-9.358-3.122a28.735,28.735,0,0,1-12.97,6.211c-7.508,1.707-10.5-1.627-11.838-7.716-1.122-5.127-3.528-6.32-8.329-4.721-7.339,2.448-14.88,2.236-22.506,1.316-2.218-.274-4.42-1-4.721-2.646-1.7-9.258-6.5-3.868-9.909-2.014-8.721,4.74-16,3.683-20.163-3.028-2.315-3.735-1.174-5.952,2.453-6.848a37.739,37.739,0,0,1,14.291-.576c12.884,1.7,25.732,3.764,38.772,4.533,7.5.443,14.881,1.854,22.4.292a4.372,4.372,0,0,1,4.443,1.839c4.183,6.013,9.9,8.612,17.112,7.862,1.962-.208,3.74.6,3.976,2.16,1.434,9.536,7.985,5.716,13.022,4.971,10.664-1.571,21.553-2.806,30.085,5.079,5.051,4.669,9.848,5.348,15.531,3.353,2.235-.783,4.3-1.769,6.249-.335,7.051,5.193,15.729,7.273,22.983,11.489,10.06,5.848,20.082,5.716,30.595,5.216,6.132-.292,12.328.59,18.418-1.132a6.057,6.057,0,0,1,4.692.929c5.542,4.339,11.032,7.372,17.568,1.9a.8.8,0,0,1,.769.047c6.98,7.815,19.757,3.424,25.978,11.531,6.457,8.428,13,2.264,18.9,1.033,7-1.453,11.7-2.358,13.192,6.461.344,2.033,2.618,3.41,5.937,2.995,5.594-.707,10.994.486,13.914,6.556,3.424,7.122,9.31,1.665,13.635,1.665,5.678,0,9.583-.519,12.3,5.848,1.8,4.212,6.778,3.3,10.975,2.608,4.462-.731,8.9-3.056,12.258,3.726,1.415,2.854,7.716,4.509,13.239,3.316,5.112-1.108,11.861-4.627,14.362,5.575,1.245,5.084,6.763,9.018,14.045,5.589,5.872-2.759,11.649-.83,15.394,4.561,3.042,4.377,7.377,5.622,12,6.065,6.579.627,11.4,3.787,12.786,10,1.674,7.5,6.707,7.806,11.593,5.594,6.65-3.009,11.607-1.665,18.262.854,11,4.155,18.955,12.814,29.59,17.1,1.458.589,1.5,2.052,1.434,3.556a2.6,2.6,0,0,1-2.453,2.8c-4.579.382-9.6,2.523-14.111-3.971-1.939-2.122-6.023-.863-9.669-1.023-10-.434-20.563,1.434-27.732-8.48-.793-1.094-3.518-2.052-4.533-1.519-8.207,4.325-11.607-2.75-16.431-6.518-1.751-1.368-3.59-3.075-5.933-2.717-5.618.854-8.735-2.556-11.852-6.277-3.259-3.891-7.211-5.924-12.437-4.231-.967.316-2.632.773-2.995.339-8.824-10.395-25.469-5.825-33.708-18.111-3.3-4.914-11.574-4.811-15.224-10.73-1.3-2.108-4.023-.269-5.315.354-4.782,2.287-10.183,2.3-14.866,4.4-5.57,2.49-8.687.321-9.815-4.716-1.457-6.5-4.084-9.2-11.371-7.9-4.481.8-9.324-1.769-11.88-6.306-3.273-5.8-8.527-6.306-13.578-4.231-6.131,2.523-12.815,4.051-18.7,3.212-6.91-.986-17.818,2.429-20.271-5.282-4.32-13.55-12.112-11.815-22.266-9.89-4.49.849-10,1.2-14.064-3.9-2.953-3.712-7.683-1.632-11.748-.495-5.028,1.41-9.5,3.023-13.366-3.523-3.348-5.664-10.126-1.071-15.229-1.372-6.73-.4-13.192,2.528-16.578-7.028-1.184-3.344-7.957-1.1-12.088-1.783-13.762-2.25-30.624,4.6-39.362-12.975a4.986,4.986,0,0,0-5.585-2.594c-5.372,1.085-10.381-.745-15.555-1.165C1170.416,504.865,1169.307,504.375,1168.774,501.05Zm-3.849,10.593c-4.273,3.061-8.589-1.179-13.036-1.17-.891,0,0-2.6.5-2.589,3.579.075,7.1-5.363,10.724-.208C1163.444,509.181,1167.193,510.02,1164.925,511.643Zm-40.914-8.065c-1.443-.858-3.4-1.269-3.018-3.669.033-.2.962-.382,1.462-.358C1125.784,499.706,1123,502.427,1124.011,503.578Zm-68.184-31.345c1.273.175,2.617-.217,4.594-.415-2.674,4.094-6.009,2.75-8.7,3.434C1050.629,470.87,1053.341,471.893,1055.827,472.233Zm-7.6,41.183c17.988,1.259,33.416,7.183,45.329,20.926,4.372,5.042,10.088,9.683,16.927,9.471,6.787-.207,9.914,3.518,11.791,8.277,1.689,4.278,4.1,5.216,8.051,5.24,9.8.057,18.993,1,25.052,10.734,3.514,5.646,10.532,3.575,16.031,4.249,5.641.7,9.867,4.037,14.682,5.957,16.446,6.561,30.213,17.663,46.069,25.143,9.961,4.7,20.21,8.32,30.317,12.437,4.693,1.915,9.772,3.476,13.928,3.207,12.621-.821,22.464,8.489,34.67,8.107,1.642-.052,3.4.264,4.9-.208,9.9-3.07,16.466,1,21.139,9.475.344.627.891,1.49,1.462,1.594,14.29,2.66,27.553,9.56,42.476,9.876a35.7,35.7,0,0,1,17.176,4.674c4.877,2.872,9.754,4.042,14.989,2.325,4.835-1.58,8.66-.278,11.867,3.132,4.481,4.763,9.829,6.839,16.21,5.617,13.352-2.566,24.756,5.207,37.3,6.9,1.386.189,3.532,1.354,3.183,3.245-.292,1.571-1.915,2.448-3.848,2.585-4.458.311-9.528,1.481-12.621-2.306-5.047-6.16-11.391-5.9-17.884-4.8-8,1.358-15.268,1.471-23.007-2.523a27.973,27.973,0,0,0-17.517-2.6,25,25,0,0,1-23.464-7.754A12.158,12.158,0,0,0,1372.3,652.5c-5.683.807-10.334-.882-14.776-3.726-4.735-3.037-9.669-5.009-15.3-3.688-6.821,1.6-13.32-1.156-18.975-3.292-11.414-4.316-23.35-4.948-34.948-7.593-7.64-1.745-10.06-3.938-8.032-10.046.439.382.873.764,1.312,1.146q-.594-.609-1.193-1.217l-.118.066h0l.118-.066c-15.144,1.7-27.062-8.386-40.985-11.281-6.947-1.443-13.856-3.6-19.743-8.042a5.249,5.249,0,0,0-3.858-1.08c-12.305,3.292-22.115-2.929-32.241-8.107a6.5,6.5,0,0,1-2.593-2.82c-4.952-7.909-12.022-11.772-21.582-12.734-15.206-1.528-29.874-4.919-37.151-21.03-3.787-8.39-12.531-4.929-18.852-7.235-1.872-.684-4.31-.34-6.268-1.528C1079.583,539.582,1065.763,524.136,1048.228,513.416Zm84.334,33.576c-.387.618-.778,1.24-1.166,1.863l-.646-.915Zm-62.124-4.051a2.1,2.1,0,0,1-.118-2c.962-1.137,1.948-.42,2.59.5a5.966,5.966,0,0,1,.57,1.877A1.982,1.982,0,0,1,1070.438,542.941Zm6.438,5.094c-.986-.472-1.873-1.358-1.066-2.514.264-.382,1.448-.453,2.033-.217,1.019.41,1.812,1.207.967,2.83A4.906,4.906,0,0,1,1076.876,548.034ZM1498.17,695.6a124.161,124.161,0,0,1-23.238-1c-8.683-1.288-17.154.264-25.728-.835a201.1,201.1,0,0,1-23.535-4.707c-15.823-3.971-30.543-11.56-47.4-12.626-7.918-.5-16.743-1.764-24.341-6.636-6.966-4.471-15.772-2.613-23.653-3.75-11.357-1.632-22.1-5.306-33.245-7.343-13.678-2.5-25.327-9.522-37.51-15.46-5.881-2.868-12.564-3.009-18.747-5.594-8.466-3.533-16.786-6.9-24.252-12.357-4.037-2.948-9.456-2.405-14.074-3.259-6.008-1.113-10.63-4.594-16.021-6.211-12.559-3.759-22.048-14.394-35.9-15.286-3.232-.208-6.274-3.32-10.995-6-6.06-12.39-21.742-15.191-31.859-25.27-2.519-2.509-6.612-1.443-9.914-3.3-6.183-3.476-10.923-8.5-16.366-12.758-1.235-.971-1.712-2.386-.316-3.481a1.92,1.92,0,0,1,2.844.825c2.825,7.773,10.555,6.7,16.154,7.961,7.031,1.58,12.734,3.726,17.662,9.272,10,11.249,21.7,19.224,38.024,17.9,5-.41,9.371,3.4,12.762,7.051,6.179,6.645,14.036,10.871,21.346,15.913,3.726,2.566,8.036,1.344,11.806,1.552,9.4.5,18.11,2.467,25.1,8.612,9.141,8.032,21.276,8.305,31.761,12.659,6.4,2.655,13.21,5.735,20.35,7.48,16.979,4.141,33.439,10.253,51.017,12.145,10.725,1.156,20.737,6.763,31.255,7.744,11.762,1.1,20.365,9.15,31.5,11.112,3.858.684,7.532-.09,11.23.561,14.932,2.622,29.416,8.442,45.065,6.009a7.711,7.711,0,0,1,5.447,1.759c7.608,6.527,16.824,6.339,25.4,4.655,4.74-.929,7.055.688,10.357,2.561,2.735,1.552,4.617,4.881,8.721,4.061,2.287-.458,4.848,1.085,4.687,3.556C1503.362,696.072,1500.071,695.52,1498.17,695.6Zm28.138-8.914c-9.192,1.424-18.309,2.443-24.888-3.5-2.872-1.2-3.571-2.618-3.156-3.891.632-1.948,2.226-.311,3.372-.453,8.221-1.014,16.1,1.316,24.1,2.377,1.637.217,3.457.8,3.311,2.905A2.893,2.893,0,0,1,1526.307,686.686Zm19.21-1.613c-.335.188-.675.382-1.015.571C1544.338,684.073,1544.979,684.705,1545.517,685.073Zm.386-.042c5.476-5.74,12.212-4.622,20.281-3.066C1559.341,687.426,1552.794,687.276,1545.9,685.031Zm55.295-11.154c-9.173-.023-17.969,2.052-26.925,3.306a4.948,4.948,0,0,1-3.867-1.16c-8.306-9.739-16.23-2.806-24.289.335-6.127,2.382-12.3,3.886-17.121-2.448-2.386-3.127-5.575-1.877-8.3-1.717-9.569.557-18.682,1.123-26.883-5.966-4.981-4.306-12.758-.684-18.677-3.844-.589-.316-1.943.533-2.353.174-10.9-9.546-23.8-7.565-36.533-6.372a5.68,5.68,0,0,1-5.07-2.4c-4.622-5.971-10.584-7.631-17.767-6.466-6.216,1-11.305-2.688-16.776-4.061-9.008-2.259-17.847-5.877-27.313-6.617-10.65-.83-23.1-1.9-28.949-10.494-6.953-10.22-15.182-7.791-23.549-7.343-6.607.354-12.819,1.8-17.507-4.561-1.707-2.311-4.745-1.778-7.022-1.788a102.634,102.634,0,0,1-50.965-13.946c-2.73-1.547-6.244-.792-8.645-1.811-5.24-2.217-12.244-3.348-12.6-11.437-.1-2.2-1.849-2.594-4.109-2.971-6.423-1.066-12.248-4.641-19-4.773-1.16-.024-3.3-1.486-3.283-2.236.3-10.187-8.3-8.051-13.545-9.2-8.056-1.764-16.318-2.25-21.077-10.4-.826-1.415-2.231-1.406-3.66-1.349-7.862.321-14.3-2.957-20.054-7.975a1.622,1.622,0,0,0-2.717.5c-2.924-.59-5.99-1.4-7.82-3.981-2.934-4.15-7.754-5.226-11.7-5.207-10.324.052-15.615-5.83-19.082-14.093-1.344-3.212-3.052-4.759-6.207-5.65-10.287-2.91-20.5-6.1-30.1-10.857-6.235-3.094-10.027-8.862-13-14.72-1.155-2.287-3.943-7.108-.575-8.857a15.49,15.49,0,0,1,12.683-.656c3.282,1.34,6.027,3.91,6.824,6.98,2.344,9,8.721,10.531,15.673,7.777,7.357-2.91,12.828-1.033,19.936,1.207,7.843,2.476,16.11,6.461,25.02,5.051,4.759,2.259,9.216,5.226,14.116,6.579,9.9,2.736,20.021,4.731,30.123,6.641,1.674.316,4.556,1.217,5.716-1.726l.037,0c2.349-2.627,7.547-3.7,11.655-1.91,2.57,1.122,5.862,2.259,3.546,6.509-1.543,2.825,1.354,2.806,2.792,3.174,12.791,3.278,25.166,9.055,38.787,7.556,5.919-.646,10.121,1.165,14.625,4.919,5.329,4.443,12.352,2.5,18.738,2.523,4.145.014,8.371-1.613,10.626,4.547,1.589,4.334,6.791,3.127,10.225,1.764,6.126-2.434,11.253-3.844,17.215,1.325,4.73,4.1,11.46,2.2,17.238,1.188,3.91-.679,6.5-.524,9.268,2.924,11.305,14.1,25.515,17.4,42.32,10.7,5-1.99,10.3-2.745,13.767,3.174a2.4,2.4,0,0,0,1.179,1.151c11.819,2.882,21.266,9.183,29.544,18.177,3.329,3.617,8.324-.2,12.125-2.391,4.958-2.849,9.476-4.5,13.763,1.344,2.632,3.584,8.056,2.5,11.154,5.183,11.144,9.617,25.124,14.932,38.315,18.644,10.263,2.886,18.187,11.06,29.185,11.093,1.212,0,3.414,1.056,3.485,1.792.905,9.2,8.343,7.626,13.762,7.749a21.086,21.086,0,0,1,13.564,4.7c5.357,4.2,12.376,3.3,18.615,3.476,4.707.137,9.2.523,11.8,4,3.156,4.207,7.24,4.146,10.919,3.4,10.178-2.085,19.252-.052,28.293,4.664,5.146,2.679,7.532,6.82,10.041,11.6,2.287,4.363-.646,6.57-3.061,6.957C1618.4,666.769,1610.82,673.9,1601.2,673.876Zm12.447,7.716c-1.1-1.042-1.712-2.047-.458-3.481,1.434-1.641,2.769-1.424,4.23-.137,1.556,1.377.212,2.42-.151,3.136C1615.928,683.167,1614.805,682.682,1613.645,681.592Zm30.368-31.887c-.009-2.627-.174-5.513.042-8.376a1.426,1.426,0,0,1,2.453-.958c2.612,2.495.061,5.509.476,8.291C1647.1,649.469,1645.877,650.5,1644.014,649.7Z" transform="translate(-1032.58 -400.248)" fill="#bc7987"/>
      <path id="Path_2653" data-name="Path 2653" d="M1126.955,451.358c.052-.057.108-.085.16-.137-.062-.042-.118-.094-.184-.132Z" transform="translate(-681.938 -211.306)" fill="#bc7987"/>
      <path id="Path_2654" data-name="Path 2654" d="M1207.512,467.379c-19.073-5.028-38.188-9.909-57.295-14.824-8.037-2.07-16.177-5.15-23.247,2.254,1.264.835,2.226,2.033,4.146,1.915,16.083-1.028,31.524,1.424,46.937,6.551a127.426,127.426,0,0,0,32.1,6.424C1209.309,468.794,1208.526,467.644,1207.512,467.379Z" transform="translate(-681.793 -214.895)" fill="#bc7987"/>
      <path id="Path_2655" data-name="Path 2655" d="M1144.607,454.274c.112.123.222.269.339.377l-.01-.344C1144.824,454.3,1144.715,454.284,1144.607,454.274Z" transform="translate(-616.248 -199.469)" fill="#bc7987"/>
      <path id="Path_2656" data-name="Path 2656" d="M1043.541,424.46c4.687,5.065,5.824,14.21,15.356,14.14-4.17-4.358-4.2-4.424,1.834-6,3.769,2.769,7.66,5.249,12.6,5.231l.057.292a2.685,2.685,0,0,1,.316-.175,1.48,1.48,0,0,0-.363-.1c-.679-1.948.92-3.047,1.74-4.433-7.985-7.5-19.634-6.145-28.481-11.692C1044.545,420.433,1042.106,422.914,1043.541,424.46Zm18.573,7.593a4.616,4.616,0,0,1-1.255.41c-.67-.443-1.505-1.179-.717-1.693C1061.307,430.016,1061.736,431.139,1062.114,432.054Z" transform="translate(-993.449 -321.782)" fill="#bc7987"/>
      <path id="Path_2657" data-name="Path 2657" d="M1049.888,424.069a1.914,1.914,0,0,1,.161.127l-.028-.321C1049.988,423.942,1049.926,424,1049.888,424.069Z" transform="translate(-968.258 -312.439)" fill="#bc7987"/>
      <path id="Path_2658" data-name="Path 2658" d="M1123.305,455.315c-15.39-5.245-31.175-9.23-45.522-17.219-1.457-.816-2.83-2.165-4.2-.142-1.51,2.226-.18,3.617,1.759,4.584a39.012,39.012,0,0,0,5.31,2.386c14.668,4.806,29.218,10.088,44.122,14.008,5.372,1.41,10.8,4.438,16.8,3.108C1137.421,455.089,1129.243,457.344,1123.305,455.315Z" transform="translate(-882.615 -264.059)" fill="#bc7987"/>
      <path id="Path_2659" data-name="Path 2659" d="M1087.487,442.241c.066.113.151.179.217.3l.015-.316A1.939,1.939,0,0,1,1087.487,442.241Z" transform="translate(-828.526 -244.259)" fill="#bc7987"/>
      <path id="Path_2660" data-name="Path 2660" d="M1127.052,451.325c0,.033-.024-.236-.024-.236-.034.024-.085.028-.123.052C1126.952,451.2,1127,451.268,1127.052,451.325Z" transform="translate(-682.035 -211.306)" fill="#bc7987"/>
      <path id="Path_2661" data-name="Path 2661" d="M1124.511,448.751c-.189-.255-2.037.34-2.721.967-1.16,1.061-.849,2.273.085,3.608,5.207,7.433,19.318,11,26.827,6.73-.849-1-1.57-2.292-2.632-2.7C1138.868,454.58,1130,456.014,1124.511,448.751Z" transform="translate(-703.831 -220.221)" fill="#bc7987"/>
      <path id="Path_2662" data-name="Path 2662" d="M1055.252,425.264c-.042.047-.094.113-.142.17l.156.057Z" transform="translate(-948.848 -307.281)" fill="#bc7987"/>
      <path id="Path_2663" data-name="Path 2663" d="M1074.1,431.4c-6.942-2.6-13.857-5.282-20.865-7.678-.854-.292-2.109.585-3.235,1.109,7.532,2.731,15.055,5.49,22.624,8.107C1072.908,433.033,1073.569,432.028,1074.1,431.4Z" transform="translate(-967.838 -313.243)" fill="#bc7987"/>
      <path id="Path_2664" data-name="Path 2664" d="M1049.944,424.2c.123-.047.25-.118.373-.174l-.4-.146Z" transform="translate(-968.154 -312.439)" fill="#bc7987"/>
      <path id="Path_2665" data-name="Path 2665" d="M1083.879,437.507c-6.659-6.226-16.526-4.886-23.747-9.8C1066.849,433.828,1074.352,438.082,1083.879,437.507Z" transform="translate(-930.188 -298.206)" fill="#bc7987"/>
      <path id="Path_2666" data-name="Path 2666" d="M1059.985,427.757c.221.165.466.269.693.424-.222-.2-.453-.391-.679-.6Z" transform="translate(-930.734 -298.681)" fill="#bc7987"/>
      <path id="Path_2667" data-name="Path 2667" d="M1056.16,427.714c5.528,3.688,11,7.777,17.757,2.589a6.351,6.351,0,0,0-2-.033C1066.277,431.817,1062.028,424.526,1056.16,427.714Z" transform="translate(-944.949 -301.208)" fill="#bc7987"/>
      <path id="Path_2668" data-name="Path 2668" d="M1056.126,427.27c.071-.042.137-.042.213-.08l-.227-.151Z" transform="translate(-945.127 -300.684)" fill="#bc7987"/>
      <path id="Path_2669" data-name="Path 2669" d="M1060.2,427.8c0-.042.019-.222.019-.222-.1.085-.2.118-.3.2C1060.015,427.781,1060.114,427.8,1060.2,427.8Z" transform="translate(-930.957 -298.681)" fill="#bc7987"/>
      <path id="Path_2670" data-name="Path 2670" d="M1068.238,429.927c4.24,1.424,8.476,2.877,12.734,4.249,1.787.576,3.91,2.783,5.131-.632C1080.473,430.682,1075.053,426.715,1068.238,429.927Z" transform="translate(-900.063 -294.394)" fill="#bc7987"/>
      <path id="Path_2671" data-name="Path 2671" d="M1072.026,429.875l.1.052v-.208C1072.1,429.8,1072.054,429.8,1072.026,429.875Z" transform="translate(-885.985 -290.725)" fill="#bc7987"/>
      <path id="Path_2672" data-name="Path 2672" d="M1133.552,448.266c-.047.038-.114.057-.165.095l.193.123C1133.585,448.5,1133.552,448.266,1133.552,448.266Z" transform="translate(-657.945 -221.797)" fill="#bc7987"/>
      <path id="Path_2673" data-name="Path 2673" d="M1141.944,451.975c-2.467-1.575-4.877-3.245-7.456-4.575-.689-.354-2.065.245-2.915.759a2.2,2.2,0,0,0-.411,2C1132.228,453.3,1138.685,454.3,1141.944,451.975Z" transform="translate(-666.502 -225.411)" fill="#bc7987"/>
      <path id="Path_2674" data-name="Path 2674" d="M1065.205,431.177c.264.165.528.34.792.491l-.033-.307C1065.715,431.295,1065.46,431.243,1065.205,431.177Z" transform="translate(-911.335 -285.306)" fill="#bc7987"/>
      <path id="Path_2675" data-name="Path 2675" d="M1061.526,431.412c5.428,2.962,11.466,3.929,17.351,5.391-2.552-1.561-5.018-3.5-7.777-4.136C1068.044,431.963,1065.167,427.134,1061.526,431.412Z" transform="translate(-925.007 -290.931)" fill="#bc7987"/>
      <path id="Path_2676" data-name="Path 2676" d="M1061.514,430.24c.047-.066.094-.085.146-.146-.057-.028-.114-.047-.17-.075Z" transform="translate(-925.141 -289.613)" fill="#bc7987"/>
      <path id="Path_2677" data-name="Path 2677" d="M1098.994,436.51c-3.925-2.712-8.391-1.58-12.679-1.684C1090.527,435.5,1094.064,441.693,1098.994,436.51Z" transform="translate(-832.882 -272.296)" fill="#bc7987"/>
      <path id="Path_2678" data-name="Path 2678" d="M1067.31,431.387l-.419-.326c0,.137.047.208.052.349l.056.043c.095-.043.2-.014.293-.066Z" transform="translate(-905.073 -285.737)" fill="#bc7987"/>
      <path id="Path_2679" data-name="Path 2679" d="M1065.516,429.783c-.118.01-.231,0-.349,0,.123.113.26.184.378.3.113-.038.184-.024.3-.057l-.325-.25Z" transform="translate(-911.476 -290.487)" fill="#bc7987"/>
      <path id="Path_2680" data-name="Path 2680" d="M1065.31,430.282q3.721,2.879,7.452,5.778C1072.47,430.476,1070.144,428.669,1065.31,430.282Z" transform="translate(-910.944 -290.736)" fill="#bc7987"/>
      <path id="Path_2681" data-name="Path 2681" d="M1065.425,431.764c2.933,2.627,6.287,3.24,10.451,1.778l-3.434-2.32C1070.174,432.174,1067.627,430.17,1065.425,431.764Z" transform="translate(-910.517 -285.506)" fill="#bc7987"/>
      <path id="Path_2682" data-name="Path 2682" d="M1065.4,431.519c.08-.066.165-.047.245-.1-.09-.08-.189-.118-.274-.2Z" transform="translate(-910.733 -285.157)" fill="#bc7987"/>
      <path id="Path_2683" data-name="Path 2683" d="M1062.759,432.8c.066-.075.123-.109.188-.184-.061-.009-.113-.033-.17-.042Z" transform="translate(-920.425 -280.118)" fill="#bc7987"/>
      <path id="Path_2684" data-name="Path 2684" d="M1062.8,434.067c2.444.392,4.047,3.4,7.632,2.2C1068.048,433.581,1066.582,429.889,1062.8,434.067Z" transform="translate(-920.276 -281.57)" fill="#bc7987"/>
      <path id="Path_2685" data-name="Path 2685" d="M1061.922,430.326l-.019-.208-.523-.127C1061.563,430.1,1061.737,430.241,1061.922,430.326Z" transform="translate(-925.553 -289.714)" fill="#bc7987"/>
      <path id="Path_2686" data-name="Path 2686" d="M1058.945,430.876c3.829.939,7.655,1.844,11.48,2.74C1066.878,431.517,1064.1,426.22,1058.945,430.876Z" transform="translate(-934.6 -293.338)" fill="#bc7987"/>
      <path id="Path_2687" data-name="Path 2687" d="M1064.32,427.657a5.448,5.448,0,0,0,.811.3l-.052-.288C1064.825,427.652,1064.57,427.666,1064.32,427.657Z" transform="translate(-914.624 -298.388)" fill="#bc7987"/>
      <path id="Path_2688" data-name="Path 2688" d="M1062.047,428.956c3.439,1.608,7.107,1.16,10.72,1.236C1069.306,428.852,1066.245,424.452,1062.047,428.956Z" transform="translate(-923.071 -300.922)" fill="#bc7987"/>
      <path id="Path_2689" data-name="Path 2689" d="M1137.786,449.658c-.048-.047-.1-.052-.151-.1l.056.236A1.321,1.321,0,0,1,1137.786,449.658Z" transform="translate(-642.158 -216.996)" fill="#bc7987"/>
      <path id="Path_2690" data-name="Path 2690" d="M1148.236,450.993c-5,.108-7.64-4.712-10.569.5C1140.3,453.913,1143.147,453.158,1148.236,450.993Z" transform="translate(-642.039 -218.827)" fill="#bc7987"/>
      <path id="Path_2691" data-name="Path 2691" d="M1155.074,451.725c-3.49.066-6.914-1.523-10.447-.476C1147.924,454.314,1151.282,456.413,1155.074,451.725Z" transform="translate(-616.173 -212.045)" fill="#bc7987"/>
      <path id="Path_2692" data-name="Path 2692" d="M1144.7,451.158h0c.066-.019.128-.009.2-.028-.075-.071-.156-.137-.231-.208-.048.061-.08.085-.123.142l.151.094Z" transform="translate(-616.452 -211.926)" fill="#bc7987"/>
      <path id="Path_2693" data-name="Path 2693" d="M1059.548,426.949c3.75,2.688,7.811,1.075,10.523,2.759C1067.524,427.519,1064.746,425.571,1059.548,426.949Z" transform="translate(-932.358 -302.731)" fill="#bc7987"/>
      <path id="Path_2694" data-name="Path 2694" d="M1061.779,427.171c.2.175.405.344.608.524A4.446,4.446,0,0,0,1061.779,427.171Z" transform="translate(-924.067 -300.194)" fill="#bc7987"/>
      <path id="Path_2695" data-name="Path 2695" d="M1061.908,427.282a3.981,3.981,0,0,1,.538.5l.089.057.028-.019-.066-.023C1062.3,427.622,1062.1,427.452,1061.908,427.282Z" transform="translate(-923.587 -299.781)" fill="#bc7987"/>
      <path id="Path_2696" data-name="Path 2696" d="M1089.464,445.207c3.424.278,6.985-.717,10.268.948C1096.648,443.1,1093.539,440.222,1089.464,445.207Z" transform="translate(-821.179 -243.202)" fill="#bc7987"/>
      <path id="Path_2697" data-name="Path 2697" d="M1089.442,443.187c.037-.047.066-.061.1-.1-.028,0-.052,0-.075,0Z" transform="translate(-821.261 -241.078)" fill="#bc7987"/>
      <path id="Path_2698" data-name="Path 2698" d="M1140.872,452.349c1.1,1.458,2.344.519,3.509-.118,1.273-.335.839-.99.231-1.566a2.874,2.874,0,0,0-3.7-.321C1140.589,450.547,1140.537,451.905,1140.872,452.349Z" transform="translate(-630.977 -216.023)" fill="#bc7987"/>
      <path id="Path_2699" data-name="Path 2699" d="M1144.687,454.636c.127-.09.255-.16.382-.25a3.261,3.261,0,0,0-.392-.108Z" transform="translate(-615.987 -199.454)" fill="#bc7987"/>
      <path id="Path_2700" data-name="Path 2700" d="M1144.76,455.463c1.995.571,4.23,3.551,5.952-.877C1148.345,453.327,1146.524,454.27,1144.76,455.463Z" transform="translate(-615.679 -200.531)" fill="#bc7987"/>
      <path id="Path_2701" data-name="Path 2701" d="M1065.8,427.968c.095.033.189.057.283.085-.1-.132-.222-.212-.316-.349Z" transform="translate(-909.257 -298.213)" fill="#bc7987"/>
      <path id="Path_2702" data-name="Path 2702" d="M1065.831,427.778c2.688,3.6,6.485,5.094,10.814,5.556C1073.943,429.74,1069.793,428.943,1065.831,427.778Z" transform="translate(-909.008 -297.938)" fill="#bc7987"/>
      <path id="Path_2703" data-name="Path 2703" d="M1068.124,428.956c.076.094.17.146.241.245v0c.1-.052.2-.066.3-.113l-.287-.094C1068.289,428.989,1068.209,428.966,1068.124,428.956Z" transform="translate(-900.486 -293.56)" fill="#bc7987"/>
      <path id="Path_2704" data-name="Path 2704" d="M1148.931,453.175c2.009,1.3,3.948,2.839,6.471,1.905.231-.08.4-1.075.208-1.429C1153.822,450.364,1151.138,453.727,1148.931,453.175Z" transform="translate(-600.178 -207.218)" fill="#bc7987"/>
      <path id="Path_2705" data-name="Path 2705" d="M1149.647,452.293c-1.7-1-3.307-2.372-6.466-1.325C1145.865,451.694,1146.728,456.193,1149.647,452.293Z" transform="translate(-621.547 -213.156)" fill="#bc7987"/>
      <path id="Path_2706" data-name="Path 2706" d="M1056.42,427.306l-.014-.226c-.132,0-.24-.047-.373-.052C1056.156,427.132,1056.3,427.2,1056.42,427.306Z" transform="translate(-945.421 -300.725)" fill="#bc7987"/>
      <path id="Path_2707" data-name="Path 2707" d="M1064.034,430.544c-2.957-2.467-6.508-3.575-10.154-4.462C1056.922,428.341,1060.068,430.355,1064.034,430.544Z" transform="translate(-953.422 -304.241)" fill="#bc7987"/>
      <path id="Path_2708" data-name="Path 2708" d="M1053.765,426.31c.226.052.444.118.665.17-.231-.174-.467-.335-.7-.5Z" transform="translate(-953.972 -304.639)" fill="#bc7987"/>
      <path id="Path_2709" data-name="Path 2709" d="M1056.7,425.857c-2.462,1.25-4.627-2.2-7.1-.66C1051.945,425.735,1053.9,431.555,1056.7,425.857Z" transform="translate(-969.343 -309.034)" fill="#bc7987"/>
      <path id="Path_2710" data-name="Path 2710" d="M1051.22,424.976c-.042.09-.075.113-.118.2l.057-.019Z" transform="translate(-963.746 -308.351)" fill="#bc7987"/>
      <path id="Path_2711" data-name="Path 2711" d="M1052.1,426.411c-2.542-1.957-3.061.056-3.618,1.92,1.594-1.273,3.306,2.217,4.754-.1C1053.411,427.953,1052.656,426.84,1052.1,426.411Z" transform="translate(-973.465 -305.999)" fill="#bc7987"/>
      <path id="Path_2712" data-name="Path 2712" d="M1142.733,449.516q-4.626-.608-9.258-1.2C1136.3,450.95,1139.04,454.166,1142.733,449.516Z" transform="translate(-657.618 -221.604)" fill="#bc7987"/>
      <path id="Path_2713" data-name="Path 2713" d="M1135.66,448.521c-.076.1-.146.151-.222.241l.232.033Z" transform="translate(-650.323 -220.849)" fill="#bc7987"/>
      <path id="Path_2714" data-name="Path 2714" d="M1133.424,448.27c0-.014.028.222.024.2l.221.028C1133.584,448.425,1133.5,448.345,1133.424,448.27Z" transform="translate(-657.812 -221.786)" fill="#bc7987"/>
      <path id="Path_2715" data-name="Path 2715" d="M1141.046,454.985c-1.028-1.693-2.391-.538-3.65-.429q1.528.835,3.051,1.67C1140.663,455.805,1141.177,455.2,1141.046,454.985Z" transform="translate(-643.05 -200.227)" fill="#bc7987"/>
      <path id="Path_2716" data-name="Path 2716" d="M1137.586,454.139l-.321.174h.019a2.667,2.667,0,0,1,.1.316l.132-.321a1.888,1.888,0,0,0,.363-.009Z" transform="translate(-643.533 -199.971)" fill="#bc7987"/>
      <path id="Path_2717" data-name="Path 2717" d="M1095.014,443.374c-1.943-1.184-2.777-.066-3.245,1.58,1.419.1,2.7,2.089,4.174.321C1096.136,445.035,1095.546,443.7,1095.014,443.374Z" transform="translate(-812.613 -241.808)" fill="#bc7987"/>
      <path id="Path_2718" data-name="Path 2718" d="M1092.1,443.454c-.151-.09-.312-.094-.463-.174l.5.5c.028-.113.071-.2.1-.306-.047,0-.095-.038-.142-.038Z" transform="translate(-813.089 -240.327)" fill="#bc7987"/>
      <path id="Path_2719" data-name="Path 2719" d="M1052.809,428.247c-.193.42.372,1.542.887,1.858,2.324,1.424,3.357.212,3.721-2.066l.066-.033C1055.927,428.638,1054.135,425.337,1052.809,428.247Z" transform="translate(-957.544 -300.722)" fill="#bc7987"/>
      <path id="Path_2720" data-name="Path 2720" d="M1058.529,428.868c-1.156-.674-2.071-1.745-2.972-.467-.264.373.09,1.542.528,1.962.708.674,1.778,1.552,2.674.326C1059.053,430.293,1058.609,429.359,1058.529,428.868Z" transform="translate(-947.525 -297.84)" fill="#bc7987"/>
      <path id="Path_2721" data-name="Path 2721" d="M1053.951,426.31l-.033-.335c-.076.075-.161.141-.236.222C1053.772,426.23,1053.861,426.277,1053.951,426.31Z" transform="translate(-954.158 -304.639)" fill="#bc7987"/>
      <path id="Path_2722" data-name="Path 2722" d="M1053.386,427.55c1.518,1.5,2.632.585,3.717-.476a12.481,12.481,0,0,0-3.915-1.335C1052.42,425.711,1052.816,426.984,1053.386,427.55Z" transform="translate(-957.579 -305.516)" fill="#bc7987"/>
      <path id="Path_2723" data-name="Path 2723" d="M1068.5,432.586c.873-.736,2.476.806,3-.92.048-.156-.207-.509-.4-.608C1069.364,430.2,1069.067,431.6,1068.5,432.586Z" transform="translate(-899.086 -286.733)" fill="#bc7987"/>
      <path id="Path_2724" data-name="Path 2724" d="M1064.524,428.219c1.863,1.726,3.684,5.056,5.721.259C1068.349,428.167,1066.5,426.756,1064.524,428.219Z" transform="translate(-913.865 -298.723)" fill="#bc7987"/>
      <path id="Path_2725" data-name="Path 2725" d="M1065.9,428.011c0-.042-.033-.307-.033-.307-.042.108-.085.16-.127.264C1065.789,427.977,1065.845,428,1065.9,428.011Z" transform="translate(-909.357 -298.213)" fill="#bc7987"/>
      <path id="Path_2726" data-name="Path 2726" d="M1064.53,427.929c.052-.042.1-.033.151-.071-.066-.061-.132-.137-.2-.193C1064.477,427.641,1064.535,427.957,1064.53,427.929Z" transform="translate(-914.022 -298.363)" fill="#bc7987"/>
      <path id="Path_2727" data-name="Path 2727" d="M1061.605,426.511c-1.891-.58-3.815-2.49-5.617.052C1057.893,427.86,1059.851,431.359,1061.605,426.511Z" transform="translate(-945.588 -307.236)" fill="#bc7987"/>
      <path id="Path_2728" data-name="Path 2728" d="M1057.274,425.6l0,.156.156.019-.161-.264v-.019c-.028.094-.061.132-.095.222l.1.042Z" transform="translate(-941.162 -306.437)" fill="#bc7987"/>
      <path id="Path_2729" data-name="Path 2729" d="M1056.126,425.653c-.057-.038-.118-.094-.174-.132l.014.283C1056.016,425.724,1056.074,425.729,1056.126,425.653Z" transform="translate(-945.726 -306.326)" fill="#bc7987"/>
      <path id="Path_2730" data-name="Path 2730" d="M1136.289,454.013c-.113.2-.358.542-.321.575a9.113,9.113,0,0,0,.977.7c.113-.2.353-.542.321-.571A8.968,8.968,0,0,0,1136.289,454.013Z" transform="translate(-648.368 -200.439)" fill="#bc7987"/>
      <path id="Path_2731" data-name="Path 2731" d="M1127.005,452.066c-.255.264-.123.9-.165,1.363.5.108,1.114.438,1.424.259a1.445,1.445,0,0,0,.5-1.307A.985.985,0,0,0,1127.005,452.066Z" transform="translate(-682.277 -209.217)" fill="#bc7987"/>
      <path id="Path_2732" data-name="Path 2732" d="M1134.645,453.022c-1.651-.788-2.146.486-2.646,1.641,1,.769,2.051,1.834,3.155.226A1.955,1.955,0,0,0,1134.645,453.022Z" transform="translate(-663.103 -205.028)" fill="#bc7987"/>
      <path id="Path_2733" data-name="Path 2733" d="M1131.994,453.448l.094-.2-.114-.085Z" transform="translate(-663.193 -203.609)" fill="#bc7987"/>
      <path id="Path_2734" data-name="Path 2734" d="M1091.54,436.163q-1.209-.516-2.414-1.042c.589.608,1.179,1.2,1.768,1.8Z" transform="translate(-822.439 -270.653)" fill="#bc7987"/>
      <path id="Path_2735" data-name="Path 2735" d="M1089.578,435.447c-.132-.132-.26-.259-.387-.391l0-.024c-.061.071-.123.094-.184.16a2.127,2.127,0,0,1,.2.1Z" transform="translate(-822.893 -270.979)" fill="#bc7987"/>
      <path id="Path_2736" data-name="Path 2736" d="M1092.816,436.588a.974.974,0,0,0-1-.792,2.1,2.1,0,0,0,.358.571A1.848,1.848,0,0,0,1092.816,436.588Z" transform="translate(-812.438 -268.14)" fill="#bc7987"/>
      <path id="Path_2737" data-name="Path 2737" d="M1117.227,449.449c-.221.061-.26.788-.382,1.212.66.108,1.316.212,1.976.316-.038-.424-.075-.849-.117-1.283A3.538,3.538,0,0,0,1117.227,449.449Z" transform="translate(-719.422 -217.519)" fill="#bc7987"/>
      <path id="Path_2738" data-name="Path 2738" d="M1047.954,425.883l2.448,1.971.052.028.014-.042-.042,0C1049.591,427.18,1049.832,425.2,1047.954,425.883Z" transform="translate(-975.445 -305.508)" fill="#bc7987"/>
      <path id="Path_2739" data-name="Path 2739" d="M1057.872,429.878c1.542.552,3.089,1.1,4.627,1.623C1061.216,430.132,1060.438,427.26,1057.872,429.878Z" transform="translate(-938.587 -294.085)" fill="#bc7987"/>
      <path id="Path_2740" data-name="Path 2740" d="M1058.853,429.384a2.81,2.81,0,0,0,.226.24l0,.033a2.08,2.08,0,0,1,.2-.151l-.24-.057Z" transform="translate(-934.941 -291.969)" fill="#bc7987"/>
      <path id="Path_2741" data-name="Path 2741" d="M1062.815,432.778c0,.047.018-.179.018-.179-.028-.014-.061-.019-.089-.033C1062.763,432.641,1062.8,432.7,1062.815,432.778Z" transform="translate(-920.481 -280.144)" fill="#bc7987"/>
      <path id="Path_2742" data-name="Path 2742" d="M1061.987,432.084c.344,2.07,2.3,1.83,3.57,2.552C1065.114,432.782,1064.114,431.707,1061.987,432.084Z" transform="translate(-923.294 -282.214)" fill="#bc7987"/>
      <path id="Path_2743" data-name="Path 2743" d="M1057.058,428.965c1.58.646,2.561,1.047,3.524,1.443C1060.119,429.092,1059.444,428.1,1057.058,428.965Z" transform="translate(-941.612 -294.734)" fill="#bc7987"/>
      <path id="Path_2744" data-name="Path 2744" d="M1057.805,429.015c.033.094.08.17.108.264v.038c.076-.08.132-.113.208-.184l-.208-.075Z" transform="translate(-938.836 -293.341)" fill="#bc7987"/>
      <path id="Path_2745" data-name="Path 2745" d="M1061.761,426.169c-1.509-.208-3.019-.41-4.528-.618C1058.413,427.565,1059.6,429.522,1061.761,426.169Z" transform="translate(-940.962 -306.214)" fill="#bc7987"/>
      <path id="Path_2746" data-name="Path 2746" d="M1052.9,427.926c.292.094.759-.358,1.145-.557-.971-.783-1.943-1.561-2.914-2.344C1051.137,426.365,1051.529,427.482,1052.9,427.926Z" transform="translate(-963.65 -308.169)" fill="#bc7987"/>
      <path id="Path_2747" data-name="Path 2747" d="M1051.166,424.992c.009-.047-.052.132-.052.132l.066.052C1051.18,425.115,1051.166,425.058,1051.166,424.992Z" transform="translate(-963.702 -308.32)" fill="#bc7987"/>
      <path id="Path_2748" data-name="Path 2748" d="M1055.875,428.835q-1.026-.8-2.056-1.6l-.061.033Z" transform="translate(-953.88 -299.952)" fill="#bc7987"/>
      <path id="Path_2749" data-name="Path 2749" d="M1051.04,426.727l.995.42-.033-.325C1051.681,426.793,1051.361,426.751,1051.04,426.727Z" transform="translate(-963.977 -301.844)" fill="#bc7987"/>
      <path id="Path_2750" data-name="Path 2750" d="M1050.976,427.109c.42.061.839.09,1.265.127-.509-.217-1.019-.434-1.523-.646C1050.8,426.769,1050.868,427.095,1050.976,427.109Z" transform="translate(-965.177 -302.353)" fill="#bc7987"/>
      <path id="Path_2751" data-name="Path 2751" d="M1072.853,430.435c.453.92,1.076,1.618,2.226,1.415.123-.019.321-.939.146-1.113C1074.542,430.034,1073.749,429.3,1072.853,430.435Z" transform="translate(-882.912 -290.252)" fill="#bc7987"/>
      <path id="Path_2752" data-name="Path 2752" d="M1072.833,430.16c.033-.042.061-.042.094-.085-.028-.052-.071-.08-.094-.132Z" transform="translate(-882.986 -289.892)" fill="#bc7987"/>
      <path id="Path_2753" data-name="Path 2753" d="M1077.514,433.53l.009,0,0,.052h0v-.052l.254.212c-.08-.118-.165-.231-.245-.344Z" transform="translate(-865.59 -277.033)" fill="#bc7987"/>
      <path id="Path_2754" data-name="Path 2754" d="M1079.49,435.07l-1.92-1.594c.449.646.887,1.292,1.354,1.92A5.332,5.332,0,0,0,1079.49,435.07Z" transform="translate(-865.382 -276.762)" fill="#bc7987"/>
      <path id="Path_2755" data-name="Path 2755" d="M1060.1,428.091c.165-.151.33-.3.495-.453-.792-.651-1.581-1.3-2.372-1.953l-.024,0v0l0,0v0h0Q1059.152,426.888,1060.1,428.091Z" transform="translate(-937.394 -305.731)" fill="#bc7987"/>
      <path id="Path_2756" data-name="Path 2756" d="M1088.429,444.128a6.086,6.086,0,0,1,4.7,1.655C1091.985,444.058,1091.7,440,1088.429,444.128Z" transform="translate(-825.026 -243.845)" fill="#bc7987"/>
      <path id="Path_2757" data-name="Path 2757" d="M1089.5,443.2c0,.038.028-.071.028-.071-.033-.028-.075-.033-.1-.061C1089.455,443.1,1089.474,443.159,1089.5,443.2Z" transform="translate(-821.32 -241.126)" fill="#bc7987"/>
      <path id="Path_2758" data-name="Path 2758" d="M1064.431,427.436c.156-.109.311-.222.462-.335q-1.119-1.224-2.241-2.448h-.033C1063.229,425.582,1063.832,426.506,1064.431,427.436Z" transform="translate(-920.941 -309.552)" fill="#bc7987"/>
      <path id="Path_2759" data-name="Path 2759" d="M1070.776,434.055l.817-.66c-.764-.533-1.523-1.061-2.288-1.59Z" transform="translate(-896.097 -282.972)" fill="#bc7987"/>
      <path id="Path_2760" data-name="Path 2760" d="M1150.144,454.085c-1.287-1.184-2.283-2.1-3.273-3.014l-.019,0h0l0,0h.014C1147.837,452.009,1147.512,454.155,1150.144,454.085Z" transform="translate(-607.942 -211.391)" fill="#bc7987"/>
      <path id="Path_2761" data-name="Path 2761" d="M1136.626,450.305c1.51.278,3,.5,4.486.712C1139.772,449.9,1138.6,447.857,1136.626,450.305Z" transform="translate(-645.908 -218.497)" fill="#bc7987"/>
      <path id="Path_2762" data-name="Path 2762" d="M1136.691,449.42l-.075-.014c-.014-.061,0,.1,0,.1C1136.64,449.467,1136.663,449.453,1136.691,449.42Z" transform="translate(-645.973 -217.612)" fill="#bc7987"/>
      <path id="Path_2763" data-name="Path 2763" d="M1137.851,449.592c-.09-.009-.179-.028-.274-.042a4.038,4.038,0,0,0,.325.259Z" transform="translate(-642.374 -217.029)" fill="#bc7987"/>
      <path id="Path_2764" data-name="Path 2764" d="M1136.662,449.429l-.066-.042.052.085C1136.658,449.528,1136.648,449.367,1136.662,449.429Z" transform="translate(-646.02 -217.635)" fill="#bc7987"/>
      <path id="Path_2765" data-name="Path 2765" d="M1135.485,448.527c0-.024.01.25.01.25.056,0,.089.019.146.014C1135.6,448.687,1135.518,448.645,1135.485,448.527Z" transform="translate(-650.149 -220.832)" fill="#bc7987"/>
      <path id="Path_2766" data-name="Path 2766" d="M1140.6,452.377c-1.094-2.132-2.42-3.882-5.084-3.792C1136.4,450.943,1139.108,450.91,1140.6,452.377Z" transform="translate(-650.026 -220.625)" fill="#bc7987"/>
      <path id="Path_2767" data-name="Path 2767" d="M1130.292,452.582c-.463-.057-.924-.118-1.386-.175C1129.269,452.855,1129.594,453.449,1130.292,452.582Z" transform="translate(-674.602 -206.407)" fill="#bc7987"/>
      <path id="Path_2768" data-name="Path 2768" d="M1128.989,452.354l-.287.222h.024a2.45,2.45,0,0,1,.169.311l.052-.283c.236.028.476.061.717.094C1129.47,452.458,1129.267,452.255,1128.989,452.354Z" transform="translate(-675.36 -206.699)" fill="#bc7987"/>
      <path id="Path_2769" data-name="Path 2769" d="M1152.219,452.965a4.148,4.148,0,0,0,.042.9l.523-.34.048-.651C1152.615,452.9,1152.224,452.908,1152.219,452.965Z" transform="translate(-588.011 -204.668)" fill="#bc7987"/>
      <path id="Path_2770" data-name="Path 2770" d="M1098.031,438.044c.066-.16.231-.354.184-.472a2.092,2.092,0,0,0-.438-.509c-.123.25-.251.5-.373.755Z" transform="translate(-791.675 -263.432)" fill="#bc7987"/>
      <path id="Path_2771" data-name="Path 2771" d="M1147.072,454.9l.689.211-.368-.62Z" transform="translate(-607.087 -198.646)" fill="#bc7987"/>
      <path id="Path_2772" data-name="Path 2772" d="M1131.665,453.616c.4-.009.807-.019,1.212-.033C1132.537,453.173,1132.221,452.6,1131.665,453.616Z" transform="translate(-664.345 -204.027)" fill="#bc7987"/>
      <path id="Path_2773" data-name="Path 2773" d="M1132.191,453.434l-.019-.273-.25,0A1.031,1.031,0,0,0,1132.191,453.434Z" transform="translate(-663.39 -203.609)" fill="#bc7987"/>
      <path id="Path_2774" data-name="Path 2774" d="M1068.138,430.917c.5.439,1,.882,1.524,1.368l.056.08a2.526,2.526,0,0,0,.132-.24c-.066.056-.16.033-.217.118Z" transform="translate(-900.435 -286.272)" fill="#bc7987"/>
      <path id="Path_2775" data-name="Path 2775" d="M1065.234,425.609l-.656.253.445.424Z" transform="translate(-913.665 -305.997)" fill="#bc7987"/>
      <path id="Path_2776" data-name="Path 2776" d="M1076.972,434.626l-.863-.863c-.1.358-.2.717-.3,1.071l-.057.071Z" transform="translate(-872.145 -275.696)" fill="#bc7987"/>
      <path id="Path_2777" data-name="Path 2777" d="M1087.533,442.542c.146-.09.236-.061.373-.127l-.354-.193Z" transform="translate(-828.356 -244.262)" fill="#bc7987"/>
      <path id="Path_2778" data-name="Path 2778" d="M1087.612,442.5c1.278.707,2.561,1.42,3.834,2.127l.009.014.01-.01-.019,0C1090.513,443.181,1089.7,441.5,1087.612,442.5Z" transform="translate(-828.062 -244.35)" fill="#bc7987"/>
      <path id="Path_2779" data-name="Path 2779" d="M1072.047,429.927c.047-.023.089-.023.137-.047-.043-.057-.095-.1-.137-.16Z" transform="translate(-885.907 -290.725)" fill="#bc7987"/>
      <path id="Path_2780" data-name="Path 2780" d="M1072.941,430.16v-.217c-.052.033-.09.028-.137.061C1072.847,430.061,1072.9,430.1,1072.941,430.16Z" transform="translate(-883.094 -289.892)" fill="#bc7987"/>
      <path id="Path_2781" data-name="Path 2781" d="M1072.076,430c.9,1.17,1.933,1.887,3.433.957A2.577,2.577,0,0,0,1072.076,430Z" transform="translate(-885.799 -290.844)" fill="#bc7987"/>
      <path id="Path_2782" data-name="Path 2782" d="M1074.735,430.986c-.123.175.01.528.023.8q1.132-.4,2.264-.8l-.269.033C1076.084,430.453,1075.4,430.023,1074.735,430.986Z" transform="translate(-876.111 -288.133)" fill="#bc7987"/>
      <path id="Path_2783" data-name="Path 2783" d="M1069.224,432.179c.071-.085.142-.16.207-.245l.005-.056.17.118-.156-.24Z" transform="translate(-896.399 -283.162)" fill="#bc7987"/>
      <path id="Path_2784" data-name="Path 2784" d="M1069.178,433.716c.335-.622.665-1.245,1-1.872-.406.49-.821.948-1.2,1.42C1068.928,433.32,1069.107,433.561,1069.178,433.716Z" transform="translate(-897.353 -282.827)" fill="#bc7987"/>
      <path id="Path_2785" data-name="Path 2785" d="M1095.032,443.488a11.772,11.772,0,0,0-1.179.571l1.537-.085C1095.268,443.8,1095.079,443.464,1095.032,443.488Z" transform="translate(-804.868 -239.559)" fill="#bc7987"/>
      <path id="Path_2786" data-name="Path 2786" d="M1058.6,426.533c-.986-.835-1.986-1.627-3.42-1.09A2.64,2.64,0,0,0,1058.6,426.533Z" transform="translate(-948.606 -307.267)" fill="#bc7987"/>
      <path id="Path_2787" data-name="Path 2787" d="M1056.137,425.521c-.085.042-.156.038-.236.071.08.071.165.141.25.207Z" transform="translate(-945.912 -306.326)" fill="#bc7987"/>
      <path id="Path_2788" data-name="Path 2788" d="M1055.142,425.265l.01.222c.052-.024.094-.01.151-.033A2.287,2.287,0,0,1,1055.142,425.265Z" transform="translate(-948.732 -307.277)" fill="#bc7987"/>
      <path id="Path_2789" data-name="Path 2789" d="M1075.533,430.466l-.411.368.256-.038Z" transform="translate(-874.48 -287.95)" fill="#bc7987"/>
      <path id="Path_2790" data-name="Path 2790" d="M1093.748,443.539l.213.341.274-.009.009,0,0,0Z" transform="translate(-805.26 -239.363)" fill="#bc7987"/>
      <path id="Path_2791" data-name="Path 2791" d="M1051.274,427.069l.457-.052a5.465,5.465,0,0,1-.486-.269Z" transform="translate(-963.215 -301.766)" fill="#bc7987"/>
      <path id="Path_2792" data-name="Path 2792" d="M1051.485,426.933c.123.033.293-.09.444-.142l-.58.066A1.018,1.018,0,0,0,1051.485,426.933Z" transform="translate(-962.832 -301.606)" fill="#bc7987"/>
      <path id="Path_2793" data-name="Path 2793" d="M1077.922,434.588c.189-.071.179-.679.222-1.146-.095.269-.137.561-.3.679C1077.144,434.612,1077.2,434.862,1077.922,434.588Z" transform="translate(-866.215 -276.888)" fill="#bc7987"/>
      <path id="Path_2794" data-name="Path 2794" d="M1076.214,433.665l-.675.33.977,1.118C1076.417,434.623,1076.313,434.146,1076.214,433.665Z" transform="translate(-872.93 -276.06)" fill="#bc7987"/>
      <path id="Path_2795" data-name="Path 2795" d="M1075.822,434.057l-.076-.085.028.132C1075.765,434.128,1075.822,434.057,1075.822,434.057Z" transform="translate(-872.161 -274.919)" fill="#bc7987"/>
      <path id="Path_2796" data-name="Path 2796" d="M1052.282,410.455c.057-.066.127-.1.184-.17l-.278.089A.771.771,0,0,0,1052.282,410.455Z" transform="translate(-959.711 -362.948)" fill="#bc7987"/>
      <path id="Path_2797" data-name="Path 2797" d="M1045.374,425.107c1.58,1.8,5.278,4.716,7.39-.3-2.368-1.155-5.306-2.618-.83-4.58a32.569,32.569,0,0,1,11.074-2.363c21.752-1.231,43.475.585,65.194,1.325,16.352.561,32.642,2.816,48.961,4.382,2.424.231,4.73.523,6.141-1.981-14.319-2.872-28.9-4.32-43.3-6.136-11.9-1.495-24.157-3.405-36.745-1.448-6.334.986-14.964,2.32-21.105-3.683-2.853,3.462-6.792,3.995-10.89,3.693-3.8-.278-7.584-1.108-10.763,2.132-.962-2.66.066-3.716,1.118-4.688-5.547-.609-9.476,3.584-14.234,5.263A5.458,5.458,0,0,0,1045.374,425.107Z" transform="translate(-989.585 -362.815)" fill="#bc7987"/>
      <path id="Path_2798" data-name="Path 2798" d="M1073.8,412.67c-.043.085-.1.108-.146.189l.146.028C1073.805,412.93,1073.8,412.67,1073.8,412.67Z" transform="translate(-879.935 -354.085)" fill="#bc7987"/>
      <path id="Path_2799" data-name="Path 2799" d="M1132.524,430.3c10.13,7.438,20.313,9.739,30.416,12.258C1153.111,439.531,1145.739,430.65,1132.524,430.3Z" transform="translate(-661.152 -288.562)" fill="#bc7987"/>
      <path id="Path_2800" data-name="Path 2800" d="M1129.583,432.334a51.035,51.035,0,0,1,15.517,4.778c.834.406,2.442-.769,2.966-.953,1.359-1.306,1.038-1.929.514-2.684-1.91-2.74-16.314-6.226-19.158-4.636C1126.979,430.2,1128.093,432.131,1129.583,432.334Z" transform="translate(-678.001 -295.48)" fill="#bc7987"/>
      <path id="Path_2801" data-name="Path 2801" d="M1065.6,414.889c.1-.057.2-.08.3-.137-.108-.033-.217-.057-.325-.085Z" transform="translate(-909.952 -346.663)" fill="#bc7987"/>
      <path id="Path_2802" data-name="Path 2802" d="M1070.539,415.065c.18.042.359.094.538.132l-.024-.241C1070.879,415.017,1070.714,415.013,1070.539,415.065Z" transform="translate(-891.512 -345.589)" fill="#bc7987"/>
      <path id="Path_2803" data-name="Path 2803" d="M1065.646,416.257c7.593,2.24,15.215,3.882,23.077,1.387C1081.1,415.955,1073.622,411.8,1065.646,416.257Z" transform="translate(-909.696 -348.168)" fill="#bc7987"/>
      <path id="Path_2804" data-name="Path 2804" d="M1066.016,414.025c-1.877-.372-4.32-1.155-4.518,1.589-.16,2.188,2.467,3.047,4.2,3.113,4.951.189,9.917-.094,14.884-.2C1076.7,413.936,1071.029,415.03,1066.016,414.025Z" transform="translate(-925.139 -350.516)" fill="#bc7987"/>
      <path id="Path_2805" data-name="Path 2805" d="M1065.742,414.879l-.023-.212-.18,0C1065.605,414.747,1065.676,414.795,1065.742,414.879Z" transform="translate(-910.094 -346.663)" fill="#bc7987"/>
      <path id="Path_2806" data-name="Path 2806" d="M1073.711,414.887c4.424,6.872,11.347,4.985,17.691,5.127C1086.6,414.679,1079.04,418.476,1073.711,414.887Z" transform="translate(-879.723 -345.846)" fill="#bc7987"/>
      <path id="Path_2807" data-name="Path 2807" d="M1077.462,415.976c.118.127.246.193.358.33l-.037-.33C1077.679,415.971,1077.571,415.976,1077.462,415.976Z" transform="translate(-865.783 -341.808)" fill="#bc7987"/>
      <path id="Path_2808" data-name="Path 2808" d="M1073.722,414.9l0,0-.019-.024Z" transform="translate(-879.738 -345.863)" fill="#bc7987"/>
      <path id="Path_2809" data-name="Path 2809" d="M1076.738,413.707c.028-.033.052-.047.075-.075-.056-.028-.113-.024-.17-.052l-.047-.009.1.085Z" transform="translate(-869.002 -350.74)" fill="#bc7987"/>
      <path id="Path_2810" data-name="Path 2810" d="M1076.642,415.519c4.066,1.934,8.235.5,12.357.321C1084.882,415.764,1080.939,409.845,1076.642,415.519Z" transform="translate(-868.831 -352.628)" fill="#bc7987"/>
      <path id="Path_2811" data-name="Path 2811" d="M1140.775,433.77c-.127-.122-.278-.193-.4-.325l.028.3C1140.534,433.737,1140.643,433.77,1140.775,433.77Z" transform="translate(-631.979 -276.877)" fill="#bc7987"/>
      <path id="Path_2812" data-name="Path 2812" d="M1152.467,439.782c-4.047-2-6.961-6.268-12.008-6.268C1143.793,436.886,1148.213,438.183,1152.467,439.782Z" transform="translate(-631.663 -276.621)" fill="#bc7987"/>
      <path id="Path_2813" data-name="Path 2813" d="M1143.005,434.843a9.775,9.775,0,0,0,1.9.726C1144.279,435.305,1143.637,435.084,1143.005,434.843Z" transform="translate(-622.201 -271.682)" fill="#bc7987"/>
      <path id="Path_2814" data-name="Path 2814" d="M1054.853,413.2c2.047,1.056,4.1.033,5.811-1.08,1.269-.825-.009-1.92-.811-2.533-1.952-1.495-3.65-.236-5.15.858C1053.9,411.031,1053.32,412.177,1054.853,413.2Z" transform="translate(-953.368 -368.104)" fill="#bc7987"/>
      <path id="Path_2815" data-name="Path 2815" d="M1063.325,412.418c.75.448,2.08-.071,3.141-.151l-.075-.019c-1.33-6.48-6.235-1.222-9.117-2.679-.038-.019-1.283,1.57-1.085,1.971C1058.014,415.224,1060.971,411.017,1063.325,412.418Z" transform="translate(-944.921 -368.001)" fill="#bc7987"/>
      <path id="Path_2816" data-name="Path 2816" d="M1131.845,427.852c-2.924,1.033-4.514-3.2-7.542-1.7C1127.133,425.32,1127.808,433.889,1131.845,427.852Z" transform="translate(-691.705 -305.181)" fill="#bc7987"/>
      <path id="Path_2817" data-name="Path 2817" d="M1126.063,426.214c-.057.095-.1.118-.161.208.047-.019.09-.009.137-.028Z" transform="translate(-685.763 -303.75)" fill="#bc7987"/>
      <path id="Path_2818" data-name="Path 2818" d="M1083,414.723c.076-.061.146-.061.221-.118-.084-.056-.169-.113-.254-.165Z" transform="translate(-845.336 -347.507)" fill="#bc7987"/>
      <path id="Path_2819" data-name="Path 2819" d="M1083.018,415.563c2.859,1.811,5.656,4.476,8.9.519C1089.046,414.21,1086.127,413.2,1083.018,415.563Z" transform="translate(-845.135 -348.465)" fill="#bc7987"/>
      <path id="Path_2820" data-name="Path 2820" d="M1058.783,411.138c-3.184-1.9-6.16-2-8.787.99C1053.086,413.26,1055.934,412.209,1058.783,411.138Z" transform="translate(-967.857 -364.811)" fill="#bc7987"/>
      <path id="Path_2821" data-name="Path 2821" d="M1050.062,410.6h0v0c.089-.113.193-.146.287-.255-.108-.038-.207-.028-.316-.075-.042.066-.089.1-.132.17.052.066.1.085.156.16Z" transform="translate(-968.21 -363.023)" fill="#bc7987"/>
      <path id="Path_2822" data-name="Path 2822" d="M1051.155,414.22a11.663,11.663,0,0,1,1.094,1.231A2.948,2.948,0,0,0,1051.155,414.22Z" transform="translate(-963.55 -348.324)" fill="#bc7987"/>
      <path id="Path_2823" data-name="Path 2823" d="M1051.43,414.533l.033.033c-.023-.033-.052-.052-.076-.085Z" transform="translate(-962.687 -347.355)" fill="#bc7987"/>
      <path id="Path_2824" data-name="Path 2824" d="M1049.431,414.235c1.745,3.254,5.739.429,8.131,1.938A7.043,7.043,0,0,0,1049.431,414.235Z" transform="translate(-969.957 -350.278)" fill="#bc7987"/>
      <path id="Path_2825" data-name="Path 2825" d="M1094.859,414.887q-4.479.361-8.957.707C1088.972,416.311,1092.316,420.693,1094.859,414.887Z" transform="translate(-834.417 -345.846)" fill="#bc7987"/>
      <path id="Path_2826" data-name="Path 2826" d="M1087.867,414.927l-.033-.052-.033.057Z" transform="translate(-827.36 -345.89)" fill="#bc7987"/>
      <path id="Path_2827" data-name="Path 2827" d="M1060.339,416.551l.023.052c1.755-.547,2.057-2.212,2.746-3.58-1.585.938-3.848.6-4.867,2.608Q1059.287,416.091,1060.339,416.551Z" transform="translate(-937.219 -352.773)" fill="#bc7987"/>
      <path id="Path_2828" data-name="Path 2828" d="M1059.272,413.057c.038-.019.075-.024.113-.042l-.108.042Z" transform="translate(-933.384 -352.806)" fill="#bc7987"/>
      <path id="Path_2829" data-name="Path 2829" d="M1115.055,424.835a3.231,3.231,0,0,0,4.381-1.967c-1.293,1.434-3.113-1.278-4.292.542A1.986,1.986,0,0,0,1115.055,424.835Z" transform="translate(-726.418 -316.601)" fill="#bc7987"/>
      <path id="Path_2830" data-name="Path 2830" d="M1115.919,422.777l-.009.015.007,0Z" transform="translate(-722.894 -316.525)" fill="#bc7987"/>
      <path id="Path_2831" data-name="Path 2831" d="M1094.231,417.681c-2.424.759-3.829,1.2-5.089,1.594C1090.448,419.289,1091.953,420.5,1094.231,417.681Z" transform="translate(-822.376 -335.462)" fill="#bc7987"/>
      <path id="Path_2832" data-name="Path 2832" d="M1091.359,419.278l.674-.212a1.485,1.485,0,0,0-.745.156c-.826-.514-1.618-1.023-2.438-1.481-.067-.038-.321.25-.486.387.962.368,1.924.74,2.886,1.108Z" transform="translate(-825.267 -335.253)" fill="#bc7987"/>
      <path id="Path_2833" data-name="Path 2833" d="M1098.248,417.618c-.076-.094-.146-.264-.231-.278-.481-.052-.971-.071-1.457-.1.075.151.151.434.231.439C1097.277,417.694,1097.762,417.647,1098.248,417.618Z" transform="translate(-794.808 -337.097)" fill="#bc7987"/>
      <path id="Path_2834" data-name="Path 2834" d="M1099.156,420.4c.137-.236-.274-1.085-.622-1.259-1.712-.854-2.169.585-2.858,1.585C1096.845,420.461,1098.2,421.994,1099.156,420.4Z" transform="translate(-798.093 -330.988)" fill="#bc7987"/>
      <path id="Path_2835" data-name="Path 2835" d="M1095.789,419.5c.038-.052.076-.118.114-.174-.052.01-.109-.019-.161,0l-.127-.061c.048.075.118.113.161.193Z" transform="translate(-798.32 -329.583)" fill="#bc7987"/>
      <path id="Path_2836" data-name="Path 2836" d="M1122.495,423.521c-2.037.127-4.014.387-5.112,2.462C1119.08,425.148,1121.679,426.2,1122.495,423.521Z" transform="translate(-717.426 -313.759)" fill="#bc7987"/>
      <path id="Path_2837" data-name="Path 2837" d="M1117.393,424.043l-.014,0v.014Z" transform="translate(-717.438 -311.819)" fill="#bc7987"/>
      <path id="Path_2838" data-name="Path 2838" d="M1083.073,420.608a9.671,9.671,0,0,0-1.7-1.684c-.24-.141-.877.368-1.33.58a9.907,9.907,0,0,0,1.467,1.764C1081.691,421.41,1082.375,420.915,1083.073,420.608Z" transform="translate(-856.202 -330.933)" fill="#bc7987"/>
      <path id="Path_2839" data-name="Path 2839" d="M1082.773,415.881l.028,0c-1.726.2-3.565-.4-5.178.59C1079.41,417.075,1081.41,420.3,1082.773,415.881Z" transform="translate(-865.189 -342.171)" fill="#bc7987"/>
      <path id="Path_2840" data-name="Path 2840" d="M1077.531,415.975l.033.325a2.843,2.843,0,0,1,.4-.2A1.958,1.958,0,0,0,1077.531,415.975Z" transform="translate(-865.527 -341.802)" fill="#bc7987"/>
      <path id="Path_2841" data-name="Path 2841" d="M1073.69,412.681c0-.038,0,.222,0,.179l.094-.014Z" transform="translate(-879.82 -354.058)" fill="#bc7987"/>
      <path id="Path_2842" data-name="Path 2842" d="M1075.081,412.985a1.694,1.694,0,0,1-.156.165c.061.047.118.075.179.122Z" transform="translate(-875.211 -352.914)" fill="#bc7987"/>
      <path id="Path_2843" data-name="Path 2843" d="M1079.459,414.308a6.505,6.505,0,0,0-5.754-1.448C1075.1,415.582,1076.649,417.638,1079.459,414.308Z" transform="translate(-879.746 -354.072)" fill="#bc7987"/>
      <path id="Path_2844" data-name="Path 2844" d="M1082.512,416.085c-2.259-1.66-4.127-4.447-7.508-2.561C1076.961,415.939,1079.97,415.411,1082.512,416.085Z" transform="translate(-874.918 -353.255)" fill="#bc7987"/>
      <path id="Path_2845" data-name="Path 2845" d="M1074.959,412.986l.019.283c.067-.042.127-.052.193-.09C1075.11,413.1,1075.02,413.076,1074.959,412.986Z" transform="translate(-875.085 -352.911)" fill="#bc7987"/>
      <path id="Path_2846" data-name="Path 2846" d="M1070.672,415.189c.038-.052.08-.042.123-.09a2,2,0,0,1-.146-.141Z" transform="translate(-891.107 -345.582)" fill="#bc7987"/>
      <path id="Path_2847" data-name="Path 2847" d="M1070.679,415.709c2.013,2.17,3.966,3.476,5.513-.448C1074.363,415.577,1072.33,413.761,1070.679,415.709Z" transform="translate(-890.992 -346.191)" fill="#bc7987"/>
      <path id="Path_2848" data-name="Path 2848" d="M1071.848,414.99c.033,0,.071.014.1,0,.024.056-.033-.127-.033-.127C1071.9,414.928,1071.872,414.933,1071.848,414.99Z" transform="translate(-886.647 -345.92)" fill="#bc7987"/>
      <path id="Path_2849" data-name="Path 2849" d="M1091.262,421.584c-.41-.462-.642-.957-.948-1.009a4.4,4.4,0,0,0-1.452.269,4.876,4.876,0,0,0,.222.99A21.392,21.392,0,0,0,1091.262,421.584Z" transform="translate(-823.416 -324.758)" fill="#bc7987"/>
      <path id="Path_2850" data-name="Path 2850" d="M1061.473,409.163c-.647-.038-1.288-.08-1.93-.118.543.42,1.071.849,1.6,1.278C1061.25,409.936,1061.359,409.55,1061.473,409.163Z" transform="translate(-932.377 -367.557)" fill="#bc7987"/>
      <path id="Path_2851" data-name="Path 2851" d="M1095.314,418.293a3.246,3.246,0,0,1-.873.679c-.523.2-1.759-.33-.877,1.038C1094.149,419.439,1094.729,418.864,1095.314,418.293Z" transform="translate(-807.088 -333.188)" fill="#bc7987"/>
      <path id="Path_2852" data-name="Path 2852" d="M1088.783,420.175c-.627.387-1.221.825-1.825,1.25.769-.264,1.538-.524,2.307-.788C1089.1,420.473,1088.831,420.147,1088.783,420.175Z" transform="translate(-830.492 -326.199)" fill="#bc7987"/>
      <path id="Path_2853" data-name="Path 2853" d="M1083.1,414.718l-.033-.278c-.042.033-.09.08-.137.118C1082.991,414.61,1083.048,414.671,1083.1,414.718Z" transform="translate(-845.443 -347.507)" fill="#bc7987"/>
      <path id="Path_2854" data-name="Path 2854" d="M1082.463,414.734a1.373,1.373,0,0,0-.08,1.358c1.339,1.368,2.207.165,3.141-.6C1084.642,414.687,1083.854,413.475,1082.463,414.734Z" transform="translate(-848.032 -348.438)" fill="#bc7987"/>
      <path id="Path_2855" data-name="Path 2855" d="M1053.376,411.458c-1.684-2.179-3.141-1.858-4.41.467C1050.712,414.227,1052.094,413.288,1053.376,411.458Z" transform="translate(-971.685 -364.046)" fill="#bc7987"/>
      <path id="Path_2856" data-name="Path 2856" d="M1049.059,410.489c-.042-.052-.076-.057-.118-.113l.037.236C1049,410.56,1049.031,410.541,1049.059,410.489Z" transform="translate(-971.777 -362.61)" fill="#bc7987"/>
      <path id="Path_2857" data-name="Path 2857" d="M1054.563,413.758l.025-.016-.008-.01Z" transform="translate(-950.883 -350.139)" fill="#bc7987"/>
      <path id="Path_2858" data-name="Path 2858" d="M1053.779,416.623c1.91-.071,2.792-1.495,3.7-2.886C1056.274,414.742,1054.336,414.817,1053.779,416.623Z" transform="translate(-953.797 -350.12)" fill="#bc7987"/>
      <path id="Path_2859" data-name="Path 2859" d="M1117.389,424.05l-.013-.008.013.022Z" transform="translate(-717.449 -311.823)" fill="#bc7987"/>
      <path id="Path_2860" data-name="Path 2860" d="M1115.914,422.777l0,.012.018.012Z" transform="translate(-722.889 -316.525)" fill="#bc7987"/>
      <path id="Path_2861" data-name="Path 2861" d="M1122.8,428.72c-1.467-2.943-4.4-4.174-6.881-5.938C1117.354,425.744,1120.373,426.89,1122.8,428.72Z" transform="translate(-722.874 -316.505)" fill="#bc7987"/>
      <path id="Path_2862" data-name="Path 2862" d="M1124.456,427.893q-2.985-2.186-5.966-4.372h-.018C1120.381,425.106,1121.829,427.365,1124.456,427.893Z" transform="translate(-713.397 -313.759)" fill="#bc7987"/>
      <path id="Path_2863" data-name="Path 2863" d="M1120.415,424.627a4.5,4.5,0,0,1-.679-.179c.232.165.458.335.685.5Z" transform="translate(-708.677 -310.313)" fill="#bc7987"/>
      <path id="Path_2864" data-name="Path 2864" d="M1121.928,424.232c-.641.391-1.282.788-1.928,1.179.783-.009,1.566-.014,2.344-.014Z" transform="translate(-707.7 -311.116)" fill="#bc7987"/>
      <path id="Path_2865" data-name="Path 2865" d="M1119.881,424.487v.335l.557-.34C1120.254,424.487,1120.066,424.482,1119.881,424.487Z" transform="translate(-708.139 -310.187)" fill="#bc7987"/>
      <path id="Path_2866" data-name="Path 2866" d="M1140.579,433.445c-.085.08-.175.17-.259.259l.287.042Z" transform="translate(-632.184 -276.877)" fill="#bc7987"/>
      <path id="Path_2867" data-name="Path 2867" d="M1139.995,434.709c1.113.528,1.759-.226,2.424-.9-.892-.132-1.778-.259-2.665-.391C1139.825,433.865,1139.763,434.6,1139.995,434.709Z" transform="translate(-634.283 -276.982)" fill="#bc7987"/>
      <path id="Path_2868" data-name="Path 2868" d="M1059.651,414.174l.221-.146q-2.115.92-4.235,1.839Z" transform="translate(-946.893 -349.038)" fill="#bc7987"/>
      <path id="Path_2869" data-name="Path 2869" d="M1072.536,415.455a3.919,3.919,0,0,0,2.354,2.019l-.028-.019C1074.088,416.795,1073.309,416.12,1072.536,415.455Z" transform="translate(-884.09 -343.735)" fill="#bc7987"/>
      <path id="Path_2870" data-name="Path 2870" d="M1071.9,414.908c1,.872,1.995,1.721,2.99,2.58C1074.138,416.328,1073.421,415.139,1071.9,414.908Z" transform="translate(-886.446 -345.768)" fill="#bc7987"/>
      <path id="Path_2871" data-name="Path 2871" d="M1071.887,414.963c.066,0,.09.057.151.066l-.17-.146C1071.854,414.836,1071.911,415.02,1071.887,414.963Z" transform="translate(-886.582 -345.889)" fill="#bc7987"/>
      <path id="Path_2872" data-name="Path 2872" d="M1052.1,413.557c.92,2.174,3.193,2.976,4.793,4.485C1056.237,415.533,1054.115,414.6,1052.1,413.557Z" transform="translate(-960.053 -350.788)" fill="#bc7987"/>
      <path id="Path_2873" data-name="Path 2873" d="M1053.113,414.508l.02.045h.006l.033,0,0,0h.009l.019-.016-.036.008Z" transform="translate(-956.276 -347.256)" fill="#bc7987"/>
      <path id="Path_2874" data-name="Path 2874" d="M1052.115,413.692l.089.047c-.037-.085-.1-.142-.136-.231C1052.071,413.546,1052.115,413.692,1052.115,413.692Z" transform="translate(-960.16 -350.971)" fill="#bc7987"/>
      <path id="Path_2875" data-name="Path 2875" d="M1048.338,414.1l1.962,1.33-.095-.066C1049.428,415.173,1049.885,413.15,1048.338,414.1Z" transform="translate(-974.018 -349.712)" fill="#bc7987"/>
      <path id="Path_2876" data-name="Path 2876" d="M1094.759,418.819c1.349.712,2.7,1.419,4.037,2.094C1097.834,419.39,1096.316,419.064,1094.759,418.819Z" transform="translate(-801.501 -331.233)" fill="#bc7987"/>
      <path id="Path_2877" data-name="Path 2877" d="M1095.395,419.15c-.269-.142-.538-.278-.806-.42l.052.3C1094.89,419.07,1095.145,419.107,1095.395,419.15Z" transform="translate(-802.137 -331.564)" fill="#bc7987"/>
      <path id="Path_2878" data-name="Path 2878" d="M1127.814,427.584c-.617-.439-1.235-.873-1.853-1.311.334.656.67,1.283,1,1.9C1127.249,427.976,1127.531,427.778,1127.814,427.584Z" transform="translate(-685.543 -303.531)" fill="#bc7987"/>
      <path id="Path_2879" data-name="Path 2879" d="M1125.955,426.233c0-.052-.023.127-.023.127l.141.1Z" transform="translate(-685.655 -303.717)" fill="#bc7987"/>
      <path id="Path_2880" data-name="Path 2880" d="M1129.182,428.858c-.123-.467-.1-1.1-.41-1.354s-.934-.142-1.425-.193c.137.453.146,1.061.448,1.316S1128.705,428.8,1129.182,428.858Z" transform="translate(-680.392 -299.673)" fill="#bc7987"/>
      <path id="Path_2881" data-name="Path 2881" d="M1081.9,415.12c.33-.137.467-.745.707-1.17-.5-.047-1.047-.25-1.444-.085-.32.127-.457.7-.679,1.075C1080.958,415.021,1081.515,415.276,1081.9,415.12Z" transform="translate(-854.559 -349.88)" fill="#bc7987"/>
      <path id="Path_2882" data-name="Path 2882" d="M1080.124,416.827l-.081.038.01,0Z" transform="translate(-856.191 -338.636)" fill="#bc7987"/>
      <path id="Path_2883" data-name="Path 2883" d="M1081.574,416.622c-.5.321-1.009.641-1.514.967.419-.179.839-.344,1.235-.556C1081.428,416.966,1081.484,416.764,1081.574,416.622Z" transform="translate(-856.128 -339.398)" fill="#bc7987"/>
      <path id="Path_2884" data-name="Path 2884" d="M1080.329,417.043l-.363-.264.368.269Z" transform="translate(-856.477 -338.814)" fill="#bc7987"/>
      <path id="Path_2885" data-name="Path 2885" d="M1084.615,420.135q-2.943-2.13-5.876-4.259l-.023,0Q1081.68,418.01,1084.615,420.135Z" transform="translate(-861.127 -342.17)" fill="#bc7987"/>
      <path id="Path_2886" data-name="Path 2886" d="M1093.629,422.877c-.882-.783-1.764-1.571-2.65-2.353q1.04,1.443,2.079,2.891Z" transform="translate(-815.553 -324.9)" fill="#bc7987"/>
      <path id="Path_2887" data-name="Path 2887" d="M1066.528,410.757c-.067-.24-.067-.552-.227-.707s-.472-.155-.722-.226l.2.726Z" transform="translate(-909.945 -364.665)" fill="#bc7987"/>
      <path id="Path_2888" data-name="Path 2888" d="M1073.042,419.375q1.528-2.243,3.056-4.466C1074.631,416.1,1073.235,417.328,1073.042,419.375Z" transform="translate(-882.213 -345.764)" fill="#bc7987"/>
      <path id="Path_2889" data-name="Path 2889" d="M1073.065,415.983a1.3,1.3,0,0,0,.029-.127l-.067.1Z" transform="translate(-882.265 -342.245)" fill="#bc7987"/>
      <path id="Path_2890" data-name="Path 2890" d="M1073.788,414.92l-.014-.038-.085.127Z" transform="translate(-879.805 -345.864)" fill="#bc7987"/>
      <path id="Path_2891" data-name="Path 2891" d="M1067.507,410.061l-.141-.193s-.052.278-.042.255Z" transform="translate(-903.468 -364.498)" fill="#bc7987"/>
      <path id="Path_2892" data-name="Path 2892" d="M1068.329,409.839c-.321.1-.641.212-.967.33l.481.684Z" transform="translate(-903.323 -364.606)" fill="#bc7987"/>
      <path id="Path_2893" data-name="Path 2893" d="M1086.735,420.607c.222.17.444.34.665.514q-.085-.467-.17-.934Z" transform="translate(-831.321 -326.149)" fill="#bc7987"/>
      <path id="Path_2894" data-name="Path 2894" d="M1086.876,420.385l.062.363.278-.075.047-.033-.042.014C1087.108,420.564,1086.99,420.475,1086.876,420.385Z" transform="translate(-830.797 -325.413)" fill="#bc7987"/>
      <path id="Path_2895" data-name="Path 2895" d="M1094.923,418.731a2.556,2.556,0,0,1-.425,0l.472.283Z" transform="translate(-802.471 -331.565)" fill="#bc7987"/>
      <path id="Path_2896" data-name="Path 2896" d="M1097.494,420.443q-1.839-1.09-3.665-2.165l-.018-.009-.118.113c.042-.038.084-.066.127-.1C1094.867,419.344,1095.819,420.571,1097.494,420.443Z" transform="translate(-805.467 -333.277)" fill="#bc7987"/>
      <path id="Path_2897" data-name="Path 2897" d="M1098.851,417.937l-.334-.368-.241.579Z" transform="translate(-788.432 -335.88)" fill="#bc7987"/>
      <path id="Path_2898" data-name="Path 2898" d="M1091.253,421.7c-.231.344-1.282.953.137.826.287-.023.467-1.283.7-1.995l.067.061-.062-.09-.023.014h0C1091.8,420.91,1091.518,421.3,1091.253,421.7Z" transform="translate(-816.729 -324.971)" fill="#bc7987"/>
      <path id="Path_2899" data-name="Path 2899" d="M1084.985,414.6l-.019-.024-.061.061c.065.047.137.076.2.118,1.425.646,2.849,1.288,4.288,1.953a.657.657,0,0,1,.122.071l.089-.01c-.076-.019-.156-.061-.235-.075C1087.928,416.02,1086.461,415.317,1084.985,414.6Z" transform="translate(-838.122 -347.016)" fill="#bc7987"/>
      <path id="Path_2900" data-name="Path 2900" d="M1096.6,422.08l-.619.233.41.406Z" transform="translate(-796.971 -319.114)" fill="#bc7987"/>
      <path id="Path_2901" data-name="Path 2901" d="M1093.184,418.055l.306.891.934-.849-1.179-.151-.085.042.009.024-.023.024a5.613,5.613,0,0,1-1.179,1.009c-.811.4-.754,1-.132.788C1092.42,419.639,1092.755,418.715,1093.184,418.055Z" transform="translate(-814.122 -334.477)" fill="#bc7987"/>
      <path id="Path_2902" data-name="Path 2902" d="M1051.416,417.773c1.269-1.236,2.858-2.236,3-4.193A6.843,6.843,0,0,0,1051.416,417.773Z" transform="translate(-962.579 -350.703)" fill="#bc7987"/>
      <path id="Path_2903" data-name="Path 2903" d="M1052.167,413.744c0-.052-.043-.2-.047-.236,0,.127-.056.217-.066.34C1052.1,413.819,1052.124,413.772,1052.167,413.744Z" transform="translate(-960.213 -350.971)" fill="#bc7987"/>
      <path id="Path_2904" data-name="Path 2904" d="M1051.433,414.611c.01-.057.052-.09.061-.142l-.1.09Z" transform="translate(-962.658 -347.399)" fill="#bc7987"/>
      <path id="Path_2905" data-name="Path 2905" d="M1050.951,408.965l-.662-.245.021.326Z" transform="translate(-966.768 -368.766)" fill="#bc7987"/>
      <path id="Path_2906" data-name="Path 2906" d="M1058.556,414.365l.631-.542-.023-.052Z" transform="translate(-936.045 -349.993)" fill="#bc7987"/>
      <path id="Path_2907" data-name="Path 2907" d="M1062.04,415.87l-.858.986,1.207.057.042-.066-.052.042Q1062.209,416.379,1062.04,415.87Z" transform="translate(-926.289 -342.192)" fill="#bc7987"/>
      <path id="Path_2908" data-name="Path 2908" d="M1064.2,415.271q-1.373,1.9-2.75,3.8C1062.715,418.054,1063.984,417.035,1064.2,415.271Z" transform="translate(-925.304 -344.419)" fill="#bc7987"/>
      <path id="Path_2909" data-name="Path 2909" d="M1062.293,415.32l-.047-.113-.165.094v0l-.005,0h0c0,.075-.037.127-.046.2l.141-.193Z" transform="translate(-923.138 -344.656)" fill="#bc7987"/>
      <path id="Path_2910" data-name="Path 2910" d="M1062.085,415.231c.123.311.246.627.363.934C1063.18,415.325,1062.666,415.259,1062.085,415.231Z" transform="translate(-922.93 -344.567)" fill="#bc7987"/>
      <path id="Path_2911" data-name="Path 2911" d="M1060.65,414.217c-.425-.4-.844-.8-1.269-1.2l-.108.042C1059.73,413.448,1060.193,413.83,1060.65,414.217Z" transform="translate(-933.38 -352.806)" fill="#bc7987"/>
      <path id="Path_2912" data-name="Path 2912" d="M1063.984,416.642l.339-.244-.511-.279Z" transform="translate(-916.511 -341.266)" fill="#bc7987"/>
      <path id="Path_2913" data-name="Path 2913" d="M1054.694,413.828l3.924,3,.038-.014.485-.208-.491.208Q1056.67,415.326,1054.694,413.828Z" transform="translate(-950.397 -349.781)" fill="#bc7987"/>
      <path id="Path_2914" data-name="Path 2914" d="M1054.576,413.742l.59.443-.6-.453Z" transform="translate(-950.869 -350.138)" fill="#bc7987"/>
      <path id="Path_2915" data-name="Path 2915" d="M1048.245,409l-.028.292c.24-.057.481-.09.717-.128C1048.7,409.113,1048.476,409.061,1048.245,409Z" transform="translate(-974.468 -367.709)" fill="#bc7987"/>
      <path id="Path_2916" data-name="Path 2916" d="M1048.369,409.086l2.7.651A3.138,3.138,0,0,0,1048.369,409.086Z" transform="translate(-973.903 -367.626)" fill="#bc7987"/>
      <path id="Path_2917" data-name="Path 2917" d="M1051.978,408.551l.056.028-.038-.066-.009.014,0-.028-.019.052c-.952,1.056-1.9,2.122-2.858,3.184C1051.092,411.687,1051.563,410.145,1051.978,408.551Z" transform="translate(-971.131 -369.586)" fill="#bc7987"/>
      <path id="Path_2918" data-name="Path 2918" d="M1049.758,409.215a3.155,3.155,0,0,1-.382.047l0,.019-.439-.1a2.981,2.981,0,0,1,.467.424C1049.522,409.474,1049.64,409.342,1049.758,409.215Z" transform="translate(-971.774 -367.066)" fill="#bc7987"/>
      <path id="Path_2919" data-name="Path 2919" d="M1053.014,410c-.34.132-.679.264-1.019.4l.93.736Z" transform="translate(-960.428 -364.008)" fill="#bc7987"/>
      <path id="Path_2920" data-name="Path 2920" d="M1052.5,410.249l-.259-.208-.382.142c.122.071.236.1.359.174Z" transform="translate(-960.933 -363.855)" fill="#bc7987"/>
      <path id="Path_2921" data-name="Path 2921" d="M1052.466,410.449l-.259-.208-.019.3Z" transform="translate(-959.711 -363.112)" fill="#bc7987"/>
      <path id="Path_2922" data-name="Path 2922" d="M1057.891,416.486c.047.066.085.137.127.2l-.193.165.331.108.014-.014.01,0,0-.009q1.549-1.521,3.1-3.047-1.556,1.344-3.122,2.679Z" transform="translate(-938.761 -349.525)" fill="#bc7987"/>
      <path id="Path_2923" data-name="Path 2923" d="M1052.756,409.506l.316-.014.632.033-.019-.6c-.217.132-.429.269-.646.406-.024-.066-.042-.137-.066-.2Z" transform="translate(-957.6 -367.999)" fill="#bc7987"/>
      <path id="Path_2924" data-name="Path 2924" d="M1058.868,409.584l-.533.217.085.009Z" transform="translate(-936.866 -365.553)" fill="#bc7987"/>
      <path id="Path_2925" data-name="Path 2925" d="M1063.254,409.165l.057-.042.3.019-.151-.123a1.91,1.91,0,0,1-.193.1l0,0c-.966.509-1.952,1.033-2.938,1.58l-.01.024c-.623.316-1.25.637-1.877.957.6-.241,1.2-.486,1.792-.726C1061.24,410.377,1062.235,409.793,1063.254,409.165Z" transform="translate(-936.446 -367.653)" fill="#bc7987"/>
      <path id="Path_2926" data-name="Path 2926" d="M1050.546,408.72a2.038,2.038,0,0,1-.325.156l.344.165Z" transform="translate(-967.025 -368.765)" fill="#bc7987"/>
      <path id="Path_2927" data-name="Path 2927" d="M1052.026,409.634q-1.146-.573-2.292-1.118C1050.276,409.483,1050.875,410.285,1052.026,409.634Z" transform="translate(-968.831 -369.523)" fill="#bc7987"/>
      <path id="Path_2928" data-name="Path 2928" d="M1056.484,414.193a1.247,1.247,0,0,0,.075.311c.057-.16.108-.316.165-.476C1056.724,414.028,1056.5,414.174,1056.484,414.193Z" transform="translate(-943.745 -349.038)" fill="#bc7987"/>
      <path id="Path_2929" data-name="Path 2929" d="M1083.7,420.089l.2-.429,1.528.934c-.594-.208-.213-1.769-1.467-1.061l-.226.024.014.009C1083.743,419.744,1083.725,419.919,1083.7,420.089Z" transform="translate(-842.596 -329.262)" fill="#bc7987"/>
      <path id="Path_2930" data-name="Path 2930" d="M1048.833,414.229l.07-.047c-.066-.019-.1.014-.17-.014Z" transform="translate(-972.547 -348.518)" fill="#bc7987"/>
      <path id="Path_2931" data-name="Path 2931" d="M1048.77,415.7c1.481.453,1.849-1.226,2.891-1.632l0-.023c.076-.028.141-.024.222-.052-.052-.089-.123-.127-.17-.231C1050.742,414.387,1049.76,415.038,1048.77,415.7Z" transform="translate(-972.413 -350.034)" fill="#bc7987"/>
      <path id="Path_2932" data-name="Path 2932" d="M1046.188,413.658c-.028-.1-.061-.2-.094-.293v-.023c-.033.094-.08.141-.118.236l.114.056Z" transform="translate(-982.797 -351.587)" fill="#bc7987"/>
      <path id="Path_2933" data-name="Path 2933" d="M1047.337,413.692l-1.316-.283C1046.238,414.083,1046.46,414.72,1047.337,413.692Z" transform="translate(-982.629 -351.338)" fill="#bc7987"/>
      <path id="Path_2934" data-name="Path 2934" d="M1048.76,410.555c-.113-.066-.207-.038-.321-.127l.071.278C1048.59,410.621,1048.68,410.626,1048.76,410.555Z" transform="translate(-973.643 -362.417)" fill="#bc7987"/>
      <path id="Path_2935" data-name="Path 2935" d="M1050.323,410.59a1.422,1.422,0,0,0-1.816.222A1.335,1.335,0,0,0,1050.323,410.59Z" transform="translate(-973.391 -362.673)" fill="#bc7987"/>
      <path id="Path_2936" data-name="Path 2936" d="M1049.124,410.376c-.071.094-.156.071-.231.151.094.052.175.014.264.085Z" transform="translate(-971.96 -362.61)" fill="#bc7987"/>
      <path id="Path_2937" data-name="Path 2937" d="M1053.13,415.291c.981-.231,1.962-.462,2.957-.67l.028.023c.014-.057.057-.08.076-.132-.071,0-.118.033-.189.033A2.172,2.172,0,0,0,1053.13,415.291Z" transform="translate(-956.21 -348.009)" fill="#bc7987"/>
      <path id="Path_2938" data-name="Path 2938" d="M1050.683,410.706l-.07-.278-2.358.255c-.132.123-.269.255-.4.377.131.014.24-.042.373-.019C1049.048,410.928,1049.864,410.819,1050.683,410.706Z" transform="translate(-975.817 -362.417)" fill="#bc7987"/>
      <path id="Path_2939" data-name="Path 2939" d="M1090.134,450.375c.179-.34,0-1.245-.259-1.368a7.776,7.776,0,0,0-2.1-.377c.009.679.024,1.354.033,1.769C1088.894,451.248,1089.672,451.252,1090.134,450.375Z" transform="translate(-827.452 -220.444)" fill="#bc7987"/>
    </g>
  </g>
</svg>
