<svg xmlns="http://www.w3.org/2000/svg" viewBox="0 0 594.19 594.19"><defs><style>.cls-1{fill:none;}</style></defs><g id="Layer_2" data-name="Layer 2"><g id="Layer_1-2" data-name="Layer 1"><path d="M210.8,339.24c-1.53,9.63-9.63,17-21.77,17H165.52L176.44,300h18.49c10,0,15.87,6.25,14.47,14.66-.9,5.3-4.08,9.07-7.85,9.9C207,324.66,212.27,330,210.8,339.24ZM191,332l-5.9,0-2.06,10.67h5.73c4.36,0,7-2,7.6-5C197.09,334.32,194.75,332,191,332Zm.28-19h-2.48l-1.71,8.83h2.58c2.72,0,5.69-1,6.35-4.33C196.57,314.86,194.79,313,191.3,313Z"/><path d="M249.07,349.67H230l-3.77,6.56H208.71l35.62-56.93h8.06l13.53,56.93H250.36Zm-2.16-10.92L244.19,325l-7.92,13.74Z"/><path d="M269,345.8,279.11,337c2.27,3.88,6.11,6.42,10.26,6.42,2,0,5.06-.9,5.58-3.45.7-3.38-3.87-6-8.2-8.62-6.66-4.08-11.09-9.77-9.42-17.79,1.75-8.41,10.47-14.37,20.27-14.37,7.71,0,14.24,4.11,16.54,9.76l-9.94,8.52a8.55,8.55,0,0,0-7.57-4.64c-2.66,0-4.47,1.57-4.78,3.31-.56,2.9,4.15,5,8,7.26,7.19,4.29,11.79,9.8,10.26,18.11-1.71,9.28-9.67,15.52-21.56,15.52C278.48,357,271.78,352.22,269,345.8Z"/><path d="M337.62,313.88l-1.54,7.85h16l-2.41,12.45h-16l-1.57,8.06h19.78l-2.72,14h-35L325.06,300h35l-2.72,13.89Z"/><path d="M410.85,328.18c-3.39,28.05-30.49,28.05-35,28.05H357.51L368.43,300l18.35,0C398.53,300,413.47,306.83,410.85,328.18ZM383.64,314h-2.72l-5.48,28.22h2.82c6.56,0,15.81-3.31,17.27-14.06C396.82,319,391.42,314,383.64,314Z"/><path d="M205.18,198.1a26,26,0,0,0-5.89-7.66,50.51,50.51,0,0,0-11.57-8,56.92,56.92,0,0,0-14-5,28.82,28.82,0,0,0-3.41-.42c-1.32-.09-2.89-.19-4.68-.28-1.23,0-2.25,0-3,.07s-1.54.09-2.2.14a15.36,15.36,0,0,0-2,.28,22.19,22.19,0,0,0-2.27.64,22.31,22.31,0,0,1-3.54.78,4.67,4.67,0,0,1-1.85-.21,6.7,6.7,0,0,0-2.06-.36c-.33,0-.54.31-.64.78s-.18.86-.56.86-.67.37-.86,1.13c-.09.47-.28,1.7-.56,3.69s-.62,4.52-1,7.59-.76,6.5-1.14,10.29-.78,7.66-1.21,11.63-.85,7.93-1.27,11.85-.78,7.55-1.07,10.86-.54,6.55-.78,10-.4,6.62-.49,9.51-.15,5.27-.15,7.16.1,2.89.29,3,.19,0,.28-.21a7.8,7.8,0,0,0,.28-1.7c.1-.9.22-2.2.36-3.91s.36-4.06.64-7.09.47-6.79.85-11,.78-8.51,1.21-12.91.82-8.73,1.2-13,.73-8,1.06-11.14.62-5.65.86-7.45.35-2.51.35-2.13-.14,2.15-.42,5.6-.62,7.46-1,12Q143.8,225.91,143.1,235c-.47,6.06-.81,11.07-1,15q-.15,1.71-.36,5.82t-.5,8.23c-.19,2.75-.3,4.85-.35,6.31a19.67,19.67,0,0,0,.07,3.2c.09.66.28,1,.57,1.06a3.13,3.13,0,0,0,1.14-.07q2.55-.42,2.55,1.14c0,.56.09.85.28.85s.38.24.57.71c.28.94.8.9,1.56-.15.37-.66.71-.85,1-.56s.19.66,0,.85c-.19.38,0,.57.5.57a2.36,2.36,0,0,0,1.49-.57,3.14,3.14,0,0,1,1.21-.57,12.53,12.53,0,0,1,1.77-.42c.57-.1,1.09-.19,1.56-.29a1.91,1.91,0,0,0,1-.42,9.68,9.68,0,0,0,.43-1.42,26.72,26.72,0,0,0,.5-3.62c.13-1.65.33-3.76.56-6.32s.5-5.76.78-9.64l.15-3.13,5-.14c1.14,0,2.48-.07,4.05-.21s3.07-.31,4.54-.5,2.76-.4,3.9-.64a7.65,7.65,0,0,0,2.13-.63l1.49-.71c.8-.38,1.68-.81,2.62-1.28l2.91-1.49a19.29,19.29,0,0,0,2.27-1.42c.71-.52,1.44-1.08,2.2-1.7a35.09,35.09,0,0,0,2.7-2.49c1-.94,2.1-1.86,3.19-2.76l2.48-2.06a17.19,17.19,0,0,0,3.33-3.41,37.22,37.22,0,0,0,5.47-10,29.72,29.72,0,0,0,1.42-5.46,11.51,11.51,0,0,0,.21-2.91,51.39,51.39,0,0,0-.64-5.18A32.5,32.5,0,0,0,205.18,198.1Zm-58.54-4.26c-.18.38-.28.1-.28-.85s.1-1.27.28-.71Zm.29-4.11c-.1.1-.14,0-.14-.43s0-.47.14-.28A.51.51,0,0,1,146.93,189.73Zm4.68,64.56-.42,1.7v-1.41c0-.48,0-1,.07-1.5s.12-1,.21-1.49l.29-1.56v1.42a4.45,4.45,0,0,1,.07,1.35A13.33,13.33,0,0,1,151.61,254.29Zm.71-14.76c0-.94.09-1.22.29-.85a4.34,4.34,0,0,1,.14,1.42C152.46,241.43,152.32,241.24,152.32,239.53Zm.85-6.95c0,.19,0,.21-.07.07a2.74,2.74,0,0,1-.07-.78c0-.66.09-.8.29-.42A2.8,2.8,0,0,1,153.17,232.58Zm.43-2.55c0,.19,0,.21-.07.07a3.54,3.54,0,0,1-.07-.92,4.57,4.57,0,0,1,.07-1c0-.19.07-.14.07.14A2.62,2.62,0,0,1,153.6,230Zm.42-4c-.09.29-.14,0-.14-.85s.05-.94.14-.56a1.15,1.15,0,0,1,.08.71A4.16,4.16,0,0,0,154,226.05Zm4.12-30.36c-.19.38-.29.14-.29-.71s.1-1.14.29-.57Zm.43-4c-.1,1.13-.2,1.7-.29,1.7s-.14-.57-.14-1.7c0-1.33.09-1.89.28-1.71S158.75,190.86,158.57,191.72Zm-.07-7.6c-.43,0-1-.3-1.64-1.06l-1-1.14,1.13-.28a11.27,11.27,0,0,1,2.49-.42c1.09-.1,2.24-.17,3.48-.22a34.82,34.82,0,0,1,3.68.07c1.23.1,2.22.19,3,.29a32.1,32.1,0,0,1,5.68,1.56,65.92,65.92,0,0,1,6.17,2.62,61.67,61.67,0,0,1,5.75,3.2,31.9,31.9,0,0,1,4.54,3.4l1.49,1.49c.42.43.59.64.5.64a3.87,3.87,0,0,1-1-.57c-.57-.37-1.23-.8-2-1.27-.94-.66-1.79-1.21-2.55-1.64s-1.54-.82-2.34-1.2a25.33,25.33,0,0,0-2.7-1.07c-1-.33-2.15-.73-3.47-1.2a67.58,67.58,0,0,0-8.09-2.27,31.19,31.19,0,0,0-6-.85,10.18,10.18,0,0,1-1.63-.08c-.24,0-.45-.26-.64-.63a2.45,2.45,0,0,0-2.84-1.71,3.79,3.79,0,0,0-1.2.29c-.15.09-.22.38-.22.85Q159.13,184.06,158.5,184.12Zm25.61,53.29c-.1.19-.5.42-1.21.71s-1.56.56-2.55.85l-3,.85a19.8,19.8,0,0,1-2.7.56,34.85,34.85,0,0,1-4.19.5c-1.84.14-3.61.26-5.32.36l-6.1.28v-1c0-.38.1-.62.28-.71a4.66,4.66,0,0,1,1.57-.15q2.83,0,6.38-.28l6.88-.57c2.22-.18,4.21-.42,6-.7s3-.52,3.62-.71a1,1,0,0,1,.43-.15Q184.24,237.26,184.11,237.41Zm1.7-13.13c-.95.71-1.94,1.42-3,2.13a34.88,34.88,0,0,1-3.12,1.91,17.69,17.69,0,0,1-2.84,1.28q-1.14.43-2.91,1a26.46,26.46,0,0,1-3.33.86c-1,.19-2.28.35-3.7.49s-2.64.26-3.68.36l-3.69.28.56-6.67q.57-5.25,1.14-12.41t1-14.41q.15-3,.36-4.68t.36-2.55a2.15,2.15,0,0,1,.35-1.07.86.86,0,0,1,.63-.21,11.52,11.52,0,0,1,1.92.28c.9.19,1.9.45,3,.79l3.2,1c1,.33,1.93.64,2.69.92,1.42.66,2.88,1.42,4.4,2.27s3,1.75,4.33,2.7a34.34,34.34,0,0,1,3.62,2.84,18.69,18.69,0,0,1,2.41,2.55,14,14,0,0,1,3.05,9.58C192.31,216.86,186.75,223.57,185.81,224.28ZM197,220a9.35,9.35,0,0,1-1,1.49,17.28,17.28,0,0,1-1.56,1.78l-1.84,2,1.56-3c.38-.85.73-1.77,1.07-2.76s.59-1.73.77-2.2a5.57,5.57,0,0,1,.72-1.85c.18,0,.37.57.56,1.71A4.78,4.78,0,0,1,197,220Z"/><path d="M224.85,194.63c.71-1.52,1.33-3.08,1.89-4.66-1,2.41-1.78,4.36-2.29,5.53C224.57,195.25,224.7,195,224.85,194.63Z"/><path d="M323.79,194a27.89,27.89,0,0,0-1.49-6.81,13.47,13.47,0,0,0-4.47-5.75,15.9,15.9,0,0,0-6.88-3.19q-5.25-.72-12.91,9.65a69.91,69.91,0,0,0-5.18,7.73c-1.56,2.69-3.33,6.08-5.32,10.14q-1.56,3.13-2.84,5.89c-.85,1.85-1.68,3.76-2.48,5.75s-1.63,4.14-2.48,6.46-1.8,5-2.84,8l-3.41,9.79-2.69.85c-3.5,1.23-5.26,2.75-5.26,4.54a4.53,4.53,0,0,0,.29,1.28,15.78,15.78,0,0,0,.64,1.63,10.46,10.46,0,0,0,.71,1.35c.24.38.45.57.64.57a12.48,12.48,0,0,0,1.27-.29q.86-.42,1.14,0c.19.19.07.55-.36,1.07a1.7,1.7,0,0,1-1.2.78c-.29,0-.45.28-.5.85a3.75,3.75,0,0,0,.36,1.84,3.27,3.27,0,0,1,.21,1.64,28.17,28.17,0,0,1-.64,3.61c-1,4.17-1.51,7.1-1.7,8.8a6.34,6.34,0,0,0,.28,3.55,2.58,2.58,0,0,0,1.85,1.2,7.53,7.53,0,0,0,3.12.08,15,15,0,0,0,2.06-.36,2.36,2.36,0,0,0,1.2-.71,4.75,4.75,0,0,0,.78-1.42,24.45,24.45,0,0,0,.78-2.48q2.13-8.24,3.12-11.49c.66-2.18,1.09-3.27,1.28-3.27s.33.38.14,1.14-.5,2-.92,3.69-.85,3.45-1.28,5.25-.82,3.45-1.2,5-.62,2.45-.71,2.83c-.38,1.23-.48,2-.29,2.27s.24.19.43,0a4.57,4.57,0,0,0,.71-1.49c.29-.8.64-2,1.06-3.47s1-3.55,1.78-6.11,1.39-4.58,1.91-6.38a11.78,11.78,0,0,1,1.07-3,10.46,10.46,0,0,1,2.13-.57c1.32-.28,2.88-.59,4.68-.92s3.66-.66,5.6-1,3.52-.59,4.76-.78a13.14,13.14,0,0,1,1.55-.22,5.36,5.36,0,0,0,1.29-.21l1-.28-.14,2.27c-.1.85-.2,2.34-.29,4.47s-.14,4.33-.14,6.59v9.23c.09.47.33.71.71.71.38-.19.66-.14.85.14a.63.63,0,0,0,.71.14c.37-.19.57-.14.57.14s.19.43.57.43.56.28.56.85a2.72,2.72,0,0,0,1.14,1.56,4.18,4.18,0,0,0,1.06.5,4.62,4.62,0,0,0,1.49-.22c2.08-.56,3.29-.87,3.62-.92s.49.07.49.36a1.27,1.27,0,0,0,.43.85,2.22,2.22,0,0,0,1.35.43,1.07,1.07,0,0,0,1.07-.72,26,26,0,0,0,1.34-6q.78-5,1.92-16.38.71-8,1.14-12.56t.7-7.1q.28-2.47.36-3.54c0-.71.09-1.28.14-1.71s.09-1,.14-1.63.12-1.84.21-3.54q.29-5,.29-9.37t-.29-9.65Q324.28,198.25,323.79,194ZM303.5,245.85l-2.62.5c-1.05.09-2.44.28-4.19.56s-3.43.62-5,1l-5.38.93c-.86.14-1.19.12-1-.07.09,0,.85-.15,2.27-.43s3-.61,4.82-1,3.55-.71,5.25-1,2.89-.48,3.55-.57,1.11-.17,1.63-.22a3.11,3.11,0,0,0,1.07-.21c.47-.19.71-.14.71.14C304.57,245.59,304.21,245.71,303.5,245.85Zm2.34,15.25c0,.19,0,.21-.07.07a3.54,3.54,0,0,1-.07-.92,2.69,2.69,0,0,1,.07-.85c.05-.09.07,0,.07.14A2.2,2.2,0,0,1,305.84,261.1Zm.57-7.66c-.19,4.26-.33,4.63-.42,1.14,0-1,0-1.75.07-2.42s.11-1,.21-1C306.56,251.17,306.6,251.93,306.41,253.44Zm.21-34.83q-.06,3.46-.21,6.74c-.09,2.17-.19,4.09-.28,5.74a29.32,29.32,0,0,1-.29,3.19c-.09.48-.8.85-2.13,1.14-.56.1-1.58.24-3,.42s-3,.43-4.62.71-3.05.52-4.33.71a12.88,12.88,0,0,0-2.19.43c-.2.09-.27-.07-.22-.5a21.28,21.28,0,0,1,.92-3.05c.67-1.89,1.4-3.83,2.21-5.82s1.56-3.92,2.27-5.81,1.41-3.67,2.13-5.33,1.34-3.09,1.91-4.32q1-2.13,2.2-4.54t2.27-4.47c.71-1.37,1.32-2.48,1.85-3.34s.82-1.27.92-1.27.35,1.13.49,3.4.21,5.49.21,9.65Q306.69,215.13,306.62,218.61Zm2.13-2.63c-.05,2.55-.17,5.63-.35,9.22-.19,2.56-.34,4.78-.43,6.67a14.09,14.09,0,0,1-.28,3c-.1,0-.14-.68-.14-2.06s0-3.09.14-5.18c.09-2.36.16-4.8.21-7.3s.05-5,0-7.38-.12-4.64-.21-6.67-.19-3.71-.28-5c-.29-2.84-.29-4.39,0-4.68s.49.26.63,1.63.31,4.38.5,9C308.73,210.49,308.8,213.43,308.75,216Zm.5-15.47c-.1.57-.14.74-.14.5s-.1-1-.29-2.2a18.87,18.87,0,0,1-.14-3.83c.1-.66.24-.09.43,1.7.09.66.16,1.35.21,2.06A7,7,0,0,1,309.25,200.51Zm.28,3.27c0,.19,0,.21-.07.07a2.46,2.46,0,0,1-.07-.64,2.33,2.33,0,0,1,.07-.71c.05-.09.07-.05.07.14A1.2,1.2,0,0,1,309.53,203.78Zm9.65,47.11a11.36,11.36,0,0,0-.21,1.77c-.05.8-.12,1.58-.22,2.34q-.13,2-.42,5.25t-.64,6.46c-.24,2.13-.47,4-.71,5.67s-.35,2.58-.35,2.77c-.19.66-.38,1-.57.85s-.24-.52-.14-1.28c.09-.56.26-1.6.49-3.12s.48-3.21.72-5.11.44-3.83.63-5.82.38-3.68.57-5.1c.09-1.61.21-3,.35-4.19s.27-1.77.36-1.77C319.32,249.61,319.37,250,319.18,250.89Zm1.14-57.61c.19.19.19.47,0,.85-.1.19-.15.05-.15-.43S320.22,193.09,320.32,193.28Zm-.57-2.7c0-.57.09-.66.28-.28,0,.38,0,.61-.14.71S319.75,191,319.75,190.58Zm.64,41.72a3.05,3.05,0,0,1-.22,1.28q-.14.28-.21-.57a13.2,13.2,0,0,1,.07-2.27c.19-4.83.33-5.2.43-1.14C320.46,230.64,320.44,231.54,320.39,232.3Zm.35-9.08c-.09.75-.14.87-.14.35v-5.68c0-.51,0-.4.14.36Zm0-23.13c-.09.47-.14,0-.14-1.28s0-1.61.14-1.13Zm.43,8.8A13.7,13.7,0,0,1,321,211v-4.75c0-.43.05-.31.14.35Z"/><path d="M404.45,180.93a2,2,0,0,0-1-.56,8.93,8.93,0,0,0-2-.15,4.74,4.74,0,0,1-2.55-.49,2.67,2.67,0,0,1-1-1.64.46.46,0,0,0-.22-.42,1.9,1.9,0,0,0-.77-.21c-.39-.05-.95-.1-1.71-.15s-1.8-.07-3.12-.07q-5.69,0-6.1.43a1,1,0,0,0-.43.64,19.07,19.07,0,0,0-.35,2.06c-.14,1-.31,2.5-.5,4.39s-.42,4.45-.71,7.67q-.28,3-.71,7.59t-.71,8.16q-.71,6.66-1.2,11.06c-.34,2.94-.62,5.56-.85,7.88s-.46,4.47-.64,6.46-.38,4.25-.57,6.8q-.29,4.13-.57,7.17a13.35,13.35,0,0,1-.42,3c-.1,0-.29-.37-.57-1.13s-.57-1.66-.85-2.7-.67-2.34-1.14-3.9-.9-3-1.28-4.19q-1.56-5.1-3.47-11.85t-4.19-15.11c-.47-2-1.09-4.25-1.84-6.81s-1.38-4.63-1.85-6.24-1-3.36-1.56-5.25-1-3.36-1.41-4.4a29,29,0,0,0-1.71-4.54c-.57-1.14-1.09-1.7-1.56-1.7-.19,0-.52-.33-1-1a6.93,6.93,0,0,0-2.47-1.91,24.57,24.57,0,0,0-4.05-1.63c-3-.86-5-.66-6,.56a1.51,1.51,0,0,1-1.42.71c-.47,0-.76.1-.85.29a4,4,0,0,0-.14,1.42c-.19,1-.33,1.56-.43,1.56s-.3.33-.35,1-.12,1.47-.22,2.41c-.18,1.9-.42,3.88-.7,6a26.58,26.58,0,0,1-1.14,5.11l-.43,1.56-.14-2c0-.57,0-1.43.07-2.56s.1-2.36.15-3.69.14-2.58.28-3.76.26-2.06.36-2.62c.18-.86.18-1.19,0-1-.39,1.9-.67,3.48-.86,4.76s-.38,2.62-.57,4-.33,2.65-.42,3.69c-.19,1.23-.31,2-.36,2.2s-.16.21-.35-.07-.33-.36-.42-.22a6.18,6.18,0,0,0-.29,1.78c-.1.57-.26,1.58-.5,3.05s-.45,3-.63,4.61-.57,3.45-.86,5.82-.52,4.45-.7,6.24-.36,3.67-.5,5.61-.27,3.38-.35,4.32q-2.13,20.16-2.49,32.92t1.07,15.61a1.9,1.9,0,0,0,1.84,1.28l1.42.28c.18,0,.35-.19.5-.56a12.33,12.33,0,0,0,.35-2.42c.09-1.23.19-2.95.28-5.18s.19-5.13.29-8.72c.18-4.45.33-8.35.42-11.71s.19-5.27.28-5.75.19.22.29,2.06.14,4.16.14,6.95,0,5.73-.07,8.8-.12,5.51-.21,7.31a38.75,38.75,0,0,0-.28,4.54,19,19,0,0,0,.13,2.84l.29,1.7,1.84-.14c2.27-.19,3.79-.33,4.55-.43a2.77,2.77,0,0,0,1.42-.42,15.76,15.76,0,0,0,1.49-4.19,51.4,51.4,0,0,0,1.34-7c.1-.66.21-1.61.36-2.84s.28-2.65.42-4.26.26-3.33.35-5.18.24-3.71.43-5.6c.29-3.41.54-6.62.78-9.65s.45-5.7.64-8,.36-4.2.5-5.67a27.33,27.33,0,0,1,.35-2.77c.1-.38.21-.33.36.14s.44,1.47.92,3q3.4,12.63,6.24,21.78A126.15,126.15,0,0,0,362.6,261a24.12,24.12,0,0,1,1,2.34,15.39,15.39,0,0,0,.71,1.77,19.68,19.68,0,0,0,.92,2.7c.42,1,.9,2.06,1.42,3.05s1,1.9,1.56,2.7a5.66,5.66,0,0,0,1.21,1.49l1.06.71c.42.28.83.56,1.21.85a8.3,8.3,0,0,0,1.56,1.06,5.64,5.64,0,0,0,1.77.5,21.36,21.36,0,0,0,2.63.14h4c2.18-.09,3.88-.21,5.11-.35a20.2,20.2,0,0,0,2.84-.5,14.51,14.51,0,0,0,3.11-1.21,4.16,4.16,0,0,0,1.78-2.13,15.35,15.35,0,0,0,.92-4.39q.28-2.91.71-8.31c.19-1.41.36-3,.5-4.82s.31-3.31.49-4.54.38-2.84.57-5.11.38-4.4.57-6.38q.29-4,.85-9.15t1.07-10.29c.33-3.41.68-6.48,1.06-9.23s.66-4.72.85-6c.19-.95.36-1.9.5-2.84s.3-2.06.5-3.34.4-2.9.64-4.89.54-4.54.92-7.66c.09-1.33.18-2.37.28-3.13a16,16,0,0,0,.14-1.77,1.77,1.77,0,0,0-.14-.85A4,4,0,0,0,404.45,180.93Zm-66,38.45c-.1,1.05-.2,2.87-.29,5.47s-.23,5.18-.43,7.73l-.42,9.37-.14-7.52q0-5.4.28-10.51a38.24,38.24,0,0,1,.85-7.09q.15-.71.15,0Zm.42-16.46c-.09.1-.14-.14-.14-.7a1.41,1.41,0,0,1,.07-.57c.05-.09.07-.05.07.14A1.19,1.19,0,0,1,338.9,202.92Zm26,31.93c-.1.1-.24-.19-.43-.85a1.47,1.47,0,0,1-.14-.64v-.5c.28,0,.42.29.42.86C364.91,234.47,365,234.85,364.87,234.85Zm5.46,17.53q-1.06-2.77-2.2-6.25t-2.13-6.6a19.61,19.61,0,0,1-1-3.83,12.4,12.4,0,0,1,.92,2.48c.61,1.85,1.4,4.14,2.34,6.89s1.72,5.06,2.34,7,.92,2.89.92,3S371,254.22,370.33,252.38Zm6.6,11.56q-.15,0-.36-.36a12.61,12.61,0,0,1-.64-1.42c-.28-.7-.68-1.7-1.2-3l-2.06-5c-.57-1.61-1.11-3.05-1.63-4.33s-.88-2.1-1.07-2.48a4.33,4.33,0,0,1-.56-1.7,5.62,5.62,0,0,0-.71-2c-.2-.47-.5-1.35-.92-2.63s-.88-2.62-1.35-4q-.85-3.12-2.06-6.81c-.8-2.46-1.56-4.76-2.27-6.88s-1.35-3.95-1.91-5.47a11.8,11.8,0,0,0-1.14-2.55,6.48,6.48,0,0,1-.78-2.06c-.34-1.18-.69-2.48-1.07-3.9-.56-2.36-.92-3.76-1.06-4.19s-.26-.3-.35.36L355.5,207l-.56-1.56a15.09,15.09,0,0,1-1.07-3c-.33-1.28-.64-2.63-.92-4.05s-.52-2.81-.71-4.18a24.34,24.34,0,0,1-.28-3.48c0-1.13.23-1.7.7-1.7a2,2,0,0,0,1.42-.71,2.36,2.36,0,0,1,.92-.57c.15,0,.36.19.64.57.19.19.43.4.71.64s.57.45.85.64a1.52,1.52,0,0,1,.57.78,27.92,27.92,0,0,1,.93,2.91q.63,2.26,1.7,6.45t2.9,11.42q1.14,4.41,2.27,8.8c.76,2.94,1.49,5.7,2.21,8.3s1.32,4.9,1.84,6.88.92,3.51,1.21,4.54q1,3.14,2.19,7.31c.81,2.8,1.49,5.18,2.06,7.17s1.18,3.64,1.57,5.25a19,19,0,0,1,.56,3.12C377.21,263.47,377.12,263.94,376.93,263.94Zm21-49.95c-.19.38-.29.15-.29-.71,0-.66.1-.8.29-.42ZM403,183.2c-.1.38-.26,1.56-.5,3.55s-.5,4.26-.78,6.81-.74,5-1.07,7.52-.59,4.4-.78,5.53l-.71,4.12.15-3.26v-3a3.59,3.59,0,0,0-.36,1.27c-.14.76-.31,1.61-.5,2.56l-.42,3.54.14-3.12c0-.75.1-2,.28-3.76s.41-3.69.64-5.81.47-4.28.71-6.46.45-4.07.64-5.68a10.64,10.64,0,0,0,.21-2.34,1.58,1.58,0,0,0-.49-.92c-1-.85-.9-1.14.42-.85.76.09,1.19,0,1.28-.29a.67.67,0,0,1,.71-.56C403,182.07,403.13,182.45,403,183.2Z"/><path d="M462.21,186.46c1.41,0,1.74-.51,1-1.55-.48-.66-.57-1-.29-1.14q1.14-.86-.57-2.55a6.86,6.86,0,0,0-3-1.28c-1.57-.38-4.19-.8-7.88-1.28a82.47,82.47,0,0,0-8.87-.42q-5,0-10.28.42c-3.51.29-7,.69-10.44,1.21s-6.5,1.11-9.15,1.77a20.67,20.67,0,0,0-3.9,1.35,4.27,4.27,0,0,0-1.77,1.63,8,8,0,0,0-.5,2.77,5.62,5.62,0,0,0,.35,2.62,4.52,4.52,0,0,1,.5,1.64q.21,1.2.78,4.89a7.84,7.84,0,0,0,.29,1.28c.09.28.47.42,1.13.42a18.2,18.2,0,0,0,3-.35q2-.36,5.68-1.21c1.89-.37,3.49-.68,4.82-.92s2-.36,2.13-.36a19.64,19.64,0,0,1-.21,3.77q-.36,3.62-1,9.36t-1.63,13.2q-1,7.44-2,15.25c-.09,1-.21,2.11-.35,3.48s-.31,2.83-.5,4.4-.37,3.14-.56,4.75-.34,3.12-.43,4.54c-.19,2.84-.42,5.7-.71,8.58s-.52,5-.71,6.32a49.1,49.1,0,0,0-.57,6c0,1.23.15,1.94.43,2.12a1.83,1.83,0,0,0,1.14.36c.56.05,1.22.07,2,.07a8.08,8.08,0,0,0,2.34,0c.24-.09.36-.33.36-.71a.5.5,0,0,1,.56-.57c.29.29.43.48.43.57s.17.31.78.36,2.1.12,4.47.21c1,.09,2,.17,2.77.21a3.67,3.67,0,0,1,1.35.21c.18.29.49.36.92.22a1.1,1.1,0,0,0,.78-.78,51.62,51.62,0,0,0,.78-5.54c.33-3,.71-6.74,1.13-11.13s.87-9.3,1.35-14.69.93-10.76,1.35-16.11.8-10.45,1.13-15.32.59-9.06.79-12.56q.27-3.26.35-5.67a10.92,10.92,0,0,1,.21-2.56c.19-.37.43-.56.71-.56s.45.28.5.85.07,1.89.07,4c0,2.36-.14,5.87-.43,10.5s-.61,9.77-1,15.4-.83,11.42-1.35,17.38-1,11.42-1.56,16.38-1,9.13-1.42,12.49a42.49,42.49,0,0,1-.92,5.75,1.54,1.54,0,0,0-.07,1.21c.14.42.35.63.64.63s.56-.57.85-1.7.62-3,1-5.53q.29-2.28.64-6.46l.78-9.08c.28-3.26.57-6.58.85-9.93s.52-6.41.71-9.16c.09-1.22.19-2.64.29-4.25s.19-3.22.28-4.83.19-3.21.28-4.82.19-3,.29-4.26.19-2.6.28-4.11.16-3,.21-4.54.1-3,.15-4.4.07-2.65.07-3.69v-7.52l7.38-.14q5.81,0,7.52-.14c1.13-.1,1.65-.38,1.56-.86-.1-.28-.71-.47-1.85-.56s-3.59-.19-7.38-.29c-1.32,0-2.53,0-3.62-.07s-2.05-.07-2.9-.07a23.1,23.1,0,0,1-2.7-.14c-.09-.1.68-.14,2.34-.14h6c2.37,0,4.42,0,6.18-.07a11.47,11.47,0,0,0,2.76-.22,1.35,1.35,0,0,0,.85-1.13c.1-.57.52-.85,1.28-.85a2.16,2.16,0,0,0,1.56-.43c.66-.19.52-.42-.43-.71-.56-.19-.87-.42-.92-.71S461.64,186.46,462.21,186.46Zm-38.67,6.82c-1.28.28-2.86.61-4.76,1s-3.38.69-4.75.92a16.5,16.5,0,0,0-2.34.5c-.19.09-.31.12-.35.07s0-.12.21-.21.78-.43,2.05-.71,2.73-.57,4.33-.85,3.22-.69,4.54-.93,2.08-.35,2.27-.35c.48-.19.71-.19.71,0A6,6,0,0,1,423.54,193.28Z"/><path d="M186.2,98.62l-.88-.2.59.2Z"/><path d="M224.45,195.5c-.79,1.71-.65,1.49,0,0Z"/><path d="M188.65,91.17c-.37-.09-.74-.17-1.1-.28s-.6.36-.32.57a1,1,0,0,0,.17.12c.77.25,1.57.41,2.36.62Z"/><path d="M274.92,127.4c-2.37-.27-4.85-.56-6.92-1.77a20,20,0,0,0,7.4-8.11,1,1,0,0,0-1.16-1.48,53.88,53.88,0,0,1-5.37,1c-.8.09-1.71.11-2.61.18.36-.38.7-.79,1-1.17a40.13,40.13,0,0,0,3.2-4,37.54,37.54,0,0,0,4.66-9.14,1,1,0,0,0-1.18-1.17c-3,.81-6.13,1.19-9,2.48a16.7,16.7,0,0,0-4.56,2.95,31.12,31.12,0,0,1,1.3-3.85,1,1,0,0,0-1.1-1.4C250,104.24,250.23,117.69,245,125.48c.91-2,1.75-4,2.46-6.06,1-3,1.46-6.16,2.35-9.2a.63.63,0,0,0-.93-.7,17.69,17.69,0,0,0-6.27,6.33c0-.82-.07-1.64-.12-2.46a.78.78,0,0,0-1.32-.53c-2.46,2.45-4.27,4.93-4.77,8.45s.3,7.31-.87,10.76-4.18,5.43-6.25,8.11a29,29,0,0,0-3.34,5.24,59.39,59.39,0,0,0-7.33-21.79c-2-3.62-4.26-7.11-6.43-10.64-1.07-1.75-2.13-3.5-3-5.35-.72-1.44-1.27-3.08-2-4.54a9.84,9.84,0,0,1,1.05-4.85,27.91,27.91,0,0,0,2.68-6.58,40.1,40.1,0,0,0,1-16.67,1,1,0,0,0-1.29-.71l-2.09.47a21.73,21.73,0,0,0-.4-7.4,1.08,1.08,0,0,0-1.8-.45l-1.3,1.7A22.65,22.65,0,0,0,197.74,56a.91.91,0,0,0-1.41.19,19.24,19.24,0,0,0-2.19,9.54L192.23,64a1.17,1.17,0,0,0-2,.84c-.31,4.93,2.65,9.14,4.24,13.61A27.68,27.68,0,0,1,196,85.07a37.5,37.5,0,0,1,0,4.37c-1.18-2.56-2.82-5-4.18-7.41-1.87-3.33-3.77-6.66-5.66-10s-3.74-6.67-5.67-10c-1.51-2.59-2.91-6.17-5.89-7.36a.57.57,0,0,0-.71.55,12.37,12.37,0,0,1-.29,3.77,55.21,55.21,0,0,0-5.4-9.19.87.87,0,0,0-1.35-.16,5.07,5.07,0,0,0-.69,1.2,80.75,80.75,0,0,0-8.08-9.53.79.79,0,0,0-1.23.17,17.34,17.34,0,0,0-1.57,13.12l-.85-.37c-.62-.27-1.47.2-1.23,1,1.61,4.9,4.55,9.07,7.84,13a36.49,36.49,0,0,0-6.49-2.6A1,1,0,0,0,153.53,67c3.56,6.36,9.8,10.1,16,13.48,6,3.28,12,6.61,16.34,12a50.23,50.23,0,0,0-10.31-6.14,31.59,31.59,0,0,0-13.06-3.21.94.94,0,0,0-.64,1.59c.56.55,1.13,1.09,1.71,1.63a23.13,23.13,0,0,0-12.68,3.39c-1.54,1-2.63,2.49-.91,3.94A7.73,7.73,0,0,0,152.7,95a14.91,14.91,0,0,0-9.08,5.44.89.89,0,0,0,0,1.23,17.36,17.36,0,0,0,9.3,4.14,9.32,9.32,0,0,0-1.24,2.06A.9.9,0,0,0,152,109,17.55,17.55,0,0,0,164,110c-.34.62-.67,1.24-1,1.86a.88.88,0,0,0,1,1.27,89.48,89.48,0,0,0,12.83-3.69c3.77-1.54,7.59-3.49,11.65-4.15,5.93-1,12.82,1.62,17,5.77a.64.64,0,0,0,.27.16c1.2,2.07,2.71,4,3.88,6.07,1.74,3,3.39,6.12,4.85,9.3s2.74,6.43,4,9.7c.94,2.47,1.69,5,2.54,7.49a41,41,0,0,1-13.86-11.94c-3.5-4.72-7.25-10.29-13.73-10.6a.77.77,0,0,0-.73,1,22.7,22.7,0,0,0,.68,2.31,13.87,13.87,0,0,0-9.08-2.51.76.76,0,0,0-.36,1.4,31.49,31.49,0,0,1,9,7.92c-4.16-1.77-8.33-3.56-12.57-5.13-3.65-1.36-8.14-2.35-11.32.54a.88.88,0,0,0,.18,1.36c.73.45,1.48.88,2.21,1.32a65,65,0,0,0-13.59-.38.89.89,0,0,0-.74,1.33,21.08,21.08,0,0,0,8,7.58,20.75,20.75,0,0,0,5,1.94c.9.23,1.83.36,2.75.51a9,9,0,0,0-3.61,2.8c-.53.71-.06,1.91,1,1.6,2.61-.78,5.26-.21,7.89.13a19.91,19.91,0,0,0,6.58-.16c.93-.18,1.87-.44,2.8-.71l-1.47.66c-3,1.32-7.32,2.58-7.72,6.43-.08.71.7,1,1.27.94l2.11-.32a17.81,17.81,0,0,0-.26,12.07,1,1,0,0,0,2,0c1.11-3.14,5-4.3,7.75-5.6a21.91,21.91,0,0,0,5.55-3.84,1.07,1.07,0,0,0,1.62.38c4.85-3.82,9.92-7.46,16.32-7.76,2.41-.12,5.52,0,7.46,1.66a10,10,0,0,1,2.95,5.38c2.67,12.48,2.43,15.23.9,27.63h0c-4.29,18.52-12.15,47-12.57,49.48-.19,1.42-.38,2.93-.56,4.54s-.41,3.22-.64,4.83-.43,3.14-.57,4.61-.26,2.72-.36,3.76q-.84,7.51-1.28,12.13t-.42,7.38a15.4,15.4,0,0,0,.36,4,3.35,3.35,0,0,0,1.06,1.78,3.34,3.34,0,0,1,.78.77c.23.34.31.6.21.79a4,4,0,0,0,.5,1.7,2.79,2.79,0,0,0,1.06,1.28.29.29,0,0,1,.22.07.31.31,0,0,0,.21.07h.29a10.34,10.34,0,0,0,2.76-.22c1.75-.23,3.85-.54,6.32-.92s5.48-.83,8.79-1.34,6.58-1,9.79-1.49l9-1.35c2.79-.43,4.95-.74,6.46-.93,2.36-.18,3.83-.47,4.4-.85a2.7,2.7,0,0,0,1-2.13c.09-.75-.14-1.08-.71-1-.38.19-.57.22-.57.07a4,4,0,0,1,.71-1.2,11.52,11.52,0,0,0,1.35-2.77,9.15,9.15,0,0,0,.64-3.05,2.78,2.78,0,0,0-.07-.57,1.29,1.29,0,0,0-.36-.57,1.4,1.4,0,0,1-.28-1.27,1.18,1.18,0,0,0-.14-1.28q-.57-.42,0-1a1.25,1.25,0,0,0,.42-.86c.1-.37-.26-.66-1.06-.85a4.87,4.87,0,0,0-2.34,0c-1.05.19-1.56.1-1.56-.28,0-.09-.5-.12-1.49-.07s-2.32.19-4,.42-3.6.55-5.82.93-4.57.75-7,1.13-4.82.85-6.81,1.14-3.07.42-3.26.42c-.48,0-.73-.09-.78-.28a7.17,7.17,0,0,1,.21-1.85c.09-.66.19-1.7.29-3.12s.23-2.83.42-4.25.43-3.24.71-5.47.61-4.18,1-5.88c.1-.86.24-1.87.43-3.06s.36-2.43.49-3.76.36-2.66.5-4c5.43-50,.27-59.92.27-59.92s-3.2-12.52-4.93-16.65a13.67,13.67,0,0,1,.36-4.33,4.64,4.64,0,0,1,2.16-3,35.65,35.65,0,0,1,6.56-2.05c3.18-.79,6.72-1.31,9.91-.29a19.75,19.75,0,0,1,4.37,2.51,4,4,0,0,0,3.41.71.6.6,0,0,0,.42-.74,10.79,10.79,0,0,0-.51-1.31,14.3,14.3,0,0,0,4.68-.51,15.12,15.12,0,0,0,4.86-2.68.78.78,0,0,0-.56-1.31c-2.53.19-5.07-1.57-7.2-2.68a16.61,16.61,0,0,0-4.12-1.69,29.67,29.67,0,0,1,4.5-.43,72.83,72.83,0,0,0,7.52-.77c2.28-.35,4.85-.32,7.06-1a4.44,4.44,0,0,0,3.21-2.87A.7.7,0,0,0,274.92,127.4ZM170.59,93.5c5.36,1.42,10.81,2.67,16,4.61a.3.3,0,0,1,.2.25.3.3,0,0,0-.2-.25c-5.21-1.94-10.66-3.19-16-4.61a.37.37,0,0,0-.46.48A.37.37,0,0,1,170.59,93.5Zm17.8,9.13a12.89,12.89,0,0,0-5.65.53,47.86,47.86,0,0,0-5.26,2.26c-3,1.39-6.36,2.45-9.6,1.3a.57.57,0,0,1-.15-1h0a.48.48,0,0,1,.43-.06c4,1.2,7.71-1.21,11.21-2.81,2.77-1.28,6.29-2.52,9.2-.91h0C188.87,102.1,188.77,102.67,188.39,102.63Zm4.39-.92a30.45,30.45,0,0,0-4.4-.62c.12.06.25.09.37.16a.37.37,0,0,1,.16.42.37.37,0,0,0-.16-.42c-.12-.07-.25-.1-.37-.16-1.94-.14-3.87-.14-5.81-.1a22,22,0,0,0-3,1.17c-3.5,1.6-7.22,4-11.21,2.81a.48.48,0,0,0-.59.24.48.48,0,0,1,.59-.24c4,1.2,7.71-1.21,11.21-2.81a22,22,0,0,1,3-1.17c-1.95,0-3.9.12-5.87.13-3,0-6-.1-9-.32-2.05,1.81-5.18,2-7.77,1.64-.29,0-.22-.52.07-.51a8.08,8.08,0,0,0,1.64-.06h0a16.38,16.38,0,0,0,4.22-1.24l-1.26-.14a10.94,10.94,0,0,1-4.42.75.24.24,0,0,0-.25.24.24.24,0,0,1,.25-.24,10.94,10.94,0,0,0,4.42-.75c-1.58-.16-3.16-.35-4.73-.62-.42-.07-.32-.75.09-.73h0c5.92.28,11.85.57,17.78.46,2.55,0,5.44-.37,8.24-.3-1-.18-1.89-.41-2.83-.64-1.81.08-3.59.22-5.23.25-5.94.11-11.88-.18-17.81-.47a.32.32,0,0,0-.34.29.32.32,0,0,1,.34-.29c5.93.29,11.87.58,17.81.47,1.64,0,3.42-.17,5.23-.25-4.38-1-8.68-2.42-13-3.69a.39.39,0,0,1,.09-.77h0a.23.23,0,0,1,.12,0c5,1.33,10,2.52,14.91,4.23l.88.2h-.29c.17.07.35.12.52.18a.3.3,0,0,1,.08.53,14,14,0,0,1,6.54,1.67h0A.38.38,0,0,1,192.78,101.71Zm.46-1.39a13.86,13.86,0,0,0-6.55-1.68h0a13.86,13.86,0,0,1,6.55,1.68.38.38,0,0,1,.17.19A.38.38,0,0,0,193.24,100.32Zm4.68-1.27a74.56,74.56,0,0,1-6.24-5.1c-1.79.22-3.25-.74-4.63-1.8-.28-.21,0-.67.32-.57h0l-.17-.12c-.28-.21,0-.67.32-.57s.73.19,1.1.28l-1.17-1.09c-3.1-2.89-6.16-5.9-9.07-9-2.93-.36-6-2.17-8.37-3.66-.34-.21,0-.75.31-.54s.63.33.94.5h0a24.38,24.38,0,0,0,4,1.83c.64.21,1.3.39,1.95.58-.3-.32-.56-.67-.84-1-.31-.09-.63-.17-.93-.27a26.45,26.45,0,0,1-4.93-2.33.31.31,0,0,0-.46.34.31.31,0,0,1,.46-.34,26.45,26.45,0,0,0,4.93,2.33c.3.1.62.18.93.27-1.52-1.71-3-3.44-4.42-5.23A4.7,4.7,0,0,1,170.83,72q-2.31-3.06-4.33-6.29a7.07,7.07,0,0,1-4-1.84c-1.06-.88-2.36-2.22-2.54-3.64a.35.35,0,0,1,.29-.34h0a.29.29,0,0,1,.24,0c1,.76,1.69,1.92,2.68,2.73a17.39,17.39,0,0,0,2.44,1.56c-.23-.39-.44-.79-.67-1.18A13,13,0,0,1,163.33,62c-1-.81-1.67-2-2.68-2.73a.32.32,0,0,0-.35,0,.32.32,0,0,1,.35,0c1,.76,1.69,1.92,2.68,2.73a13,13,0,0,0,1.59,1.07,65.31,65.31,0,0,1-5.29-11.67.34.34,0,0,1,.26-.46h0a.39.39,0,0,1,.48.25,72.68,72.68,0,0,0,6,12.36c1.11,1.83,2.3,3.61,3.55,5.34a1.55,1.55,0,0,1,0-.21c0-.35-.1-.68-.15-1-1.1-1.57-2.18-3.15-3.18-4.8a72.68,72.68,0,0,1-6-12.36.37.37,0,0,0-.21-.23.37.37,0,0,1,.21.23,72.68,72.68,0,0,0,6,12.36c1,1.65,2.08,3.23,3.18,4.8a29.29,29.29,0,0,0-2.31-9.12c-.1-.21.17-.47.34-.3h0l0,0a14.44,14.44,0,0,1,3.2,7.27,29.18,29.18,0,0,0,.71,4.65,10.27,10.27,0,0,0,2.07,3.44.41.41,0,0,1,.07.33c2.3,2.79,4.75,5.46,7.28,8l1.11,1.1a13.15,13.15,0,0,1-.39-1.26l-.54-.53c-2.53-2.58-5-5.25-7.28-8a.41.41,0,0,0-.07-.33,10.38,10.38,0,0,1-2.07-3.45,28.89,28.89,0,0,1-.71-4.64,14.51,14.51,0,0,0-3.2-7.28c-.13-.16-.32,0-.37.12,0-.16.24-.28.37-.12a14.51,14.51,0,0,1,3.2,7.28,28.89,28.89,0,0,0,.71,4.64,10.38,10.38,0,0,0,2.07,3.45.41.41,0,0,1,.07.33c2.3,2.79,4.75,5.46,7.28,8l.54.53a42.25,42.25,0,0,1-1-5.75c-.5-3.76-.88-7.58-3-10.84-.18-.26,0-.48.28-.5h0a.36.36,0,0,1,.34.13,22.93,22.93,0,0,1,3.81,9.67c.34,1.81.6,3.63,1,5.44s.9,3.5,1.18,5.29c1.76,1.74,3.54,3.45,5.36,5.13,2.83,2.63,5.76,5.14,8.39,8h0l.15.15C198.56,98.78,198.24,99.28,197.92,99.05Zm.58-1.22c-2.66-2.91-5.66-5.45-8.54-8.13-1.82-1.68-3.6-3.39-5.36-5.13-.28-1.79-.81-3.52-1.18-5.29s-.63-3.63-1-5.44a22.93,22.93,0,0,0-3.81-9.67.39.39,0,0,0-.67.09.39.39,0,0,1,.67-.09,22.93,22.93,0,0,1,3.81,9.67c.34,1.81.6,3.63,1,5.44s.9,3.5,1.18,5.29c1.76,1.74,3.54,3.45,5.36,5.13,2.88,2.68,5.88,5.22,8.54,8.13a.32.32,0,0,1,.08.2A.32.32,0,0,0,198.5,97.83ZM205.34,88a25.26,25.26,0,0,0-1.87,5.32,57.74,57.74,0,0,1-.44,8.23.37.37,0,0,1-.7,0,60.94,60.94,0,0,1-.53-8.23c-.58-6.24-4-11.61-5-17.76a.29.29,0,0,1,.55-.16c1,3.23,2.89,6.53,4.1,9.92a44.32,44.32,0,0,0-1.15-6.8c-.9-3.47-2-6.88-2.84-10.38a26.38,26.38,0,0,1-.39-10c.06-.41.73-.31.71.09-.26,5.29,1.45,10.47,3,15.57.15-1.2.37-2.4.61-3.56.08-.37.71-.3.68.09-.23,2.72,0,5.44,0,8.15.06.27.14.55.21.82A46.89,46.89,0,0,1,203.4,88c1.25-2.8,2.95-5.54,3.82-8.17a.27.27,0,0,1,.53.07C207.77,82.85,206.55,85.35,205.34,88Zm13.85,58.4q-3.08-1.32-6.21-2.41c-1.6,1.36-3.88,1.88-5.88,2.33-2.34.52-4.73.82-7.08,1.3a19.16,19.16,0,0,0-11.05,6,.27.27,0,0,1-.45-.26c1.38-3.88,5.84-5.74,9.52-6.7,1.06-.28,2.14-.49,3.22-.69-2-.36-4.08-.69-5.8.41-.27.17-.49-.23-.25-.41,1.7-1.31,3.48-1.37,5.55-1.13a20.56,20.56,0,0,0,5.8.14c.91-.21,1.81-.43,2.7-.72.72-.24,1.43-.53,2.14-.8-1.87-.6-3.77-1.15-5.71-1.58a148.11,148.11,0,0,0-15.83-2.37c-2.6,2-6.58,3.53-9.81,2.72a.32.32,0,0,1,0-.61c1.65-.54,3.43-.64,5.1-1.15,1.1-.33,2.18-.72,3.26-1.12-2.45-.28-4.89-.57-7.32-.92a73.61,73.61,0,0,1-12-2.62,46.93,46.93,0,0,1-5.53-2.16,14.42,14.42,0,0,1-4.82-3c-.26-.29,0-.83.4-.7,2.16.68,4.11,2.06,6.22,2.93a49.28,49.28,0,0,0,6.59,2.16,100.39,100.39,0,0,0,14,2.4,21.17,21.17,0,0,1-3.24-2.64l-.77-.71-1.57-.32a4.14,4.14,0,0,1-1.82-.64.21.21,0,0,1,0-.31,2.24,2.24,0,0,1,1.5-.35,13.53,13.53,0,0,0-4.36-2.49.41.41,0,0,1,.1-.8c2.66.07,4.75,1.83,6.64,3.55,1.1,1,2.15,2.06,3.35,3a33.31,33.31,0,0,0,3.51,2.07s.05.05.07.07c2.42.26,4.84.51,7.25.81,2.87.36,5.84.76,8.78,1.35-1.14-1.19-2.19-2.51-3.33-3.67q-2.75-2.81-5.59-5.51c-.25-.24.07-.68.37-.48a39.72,39.72,0,0,1,4.66,3.51s0-.05,0-.07a28.73,28.73,0,0,0-1.57-3.14,31.05,31.05,0,0,0-1.72-2.72,12.36,12.36,0,0,1-1.62-2.27c-.09-.23.2-.38.38-.3,1.73.79,3.26,3.22,4.24,4.8a13.42,13.42,0,0,1,2.3,5.57,20.48,20.48,0,0,1,4,4.74,35.17,35.17,0,0,1,12.18,5.08A.5.5,0,0,1,219.19,146.39Zm38.84,112a2,2,0,0,1,.85-.29c.47-.09,1-.19,1.56-.28l2-.14-1.71.56a14.15,14.15,0,0,1-2.41.5C257.75,258.81,257.65,258.69,258,258.41ZM224.45,195.5c.51-1.17,1.34-3.12,2.29-5.53-.56,1.58-1.18,3.14-1.89,4.66-.15.34-.28.62-.4.87C223.8,197,223.66,197.21,224.45,195.5Zm-5.58,77.09a3.32,3.32,0,0,1-1.42.43h-.85l1-.43a2.94,2.94,0,0,1,1.28-.28C219.15,272.31,219.15,272.41,218.87,272.59Zm2.76-.35a.64.64,0,0,1-.49-.07c-.29,0-.34-.05-.14-.14s.51-.19.7,0S221.78,272.19,221.63,272.24Zm1.64-3.05c0,.57-.1.85-.29.85s-.52-.28-.71-.85-.19-.95,0-1.14c.38-.28.66-.28.85,0A1.51,1.51,0,0,1,223.27,269.19Zm11.21-4.12q3-.42,5.88-.71c1.94-.18,3.38-.28,4.33-.28,1.23.1,1.65.19,1.28.28s-1.66.29-3.83.57l-2.28.43c-.47.09-.51.14-.13.14s.63.19.49.28a9.26,9.26,0,0,1-1.63.57c-.67.19-1.7.48-3.12.85s-2.8.71-4.12,1-2.48.54-3.48.78a13.59,13.59,0,0,1-1.77.35q-.42,0-.42-1a.77.77,0,0,1,.57-.78,21.1,21.1,0,0,1,3-.64l3.4-.57-3.12.29h-3c.09-.19.94-.43,2.55-.71S232.49,265.36,234.48,265.07Zm-5.19-55q.78-6.6,1.36-12.34c.37-3.83.61-6.74.7-8.73.1-1.23.29-1.61.57-1.13a1.83,1.83,0,0,1,.14.77c0,.34-.05,1.12-.14,2.35s-.28,3.05-.57,5.46-.62,5.79-1,10.14q-1.14,9.38-2.13,17.46t-2.13,16.17q-.57,3-1,6.81t-.71,6.1c-.19,1.62-.33,3-.43,4.19a9.48,9.48,0,0,1-.28,2.06c-.19.57-.4.73-.64.5a1.88,1.88,0,0,1-.21-1.49,31,31,0,0,1,.35-3.62c.24-1.75.5-3.79.78-6.1s.62-4.73,1-7.24.71-4.8,1-6.88q.71-4.68,1.63-11.28T229.29,210.09Zm33.89-96.76c-2.83,3.06-5.37,6.38-8,9.61q-1.56,1.92-3.2,3.78c3.11-1.22,6.65-1.15,9.53-3.07.24-.16.46.18.29.38a6.76,6.76,0,0,1-2.24,1.72,9.5,9.5,0,0,1,2.3.6.34.34,0,0,1-.09.67,11.39,11.39,0,0,1-3.95-.6c-2.28.67-4.85.83-7,1.61a50.86,50.86,0,0,1-4.34,4.22c-.85.73-1.75,1.41-2.67,2.06a9.92,9.92,0,0,1,1.46.39,33.23,33.23,0,0,1,7.28,3.1.33.33,0,0,1-.24.6,15,15,0,0,1-2.4-.59,7.78,7.78,0,0,0,6,1.43c.24-.05.5.25.27.44-3.14,2.58-7.25-.66-10-3.23a9.22,9.22,0,0,0-4-1.06l-.33.22c-1.55.93-3.48,2.15-5.36,2.12a.49.49,0,0,1-.35-.82,12.56,12.56,0,0,1,2.7-1.69c.15-1.91.13-3.78.12-5.72s.16-3.94,1.51-5.39a.39.39,0,0,1,.65.37,18.27,18.27,0,0,0-.74,6.33,15,15,0,0,1-.27,3.77c.43-.23.85-.45,1.24-.71a37.93,37.93,0,0,0,4.87-3.8,78.08,78.08,0,0,0,8.05-8.8,10.53,10.53,0,0,1-.17-3.5,16.88,16.88,0,0,1-.3-3.61c0-.22.33-.28.38-.06.1.44.19.9.27,1.36a11,11,0,0,1,1.47-3.53.32.32,0,0,1,.59.25,44.81,44.81,0,0,0-1.12,5.14,18.33,18.33,0,0,0-.08,2.67c2.39-3,4.78-6,7.43-8.7s5.73-5.66,9.39-7c.42-.15.81.48.45.77A90.93,90.93,0,0,0,263.18,113.33Z"/><path d="M198.54,393.8a17,17,0,0,0-4.46-6.63,31.41,31.41,0,0,0-8.78-6.23,28.74,28.74,0,0,0-10.17-2.24,22.55,22.55,0,0,0-6.77.39,32.06,32.06,0,0,0-7.09,2.7,44.55,44.55,0,0,0-5.39,2.84,46.06,46.06,0,0,0-4.31,3.09,32,32,0,0,0-3.69,3.46,38.33,38.33,0,0,0-3.39,4.31,32.91,32.91,0,0,0-3.08,5.47,33.79,33.79,0,0,0-1.7,6.24c-.2,1.12-.36,2.08-.46,2.84a16.26,16.26,0,0,0-.15,2.08,16.71,16.71,0,0,0,.08,1.77c0,.57.13,1.31.23,2.24.1,1.13.17,2.08.23,2.85s.07,1.25.07,1.46c-.2.31-.15,1.29.16,2.92a15.26,15.26,0,0,0,1.23,4q3.69,8.46,19.4,13.55a36.91,36.91,0,0,1,6.16,2.62,16.8,16.8,0,0,1,4,3.23,16,16,0,0,1,2.85,4,29.22,29.22,0,0,1,1.61,4.92q.31,1.86.39,2.85a11.37,11.37,0,0,1-.23,2.69,16.37,16.37,0,0,1-8.78,11.56,7.92,7.92,0,0,1-2.24.92,5.2,5.2,0,0,1-1.76,0q-4.47-.62-6.47-3.46c-1.34-1.91-2.21-5.11-2.62-9.63a36,36,0,0,0-.54-4,1.76,1.76,0,0,0-.85-1.23c-.2-.2-.48-.46-.84-.76s-.75-.62-1.16-.93L149,452.47l-.31.92a1.91,1.91,0,0,1-1.08,1.24,2.75,2.75,0,0,0-1.85,1.92,15.75,15.75,0,0,0-.61,5.16,20.48,20.48,0,0,0,.23,3,24.6,24.6,0,0,0,.61,3,16.19,16.19,0,0,0,.85,2.38c.31.67.62,1,.92,1q1.23,0,3,2.16a22.91,22.91,0,0,1,3,4.77c.21.21-.21.31-1.23.31a2.78,2.78,0,0,1-1.23-.23,3.53,3.53,0,0,1-1.08-1,29.76,29.76,0,0,1-2.62-4.31,54,54,0,0,1-2.46-5.24c-1.14-3.08-1.39-6.88-.78-11.4.31-1.53.31-2.31,0-2.31s-.25-.51.16-1.54a6.88,6.88,0,0,0,.3-1.38c0-.21-.15-.41-.46-.62a2,2,0,0,0-1.85-.31,1.92,1.92,0,0,1-1.84-.3q-1.54-.93-3.24,1.31a14.94,14.94,0,0,0-2.46,6.23c-.1.72-.21,1.62-.31,2.7s-.15,2.18-.15,3.31,0,2.18.08,3.15a17.1,17.1,0,0,0,.23,2.24,25,25,0,0,0,1.07,3.15q.78,1.93,1.77,3.93c.67,1.34,1.36,2.62,2.08,3.85a32,32,0,0,0,2,3.08,11.26,11.26,0,0,0,1.46,1.54,23.34,23.34,0,0,0,2.31,1.85,30.25,30.25,0,0,0,2.69,1.69A18.31,18.31,0,0,0,150.8,489a20.19,20.19,0,0,0,6.93,2c.72.1,1.67.17,2.85.23s2.36.05,3.54,0l3.47-.16a10.22,10.22,0,0,0,2.61-.38,41.65,41.65,0,0,0,8.4-2.47,25,25,0,0,0,6.23-3.69c.72-.62,1.34-1.13,1.85-1.54a2.35,2.35,0,0,1,1.08-.61c.31,0,1.05-.6,2.24-1.78a35.92,35.92,0,0,0,3.15-3.62,17,17,0,0,0,2.77-6,40.86,40.86,0,0,0,1.31-7.47,30,30,0,0,0,.08-6.39c-.21-1.34-.44-2.49-.69-3.47a15.07,15.07,0,0,0-1.08-2.84,23.31,23.31,0,0,0-1.77-2.93Q192.69,446.3,191,444c-.92-1.13-1.8-2.13-2.61-3a20,20,0,0,0-3-2.54c-1.19-.83-2.57-1.72-4.17-2.7s-3.56-2.13-5.92-3.47a47.6,47.6,0,0,1-4.7-2.84,28.84,28.84,0,0,1-3.46-3,25.05,25.05,0,0,0-2.31-2.31c-.72-.62-1.18-.93-1.39-.93-.41,0-.69-.38-.85-1.16a28.81,28.81,0,0,1-.23-4.54,24.44,24.44,0,0,1,2.31-11.16,21.94,21.94,0,0,1,7.55-8.08q4.46-3.09,6.62-3.16c1.43-.06,2.61.85,3.54,2.69a13.48,13.48,0,0,1,1.38,5.08,59.91,59.91,0,0,1,0,8.78c-.1,2.67-.12,4.57-.07,5.7a4.89,4.89,0,0,0,.39,2.15,3.18,3.18,0,0,0,1.54,1.47,4.36,4.36,0,0,0,2,.69c.11,0,.26-.39.47-1.15s.41-1.75.61-2.93.39-2.49.54-3.93.29-2.77.39-4l.3-3.85.16,4.31a48.69,48.69,0,0,1-.23,5.24c-.16,1.43-.39,2.87-.69,4.31-.21.72-.16,1.23.15,1.54a2.48,2.48,0,0,0,.46.38c.11.05.36,0,.77-.23.72-.51,1.13-.41,1.23.31.21.52.46.77.78.77h.61a1.3,1.3,0,0,1,.62.16c.71.3,1.48,0,2.3-.85a11,11,0,0,0,2.16-3.77,28.43,28.43,0,0,0,1.62-5.93,51.44,51.44,0,0,0,.23-7.94A38.67,38.67,0,0,0,198.54,393.8ZM146,460.63c-.1,0-.16-.2-.16-.62a.6.6,0,0,1,.08-.38c.05-.05.08,0,.08.23C146.23,460.17,146.23,460.43,146,460.63Zm0-2.31c0,.21,0,.26-.08.15a1.52,1.52,0,0,1-.08-.61,1.75,1.75,0,0,1,.08-.54c.05-.15.08-.13.08.08C146.23,457.81,146.23,458.12,146,458.32Zm13.39,18.94a2.68,2.68,0,0,1-3.54-.61q-1.38-1.69,1.7-.62a4.76,4.76,0,0,1,1.84.62C159.94,476.75,159.94,477,159.42,477.26Zm27.72-28.18c.31.21.72.51,1.24.92a9.54,9.54,0,0,1,1.38,1.39,8.55,8.55,0,0,1,1.31,1.77,7,7,0,0,1,.23,2.23c0,1.65-.1,2.47-.31,2.47s-.56-.72-1.08-2.16a18,18,0,0,0-1-2.46,35.21,35.21,0,0,0-2.24-3.54l-.77-1.23Zm-6.23-2.23a26.89,26.89,0,0,1,3.16,2.23,16.2,16.2,0,0,1,5.38,9.09,11.89,11.89,0,0,1,.39,4.31,15.45,15.45,0,0,1-1.62,4.46,23,23,0,0,1-1.61,2.7,30.89,30.89,0,0,1-1.93,2.54L182.83,474c-.1.1.1-.26.62-1.08a25.56,25.56,0,0,0,3.08-8.16,20.31,20.31,0,0,0,0-7.85,10,10,0,0,0-.62-1.85c-.3-.72-.61-1.44-.92-2.16a14.91,14.91,0,0,0-1-1.92,9.35,9.35,0,0,0-.7-1c-.1-.09-.3-.3-.61-.61a14.28,14.28,0,0,1-1.08-1.24C180.78,447.13,180.55,446.69,180.91,446.85Zm-31-31.49c0-.72.1-.77.31-.16a1.22,1.22,0,0,1-.16.77.13.13,0,0,1-.15-.15Zm.61,10.16c-.1.21-.23.05-.38-.46a5.09,5.09,0,0,1-.23-1.39c0-.2.15,0,.46.62a1.5,1.5,0,0,0,.08.54,1.23,1.23,0,0,1,.07.38Zm.46-13.24c-.2.51-.36.89-.46,1.15s-.15.29-.15.08a11.51,11.51,0,0,1,.23-1.69,20.41,20.41,0,0,1,.7-2.7c.3-1,.64-1.9,1-2.77s.64-1.52.85-1.93c.51-.82.74-1.1.7-.84s-.49,1.46-1.31,3.62c-.21.82-.47,1.72-.77,2.69S151.16,411.66,151,412.28Zm12.79,19.09,1.84,1.85a6,6,0,0,1-.92-.23c-.51-.16-1.08-.36-1.69-.62l-1.77-.69c-.57-.21-.95-.36-1.16-.46a4.29,4.29,0,0,1-1.69-1.85,5.3,5.3,0,0,1-.92-2.62,1.75,1.75,0,0,1,.07-.62c.05-.1.28,0,.69.32s1.06.84,1.93,1.61S162.2,429.94,163.74,431.37Zm14.55-41.81a3.92,3.92,0,0,1-1,.7c-.41.2-.85.41-1.31.61a6.65,6.65,0,0,1-1.31.46c-.41.11-1,.31-1.85.62a26.29,26.29,0,0,0-2.46,1.08,22.6,22.6,0,0,0-3.31,2.08,30.49,30.49,0,0,0-6.32,6.31c-.87,1.18-1.61,2.29-2.23,3.31-.41.93-.87,2-1.39,3.24s-1,2.54-1.46,3.92-.9,2.75-1.31,4.08-.76,2.52-1.08,3.54c-.3,2-.61,2.93-.92,2.93-.1,0-.13-.33-.08-1s.13-1.41.24-2.23a34.16,34.16,0,0,1,.84-5.78,48.18,48.18,0,0,1,1.77-5.85,42.38,42.38,0,0,1,2.39-5.24,25.65,25.65,0,0,1,2.7-4.07,42.6,42.6,0,0,1,4.62-4.55,32.24,32.24,0,0,1,4.92-3.62,8.27,8.27,0,0,1,2.54-1.23,20.2,20.2,0,0,1,3-.15c.82,0,1.56,0,2.23.07s1,.13,1,.23S178.54,389.31,178.29,389.56Zm10.39,18.1c0,.2,0,.23-.07.07a3,3,0,0,1-.08-.84,1.66,1.66,0,0,1,.08-.62c0-.1.07,0,.07.15A1.28,1.28,0,0,1,188.68,407.66Z"/><path d="M274.08,400.26c.15-3.28.23-6.16.23-8.62a26.17,26.17,0,0,0-.16-3.62,5,5,0,0,0-.92-1.92,4.68,4.68,0,0,1-.47-.54,4.35,4.35,0,0,1-.3-.54,2.13,2.13,0,0,0-.31-.46c-.11,0-.11.31,0,.92s.25,1.33.46,2.16.18,1.38.23,2,.08,1.41.08,2.38-.05,2.22-.16,3.7-.2,3.42-.3,5.78c-.42,5.64-.69,9.13-.85,10.47s-.13-.36.08-5.08q.15-5.7.31-9.24c.09-2.37.17-4.24.23-5.63a27.21,27.21,0,0,0,0-2.92A4.38,4.38,0,0,0,272,388q-.31-.46-.39,0a19.6,19.6,0,0,0-.08,2.31,22.29,22.29,0,0,1-.15,2.54c-.1.87-.21,1.56-.31,2.08s-.18.46-.23-.16-.08-2-.08-4c0-2.67,0-4.34-.07-5a2,2,0,0,0-.7-1.46c-.61-.41-.92-.77-.92-1.08s-.33-.64-1-1-1.16-.44-1.47-.23a3.17,3.17,0,0,1-2.23.46c-.87-.1-1.21-.41-1-.92.1-.31-.28-.51-1.15-.62a7.18,7.18,0,0,0-2.54.15,3,3,0,0,0-1.55,1.31,12.22,12.22,0,0,0-1.15,3.32c-.36,1.53-.77,3.64-1.23,6.31s-1,6.16-1.62,10.47-1,8.06-1.61,11.55-1.18,6.75-1.86,9.78-1.38,6-2.15,8.78-1.62,5.62-2.54,8.39q-2.16,6.63-4.54,12.17a91.54,91.54,0,0,1-4.7,9.54,34.61,34.61,0,0,1-4.39,6.24c-1.39,1.49-2.64,2.23-3.77,2.23a4.91,4.91,0,0,1-3.08-1.23,7.76,7.76,0,0,1-2.31-2.93c-.11-.3-.28-1.1-.54-2.38s-.49-2.7-.69-4.24a165.64,165.64,0,0,1-1.39-26.64,329.28,329.28,0,0,1,2.62-33.42c.21-1.84.38-3.71.54-5.61s.23-3.26.23-4.09a14.19,14.19,0,0,0-.16-2.77,3.85,3.85,0,0,0-1.07-1.54,7.12,7.12,0,0,0-2.23-1.62c-.68-.25-1.93-.63-3.78-1.15-2.15-.62-3.67-.8-4.54-.54a4,4,0,0,0-2.23,2.39,16.84,16.84,0,0,0-1,2.85c-.36,1.28-.77,2.72-1.23,4.31s-.9,3.23-1.31,4.93-.77,3.31-1.07,4.85a169.11,169.11,0,0,0-2.62,17.78q-.93,9.48-.93,18.56t.77,17a60.87,60.87,0,0,0,2.47,13,26.08,26.08,0,0,0,2.23,5.39,23.31,23.31,0,0,0,3.23,4.38,28.07,28.07,0,0,0,4.62,3.94q2.7,1.84,6.55,4c1,.51,1.54.92,1.54,1.23s-1,.1-2.93-.62l-.92-.31.92.62a2.57,2.57,0,0,0,1.08.54c.51.15,1,.28,1.54.38a9.88,9.88,0,0,0,2.62.39c1.13.05,2.62.08,4.46.08l5.4-.16,4.92-2.46a44.82,44.82,0,0,0,9.93-6.93A44.16,44.16,0,0,0,258,468.79a84.82,84.82,0,0,0,4.24-8.39q2.07-4.69,3.85-10c1.17-3.54,2.23-7.19,3.15-10.94s1.7-7.41,2.31-11c.31-2.35.64-5.13,1-8.31s.67-6.47.93-9.86S273.92,403.55,274.08,400.26Zm-67.53,54.06c0,.2,0,.23-.08.08a3.18,3.18,0,0,1-.08-.85,1.62,1.62,0,0,1,.08-.62c.05-.1.08-.05.08.16A1.34,1.34,0,0,1,206.55,454.32Zm.77-18.48-.15-3.24.3,2.93a17.39,17.39,0,0,1,.39,3.39,37.77,37.77,0,0,1-.08,4.15l-.15,4.93v-4.46c0-1.23,0-2.62-.08-4.16S207.42,436.66,207.32,435.84Zm.46,17.4c0,.51,0,.59-.08.23a14.79,14.79,0,0,1-.07-1.77,12.94,12.94,0,0,1,.07-1.7c.05-.3.08-.2.08.31A7.22,7.22,0,0,1,207.78,453.24Zm.46,4.46c-.1.21-.15-.1-.15-.92s0-1,.15-.62ZM212.55,394c-.1.41-.28,1.59-.53,3.54s-.57,4.16-.93,6.62L210,411.5q-.54,3.71-.69,5.86c-.2,1.54-.36,3.13-.46,4.77s-.16,2.88-.16,3.7a18.83,18.83,0,0,1-.07,2.08c-.06.25-.19.28-.39.07s-.31-.1-.31.31,0,1.29.16,2.62a12.33,12.33,0,0,1,.07,2.23c0,.36-.12.34-.23-.08a8.06,8.06,0,0,1-.23-1.76c0-.87-.13-1.78-.23-2.7v-3.23l-.46,2.46c-.1.72-.21,2.26-.31,4.62s-.21,4.93-.31,7.7l-.46,9.85.16-12.47c0-3.69.07-7,.23-9.93s.36-5.7.61-8.32.59-5.21,1-7.78.93-5.33,1.54-8.31c.21-.92.47-1.92.77-3s.62-2.11.93-3.08.59-1.8.85-2.46a4.79,4.79,0,0,1,.53-1.16c.1-.1.16-.1.16,0A1.25,1.25,0,0,1,212.55,394Zm48.59-1.23q-.7,7.39-2.7,19.25-.62,3.39-1.07,6.47a33.22,33.22,0,0,0-.47,4c-.1.82-.33,2.29-.69,4.39s-.8,4.49-1.31,7.16-1,5.39-1.54,8.16-1,5.19-1.39,7.24a39.2,39.2,0,0,1-1.23,3.77c-.61,1.7-1.23,3.26-1.84,4.7-1,2.36-1.9,4.33-2.62,5.93s-1.39,2.92-2,4-1.24,2.06-1.85,2.93a31.81,31.81,0,0,1-2.16,2.69,7.06,7.06,0,0,1-1.69,1.93c-.62.46-.92.59-.92.38a11.36,11.36,0,0,1,1.38-2.46,53.17,53.17,0,0,0,4.46-8.17q2.16-4.77,4.16-10.39t3.78-11.78c1.17-4.1,2.18-8.21,3-12.32.2-1.44.41-2.67.62-3.69s.25-1.54.15-1.54-.1.2-.31.92-.46,1.64-.77,2.77q-.76,3.24-2,7.85t-2.54,8.86c-.88,2.83-1.67,5.21-2.39,7.16s-1.13,2.88-1.23,2.77,0-.61.23-1.54.64-2.1,1.16-3.54a205.23,205.23,0,0,0,5.54-21.25A208.1,208.1,0,0,0,256.13,407,138.68,138.68,0,0,1,258.52,391q1.31-5.62,2.7-5.62Q261.83,385.33,261.14,392.72Z"/><path d="M334.9,453.62a15.07,15.07,0,0,0-1.08-2.84,22.18,22.18,0,0,0-1.77-2.93c-.72-1-1.65-2.31-2.77-3.85-.93-1.13-1.8-2.13-2.62-3a20,20,0,0,0-3-2.54c-1.18-.83-2.57-1.72-4.16-2.7s-3.57-2.13-5.93-3.47a48.83,48.83,0,0,1-4.7-2.84,28.84,28.84,0,0,1-3.46-3,23.87,23.87,0,0,0-2.31-2.31c-.72-.62-1.18-.93-1.39-.93-.41,0-.69-.38-.85-1.16a28.81,28.81,0,0,1-.23-4.54,24.44,24.44,0,0,1,2.31-11.16,21.94,21.94,0,0,1,7.55-8.08q4.45-3.09,6.62-3.16c1.44-.06,2.62.85,3.54,2.69a13.66,13.66,0,0,1,1.39,5.08,59.91,59.91,0,0,1,0,8.78c-.11,2.67-.13,4.57-.08,5.7a4.89,4.89,0,0,0,.39,2.15,3.18,3.18,0,0,0,1.54,1.47,4.39,4.39,0,0,0,2,.69c.1,0,.26-.39.46-1.15s.41-1.75.62-2.93.38-2.49.53-3.93.29-2.77.39-4l.31-3.85.15,4.31a48.69,48.69,0,0,1-.23,5.24,43.37,43.37,0,0,1-.69,4.31c-.21.72-.16,1.23.15,1.54a2.17,2.17,0,0,0,.47.38c.1.05.35,0,.76-.23.72-.51,1.13-.41,1.23.31.21.52.47.77.78.77h.61a1.3,1.3,0,0,1,.62.16c.72.3,1.49,0,2.31-.85a11.31,11.31,0,0,0,2.16-3.77,28.36,28.36,0,0,0,1.61-5.93,49,49,0,0,0,.23-7.94,38.67,38.67,0,0,0-1.54-10.31,17,17,0,0,0-4.46-6.63,31.41,31.41,0,0,0-8.78-6.23,28.69,28.69,0,0,0-10.16-2.24,22.6,22.6,0,0,0-6.78.39,32.25,32.25,0,0,0-7.09,2.7,43.63,43.63,0,0,0-5.38,2.84,47.59,47.59,0,0,0-4.32,3.09,33.69,33.69,0,0,0-3.69,3.46,39.51,39.51,0,0,0-3.39,4.31A25.72,25.72,0,0,0,278,407.2c-.21,1.12-.36,2.08-.47,2.84a16.26,16.26,0,0,0-.15,2.08,16.71,16.71,0,0,0,.08,1.77c.05.57.13,1.31.23,2.24.1,1.13.18,2.08.23,2.85s.08,1.25.08,1.46c-.21.31-.15,1.29.15,2.92a15.65,15.65,0,0,0,1.23,4q3.71,8.46,19.41,13.55a36.91,36.91,0,0,1,6.16,2.62,17,17,0,0,1,4,3.23,15.48,15.48,0,0,1,2.85,4,30.06,30.06,0,0,1,1.62,4.92c.2,1.24.33,2.19.38,2.85a10.86,10.86,0,0,1-.23,2.69,16.37,16.37,0,0,1-8.78,11.56,7.89,7.89,0,0,1-2.23.92,5.26,5.26,0,0,1-1.77,0q-4.47-.62-6.47-3.46c-1.33-1.91-2.21-5.11-2.62-9.63a36.85,36.85,0,0,0-.53-4,1.82,1.82,0,0,0-.85-1.23c-.21-.2-.49-.46-.85-.76s-.75-.62-1.16-.93l-1.07-1.23-.31.92a1.91,1.91,0,0,1-1.08,1.24,2.76,2.76,0,0,0-1.85,1.92,15.75,15.75,0,0,0-.61,5.16,20.48,20.48,0,0,0,.23,3,22.82,22.82,0,0,0,.62,3,15.15,15.15,0,0,0,.84,2.38c.31.67.62,1,.92,1,.83,0,1.82.72,3,2.16a22.87,22.87,0,0,1,3,4.77c.21.21-.21.31-1.23.31a2.78,2.78,0,0,1-1.23-.23,3.76,3.76,0,0,1-1.08-1,29.76,29.76,0,0,1-2.62-4.31,54,54,0,0,1-2.46-5.24c-1.14-3.08-1.39-6.88-.78-11.4.32-1.53.32-2.31,0-2.31s-.25-.51.16-1.54a7.19,7.19,0,0,0,.31-1.38c0-.21-.15-.41-.47-.62a2,2,0,0,0-1.84-.31,1.94,1.94,0,0,1-1.85-.3q-1.55-.93-3.23,1.31a14.93,14.93,0,0,0-2.47,6.23q-.15,1.08-.3,2.7a32.48,32.48,0,0,0-.16,3.31c0,1.13,0,2.18.08,3.15a17.1,17.1,0,0,0,.23,2.24,25,25,0,0,0,1.07,3.15c.52,1.29,1.11,2.6,1.78,3.93s1.36,2.62,2.08,3.85a32.06,32.06,0,0,0,2,3.08,11.93,11.93,0,0,0,1.46,1.54,23.34,23.34,0,0,0,2.31,1.85,29,29,0,0,0,2.7,1.69,17.35,17.35,0,0,0,2.62,1.23,20.08,20.08,0,0,0,6.92,2c.72.1,1.67.17,2.85.23s2.36.05,3.55,0l3.46-.16a10.39,10.39,0,0,0,2.62-.38,41.74,41.74,0,0,0,8.39-2.47,25.21,25.21,0,0,0,6.24-3.69c.72-.62,1.33-1.13,1.84-1.54a2.35,2.35,0,0,1,1.08-.61c.31,0,1.06-.6,2.24-1.78a34.69,34.69,0,0,0,3.15-3.62,17,17,0,0,0,2.78-6,41.79,41.79,0,0,0,1.3-7.47,29.37,29.37,0,0,0,.08-6.39C335.38,455.75,335.15,454.6,334.9,453.62Zm-8-47.35c.05-.1.08,0,.08.15a1.34,1.34,0,0,1,0,1.24c0,.2,0,.23-.08.07a3,3,0,0,1-.08-.84A1.66,1.66,0,0,1,326.89,406.27Zm-38.73,9.09c0-.72.1-.77.31-.16,0,.41-.05.67-.16.77a.13.13,0,0,1-.15-.15Zm.61,10.16c-.1.21-.23.05-.38-.46a5.09,5.09,0,0,1-.23-1.39c0-.2.15,0,.46.62a1.75,1.75,0,0,0,.08.54,1.23,1.23,0,0,1,.07.38Zm.47-13.24-.47,1.15c-.1.26-.15.29-.15.08a10.62,10.62,0,0,1,.24-1.69,21.93,21.93,0,0,1,.69-2.7c.3-1,.64-1.9,1-2.77s.64-1.52.85-1.93q.77-1.23.69-.84c0,.25-.49,1.46-1.31,3.62-.21.82-.46,1.72-.77,2.69S289.44,411.66,289.24,412.28Zm4.7-.39c-.47,1.39-.91,2.75-1.31,4.08l-1.08,3.54c-.31,2-.62,2.93-.93,2.93-.1,0-.13-.33-.07-1s.13-1.41.23-2.23a34.21,34.21,0,0,1,.85-5.78,46.43,46.43,0,0,1,1.76-5.85,42.38,42.38,0,0,1,2.39-5.24,26.35,26.35,0,0,1,2.7-4.07,42.6,42.6,0,0,1,4.62-4.55A32.73,32.73,0,0,1,308,390.1a8.27,8.27,0,0,1,2.54-1.23,20.2,20.2,0,0,1,3-.15c.82,0,1.56,0,2.23.07s1,.13,1,.23,0,.29-.24.54a3.75,3.75,0,0,1-1,.7c-.41.2-.84.41-1.31.61a6.65,6.65,0,0,1-1.31.46c-.41.11-1,.31-1.84.62a26.45,26.45,0,0,0-2.47,1.08,23.14,23.14,0,0,0-3.31,2.08,30.12,30.12,0,0,0-6.31,6.31c-.88,1.18-1.62,2.29-2.24,3.31q-.61,1.39-1.38,3.24C294.88,409.19,294.4,410.51,293.94,411.89Zm9,21.1c-.51-.16-1.08-.36-1.69-.62l-1.77-.69c-.56-.21-1-.36-1.16-.46a4.29,4.29,0,0,1-1.69-1.85,5.3,5.3,0,0,1-.92-2.62,1.75,1.75,0,0,1,.07-.62c.05-.1.28,0,.7.32s1,.84,1.92,1.61,2.08,1.88,3.62,3.31l1.85,1.85A5.75,5.75,0,0,1,302.94,433Zm-18.63,27.64c-.1,0-.15-.2-.15-.62,0-.2,0-.33.08-.38s.07,0,.07.23C284.52,460.17,284.52,460.43,284.31,460.63Zm0-2.31c0,.21,0,.26-.07.15a1.36,1.36,0,0,1-.08-.61,1.5,1.5,0,0,1,.08-.54c.05-.15.07-.13.07.08C284.52,457.81,284.52,458.12,284.31,458.32Zm13.4,18.94a2.68,2.68,0,0,1-3.54-.61c-.93-1.13-.36-1.34,1.69-.62a4.87,4.87,0,0,1,1.85.62C298.22,476.75,298.22,477,297.71,477.26Zm30.41-14.78a15.15,15.15,0,0,1-1.62,4.46,23,23,0,0,1-1.61,2.7,30.94,30.94,0,0,1-1.92,2.54c-1.14,1.13-1.76,1.74-1.86,1.85s.1-.26.62-1.08a25.56,25.56,0,0,0,3.08-8.16,20.31,20.31,0,0,0,0-7.85,9.87,9.87,0,0,0-.61-1.85l-.93-2.16a12.76,12.76,0,0,0-1-1.92,8,8,0,0,0-.7-1l-.61-.61a14.28,14.28,0,0,1-1.08-1.24c-.82-1-1.05-1.46-.69-1.3a26.89,26.89,0,0,1,3.16,2.23,16.2,16.2,0,0,1,5.38,9.09A11.89,11.89,0,0,1,328.12,462.48Zm1.16-4.62q-.31,0-1.08-2.16a19.3,19.3,0,0,0-1-2.46A35.21,35.21,0,0,0,325,449.7l-.76-1.23,1.23.61c.31.21.72.51,1.23.92a10.14,10.14,0,0,1,1.39,1.39,8.78,8.78,0,0,1,1.3,1.77,6.68,6.68,0,0,1,.23,2.23C329.58,457,329.48,457.86,329.28,457.86Z"/><path d="M403,413.18h0c-.06.78-.12,1.53-.18,2.27C403,415.61,403,415,403,413.18Z"/><path d="M437.22,384.71l-1.69.16.15,2.46c0,.62,0,1.54-.07,2.77a26.44,26.44,0,0,1-.39,3.54l-.61,4V388l-2-2.47a18.41,18.41,0,0,0-2.7-2.46,14.67,14.67,0,0,0-2.85-1.69,6,6,0,0,0-2.31-.62,1,1,0,0,0-1.08.77c-.21.61-.46.92-.77.92s-.51.41-.92,1.24c-.11.51-.28,1.84-.54,4s-.59,4.9-1,8.24-.85,7.06-1.31,11.16-.92,8.32-1.39,12.63-.92,8.6-1.38,12.86-.85,8.19-1.16,11.78-.59,7.11-.84,10.85-.44,7.19-.54,10.32-.16,5.73-.16,7.78.1,3.13.31,3.23.21,0,.31-.23a11.42,11.42,0,0,0,.38-1.85c.16-1,.31-2.38.46-4.23s.34-4.41.55-7.7.51-7.36.92-11.94.85-9.24,1.31-14,.9-9.47,1.31-14.09.79-8.65,1.15-12.09.67-6.16.92-8.16.39-2.74.39-2.23q0,.45-.39,6.08t-1.15,13q-1.23,13.56-2,23.41t-1.08,16.32c-.1,1.23-.21,3.37-.3,6.4s-.26,6-.47,9-.33,5.24-.38,6.77a30.84,30.84,0,0,0,0,3.39c.05.72.23,1.11.53,1.16a3.48,3.48,0,0,0,1.24-.08c1.85-.3,2.77.11,2.77,1.23,0,.62.15.93.46.93s.46.31.46.92c.31,1.13.87,1,1.7-.31.51-.61.87-.76,1.08-.46s.36.57.15.77c-.21.41-.05.62.46.62a2.5,2.5,0,0,0,1.54-.62,7.15,7.15,0,0,1,3.08-1.07,14.36,14.36,0,0,0,2.77-.62c.21-.1.36-.39.47-.85a15.13,15.13,0,0,1,.46-1.62c.1-.92.25-2.31.46-4.15s.38-3.95.54-6.31.3-4.83.46-7.4.28-5,.38-7.39c.21-2.57.36-5.13.47-7.7s.15-4.41.15-5.54.26-3,.46-5.39.41-4.67.62-6.93.43-4.83.69-7.4.46-5.1.62-7.62.3-4.9.46-7.16l.39-5.85c.09-1.23.25-2.95.46-5.16s.41-4.18.61-5.93.36-3.49.46-4.93a10.2,10.2,0,0,0,0-2.61C440,385.43,439,384.71,437.22,384.71ZM422,397.8c-.11.21-.15-.1-.15-.92s0-1,.15-.62A2.05,2.05,0,0,1,422,397.8Zm.31-4.46c-.11.1-.16,0-.16-.47,0-.61.1-.71.31-.3A1.26,1.26,0,0,1,422.29,393.34Zm6.62,51.89q-.17,2.92-.46,6.39t-.62,6.7c-.21,1.75-.36,3.29-.46,4.62a7.42,7.42,0,0,1-.31,2.15c-.1.11-.13-.25-.08-1.07s.18-3,.39-6.62q.15-2.62.39-6c.15-2.26.32-4.36.53-6.31s.39-3.6.54-4.93.28-1.95.39-1.85Q429.06,442.31,428.91,445.23Zm.77-8.16c-.1.2-.18.23-.23.07a3.46,3.46,0,0,1-.08-1c0-1.23.1-1.55.31-.93Zm.3-4.31c0,.21,0,.23-.07.07a3.93,3.93,0,0,1-.08-1,2.18,2.18,0,0,1,.08-.76c0-.11.07-.06.07.15A1.94,1.94,0,0,1,430,432.76Zm4.47-33c-.1.21-.15-.05-.15-.77s.05-.92.15-.61A1.59,1.59,0,0,1,434.45,399.8Z"/><path d="M512.23,351.06l.15.25.49.4Z"/><path d="M576.55,344.42A80.48,80.48,0,0,0,564,342.6a4.86,4.86,0,0,0,.66-1.24c.21-.57-.36-1-.86-1.07a55.08,55.08,0,0,0-10.81.3,12.69,12.69,0,0,1,3.09-2.28.58.58,0,0,0,.09-.91c-2.62-1.92-6.46-1.2-9.5-1.11-3.87.12-7.74.33-11.61.49s-7.75.32-11.62.5c-2.81.14-5.78,0-8.61.4a34.57,34.57,0,0,1,3.77-2.31,27,27,0,0,1,6.53-2.3c4.7-1.05,9.9-.77,14-3.69a1.18,1.18,0,0,0-.33-2.13l-2.55-.7a19.49,19.49,0,0,0,7-7,.92.92,0,0,0-.59-1.31,23,23,0,0,0-14.72.58c.26-.68.51-1.36.77-2s-.65-1.54-1.36-1.3a22.09,22.09,0,0,0-6.57,3.63l-.72-2.05a1.07,1.07,0,0,0-1.31-.72A40.67,40.67,0,0,0,505,326.16a27.89,27.89,0,0,0-4.21,5.84,10,10,0,0,1-3.61,3.51c-1.66.12-3.36.53-5,.7-2.08.2-4.15.24-6.23.26-4.2,0-8.41,0-12.6.19a60.12,60.12,0,0,0-22.67,5.42,29.61,29.61,0,0,0,2.71-5.69c1.19-3.22,1.37-7,3.61-9.74s6-4.19,8.78-6.52,3.91-5.22,4.69-8.65a.79.79,0,0,0-1.17-.85l-2.17,1.22a17.76,17.76,0,0,0,2.07-8.79.65.65,0,0,0-1.11-.43c-2.12,2.4-4.6,4.47-6.63,7-1.38,1.71-2.67,3.53-3.89,5.38,3.88-8.69,15.59-15.69,11.93-26.11a1,1,0,0,0-1.8-.19,30.64,30.64,0,0,1-2.61,3.18,17.16,17.16,0,0,0,.09-5.5c-.46-3.19-1.79-6.05-2.74-9.1a1,1,0,0,0-1.63-.39,37.93,37.93,0,0,0-5.35,8.92,42.94,42.94,0,0,0-1.75,4.92c-.14.5-.31,1-.44,1.52-.42-.81-.9-1.6-1.25-2.34-.79-1.68-1.45-3.38-2.07-5.13a1,1,0,0,0-1.89-.2,20.27,20.27,0,0,0-3,10.72c-2.15-1.13-3.73-3.11-5.24-5a.71.71,0,0,0-1.1-.12,4.49,4.49,0,0,0-.74,4.3c.61,2.26,2,4.45,3,6.6a71.62,71.62,0,0,0,3.37,6.87,28.63,28.63,0,0,1,2.05,4.11,16,16,0,0,0-3.66-2.63c-2.1-1.23-5-2.48-6.18-4.75a.79.79,0,0,0-1.42.22,15.19,15.19,0,0,0,.31,5.62,14.34,14.34,0,0,0,2.08,4.29,13.3,13.3,0,0,0-1.4.27.61.61,0,0,0-.42.76,4.06,4.06,0,0,0,2.44,2.55,19.38,19.38,0,0,1,4.51,2.41c2.59,2.19,4.06,5.51,5.08,8.67a34.82,34.82,0,0,1,1.76,6.74c.16,1.44-.62,2.44-1.41,3.47a13.89,13.89,0,0,1-3.95,2.89,61.12,61.12,0,0,1-7.23,2.5,57,57,0,0,0-22.9,14.51c-2.83,2.91-13.24,12-17.32,22.57,0,0,0,.06-.05.11s0,0,0,.05c-.09.24-.19.47-.28.7a.45.45,0,0,1-.33.17c-.31,0-.67.47-1.08,1.39a5,5,0,0,1-.61,1.85c-.21.1-.34.49-.39,1.15s-.07,1.46-.07,2.39a19.87,19.87,0,0,1-.32,4.31c-.3.92-.46.82-.46-.31,0-.31,0,0-.15.85s-.21,2.08-.31,3.62c-.1,1.84-.26,4.1-.46,6.77s-.41,5.29-.61,7.86-.44,4.82-.7,6.77-.44,3.13-.54,3.54-.33.67-.38.46a5.45,5.45,0,0,1,.23-1.69q.61-7.54,1-14t.54-11.7l.15-8-.46,5.39c-.21,1.64-.36,2.85-.46,3.62s-.21.95-.31.53-.18-.51-.23-.3a8.81,8.81,0,0,0-.08,1.54q0,1.69-.46,7.08t-1.54,16.48a34.46,34.46,0,0,0-.46,4c-.11,1.54-.21,2.88-.31,4l-.16,4.17-3.69-.32c-1-.1-2.57-.17-4.62-.23s-4.05-.17-6-.38-3.62-.21-5-.31l-2.23-.15a6.64,6.64,0,0,1,0-2.31c.1-1.44.25-3.13.46-5.09s.36-4,.46-5.84.16-3.19.16-4,0-1.87.15-3.47.25-3.1.46-4.54c.21-1.64.38-3.67.54-6.08s.31-4.75.46-7,.26-4.23.31-5.93a14.22,14.22,0,0,0-.08-3c-.2-1.13-.41-1.26-.61-.38a30.7,30.7,0,0,0-.31,5.62c-.1,1.74-.21,3.69-.31,5.85s-.26,4-.46,5.39-.39,3.31-.54,5.62-.29,4.44-.38,6.39-.37,4-.46,6-.21,3.54-.32,4.46a18.52,18.52,0,0,0-.38,3.08c-.05,1.13-.08,2-.08,2.62,0,1.44-.15,2.31-.46,2.62-.2.1-.31,0-.31-.39s.05-1.1.16-2.23c.1-.72.2-2,.31-3.7l.3-5.23c.21-1.75.41-4.11.62-7.09s.41-5.7.62-8.15.38-5.32.53-8.24.28-5.27.39-7v-6.16l-1.23-1.23a10.67,10.67,0,0,0-1.62-1.62c-.26-.16-.59,0-1,.38s-.82.42-.92-.3c-.21-.51-.42-.77-.62-.77s-.31.3-.31.92q0,2.16-2-.15c-.62-.93-1.18-1.29-1.69-1.08a.68.68,0,0,1-.93-.15c-.51-.83-.92-.26-1.23,1.69-.1.62-.26,2.18-.46,4.7s-.47,5.25-.77,8.24-.57,5.57-.77,7.77a19.58,19.58,0,0,1-.46,3.47c-.11.3-.11-.57,0-2.62s.23-4.44.38-7.16.33-5.26.54-7.62a37,37,0,0,1,.46-4,1.91,1.91,0,0,0,.31-1.31,10.81,10.81,0,0,0-.16-1.92,9,9,0,0,0-.3-2,1.78,1.78,0,0,0-.93-.61h-.92a1,1,0,0,0-.77.31c-.21.21-.54,1.87-1,5s-1,7-1.54,11.47-1.13,9.32-1.69,14.4-1.06,9.63-1.47,13.63q-.31,4-.61,6.78a13.28,13.28,0,0,1-.47,2.92,8.62,8.62,0,0,1-2.92.77c-2.67.52-4.47,1.23-5.39,2.16a3.35,3.35,0,0,0-.62,3.69c.52,1.13.62,1.85.31,2.16a3.37,3.37,0,0,0-.08,1.46c.06.88.13,1.85.24,2.93a23.09,23.09,0,0,0,.46,3,6.33,6.33,0,0,0,.61,1.85c.21.51.49.79.85.85a12.33,12.33,0,0,0,2.54-.23l2.93-.16v1.23c-.31,2.88-.6,5.91-.85,9.09s-.49,6.18-.69,9-.39,5.26-.54,7.31-.23,3.34-.23,3.85c-.11,1.64.05,2.67.46,3.08a1.63,1.63,0,0,0,1.77.46,1.87,1.87,0,0,0,1.31-1.08c.2-.4.33-.61.38-.61s.18.21.39.61q.93,2.16,1.54-.76l.46-1.85.15,1.69c.21.41.39.8.54,1.16a2.77,2.77,0,0,0,.54.84,2.37,2.37,0,0,0,1.69.47,22.52,22.52,0,0,0,2.55-.16,8.1,8.1,0,0,0,2.23-.54c.62-.25.92-.54.92-.85s.18-.3.54-.3a1,1,0,0,1,.85.46c.1.41.31.41.62,0s.51-.31.61.31a.68.68,0,0,0,.77.76c.82,0,1.39-.51,1.7-1.53a37.3,37.3,0,0,0,.77-6.47c.1-1.13.2-2.69.3-4.7s.26-3.92.46-5.77.39-4,.55-6.47.32-4.51.53-6.16l.47-5.85h1.08c.3,0,1.4-.05,3.3-.16s4-.25,6.39-.46c2.67-.2,4.8-.31,6.4-.31a11.42,11.42,0,0,1,2.69.16,12.36,12.36,0,0,1,.23,2.69c.05,1.6.08,3.47.08,5.62s-.08,4.39-.23,6.7-.29,4.19-.39,5.62-.38,3.14-.54,5.09-.28,3.59-.38,4.92a20.21,20.21,0,0,0-.15,4.16,2.18,2.18,0,0,0,.46,1.23,3.24,3.24,0,0,0,2.08.39,3,3,0,0,0,1.92-.54,6,6,0,0,0,.46-2.54c.1-1.49.21-3.26.31-5.32.1-2.25.26-4.82.46-7.7s.39-5.56.54-8.08.31-4.64.46-6.39a11.7,11.7,0,0,1,.39-2.77c.1,0,.12.59.08,1.77S390.07,457,390,459s-.15,4.34-.31,7-.33,5.44-.54,8.32c-.2,2.46-.36,4.69-.46,6.69s-.15,3.16-.15,3.47c0,1.44.71,2,2.15,1.69,1.85-.31,2.77.11,2.77,1.24,0,.61.11.92.32.92s.4.31.61.92a.73.73,0,0,0,.77.62c.51-.21.93-2.06,1.23-5.55.1-.61.28-1.82.54-3.62s.49-3.66.69-5.61q.15-1.39.39-3.39c.15-1.34.33-2.72.54-4.16s.38-2.87.54-4.31.33-2.77.53-4c.32-2.47.55-4.39.7-5.78a25.66,25.66,0,0,1,.46-3,4.8,4.8,0,0,1,.31-1c.05-.05.18,0,.38.07a6.83,6.83,0,0,1,0,2.23c-.1,1.39-.26,3.22-.46,5.47s-.49,4.88-.84,7.85-.75,6.12-1.16,9.4-.74,5.77-1,7.77-.41,3.55-.46,4.62-.08,1.83-.08,2.24.1.66.31.77c1.13.41,1.69-.57,1.69-2.93,0-.51,0-1.33.08-2.46a24.45,24.45,0,0,1,.39-3.39q.3-1.69.92-6.77t1.23-10.78c.31-3.19.56-5.7.77-7.55s.38-3.23.54-4.16a6.29,6.29,0,0,1,.46-1.77.65.65,0,0,1,.54-.38,3.17,3.17,0,0,0,1.92-1.16,3.12,3.12,0,0,0,1.16-1.92c0-.31-.21-.57-.62-.77a3.78,3.78,0,0,1-2.62-3.7c.11-1.75.67-2.67,1.7-2.77q5.09-.61.92-1.85a6.07,6.07,0,0,1-1.77-.69c-.15-.16-.18-.64-.07-1.46q0-.78.3-4.47c.21-2.47.41-5.24.62-8.32.2-3.38.41-6.64.61-9.78s.39-6,.55-8.7.25-5,.3-7.08.08-3.7.08-4.93v-3.38s1.24-10.15,1.26-10.16,1.25-7.32,5.09-12.43a48.73,48.73,0,0,1,29.88-18.61c1.95-.36,4.25-1,6.21-.36,2.46.78,4.25,3.38,5.44,5.51,3.19,5.66,2.78,12,2.11,18.21-.08.66.58,1.35,1.19,1.18a22.31,22.31,0,0,0-.32,6.83c.35,3,1.47,7-.64,9.68a1,1,0,0,0,1,1.7A18.12,18.12,0,0,0,469,383.55c.28.67.57,1.33.85,2s.92,1,1.5.58c3.09-2.4,1.86-6.78,1.37-10.08-.08-.54-.15-1.08-.22-1.63.27.95.55,1.9.89,2.8a20.25,20.25,0,0,0,3.4,5.73c1.71,2.08,3.63,4.06,4.35,6.72a1,1,0,0,0,1.89,0,9.1,9.1,0,0,0,.47-4.61c.63.71,1.24,1.44,1.92,2.1a21.22,21.22,0,0,0,4.35,3.24,21.47,21.47,0,0,0,10.81,2.79.9.9,0,0,0,.74-1.35,65.43,65.43,0,0,0-7.63-11.48c.77.4,1.54.8,2.32,1.19a.89.89,0,0,0,1.27-.57c.77-4.29-2.49-7.62-5.62-10-3.63-2.79-7.41-5.41-11.17-8a31.88,31.88,0,0,1,11.66,3.49.76.76,0,0,0,1-1.06,14.09,14.09,0,0,0-7-6.46,24.05,24.05,0,0,0,2.35-.65.79.79,0,0,0,.45-1.16c-3.75-5.39-10.55-5.63-16.49-6.1a41.6,41.6,0,0,1-17.72-5.49c2.6-.61,5.18-1.32,7.8-1.84,3.48-.69,7-1.35,10.49-1.79s7.05-.7,10.59-.83c2.38-.08,4.88.16,7.31.06a.59.59,0,0,0,.28.16c5.84,1.39,11.77,5.92,14.13,11.54,1.61,3.84,2,8.18,2.69,12.25a90.62,90.62,0,0,0,3.72,13,.9.9,0,0,0,1.64.17l1-1.86a17.82,17.82,0,0,0,7.25,9.73.91.91,0,0,0,1.21-.37,9.63,9.63,0,0,0,1.1-2.17,17.62,17.62,0,0,0,8.55,5.77.9.9,0,0,0,1.07-.65,15.13,15.13,0,0,0-.2-10.73,7.74,7.74,0,0,0,2.51,1.66c2.17.7,2.91-1.06,2.91-2.9a23.58,23.58,0,0,0-3.91-12.72c.77.2,1.54.41,2.32.6a1,1,0,0,0,1-1.41,31.86,31.86,0,0,0-9.77-9.5,51.28,51.28,0,0,0-10.83-5.56c7,.77,13.07,4.15,19.14,7.57,6.24,3.52,12.81,6.88,20.19,6.51a1,1,0,0,0,.63-1.64,37.64,37.64,0,0,0-5.72-4.19c5.11.74,10.28,1,15.35-.23a.86.86,0,0,0,.17-1.57l-.78-.53a17.61,17.61,0,0,0,10.44-8.4A.8.8,0,0,0,576.55,344.42Zm-212.71,95.5a1.69,1.69,0,0,1-.53.08,1.58,1.58,0,0,1-.62-.08c-.1-.05-.1-.08,0-.08a1,1,0,0,1,1.08,0C364,439.84,364,439.87,363.84,439.92Zm23.18-.7a8,8,0,0,1-.08,1.24c-.05.3-.13.41-.23.3a30.39,30.39,0,0,0-4.93-.46c-2.46-.1-5.34-.15-8.62-.15-2.46,0-4.39,0-5.78-.15s-2.08-.21-2.08-.32c0-.3,1.55-.46,4.62-.46a58.47,58.47,0,0,0,5.93-.23c1.49-.15,2.24-.33,2.24-.53a.42.42,0,0,0-.47-.47c-.41,0-.61-.15-.61-.46s.28-.36.85-.46a21.92,21.92,0,0,1,3.77,0c1.33.1,2.49.18,3.47.23l1.76.08C387.17,437.69,387.22,438.3,387,439.22ZM401.63,425a3.17,3.17,0,0,1-.25-1.26c.09.45.17.88.25,1.26Zm.87,16.09a8.08,8.08,0,0,1-.23,1.08c-.21,1-.32.72-.32-.92,0-1.34.11-2,.32-2s.46.31.46.93A2.77,2.77,0,0,0,402.5,441.07Zm.23-5.23c-.11.2-.18.15-.23-.16a6.55,6.55,0,0,1,.07-1.69c.21-1.54.33-2.44.39-2.69s.07.33.07,1.76A9.62,9.62,0,0,1,402.73,435.84Zm.3-22.66h0c0,1.77-.08,2.43-.18,2.27-.44-.73-1.48-18.34-1.16-27.21.62-7.1,4.54-14.61,7.25-18.78a50.4,50.4,0,0,1,3-4.13C408.09,370.52,402.34,383.27,403,413.18Zm44.44-93.34c-3.68-1-8.68-2.76-8.15-6.85,0-.29.44-.23.53,0a7.86,7.86,0,0,0,4.45,4.4,15.65,15.65,0,0,1-1.8-1.75.33.33,0,0,1,.38-.53,33.19,33.19,0,0,1,6.58,4.59,11.66,11.66,0,0,1,1.13,1c.06-1.13.16-2.27.33-3.39a51.46,51.46,0,0,1,1.3-6c-.5-2.27-1.74-4.56-2.4-6.89a11.69,11.69,0,0,1-2.63-3.07.35.35,0,0,1,.53-.43,9.8,9.8,0,0,1,1.76,1.65,6.79,6.79,0,0,1,.26-2.85c.09-.25.49-.25.49.05-.1,3.5,1.86,6.5,2.48,9.84q.72-2.42,1.53-4.78c1.37-4,2.85-8,4-12a91.62,91.62,0,0,0,2-12.53.48.48,0,0,1,.91,0c.83,3.86,0,8.07-.95,11.82s-2.22,7.41-3.48,11.06a18.72,18.72,0,0,0,2.25-1.5,44.71,44.71,0,0,0,3.81-3.73.33.33,0,0,1,.53.38,11.06,11.06,0,0,1-2.24,3.16c.44-.18.88-.35,1.31-.5a.2.2,0,0,1,.16.36,16.56,16.56,0,0,1-3.27,1.68,10.43,10.43,0,0,1-3.1,1.74,80.16,80.16,0,0,0-3.23,11.65,38.39,38.39,0,0,0-.65,6.23,14.1,14.1,0,0,0,.06,1.44,14.88,14.88,0,0,1,3.09-2.25,18.84,18.84,0,0,0,5-4.05.4.4,0,0,1,.67.36c-.52,1.94-2.18,3.2-3.82,4.2s-3.29,2-4.85,3.18a12.85,12.85,0,0,1,0,3.22.49.49,0,0,1-.89.15c-1-1.6-1-3.91-1.06-5.75,0-.13,0-.27,0-.4A9.37,9.37,0,0,0,447.47,319.84Zm17.37,35.4a20.7,20.7,0,0,1,6.22.88c1.73-.92,4.14-1,6-1s4.8,0,6.4,1.06c.17.11.2.45-.05.49a12.16,12.16,0,0,1-2.82-.17,29.73,29.73,0,0,0-3.27,0,27.93,27.93,0,0,0-3.53.34h-.08a41.49,41.49,0,0,1,5.53,2.12.31.31,0,0,1-.22.58c-2.56-.67-5.15-1.28-7.73-1.85-1.62-.35-3.31-.54-4.95-.88,2.08,2.2,4,4.54,5.88,6.82,1.55,1.91,3.07,3.85,4.59,5.79,0,0,.07,0,.1,0a35.44,35.44,0,0,0,3.67,1.91,42.5,42.5,0,0,0,4.34,1.29c2.49.7,5.12,1.55,6.62,3.8.26.4-.29.81-.64.52a13.5,13.5,0,0,0-4.49-2.41,2.29,2.29,0,0,1,.51,1.47c0,.12-.12.25-.24.2a4.1,4.1,0,0,1-1.53-1.22c-.38-.38-.75-.78-1.12-1.17l-1-.28a21.7,21.7,0,0,1-4-1.37,103,103,0,0,0,9.59,10.75,51.51,51.51,0,0,0,5.4,4.5c1.89,1.35,4.11,2.27,5.87,3.77.34.29,0,.79-.39.72a14.86,14.86,0,0,1-5.18-2.52,49.52,49.52,0,0,1-4.83-3.59,75.75,75.75,0,0,1-8.71-8.93c-1.61-1.9-3.17-3.84-4.73-5.8.24,1.15.48,2.28.79,3.41.46,1.71,1.33,3.29,1.75,5a.32.32,0,0,1-.52.32c-2.43-2.34-3.27-6.56-2.94-9.88a153.11,153.11,0,0,0-10.54-12.34c-1.42-1.43-2.91-2.77-4.43-4.06.14.76.28,1.53.46,2.28.23.91.52,1.81.84,2.7a20.84,20.84,0,0,0,3.23,4.91c1.32,1.66,2.23,3.21,2,5.38,0,.3-.49.33-.49,0,0-2.08-1.36-3.65-2.77-5.21.41,1,.81,2.07,1.14,3.13,1.15,3.69,1.95,8.52-.64,11.79-.17.22-.54,0-.47-.25a19.41,19.41,0,0,0-.76-12.73c-.85-2.28-1.88-4.49-2.69-6.79-.69-2-1.47-4.19-1.16-6.3q-2.62-2.1-5.41-4a.51.51,0,0,1,.48-.89A35.54,35.54,0,0,1,464.84,355.24Zm53-12.2c2.42.65,4.85,1.26,7.29,1.85,1.68-.73,3.46-1.2,5.18-1.84s3.46-1.41,5.19-2.09A23.11,23.11,0,0,1,545.9,339a.38.38,0,0,1,.36.38.38.38,0,0,0-.36-.38A23.11,23.11,0,0,0,535.54,341c-1.73.68-3.44,1.44-5.19,2.09s-3.5,1.11-5.18,1.84c-2.44-.59-4.87-1.2-7.29-1.85-3.86-1.05-7.65-2.25-11.58-3a.35.35,0,0,0-.4.39.35.35,0,0,1,.4-.39C510.23,340.79,514,342,517.88,343ZM501,338.77c-.32.14-.64-.37-.37-.6a58.73,58.73,0,0,1,6.84-4.81,25.88,25.88,0,0,0,3.57-4.46c1.61-2.46,3.11-4.85,5.67-6.43a.28.28,0,0,1,.34.42c-1.79,2.16-3.24,5.09-5,7.68a47.3,47.3,0,0,1,8.08-3.8l.81-.26c2.32-1.48,4.81-2.71,7-4.36.32-.24.72.26.44.53-.87.83-1.77,1.66-2.74,2.44,5.23-1.42,10.59-2.73,15-5.8.33-.23.77.29.46.56a26.62,26.62,0,0,1-8.86,5.07c-3.43,1.19-7,2.05-10.44,3.14a45.22,45.22,0,0,0-6.46,2.67c3.56-.78,7.39-1,10.73-1.81a.29.29,0,0,1,.16.56c-5.82,2.45-12.26,2.44-17.94,5.29A59.19,59.19,0,0,1,501,338.77Zm14.08,32.39c-2.73-2.17-3.63-5.63-4.05-9a48.2,48.2,0,0,0-.88-5.74,13.13,13.13,0,0,0-2.58-5.14c-.24-.3.19-.69.5-.52h0c2.95,1.63,3.77,5.33,4.16,8.4.5,3.87.43,8.36,3.61,11.15a.46.46,0,0,1,.18.39A.58.58,0,0,1,515.12,371.16Zm11.32,2.44a.32.32,0,0,0-.06-.24c-3.43-4.94-6.88-9.89-10-15.06-.85-1.42-1.69-3-2.59-4.62-.7-.69-1.41-1.38-2.08-2.09,1.57,2.37,2.84,5,4.18,7.24,3.09,5.15,6.53,10.09,10,15h0l0,0c.24.34-.29.79-.57.47-1.08-1.23-2.09-2.51-3.09-3.79a11.18,11.18,0,0,0,1.74,4.26.2.2,0,0,1,0,.18.2.2,0,0,0,0-.18,11.18,11.18,0,0,1-1.74-4.26c-.26-.32-.53-.63-.78-1a16.85,16.85,0,0,0,1.19,4.3h0a8.83,8.83,0,0,0,.84,1.44c.16.24-.22.56-.41.33-1.68-2-3.21-4.82-2.76-7.56-1.8-2.44-3.49-5-5.1-7.55-1.06-1.7-2-3.42-3.05-5.11a23.69,23.69,0,0,1,.62,3.22c.5,3.87.43,8.36,3.6,11.15a.52.52,0,0,1,.18.28.52.52,0,0,0-.18-.28c-3.17-2.79-3.1-7.28-3.6-11.15a23.69,23.69,0,0,0-.62-3.22c-1-1.7-2-3.36-3.21-4.94a4.15,4.15,0,0,0-.34-.24.4.4,0,0,0-.56.29.4.4,0,0,1,.56-.29,4.15,4.15,0,0,1,.34.24,29.6,29.6,0,0,0-2.9-3.45.39.39,0,0,1,.45-.62h0a14.21,14.21,0,0,1,5,4.71.31.31,0,0,1,.5-.21l.42.35-.15-.25.64.65c4.1,3.26,7.84,7,11.66,10.54,0,0,0,.08.05.12h0a.39.39,0,0,1-.61.48c-3.41-3-6.91-6-10.16-9.17.9,1.59,1.74,3.2,2.59,4.62,3.1,5.17,6.55,10.12,10,15.06A.32.32,0,0,1,526.44,373.6ZM525,361.72a.46.46,0,0,1,.13.27.46.46,0,0,0-.13-.27c-4.11-3.84-8.11-7.85-12.58-11.28a.3.3,0,0,0-.5.21,14.09,14.09,0,0,0-5-4.73.36.36,0,0,0-.54.3.36.36,0,0,1,.54-.3,14.09,14.09,0,0,1,5,4.73.31.31,0,0,1,.5-.22C516.92,353.87,520.92,357.88,525,361.72Zm42.83-14.2a.4.4,0,0,0-.47-.3,72.49,72.49,0,0,1-13.85,1.5c-2,0-3.92,0-5.86-.15l-.93.41-.21.09c2.16.14,4.33.21,6.5.17a73.2,73.2,0,0,0,13.85-1.49.4.4,0,0,1,.47.28.35.35,0,0,1-.25.48,66.91,66.91,0,0,1-12.88,1.72A12.85,12.85,0,0,0,556,351c1.23.42,2.59.38,3.78.84a.32.32,0,0,1,.19.3.32.32,0,0,0-.19-.3c-1.19-.46-2.55-.42-3.78-.84a12.85,12.85,0,0,1-1.78-.79c-.45,0-.91,0-1.37.06a17.88,17.88,0,0,0,2.65,1.26c1.23.41,2.6.37,3.79.84.08,0,.09.12.12.19h0c.06.16.05.35-.1.42-1.32.62-3.17.22-4.5-.22a7.2,7.2,0,0,1-3.74-2.47c-2.57,0-5.15-.11-7.73-.33a4.58,4.58,0,0,1-1.89-.19c-2.29-.24-4.57-.57-6.85-1l.71.62a26.07,26.07,0,0,0,4.65,3,.31.31,0,0,1,.16.2.31.31,0,0,0-.16-.2,26.07,26.07,0,0,1-4.65-3l-.71-.62-1.34-.21c.51.46,1,.92,1.55,1.36a24.74,24.74,0,0,0,3.71,2.44h0c.32.18.62.37.94.54a.32.32,0,0,1-.3.56c-2.55-1.23-5.76-2.9-7.64-5.22-4.27-.82-8.5-1.83-12.65-2.94l-1.57-.42c.28.27.55.54.84.79a.3.3,0,0,1,.1.2.3.3,0,0,0-.1-.2c-.29-.25-.56-.52-.84-.79l-1.47-.4c.6.56,1.17,1.17,1.79,1.7h0l0,0c.25.21,0,.71-.32.59-1.64-.62-3.26-1.36-4-3a72.45,72.45,0,0,1-7.73-2.62c-.37-.15-.12-.69.23-.63l.21.05h0c3.85.72,7.58,1.9,11.37,2.92,2.42.66,4.85,1.27,7.29,1.85,1.69-.72,3.46-1.19,5.18-1.83s3.46-1.41,5.2-2.1a23.22,23.22,0,0,1,10.36-1.91.33.33,0,0,1,.29.21h0c.11.22,0,.52-.28.52-3.93-.07-7.42,1.66-10.93,3.25a43.77,43.77,0,0,1-5.47,2.24l.74.17c3.58.79,7.19,1.46,10.83,1.94a.36.36,0,0,1,.32-.12,10.57,10.57,0,0,0,4.08-.07,30.66,30.66,0,0,0,4.37-1.89,14.57,14.57,0,0,1,8-1.16.18.18,0,0,1,.17.23.18.18,0,0,0-.17-.23,14.57,14.57,0,0,0-8,1.16,30.66,30.66,0,0,1-4.37,1.89,10.57,10.57,0,0,1-4.08.07.36.36,0,0,0-.32.12c-3.64-.48-7.25-1.14-10.83-1.94l-.74-.17c-.43.12-.86.25-1.29.34l1.53.36c3.59.79,7.2,1.45,10.83,1.93a.39.39,0,0,1,.32-.11,10.77,10.77,0,0,0,4.08-.07,31.32,31.32,0,0,0,4.37-1.89,14.67,14.67,0,0,1,8-1.17l0,0h0c.24.05.16.42-.08.44a30.4,30.4,0,0,0-9.1,2.93c1.94.11,3.9.18,5.86.15a72.49,72.49,0,0,0,13.85-1.5A.4.4,0,0,1,567.86,347.52Z"/><rect class="cls-1" width="594.19" height="594.19"/></g></g></svg>