<svg xmlns="http://www.w3.org/2000/svg" width="570.551" height="504.713" viewBox="0 0 570.551 504.713">
  <g id="Group_40" data-name="Group 40" transform="matrix(0.839, -0.545, 0.545, 0.839, -697.266, 584.627)">
    <g id="Group_36" data-name="Group 36" transform="translate(754.689 118.115)">
      <path id="Path_711" data-name="Path 711" d="M828.412,152.641a10.338,10.338,0,0,0-1.054-.011c.405.082.821.154,1.193.262Z" transform="translate(-566.875 -28.935)" fill="#bc7987"/>
      <path id="Path_712" data-name="Path 712" d="M1231.925,233.149c-1.5-.882-1.885,1.255-4.309,1.341,7.2-14.46,9.761-29.594,14.98-43.86,2.137-5.846,4.624-11.635,6-17.668,2.251-9.875,3.369-20.005,5.625-29.877,2.068-9.055,1.774-8-6.2-13.607-16.026-11.263-33.433-7.972-50.667-6.327-3.319.319-4.24.724-5.964-2.437-2.115-3.886-7.979-3.244-8.736.792-2.125,11.334-10.022,19.833-14.041,30.178-1.756,4.524-5.355,7.018-8.915,9.89-7.631,6.155-15.829,11.689-22.031,19.5-5.348,6.728-9.789,14.363-17.151,19.188-3.026,1.982-3.653,5.871-7.391,7.287a186.37,186.37,0,0,0-20.468,9.445c-5.412,2.839-10.506,6.764-16.894,8.463-7.936,2.108-16.173,3.219-23.851,5.968-8.148,2.918-16.206.491-24.263.928-2.606.14-5.918-2.065-9.033-1.545a26.9,26.9,0,0,1-16.417-2.466,10.4,10.4,0,0,0-9.714.061,4.35,4.35,0,0,1-6.094-1.523c-3.362-6.466-8.85-6.162-14.517-4.821a7.743,7.743,0,0,1-8.32-2.6c-1.272-1.477-2.574-3.086-4.363-3.416-10.649-1.954-18.521-9.8-28.464-13.209-1.738-.6-3.147-1.932-4.631-2.789-8.987-5.194-16.457-12.825-26.931-15.772-4.455-1.255-9.08-4.646-10.022-9.908-1.247-6.965-4.81-12.489-8.7-18.116-4.828-6.976-10.112-13.628-10.732-22.919-.556-8.3-6.549-12.6-14.582-10.768-10.607,2.42-21.357,1.48-32.01,2.334-15.281,1.226-30.687.774-46.021,1.455-14.589.649-21.683,10.635-22.249,23.7-.3,7.151-.043,14.524-.018,21.776.054,14.388,1.993,28.63,3.491,42.835,1.011,9.6,3.689,19.209,5.692,28.8,2.273,10.872,3.954,22.242,9.3,31.877,7.6,13.682,14.875,27.468,25.977,39.344,10.7,11.449,23.081,20.507,34.676,30.644,11.2,9.8,25.468,14.446,38.68,20.7,9.933,4.7,21.461,5.262,31.547,9.2,15.517,6.069,32,6.061,47.817,9.911,7.427,1.81,15.779.756,23.371,2.986,5.223,1.534,10.581-.9,15.575,1.287,9.391,4.1,19.389,5.391,29.407,5.4,14.256.014,27.163-6.545,40.484-10.456,10.943-3.212,21.005-9.7,32.049-13.456,3.6-1.222,6.6-3.774,10.445-5.083,10.134-3.441,20.2-7.4,28.655-14.316,1.552-1.269,2.466-2.853,4.771-3.653,12-4.144,19.5-15.306,30.981-20.407.48-.212.6-1.122,1.036-1.566,3.534-3.61,7.108-7.187,10.664-10.779,5.258-5.312,11.248-10.094,15.589-16.073,5.693-7.843,11.417-16.105,15.346-24.748,6.075-13.367,15.47-24.662,21.266-38.025C1232.014,235.393,1233.864,234.289,1231.925,233.149Zm-72.487-49.692c-.007.169-.018.337-.029.509l-.4.025a1.443,1.443,0,0,1,.047-.5C1159.073,183.432,1159.3,183.464,1159.438,183.457Zm-216.8,33.2c6.122,1.255,14.037,1,17.5,5.7,4.818,6.542,9.5,5.119,15.4,4.065,3.119-.556,6.208-.4,7.491,4.427.835,3.154,4.825,4.965,8.875,2.95a12.808,12.808,0,0,1,14.747,2.534c2.391,2.549,2.108,4.5-.061,6.635q-2.936-.952-5.875-1.9c-.047-.5-.09-1-.133-1.495l-1.094,1.136c-10.416-1.462-20.779-3.161-31.382-3.1-2.484.014-7.782,1.011-7.517-3.061.258-3.968,4.954-2.036,7.828-2.208.509-.032,1.015-.1,1.52-.165-2.6-1.158-5.75-.857-7.994-2.068-6.527-3.513-13.771-3.631-20.593-5.592-2.606-.749-4.545-2.925-3.993-5.739C937.883,216.112,940.639,216.248,942.639,216.661Zm57.839,24.536c-.211.176-.423.355-.634.531-.079-.269-.161-.534-.24-.8Zm-45.161-9.212c-.007.107-.344.19-.523.28a5.885,5.885,0,0,1-.079-1.129c.011-.118.341-.2.523-.308A6.324,6.324,0,0,1,955.318,231.984Zm-79.637-75.2c2.48,7.348,7.538,13.388,9.893,20.9,2.308,7.352,9.108,10.707,16.055,12.549,8.431,2.237,14.65,7.449,20.747,13.159,2.975,2.785,7,3.714,10.653,5.28,1.1.473,2.746.581,2.376,2.308-.387,1.81-2,1.29-3.094.968-6.431-1.914-13.155-3.09-18.632-7.452a28.1,28.1,0,0,0-4.818-2.95c-1.276-.649-2.8-1.419-3.986.118-1.126,1.462.6,2.627.692,3.649.7,7.814,6.237,6.653,11.521,7.395,4.678.66,9.1,3.093,13.643,4.735,2.409.871,1.423,2.807.208,2.929-3.488.355-5.416,4.3-9.323,3.42,3.588,1.864,7.632,2.011,10.338,5.61,1.025,1.366,5.018,4.359,6.007-1.506.33-1.975,3.133-1.66,5.029-1.176,1.215.308,2.681.663,2.8,2.158.251,3.219,6.262,1.007,4.943,5.054-1.136,3.488-4.577-.606-6.678,1.366-1.036.975-4.069.617-2.836,2.947,1.14,2.151,3.907,2.541,6.259,1.785,4.742-1.527,4.366-1.133,8.309,1.577,2.556,1.753,6.272,2.308,9.52,2.48,13.754.738,27.59,3.265,41.218-1.032-.025.025-.036.05-.061.075,2.9-.369,5.732-1.4,8.707-1.319-1.05-.219-2.011-.556-1.788-2.119a2.232,2.232,0,0,1,2.907-1.742c2.986.6,6.735-4.986,9.305,2.022,1,2.735,6.384-.509,9.689-1.237,2.677-.588,4.972-3.029,7.348.91,1.423,2.355,4.574.2,5.631-.523,5.821-4.011,12.8-2.462,18.65-4.488,5.621-1.946,13.238.814,17.184-6.642,1.173-2.215,5.327-3.316,8.323-3.954,2.316-.491,4.728-1,6.288-2.409,4.824-4.348,10.2-7.137,16.689-7.653,2.5-.2,3.219-2.366,4.671-3.821,7.818-7.818,15.973-15.03,21.92-24.841,3.627-5.979,10.291-10.886,17.377-14.159-3.122,6.108-8,10.84-12.661,15.625-1.932,1.982-3.921,3.556-4.237,6.416,1.99.125,1.531-3.785,4.14-2.6,2.635,1.2-.652,2.871.459,4.473,3.652-1.574,5.552-5.276,9.825-8.782-.592,6.04-5.062,8.28-6.241,12.159-.4,1.337-1.448,2.584-1.2,4.076a3,3,0,0,0,1.387,1.893,1.29,1.29,0,0,0,1.853-1.072c2.377-11.4,12.353-18.711,15.822-29.511-2.5-.007-2.838,4.524-6.244,2.825-.473-3.416.8-6.51,2.8-9.252,6.99-9.6,14.138-19.095,17.951-30.572.272-.81.5-2.33,1.99-1.735,2.219.889,1.333,2.62,1.054,4.291a121.172,121.172,0,0,1-15.539,42.939,204.335,204.335,0,0,1-23.2,31.458c-4.753,5.334-8.836,11.187-14.779,15.353-2.785,1.953-7.2,2.5-5.8,7.882.251.971-2.125,3.133-3.7,3.979-4.524,2.437-8.893,4.907-12.385,8.836-2.383,2.681-6.24,1.613-9.362,2.631-6.563,2.144-11.51,7.567-18.862,8.176-4.112.341-8.259.1-12.4.556-4.215.462-8.427.631-11.614,3.2-5.925,4.782-12.564,2.366-18.553,1.81s-11.481,1.584-17.252,1l.054-.025c.025-.007.054-.021.032-.007l0-.007.04-.018-.04.007-.011-.032-.021.039a30.167,30.167,0,0,1-19.657-1.807c-7.2-3.011-15.521-1.3-22.7-5.255-2.395-1.315-2.731-2.584-2.631-4.645-1.936-1.47-3.718-3.352-6.553-2.359l.093-.021c0-.036-.018-.05-.014-.086l-.047.075a102.755,102.755,0,0,0-18.872-2.964c-4.606-.337-7.983-4.373-11.664-7.026-7.552-5.434-17.023-8.087-23.052-15.664-8.266-10.388-17.9-19.528-26.1-30.067-8.3-10.66-12.714-23-19.342-34.293-2.262-3.85.628-7.66-3.229-11.757C872.877,152.8,874.852,154.326,875.68,156.781ZM796.645,301.657a185.9,185.9,0,0,1-9.542-17.087c-3.326-7.108-7.338-14.055-7.9-22.17-.1-1.459-1.459-1.122-2.047-1.66-2.119-1.936-4.961-3.85-2.957-7.452q2.285.8,4.567,1.6c-2.111-1.688-.355-5.215-3.079-6.613.2-3.258,3.251-6.864-1.075-9.574.7-2.158,1.581-4.305.495-6.61-.681,2.129-1.7,4.233-.649,6.506-1.387,3.434,1.2,6.388,1.19,9.653l-.047-.032-1.419,4.71c-3.767-9.947-5.13-20.421-7.374-30.73-2.6-11.954-1.842-24.174-4.76-35.971a11.125,11.125,0,0,1,.6-5.868c8.227,11.556,11.273,25.457,18.055,38.469-7.8-.6-6.183-7.18-9.309-11.345-.036,9.012,2.083,16.908,3.818,24.862,1.025-.122-.978-4.742,2.466-1.531,2.373,2.212,2.6,5.319,3.1,7.8,2.079,10.2,6.158,19.618,10.112,29.1a7.788,7.788,0,0,1,.348,4.875c4.717,5.681,6.395,12.442,6.986,19.586-3.337-.072-2-3.638-3.563-5.033.459-1.656.624-3.144-1.764-3.233a1.408,1.408,0,0,0-.814-1.5c.491-1.8.441-3.438-1.455-4.5l0,.018c-.254-.466-.505-.936-.76-1.4.208-1.183.419-2.366.623-3.549-1.344-.925-2.3-2.452-4.068-2.721.265,2.5,2.065,4.176,3.316,6.147a1.264,1.264,0,0,0,.85,1.617c-.936,1.943-1.316,3.71,1.455,4.506.247.455.491.914.738,1.369-.6,1.76-.509,3.136,1.735,3.334-.534,6.452,4.248,10.4,7.216,15.2C800.23,304.514,798.326,304.435,796.645,301.657Zm2.075-36.942c1.251,1.989,2,4.2,3.3,6.112-.918,3.9,1.19,6.158,4.233,7.907-.416,1.065-.767,2.118.534,2.857a1.282,1.282,0,0,0,.885,1.574,13.692,13.692,0,0,0,4.671,10.607h0c-1.875,2.208,1.634,3.065,1.093,5.789-7.7-5.642-11.868-13.227-14.977-21.371-5.968-15.629-11.66-31.368-17.266-47.133-.947-2.66-.9-5.678-1.33-8.675,2.71-.864,4.384,1.731,4.6,3.007.824,4.853,3.566,8.642,5.516,12.9,1.441,3.147,2.774,6.32,4.531,9.352,1.509,2.606,3.463,5.047,1.362,8.689C794.068,259.467,797.215,262.327,798.721,264.715Zm3.95,31.393c.165-.445.258-1.011.971-.62.122.068.021.541-.025.91Zm2.707,3.452c-1.276-.574-2.083-1.4-1.6-2.932C805.474,296.975,805.585,298.183,805.377,299.56Zm-3.137-3.377c-.355.258-.606.179-.763-.226Zm-1.093-.5c-1.04-.125-1.986-.348-1.85-1.731C800.309,294.115,801.309,294.291,801.148,295.681Zm-2.072-2.28c-.147-.269-.294-.538-.437-.806A1.11,1.11,0,0,1,799.076,293.4Zm3.072,9.126q1.613-1.36,3.219-2.721c1.369.609,3.161,1.954,2.4,2.982C806.1,305.048,804.076,303.058,802.147,302.528Zm3.033,7.614c-.792-.129-1.7-.445-1.287-1.5a1.7,1.7,0,0,1,1.4-.832c.39.047.7.792.889,1.036C806.252,309.869,805.839,310.245,805.18,310.141Zm2.265,4.287a1.422,1.422,0,0,1-.168-2.179,1.9,1.9,0,0,1,1.459-.233,15.237,15.237,0,0,1,.638,2.581C808.535,314.539,807.847,314.7,807.445,314.428Zm8.682-19.442c1.251.681.839,1.656.47,2.62C815.392,296.932,815.618,295.986,816.127,294.986Zm14.94,16.245c.1,1.323,1.24,1.584,2.136,2.09.953,1.957,1.308,4.345,3.8,5.169a10.6,10.6,0,0,0,3.685,5.036c-1.534,2.463-3.169.8-4.631-.1-9.75-6.026-15.141-15.352-19.292-25.6C824.63,298.972,827.311,305.682,831.067,311.231Zm8.08,28.691c-10.169-6.875-20.98-13.083-26.1-27.11,9.7,9.191,18.446,17.475,27.189,25.755C839.874,339.018,839.509,339.47,839.147,339.922Zm7.273,5.058c-.545-.129-1.262-.28-1.527-.677-.7-1.057.473-.8.782-.749a6.081,6.081,0,0,1,1.577.785C846.875,344.642,846.6,345.022,846.42,344.979Zm.953-8.484a17.439,17.439,0,0,1,8.649,5.072C851.793,341.914,848.811,341.95,847.373,336.495Zm1,9.606c3.492-1.169,4.861.588,7.273,2.255C852.166,349.2,850.65,347.793,848.374,346.1ZM859,351.034c-.212.43-.8.678-1.118.921-1.28-.437-1.269-1.28-.9-2.007a1.621,1.621,0,0,1,1.319-.767C859.356,349.36,859.371,350.274,859,351.034Zm.047-6.535c5.5-.082,8.729,2.972,12.313,5.148C866.5,350.32,862.134,349.829,859.044,344.5Zm31.268,19.525c-3.179,2.631-5.524.3-8.807-1.445,1.125-.667,1.291-.8,1.481-.871,2.878-1.086,5.638-1.158,8.04,1.1C891.108,362.884,890.671,363.73,890.312,364.024Zm-11.635-4.617c-1.391-.043-3.23-.574-2.831-2.566.383-1.932,2.161-1.688,3.6-1.409,5.094.989,10.166,2.057,15.249,3.093-.083.513-.168,1.022-.251,1.534C889.172,358.959,883.928,359.572,878.677,359.407Zm28.221,6.682c-.158-.24.369-1.337.771-1.47,2.946-1,4.348.91,6.882,3.592C910.784,368.361,908.464,368.465,906.9,366.089Zm10.951-10.5c-1.179.079-2.971.513-2.444,2.767.444,1.882,1.519,4.839-1.334,5.047-3.438.254-7.653-.473-9.764-3.19-1.624-2.09,1.964-1.165,2.918-2.23-5.362-2.075-11.266-2.011-16.6-4.463-3.018-1.387-4.129-3.076-3.6-6.147l.022-.018c-6.6-.649-11.84-4.215-17.206-7.7-3.118-2.022-5.8-4.323-10.431-4.484-4.545-.158-10.6-2.029-11.334-8.829q-3.613-1.452-7.226-2.9c.53-3-1.81-3.9-3.76-5.083.986-3.412-2.3-3.7-3.947-5.183l.029.068-1.932-1.878c.875-1.222-1.208-3.7,1.283-3.975,4.233-.47,1.24-1.29.154-1.821-5.717-2.8-8.531-8.126-11.71-13.148-.011-1.477-1.14-1.789-2.251-2.126.043,1.376,1.122,1.674,2.079,2.1-.416,2.839-3.115,1.6-4.642,2.459-1.24-.2-2.183-1.441-3.577-1.1,1.509-4.9-2.807-7.219-4.782-10.574a1.411,1.411,0,0,0-.825-1.649c.405-1.079.882-2.169-.573-2.889-.749-2.964-.706-6.366-4.223-7.832,2.387-5.09-4.43-8.191-2.588-14.489,3.359,6.162,6.148,11.478,9.152,16.668.964,1.663.308,4.47,3.183,4.882.262,3.767,1.57,6.836,5.481,8.165-.2,1.047-.391,2.09.6,2.918.147-1.086.426-2.194-.566-3.068l-4.054-7.624c6.312.764,8.707,6.563,12.2,10.467A107.723,107.723,0,0,0,851.4,309.6c4.072,2.412,7.94,4.735,9.37,9.775.5,1.756,2.685,2.452,4.427,3.237,2.875,1.3,5.66,2.8,8.524,4.129a2.313,2.313,0,0,1,1.23,3.14c-.617,1.907-1.929.72-3.043.47-1.9-.427-4.589-4.054-5.237,1.05,14.173,1.9,26.97,7.786,39.645,13.915,4.606,2.229,8.237,6.312,13.489,7.427C919.752,354.052,920.1,355.45,917.849,355.593ZM812.123,277.7c.33-.369.656-.735.986-1.1-.032.455-.068.914-.1,1.373Zm105.166,88.8c2.29.685,4.495,1.341,7.66,2.287C920.089,371.211,920.089,371.211,917.29,366.508Zm1.839-6.065c.251-.283.5-.778.756-.781.294-.007.595.427.893.667-.251.28-.5.774-.756.781C919.727,361.117,919.426,360.683,919.128,360.443Zm3.376,2.28a1.753,1.753,0,0,1,.165-1.638c2.9-1.531,4.531,1.559,7,2.09C926.964,365.142,924.587,364.68,922.5,362.723Zm19.755-1.007c-6.667-5.395-15.145-5.542-22.3-9.108.527-3.2-2.663-3.022-3.878-5.388,17.93,5.352,35.863,10.7,54.094,16.137-6.871,1.871-13.829-.151-20.522,1.333C946.582,365.375,943.564,362.769,942.259,361.715Zm27.239,7.872c-2.56,1.136-4.044.717-5.656-1.29C965.863,367.515,967.39,367.619,969.5,369.587Zm-21.991,7.008a7.176,7.176,0,0,1-1.606-1.269c.358-.125.753-.419,1.065-.344a22.62,22.62,0,0,1,2.735,1.054C948.435,376.383,947.865,376.742,947.507,376.595Zm7.28.964c-.416-.337-.7-.563-.986-.792a5.289,5.289,0,0,1,1.509-.534c.3-.014.624.43.936.67C955.737,377.132,955.228,377.362,954.787,377.559Zm20.708,1.767c-4.746-1.792-9.46,1.767-12.492.516-2.9-.928-4.291-1.308-3.939-2.979.136-.667,1.036-1.742,1.48-1.692,4.947.563,9.969-1.179,14.862.462,1.007.337,2.007.785,1.749,2.169C976.986,378.731,976.269,379.62,975.495,379.326Zm12.022-10.711c-3.047-.237-6.241.38-9.535-1.688,3.255-1.731,6.37.516,8.994-1.681.928-.778,2.452-.065,2.505,1.635C989.521,368.15,988.8,368.716,987.517,368.616Zm12.539,3.094c-.642.057-1.093-.48-.366-1.05a14.572,14.572,0,0,1,1.911-1.1c.089.333.179.667.355,1.312A6.359,6.359,0,0,1,1000.056,371.709Zm12.632,18.876c-.91-.2-2.215-.276-1.767-1.868.538-1.914,1.935-1.85,3.477-1.548,1.053.208,2.1.358,1.85,1.821C1015.649,390.883,1014.176,390.9,1012.688,390.585Zm-10.269-13.521c-.394.125-1.541-.828-1.67-1.423a1.341,1.341,0,0,1,1.581-1.473c6.807.617,13.671-3.835,20.83.247C1016.408,378.358,1009.046,374.914,1002.418,377.064Zm41.3-19.74c6.42-1.3,11.926-2.19,17.285-3.628,2.111-.57,5.187.8,6.348-2.316,3.861,1.552,6.674-1.387,9.943-2.373-.028.025-.054.057-.086.082,2.265.018,4.682.939,6.635-.971,1.208-1.186,2.466-.907,3.176.237.882,1.43-.348,2.3-1.527,2.835-3.473,1.592-6.9,4.194-10.478,4.445-8.14.57-16.055,2.3-24.1,3.316A10.558,10.558,0,0,1,1043.719,357.324ZM1078.7,361.7c-.183.082-.362.161-.541.244a5.909,5.909,0,0,1-.036-1.1c.01-.1.333-.169.513-.251Zm18.034-1.394c-4.19,3.889-9.8,4.248-14.883,5.742a114.793,114.793,0,0,1-20.672,4c11.517-4.355,22.8-9.352,35.3-10.266q.86-1.253,1.724-2.506.37-1.4.742-2.8l.036.007q-.376,1.4-.745,2.8c.96.032,1.5.495,1.254,1.473C1099.125,360.192,1098.086,360.572,1096.73,360.307Zm4.391-4.47c-1.187.355-1.775-.333-2.119-1.341q1.349.285,2.7.581C1101.509,355.339,1101.365,355.765,1101.122,355.837Zm34.569-14.3c-8.778,6.194-18.087,11.338-29.189,12.019a11.041,11.041,0,0,1,6.227-3.671c3.391-.674,6.872-1.022,8.606-6.151,1.574-4.663,8.1-5.621,13.091-6.2C1136.877,337.262,1137.49,340.273,1135.691,341.542Zm10.811-11.148a5.561,5.561,0,0,1-.286-.961c-.011-.079.394-.319.448-.28a6.906,6.906,0,0,1,.706.742C1147.079,330.064,1146.788,330.229,1146.5,330.394Zm6.778-12.9c-.516.921-1.029,1.839-1.541,2.76l-.007-.014C1151.789,319.031,1151.624,317.68,1153.28,317.493Zm-5.847,16.066.162-.383.287.344Zm6.155-16.313c.19-.85.369-1.706.545-2.563.595.129,1.19.258,1.785.384C1156.244,316.97,1155.055,317.253,1153.588,317.246Zm2.516-2.237c.753-.444.878-1.767,2.1-1.545C1158.108,314.823,1157.635,315.661,1156.1,315.009Zm2.283-1.7c.129-.237.258-.477.387-.713.136.23.272.462.412.692Zm2.531,6.377-1.2-1.419c5.961-4.5,12.37-8.531,17.754-13.643,5.427-5.147,9.176-12.058,16.574-15.123C1184.5,301.266,1176.239,314.486,1160.918,319.69Zm7.341-12.815q.49-1.64.983-3.28C1169.812,304.958,1170.529,306.36,1168.26,306.876Zm-4.337,1.663.824.237-.344.86C1164.245,309.27,1164.084,308.9,1163.922,308.539Zm1.222.125a2.471,2.471,0,0,1,2.8-1.516C1167.425,308.46,1166.611,309.2,1165.145,308.664Zm8.108-5.861.1-.315.337.272Zm4.628-5.079a6.153,6.153,0,0,1,1.534-.233c.025.391.054.785.1,1.419a5.447,5.447,0,0,1-1.552-.115C1177.812,298.746,1177.773,297.768,1177.881,297.725Zm13.428-15.141c1.194.348,2.868-.914,3.538.921a1.694,1.694,0,0,1-.846,1.405C1192.247,285.164,1192.015,283.6,1191.308,282.584Zm41.444-76.315a13.122,13.122,0,0,1-5.4,7.391l-.054.061c3.739.186,2.266,2.495,1.649,4.269-4.631,13.295-10.847,25.913-16.661,38.7-2.032,4.47-3.014,9.843-7.847,12.223-3.355,1.652-7.162,2.4-10.209,4.782,3.993,1.036,4.7,2.943.749,5.158a19.3,19.3,0,0,0-4.148,3.466l.043.025c-7.567,3.337-11.133,10.951-17.152,15.915a46.433,46.433,0,0,0-4.6,5.047l.011.021c-3.151.168-4.506,2.323-5.434,4.947-4.939-.6-6.614,3.868-9.632,6.248-6.477.871-11.022,6.022-15.241,9.6-9.305,7.889-19.88,11.628-30.931,15.274a246.187,246.187,0,0,1-27.443,7.076c-1.133.237-2.05,1.523-3.043,2.43-3.95-1.921-6.983.1-9.983,2.262-7.058.8-14.227.728-21.134,2.692-10.438,2.964-21.267,2.151-31.892,3.287-7.732.825-15.51,1.212-23.274,1.753-1.255.09-2.56.018-3.068-1.523l.079-.065c-.057,0-.115.014-.172.014l.018.018c-8.252,2.377-15.75-1.821-23.091-3.878-6.312-1.767-12.779-3.352-19.127-5.054-15.908-4.269-31.092-10.61-46.065-17.091-9.37-4.054-18.9-8.689-27.354-15.016-2.624-1.964-1.448-3.954-2.2-5.854l.021-.018c-3.495,1.968-12.807-2.086-14.177-6.219-.236-.706,1.42-1.6-.559-2.244-14.575-4.767-23.758-15.912-33.135-27.221-4.387-5.3-8.667-10.782-13.392-15.79-3.542-3.749-4.793-8.632-7.467-12.79-5.047-7.839-8.786-16.621-12.295-25.321-4.215-10.452-10.99-19.933-13.388-30.942-2.032-9.338-10.166-15.718-10.431-25.887-.229-8.9-1.968-17.747.8-26.507.885-2.792,2.66-4.144,5.915-4.678,17-2.785,34.16-2.8,51.276-3.735,9.711-.534,19.41-1.147,29.124-.731,5.377.229,10.327,4.617,9.85,9.452-1.659,16.833,5.083,31.236,12.194,45.642,2.688,5.445,4.628,11.295,7.678,16.514,1.936,3.316,5.75,5.4,8.549,8.1,7.707,7.434,13.446,16.532,21.511,23.679,4.2,3.724,8.649,7.606,13.219,10.073,9.9,5.337,18.475,13.37,30.178,15.378,11.28,1.932,21.109,8.467,32.357,10.757,8.054,1.642,16.037,3.685,23.959,5.889,6.1,1.7,12.051-.229,17.819-1.018a31.588,31.588,0,0,1,12.262.48c6.352,1.588,11.8.7,17.622-2.839a28.732,28.732,0,0,1,17.861-3.721c6.528.713,12.406,1.194,17.747-4.319a15.6,15.6,0,0,1,8.728-4.025c10.721-1.3,17.546-10.266,26.661-14.951,4.345-2.23,5.391-9.309,10.75-11.653,4.8-2.1,7.395-5.807,8.388-10.825.774-3.907,4.384-6.287,6.993-7.524,4.5-2.129,5.5-5.309,7.112-9.316,2.316-5.75,6.122-11.008,9.589-16.091,9.42-13.808,15.729-28.63,16.722-45.186.592-9.9,4.348-13.686,14.263-15.439,9.058-1.6,17.736-.584,26.372.136,5.656.47,11.036,4.671,16.467,7.341,1.975.971,1.215,2.875.986,4.534-.724,5.255-1.932,10.345-4.778,14.9,2.3-1.531,3.484-1.129,2.882,2.19a130.775,130.775,0,0,1-2.523,12.962C1240.312,181.794,1236.5,194.021,1232.752,206.269Z" transform="translate(-754.689 -118.115)" fill="#bc7987"/>
      <path id="Path_713" data-name="Path 713" d="M816.9,156.4c0,.047,0,.079,0,.122l.089.075Z" transform="translate(-593.907 -19.172)" fill="#bc7987"/>
      <path id="Path_714" data-name="Path 714" d="M870.222,133.6c-.025.072-.06.14-.086.211a1.782,1.782,0,0,1,.194-.025Z" transform="translate(-456.315 -78.094)" fill="#bc7987"/>
      <path id="Path_715" data-name="Path 715" d="M797.379,185c-.032.054-.1.082-.136.125.082.032.168.047.251.079Z" transform="translate(-644.708 54.748)" fill="#bc7987"/>
      <path id="Path_716" data-name="Path 716" d="M877.287,161.517l-.011-.018c-.011.039-.029.057-.043.1.047.029.09.032.133.065l0,0c.047-.036.1-.057.143-.093-.082-.021-.147-.05-.236-.072Z" transform="translate(-437.972 -5.988)" fill="#bc7987"/>
      <path id="Path_717" data-name="Path 717" d="M780.742,176.206v0l.01,0Z" transform="translate(-687.355 32.022)" fill="#bc7987"/>
      <path id="Path_718" data-name="Path 718" d="M849,177.786c.115-.082.251-.118.369-.2-.155.007-.308.039-.463.047Z" transform="translate(-511.196 35.597)" fill="#bc7987"/>
      <path id="Path_719" data-name="Path 719" d="M868.792,175.785c-6.463,2.714-13.768,3.1-19.761,7.1,7.345-.4,14.374-2.5,21.528-3.882,1.147-.222,2.054-1.032,1.531-2.187A2.451,2.451,0,0,0,868.792,175.785Z" transform="translate(-510.861 30.3)" fill="#bc7987"/>
      <path id="Path_720" data-name="Path 720" d="M858.688,168.879c-.072-.018-.14-.014-.211-.036l.118.143C858.624,168.943,858.66,168.922,858.688,168.879Z" transform="translate(-486.448 12.993)" fill="#bc7987"/>
      <path id="Path_721" data-name="Path 721" d="M874.731,168.26c-.33-.979-1.663-1.247-2.076-.8-3.839,4.126-10.764.366-14.119,5.534,5.316,1.455,9.725-2.592,14.829-2.516C874.638,170.5,875.128,169.432,874.731,168.26Z" transform="translate(-486.295 8.876)" fill="#bc7987"/>
      <path id="Path_722" data-name="Path 722" d="M886.406,158.417h0l0,.014c-4.273,2.76-9.775,2.649-13.85,5.879,5.169,1.05,9.234-2.448,13.868-3.581.172-.043,0-1.491-.011-2.3l.039.011-.043-.025Z" transform="translate(-450.07 -13.954)" fill="#bc7987"/>
      <path id="Path_723" data-name="Path 723" d="M870.505,172.345c-3.768,1.086-7.886,1.126-11.266,3.4C863.87,177.41,867.591,176.162,870.505,172.345Z" transform="translate(-484.478 22.044)" fill="#bc7987"/>
      <path id="Path_724" data-name="Path 724" d="M763.051,131.407c2.319,4.083,4.864,6.94,8.915,1.6C769.134,131.711,766.3,130.471,763.051,131.407Z" transform="translate(-733.078 -84.607)" fill="#bc7987"/>
      <path id="Path_725" data-name="Path 725" d="M794.847,172.03c-1.391.258-3.445-.8-4.126,1.391-.491,1.581.943,2.032,2.161,2.359,1.606.43,3.445,1.057,4.115-1.165C797.417,173.217,796.306,172.385,794.847,172.03Z" transform="translate(-661.819 21.14)" fill="#bc7987"/>
      <path id="Path_726" data-name="Path 726" d="M884.815,127.763l-.011.007a2.661,2.661,0,0,1-.1-.326l-.072.38c-.036.014-.068.018-.1.032.029.022.054.029.083.054Z" transform="translate(-419.108 -94.004)" fill="#bc7987"/>
      <path id="Path_727" data-name="Path 727" d="M880.96,129.156c4.276.229,8.592,1.445,12.8-.523C889.415,125.07,885.225,129,880.96,129.156Z" transform="translate(-428.34 -94.781)" fill="#bc7987"/>
      <path id="Path_728" data-name="Path 728" d="M773.677,128.5c-4.276-3.208-7.438.147-10.571-.487C766.192,130.152,769.4,128.789,773.677,128.5Z" transform="translate(-732.936 -94.934)" fill="#bc7987"/>
      <path id="Path_729" data-name="Path 729" d="M870.727,166.746c-2.742-.631-4.144,1.237-6.5,3.581,3.061-.441,5.552.993,6.875-1.878C871.393,167.811,872.322,167.112,870.727,166.746Z" transform="translate(-471.584 7.254)" fill="#bc7987"/>
      <path id="Path_730" data-name="Path 730" d="M763.011,131.218c.043.036.09.054.129.09l0,0,.011,0c-.036-.065-.075-.122-.111-.19A.872.872,0,0,1,763.011,131.218Z" transform="translate(-733.182 -84.508)" fill="#bc7987"/>
      <path id="Path_731" data-name="Path 731" d="M762.248,130.913c-.4.068-.9.853-.935,1.341a2.177,2.177,0,0,0,.71,1.412c1.821-.419,4.624,2.176,5.38-1.57A5.91,5.91,0,0,0,762.248,130.913Z" transform="translate(-737.573 -85.386)" fill="#bc7987"/>
      <path id="Path_732" data-name="Path 732" d="M885.141,127.208c1.645.065,4.215.427,3.947-1.706-.423-3.387-2.377-.111-3.649-.186a52.2,52.2,0,0,0-6.37.423C881.36,127.757,883.313,127.136,885.141,127.208Z" transform="translate(-433.227 -102.998)" fill="#bc7987"/>
      <path id="Path_733" data-name="Path 733" d="M874.073,165.854c-2.018-.47-3.043.911-3.857,2.846,1.2-1.122,3.509,1.136,4.337-1.384C874.793,166.581,874.8,166.026,874.073,165.854Z" transform="translate(-456.108 5.028)" fill="#bc7987"/>
      <path id="Path_734" data-name="Path 734" d="M776.791,162.617c1.344,1.394,2.882,1.982,6.111,1.115-1.649-1.208-2.351-2.04-3.215-2.273C778.651,161.176,777.2,160.739,776.791,162.617Z" transform="translate(-697.567 -6.751)" fill="#bc7987"/>
      <path id="Path_735" data-name="Path 735" d="M889.629,129.127c.075.054.14.068.219.126l-.126-.212C889.693,129.08,889.658,129.091,889.629,129.127Z" transform="translate(-405.935 -89.876)" fill="#bc7987"/>
      <path id="Path_736" data-name="Path 736" d="M887.531,129.869a2.611,2.611,0,0,0,.355-.165c-.158-.018-.311-.025-.466-.043Z" transform="translate(-411.644 -88.274)" fill="#bc7987"/>
      <path id="Path_737" data-name="Path 737" d="M887.55,131.8c2.778.33,5.485.412,7.452-2.179C891.69,127.325,889.955,130.777,887.55,131.8Z" transform="translate(-411.308 -90.372)" fill="#bc7987"/>
      <path id="Path_738" data-name="Path 738" d="M767.455,131.709c-.247-.147-.666,0-1.043.068a5.633,5.633,0,0,0,6.649.713,1.736,1.736,0,0,0,.14-1.552C771.108,129.386,769.628,132.971,767.455,131.709Z" transform="translate(-724.392 -85.999)" fill="#bc7987"/>
      <path id="Path_739" data-name="Path 739" d="M795.037,171.7l-.043.014c1.462-.333,3.143.857,4.846-.968C797.779,169.932,795.969,167.706,795.037,171.7Z" transform="translate(-650.521 14.405)" fill="#bc7987"/>
      <path id="Path_740" data-name="Path 740" d="M873.675,161.158c-1.065.47-2.756.215-2.671,1.957.029.52,1.018,1.19,1.7,1.441,1.459.538,2.377-.24,2.8-1.627.276-.914.484-1.85.72-2.774C875.1,159.742,874.513,160.785,873.675,161.158Z" transform="translate(-454.078 -9.708)" fill="#bc7987"/>
      <path id="Path_741" data-name="Path 741" d="M872.458,160.182c.05.018.089,0,.143.025h0c.062-.05.133-.068.194-.115-.1-.021-.2-.018-.305-.043Z" transform="translate(-450.313 -9.736)" fill="#bc7987"/>
      <path id="Path_742" data-name="Path 742" d="M889.951,126.437c-.014.093-.065.122-.079.208.072.022.115-.021.194,0Z" transform="translate(-405.306 -96.607)" fill="#bc7987"/>
      <path id="Path_743" data-name="Path 743" d="M893.625,126.566c-2.531-.67-3.277,2.265-5.2,2.792C890.711,129.455,893.033,129.6,893.625,126.566Z" transform="translate(-409.059 -96.528)" fill="#bc7987"/>
      <path id="Path_744" data-name="Path 744" d="M875.506,163.2c2.481,1.566,4.814,2.448,6.19-1.323C879.23,160.284,877.639,163.112,875.506,163.2Z" transform="translate(-442.436 -6.268)" fill="#bc7987"/>
      <path id="Path_745" data-name="Path 745" d="M894.345,126.394c.043-.358-.692-1.183-1.011-1.154-2.524.229-2.42,2.617-3.352,4.172C891.628,128.663,894.027,129.01,894.345,126.394Z" transform="translate(-405.02 -99.703)" fill="#bc7987"/>
      <path id="Path_746" data-name="Path 746" d="M889.894,126.521l.115.215a3.008,3.008,0,0,0,.2-.333C890.109,126.45,889.987,126.468,889.894,126.521Z" transform="translate(-405.25 -96.694)" fill="#bc7987"/>
      <path id="Path_747" data-name="Path 747" d="M872.066,163.378c.14,0,.287.018.427.011.011.018-.132-.179-.132-.179A3.089,3.089,0,0,0,872.066,163.378Z" transform="translate(-451.327 -1.566)" fill="#bc7987"/>
      <path id="Path_748" data-name="Path 748" d="M870.346,163.955c.029-.05.068-.054.1-.1-.068-.039-.122-.05-.19-.1Z" transform="translate(-456.012 -0.16)" fill="#bc7987"/>
      <path id="Path_749" data-name="Path 749" d="M870.306,165.2c2.8,1.8,4.334-.81,6.308-1.878C874.321,163.314,871.833,162.615,870.306,165.2Z" transform="translate(-455.875 -1.512)" fill="#bc7987"/>
      <path id="Path_750" data-name="Path 750" d="M792.523,170.275c3.176.344,6.015.652,8.857.957l.032-.014C798.574,170.748,795.961,168.436,792.523,170.275Z" transform="translate(-656.907 14.884)" fill="#bc7987"/>
      <path id="Path_751" data-name="Path 751" d="M889.791,129.274a2.41,2.41,0,0,1,.043-.24c-.065,0-.118.011-.183.011Z" transform="translate(-405.878 -89.898)" fill="#bc7987"/>
      <path id="Path_752" data-name="Path 752" d="M889.7,131.2a4.22,4.22,0,0,0,4.37-2.506C891.5,127.635,889.87,128.17,889.7,131.2Z" transform="translate(-405.746 -92.063)" fill="#bc7987"/>
      <path id="Path_753" data-name="Path 753" d="M890.921,128.629c.075.032.132.029.211.061l.007.018c.1-.158.168-.33.265-.487-.133.09-.255.158-.395.262C890.985,128.539,890.946,128.571,890.921,128.629Z" transform="translate(-402.595 -91.998)" fill="#bc7987"/>
      <path id="Path_754" data-name="Path 754" d="M886.9,132.115l.014.054.015-.043c1.9.907,3.8,1.993,6.23-.251-2.441.093-4.337.168-6.233.24Z" transform="translate(-412.993 -82.552)" fill="#bc7987"/>
      <path id="Path_755" data-name="Path 755" d="M765.184,140.677c-.66.219-1.193.394-1.731.57.251.484.38,1.194.774,1.4.717.38,1.72.573,1.979-.563C766.285,141.738,765.6,141.218,765.184,140.677Z" transform="translate(-732.039 -59.803)" fill="#bc7987"/>
      <path id="Path_756" data-name="Path 756" d="M873.826,158.765c.394-.441.556-1.083-.251-1.358-1.552-.534-2.713-.3-2.936,1.563C871.732,159.446,872.851,159.855,873.826,158.765Z" transform="translate(-455.015 -17.212)" fill="#bc7987"/>
      <path id="Path_757" data-name="Path 757" d="M762.694,124.6c-.025.079-.061.1-.086.169a1.685,1.685,0,0,0,.19,0Z" transform="translate(-734.223 -101.344)" fill="#bc7987"/>
      <path id="Path_758" data-name="Path 758" d="M761.331,125.84c1.961,1.452,3.624,2.05,4.577-.785C764.4,125.159,762.561,123.3,761.331,125.84Z" transform="translate(-737.523 -101.626)" fill="#bc7987"/>
      <path id="Path_759" data-name="Path 759" d="M868.381,171.749c1.323-.244,2.642-.491,4.069-.756C869.47,166.279,868.793,168.591,868.381,171.749Z" transform="translate(-460.85 11.621)" fill="#bc7987"/>
      <path id="Path_760" data-name="Path 760" d="M868.32,169.414c.057.039.114.05.176.093l.007.018c.011-.09.025-.169.036-.255l-.158.029C868.363,169.343,868.338,169.371,868.32,169.414Z" transform="translate(-461.008 14.099)" fill="#bc7987"/>
      <path id="Path_761" data-name="Path 761" d="M867.346,170.612a.844.844,0,0,0,.688,1.33,3.053,3.053,0,0,0,3.155-2.143C869.662,168.77,868.3,168.82,867.346,170.612Z" transform="translate(-463.877 13.715)" fill="#bc7987"/>
      <path id="Path_762" data-name="Path 762" d="M789.607,166.3c-.7-.14-1.728-.645-1.95.566-.061.326.674.8,1.2,1.387.71-.158,1.828-.1,2.043-.516C791.47,166.638,790.327,166.441,789.607,166.3Z" transform="translate(-669.493 5.835)" fill="#bc7987"/>
      <path id="Path_763" data-name="Path 763" d="M771.122,151.445c-.412.1-1.312.079-1.452.394-.484,1.086.552,1.391,1.269,1.577.48.125,1.4-.025,1.559-.341C773.1,151.922,771.979,151.846,771.122,151.445Z" transform="translate(-716.291 -31.973)" fill="#bc7987"/>
      <path id="Path_764" data-name="Path 764" d="M775.422,157.555c-.491.652.136,1.129.76,1.312.717.208,1.642.781,2.022-.358.089-.269-.631-.81-1.029-1.287C776.5,157.33,775.673,157.226,775.422,157.555Z" transform="translate(-701.56 -17.042)" fill="#bc7987"/>
      <path id="Path_765" data-name="Path 765" d="M879.99,137.769l.007.064c.007-.029.021-.054.025-.079l.011-.007h-.007Z" transform="translate(-430.847 -67.376)" fill="#bc7987"/>
      <path id="Path_766" data-name="Path 766" d="M879.677,145.166c.95-.936,2.477-1.491,2.151-3.273l.018.018h0c-.015-.018.108.118.108.118l3.692.735c-1.233-.272-2.462-.545-3.7-.832q-.269-2.081-.545-4.162C880.985,140.273,878.738,142.359,879.677,145.166Z" transform="translate(-432.243 -67.314)" fill="#bc7987"/>
      <path id="Path_767" data-name="Path 767" d="M884.322,139.291c-.05-.33-.954-.774-1.455-.76-2.187.064-1.226,1.473-.989,2.556l-.025.032C882.594,140.363,884.62,141.281,884.322,139.291Z" transform="translate(-427.038 -65.35)" fill="#bc7987"/>
      <path id="Path_768" data-name="Path 768" d="M784.779,166.16c1.574.47,3.1.925,4.635,1.384C787.861,166.336,786.435,165.5,784.779,166.16Z" transform="translate(-676.921 5.456)" fill="#bc7987"/>
      <path id="Path_769" data-name="Path 769" d="M791.071,166.557l-.312.678,4.638,1.079.119-.43Q793.29,167.216,791.071,166.557Z" transform="translate(-661.466 7.084)" fill="#bc7987"/>
      <path id="Path_770" data-name="Path 770" d="M887.731,134.495c.23-.29-.089-1.014-.158-1.538q-1.71.731-3.412,1.455C885.329,135.255,886.545,135.993,887.731,134.495Z" transform="translate(-420.067 -79.755)" fill="#bc7987"/>
      <path id="Path_771" data-name="Path 771" d="M872.273,163.382l.129-.118c-.09-.036-.161-.007-.251-.05C872.141,163.2,872.284,163.4,872.273,163.382Z" transform="translate(-451.107 -1.559)" fill="#bc7987"/>
      <path id="Path_772" data-name="Path 772" d="M872.221,164.957c2.412.946,4.008-.989,5.929-1.756C875.544,161.57,873.909,163.369,872.221,164.957Z" transform="translate(-450.926 -3.252)" fill="#bc7987"/>
      <path id="Path_773" data-name="Path 773" d="M873.875,162.781c.072.043.125.029.2.079l-.086-.14C873.95,162.734,873.914,162.763,873.875,162.781Z" transform="translate(-446.651 -2.832)" fill="#bc7987"/>
      <path id="Path_774" data-name="Path 774" d="M885.708,134.729l-.1-.018c-.817-.584-1.588-1.516-2.671-.455a.615.615,0,0,0,.011.584C883.9,136,884.8,135.091,885.708,134.729Z" transform="translate(-423.406 -77.649)" fill="#bc7987"/>
      <path id="Path_775" data-name="Path 775" d="M847.688,177.97c.025-.061.054-.093.079-.151-.057-.025-.108-.029-.165-.057Z" transform="translate(-514.554 36.044)" fill="#bc7987"/>
      <path id="Path_776" data-name="Path 776" d="M849.027,177.733c.014.022-.1-.158-.079-.129-.021.018-.043.025-.065.043Z" transform="translate(-511.241 35.628)" fill="#bc7987"/>
      <path id="Path_777" data-name="Path 777" d="M847.648,178.975a3.854,3.854,0,0,0,4.43-.588C850.419,177.341,848.777,176.387,847.648,178.975Z" transform="translate(-514.435 34.888)" fill="#bc7987"/>
      <path id="Path_778" data-name="Path 778" d="M807.853,173.591c.731.67,1.075,1.23,1.516,1.323.456.1,1.007-.258,1.513-.412-.333-.4-.595-.993-1.021-1.154S808.839,173.444,807.853,173.591Z" transform="translate(-617.286 24.497)" fill="#bc7987"/>
      <path id="Path_779" data-name="Path 779" d="M840.678,180.431c.95.082,1.247-.631,1.549-1.316l-2.068.516C840.331,179.912,840.482,180.414,840.678,180.431Z" transform="translate(-533.791 39.543)" fill="#bc7987"/>
      <path id="Path_780" data-name="Path 780" d="M840.736,179.266l.233-.057-.14-.151Z" transform="translate(-532.299 39.394)" fill="#bc7987"/>
      <path id="Path_781" data-name="Path 781" d="M765.195,127.369c-.982.52-2.319-.717-3.09.627-.072.129.333.72.616.828C764.223,129.387,764.815,128.52,765.195,127.369Z" transform="translate(-735.544 -94.262)" fill="#bc7987"/>
      <path id="Path_782" data-name="Path 782" d="M763.147,127.49c.111.032.222.022.333.043-.136-.093-.276-.154-.412-.265-.032.108-.075.194-.108.3.061-.032.133-.011.193-.061Z" transform="translate(-733.31 -94.459)" fill="#bc7987"/>
      <path id="Path_783" data-name="Path 783" d="M868.836,167.075h-.007l.007,0c-.011-.043-.018-.086-.032-.129l-.014.14h-.018l.014.014Z" transform="translate(-459.842 8.079)" fill="#bc7987"/>
      <path id="Path_784" data-name="Path 784" d="M868.509,166.257l.04.194c-.3.735-1.068,1.8-.824,2.143,1.075,1.491,2.549.28,3.875.258Z" transform="translate(-462.67 6.309)" fill="#bc7987"/>
      <path id="Path_785" data-name="Path 785" d="M785.044,141.978a7.212,7.212,0,0,0-1.649-.7c-.193-.032-.484.548-.731.846a7.6,7.6,0,0,0,1.509.853C784.309,143.025,784.653,142.441,785.044,141.978Z" transform="translate(-682.388 -58.24)" fill="#bc7987"/>
      <path id="Path_786" data-name="Path 786" d="M861.863,171.519a2.991,2.991,0,0,0-.093-.541,9.225,9.225,0,0,0-1.04.079,2.684,2.684,0,0,0,.093.538A8.5,8.5,0,0,0,861.863,171.519Z" transform="translate(-480.625 18.508)" fill="#bc7987"/>
      <path id="Path_787" data-name="Path 787" d="M865.464,170.815c.875.011,1.971.986,2.549-.552C866.815,169.194,866.22,170.331,865.464,170.815Z" transform="translate(-468.389 15.516)" fill="#bc7987"/>
      <path id="Path_788" data-name="Path 788" d="M793.168,173.445c-.115.505-.075,1.405.215,1.57a1.121,1.121,0,0,0,1.792-.746c.082-.466-.369-1.029-.509-1.369C793.727,172.4,793.293,172.89,793.168,173.445Z" transform="translate(-655.394 22.944)" fill="#bc7987"/>
      <path id="Path_789" data-name="Path 789" d="M791.957,173.272c-1.412-1.663-3.531-.577-5.04-1.506l-.018.018C788.612,172.054,789.9,173.76,791.957,173.272Z" transform="translate(-671.442 20.55)" fill="#bc7987"/>
      <path id="Path_790" data-name="Path 790" d="M766.322,131.133c.05-.018.1-.029.147-.047l-.007-.021c.057-.007.122-.025.183-.039-.089-.075-.186-.108-.272-.194A2.653,2.653,0,0,1,766.322,131.133Z" transform="translate(-724.624 -85.248)" fill="#bc7987"/>
      <path id="Path_791" data-name="Path 791" d="M765.612,133.275c1.473-.165,2.477-.81,2.584-2.359C767,131.36,765.422,131.4,765.612,133.275Z" transform="translate(-726.499 -85.031)" fill="#bc7987"/>
      <path id="Path_792" data-name="Path 792" d="M765.638,131.617c-.036.047-.068.068-.1.115.068.032.14.061.211.093-.021-.111.022-.15.015-.251-.046.007-.086.025-.133.029Z" transform="translate(-726.65 -83.33)" fill="#bc7987"/>
      <path id="Path_793" data-name="Path 793" d="M782.783,137.234a6.935,6.935,0,0,0-.2.871c.172.022.481.093.491.057a6.407,6.407,0,0,0,.2-.871C783.1,137.27,782.794,137.2,782.783,137.234Z" transform="translate(-682.6 -68.727)" fill="#bc7987"/>
      <path id="Path_794" data-name="Path 794" d="M873.547,165.478c-.366.118-.892.14-1.014.373a1.089,1.089,0,0,0,.186,1.05c.57.38,1.212.269,1.373-.5C874.146,166.148,873.748,165.8,873.547,165.478Z" transform="translate(-450.277 4.296)" fill="#bc7987"/>
      <path id="Path_795" data-name="Path 795" d="M787.219,141.413c-.151.237.014.674.039,1.025.452-.125.9-.251,1.348-.38l-.423-.918C787.836,141.223,787.352,141.205,787.219,141.413Z" transform="translate(-670.777 -58.604)" fill="#bc7987"/>
      <path id="Path_796" data-name="Path 796" d="M764.287,136.645c-.014.211.473.455.738.685.24-.272.677-.556.659-.81s-.484-.488-.753-.728C764.7,136.075,764.309,136.348,764.287,136.645Z" transform="translate(-729.884 -72.428)" fill="#bc7987"/>
      <path id="Path_797" data-name="Path 797" d="M819.121,185.411c.455,1.312,1.491.713,2.359.681-.678-.566-1.33-1.147-1.982-1.724C819.362,184.719,819.024,185.139,819.121,185.411Z" transform="translate(-588.207 53.117)" fill="#bc7987"/>
      <path id="Path_798" data-name="Path 798" d="M885.368,140.31v0l-.054.039C885.286,140.345,885.368,140.31,885.368,140.31Z" transform="translate(-417.102 -60.762)" fill="#bc7987"/>
      <path id="Path_799" data-name="Path 799" d="M885.414,141.926c.914-.685,1.8-1.373,2.688-2.057C886.539,139.628,884.811,139.155,885.414,141.926Z" transform="translate(-417.147 -62.382)" fill="#bc7987"/>
      <path id="Path_800" data-name="Path 800" d="M882.144,140.189l-.015.014c1.43-.6,2.308-1.48,1.67-3.165l.032-.032C882.367,137.59,881.528,138.5,882.144,140.189Z" transform="translate(-425.807 -69.291)" fill="#bc7987"/>
      <path id="Path_801" data-name="Path 801" d="M885.457,136.98a1.12,1.12,0,0,0-.99-.391c-1.563.477-.642,1.627-.613,2.538C884.539,138.511,885.955,138.418,885.457,136.98Z" transform="translate(-421.624 -70.409)" fill="#bc7987"/>
      <path id="Path_802" data-name="Path 802" d="M882.35,146.714c.208.079.4.122.538,0l-.09-.233Z" transform="translate(-424.747 -44.813)" fill="#bc7987"/>
      <path id="Path_803" data-name="Path 803" d="M882.045,147.283c.362-.194.728-.387,1.093-.581C882.64,146.516,882.067,146.111,882.045,147.283Z" transform="translate(-425.536 -44.802)" fill="#bc7987"/>
      <path id="Path_804" data-name="Path 804" d="M883.442,145.732c-.047.161-.1.319-.158.473.075-.079.151-.154.222-.233l-.007-.029.308-.129C883.685,145.789,883.564,145.757,883.442,145.732Z" transform="translate(-422.333 -46.738)" fill="#bc7987"/>
      <path id="Path_805" data-name="Path 805" d="M884.688,145.606c-.42.179-.839.355-1.258.534.427.093.857.19,1.287.294C884.71,146.158,884.7,145.882,884.688,145.606Z" transform="translate(-421.956 -47.064)" fill="#bc7987"/>
      <path id="Path_806" data-name="Path 806" d="M885.918,144.709l2.216.28.05-.061C887.427,144.852,886.674,144.781,885.918,144.709Z" transform="translate(-415.525 -49.382)" fill="#bc7987"/>
      <path id="Path_807" data-name="Path 807" d="M887.55,129.876l-.115-.215c.007.083-.025.133-.021.211C887.468,129.88,887.5,129.865,887.55,129.876Z" transform="translate(-411.659 -88.274)" fill="#bc7987"/>
      <path id="Path_808" data-name="Path 808" d="M886.933,132.435c1.1-.606,2.251-1.176,2.187-2.671C886.994,129.434,886.413,130.456,886.933,132.435Z" transform="translate(-413.365 -88.166)" fill="#bc7987"/>
      <path id="Path_809" data-name="Path 809" d="M886.467,128.691c.936-.448.664-1.244.581-1.979-.355.577-.706,1.154-1.061,1.731C886.152,128.533,886.37,128.737,886.467,128.691Z" transform="translate(-415.347 -95.896)" fill="#bc7987"/>
      <path id="Path_810" data-name="Path 810" d="M856.2,169.494l-.33.366c.125.108.247.215.452.394Z" transform="translate(-493.172 14.675)" fill="#bc7987"/>
      <path id="Path_811" data-name="Path 811" d="M811.471,173.682l.434-.019-.238-.381Z" transform="translate(-607.936 24.465)" fill="#bc7987"/>
      <path id="Path_812" data-name="Path 812" d="M798.939,169.538l-.115.495.828-.047c-.061-.161-.082-.391-.193-.459C799.33,169.452,799.115,169.527,798.939,169.538Z" transform="translate(-640.622 14.675)" fill="#bc7987"/>
      <path id="Path_813" data-name="Path 813" d="M858.872,168.986l-.111-.143-.394.3C858.535,169.09,858.7,169.04,858.872,168.986Z" transform="translate(-486.732 12.993)" fill="#bc7987"/>
      <path id="Path_814" data-name="Path 814" d="M857.719,170.7q1.166-.882,2.323-1.774A3.008,3.008,0,0,0,857.719,170.7Z" transform="translate(-488.407 13.207)" fill="#bc7987"/>
      <path id="Path_815" data-name="Path 815" d="M857.427,173.6v0l0,0,.419.075-.4-.093Z" transform="translate(-489.161 25.243)" fill="#bc7987"/>
      <path id="Path_816" data-name="Path 816" d="M857.922,175.65c.968-.448.455-1.337.495-2.061-.459.552-.914,1.1-1.373,1.656C857.341,175.392,857.732,175.736,857.922,175.65Z" transform="translate(-490.151 25.259)" fill="#bc7987"/>
      <path id="Path_817" data-name="Path 817" d="M784.776,156.3l.372.181-.018-.395Z" transform="translate(-676.93 -19.976)" fill="#bc7987"/>
      <path id="Path_818" data-name="Path 818" d="M796.924,167.852a5.106,5.106,0,0,0-.613-.789c-.065-.057-.5.126-.495.183a6.949,6.949,0,0,0,.193,1C796.315,168.117,796.62,167.984,796.924,167.852Z" transform="translate(-648.393 8.364)" fill="#bc7987"/>
      <path id="Path_819" data-name="Path 819" d="M803.626,173.517c.068.269.136.541.2.81l.433-.276c-.036-.172-.011-.416-.115-.5S803.805,173.521,803.626,173.517Z" transform="translate(-628.211 25.029)" fill="#bc7987"/>
      <path id="Path_820" data-name="Path 820" d="M764.418,138.565l.268.431.223-.447Z" transform="translate(-729.544 -65.306)" fill="#bc7987"/>
      <path id="Path_821" data-name="Path 821" d="M795.106,167.411l-.5-.031.34.2Z" transform="translate(-651.522 9.21)" fill="#bc7987"/>
      <path id="Path_822" data-name="Path 822" d="M878.078,157.812a1.588,1.588,0,0,1,.057.168l.047-.075c1.254,1.559,2.957,1.495,4.667,1.384q-2.339-.71-4.681-1.416Z" transform="translate(-435.788 -15.517)" fill="#bc7987"/>
      <path id="Path_823" data-name="Path 823" d="M878.688,151.375l4.42,1.624C881.975,151.529,880.236,151.708,878.688,151.375Z" transform="translate(-434.212 -32.154)" fill="#bc7987"/>
      <path id="Path_824" data-name="Path 824" d="M878.742,151.381v0h0l-.133.237.151-.237c.043.011.09.014.133.022l-.118-.043Z" transform="translate(-434.416 -32.185)" fill="#bc7987"/>
      <path id="Path_825" data-name="Path 825" d="M879.921,152.092l.029.025.014-.011h0l.122-.38-.133.376Z" transform="translate(-431.025 -31.247)" fill="#bc7987"/>
      <path id="Path_826" data-name="Path 826" d="M877.473,155.12h.011l.065.158.061-.147c.229.021.459.047.692.068a2.053,2.053,0,0,0-.67-.122Z" transform="translate(-437.352 -22.593)" fill="#bc7987"/>
      <path id="Path_827" data-name="Path 827" d="M881.54,155.482q-1.92-.183-3.836-.373c1.233.312,2.337,1.509,3.76.52Z" transform="translate(-436.755 -22.503)" fill="#bc7987"/>
      <path id="Path_828" data-name="Path 828" d="M846.545,177.724l-.211.168h.018a1.306,1.306,0,0,1,.064.24l.075-.237,1.165.047A2.974,2.974,0,0,0,846.545,177.724Z" transform="translate(-517.831 35.942)" fill="#bc7987"/>
      <path id="Path_829" data-name="Path 829" d="M849.574,177.9q-1.436-.054-2.871-.111C847.653,178.125,848.6,178.573,849.574,177.9Z" transform="translate(-516.878 36.101)" fill="#bc7987"/>
      <path id="Path_830" data-name="Path 830" d="M847.941,177.97l-.086-.208c-.119.118-.233.111-.351.19C847.651,177.959,847.8,177.966,847.941,177.97Z" transform="translate(-514.807 36.044)" fill="#bc7987"/>
      <path id="Path_831" data-name="Path 831" d="M796.923,173.528l.475-.022-.485-.3Z" transform="translate(-645.561 24.277)" fill="#bc7987"/>
      <path id="Path_832" data-name="Path 832" d="M868.528,163.833l.072.061,4.742,1.817.032-.011h0l.133-.215-.158.208Z" transform="translate(-460.47 0.044)" fill="#bc7987"/>
      <path id="Path_833" data-name="Path 833" d="M768.3,127.842c-.154-.208-.309-.416-.523-.713-.291.186-.588.38-.886.574.129.133.265.376.384.369A5.8,5.8,0,0,0,768.3,127.842Z" transform="translate(-723.156 -94.818)" fill="#bc7987"/>
      <path id="Path_834" data-name="Path 834" d="M857.545,173.609l4.481,1.032-.083-.219Q859.744,174.014,857.545,173.609Z" transform="translate(-488.856 25.31)" fill="#bc7987"/>
      <path id="Path_835" data-name="Path 835" d="M765.064,124.658c-.771,0-1.545,0-2.319-.007q1.065.425,2.122.832Z" transform="translate(-733.869 -101.223)" fill="#bc7987"/>
      <path id="Path_836" data-name="Path 836" d="M762.635,124.609c-.01-.014.094.154.094.154h.3C762.9,124.709,762.768,124.662,762.635,124.609Z" transform="translate(-734.154 -101.334)" fill="#bc7987"/>
      <path id="Path_837" data-name="Path 837" d="M877.782,158.846c.086.079.19.1.269.2l-.126-.183C877.875,158.864,877.832,158.843,877.782,158.846Z" transform="translate(-436.553 -12.845)" fill="#bc7987"/>
      <path id="Path_838" data-name="Path 838" d="M876.429,158.424a6.513,6.513,0,0,0,4.85,1.513C879.931,158.675,878.024,159.015,876.429,158.424Z" transform="translate(-440.05 -13.936)" fill="#bc7987"/>
      <path id="Path_839" data-name="Path 839" d="M785.554,137.895l-.032-.029c-.033-.054-.061-.1-.093-.158l-.018.061-.584-.523-.427.821c.323-.039.645-.079.968-.122Z" transform="translate(-677.901 -68.67)" fill="#bc7987"/>
      <path id="Path_840" data-name="Path 840" d="M781.456,137.418l-.374.2.548.146Z" transform="translate(-686.476 -68.227)" fill="#bc7987"/>
      <path id="Path_841" data-name="Path 841" d="M881.291,137.67l2.516.817.014-.014C882.979,138.208,882.133,137.939,881.291,137.67Z" transform="translate(-427.484 -67.575)" fill="#bc7987"/>
      <path id="Path_842" data-name="Path 842" d="M880.562,137.445h0l0,.007.011-.007c.875.28,1.753.556,2.628.835-.867-.283-1.739-.563-2.606-.846Z" transform="translate(-429.386 -68.185)" fill="#bc7987"/>
      <path id="Path_843" data-name="Path 843" d="M885.337,130.17l.022.047,3.412,1.14C887.771,130.539,886.907,129.331,885.337,130.17Z" transform="translate(-417.027 -87.693)" fill="#bc7987"/>
      <path id="Path_844" data-name="Path 844" d="M886.295,130.3a2.105,2.105,0,0,0,1.814.609h.011v0h0Q887.2,130.6,886.295,130.3Z" transform="translate(-414.551 -86.633)" fill="#bc7987"/>
      <path id="Path_845" data-name="Path 845" d="M882.618,139.451c-.48-.1-.961-.194-1.441-.287.469.1.946.212,1.416.319Z" transform="translate(-427.779 -63.713)" fill="#bc7987"/>
      <path id="Path_846" data-name="Path 846" d="M883.467,131.554a5.685,5.685,0,0,0-.158,1.086c.294-.068.581-.14.9-.211l-.2-1.126C883.822,131.382,883.51,131.421,883.467,131.554Z" transform="translate(-422.268 -84.03)" fill="#bc7987"/>
      <path id="Path_847" data-name="Path 847" d="M886.231,130.005c-.409,1.09-.824,2.161-1.24,3.23A3.831,3.831,0,0,0,886.231,130.005Z" transform="translate(-417.922 -87.385)" fill="#bc7987"/>
      <path id="Path_848" data-name="Path 848" d="M885.363,130.033l-.025-.068c0,.05,0,.1,0,.143Z" transform="translate(-417.028 -87.488)" fill="#bc7987"/>
      <path id="Path_849" data-name="Path 849" d="M887.766,127.017l-1.387-.344-.1,0c0,.047.011.09.018.136l.068-.111C886.844,126.813,887.307,126.917,887.766,127.017Z" transform="translate(-414.595 -95.997)" fill="#bc7987"/>
      <path id="Path_850" data-name="Path 850" d="M880.071,155.511c.126-.079.3-.133.352-.247s-.007-.294-.018-.448C880.293,155.045,880.182,155.278,880.071,155.511Z" transform="translate(-430.637 -23.26)" fill="#bc7987"/>
      <path id="Path_851" data-name="Path 851" d="M876.035,152.783c-.086.168-.154.348-.229.52l.53-.545C876.232,152.765,876.06,152.736,876.035,152.783Z" transform="translate(-441.66 -28.586)" fill="#bc7987"/>
      <path id="Path_852" data-name="Path 852" d="M875.918,153.134l0-.021-.237.265.265-.032.007-.014h.007l0-.011c.061-.136.125-.272.183-.412Z" transform="translate(-441.991 -28.192)" fill="#bc7987"/>
      <path id="Path_853" data-name="Path 853" d="M878.227,154.317c.538-.953,1.072-1.918,1.61-2.882-.57.893-1.136,1.785-1.7,2.685Z" transform="translate(-435.644 -31.999)" fill="#bc7987"/>
      <path id="Path_854" data-name="Path 854" d="M881.068,150.9q-.548,1.672-1.1,3.344.6-1.672,1.2-3.341h.09l-.036-.158-.154.143v.007l-.007,0Z" transform="translate(-430.904 -33.769)" fill="#bc7987"/>
      <path id="Path_855" data-name="Path 855" d="M880.938,150.8c-.208,0-.408,0-.609-.011.047.244.1.491.151.735C880.634,151.289,880.784,151.045,880.938,150.8Z" transform="translate(-429.971 -33.655)" fill="#bc7987"/>
      <path id="Path_856" data-name="Path 856" d="M882.491,137.006l-.032.032q2.108.489,4.216.982l.01,0-.01,0,.021-.011h0Q884.59,137.51,882.491,137.006Z" transform="translate(-424.465 -69.291)" fill="#bc7987"/>
      <path id="Path_857" data-name="Path 857" d="M886.3,133.418c.236-.122.47-.244.706-.362l-.728-.24Z" transform="translate(-414.59 -80.12)" fill="#bc7987"/>
      <path id="Path_858" data-name="Path 858" d="M886.483,132.955l.3.1-.1-.2Z" transform="translate(-414.066 -80.019)" fill="#bc7987"/>
      <path id="Path_859" data-name="Path 859" d="M887.685,131.957q-.537,1.554-1.086,3.1C888.208,134.516,888.061,133.283,887.685,131.957Z" transform="translate(-413.766 -82.34)" fill="#bc7987"/>
      <path id="Path_860" data-name="Path 860" d="M886.648,133.141l.111-.319a1.632,1.632,0,0,1-.223.108Z" transform="translate(-413.926 -80.104)" fill="#bc7987"/>
      <path id="Path_861" data-name="Path 861" d="M884.029,141.116l.42.258.108.007-.007,0h0v-.018l-.032,0Z" transform="translate(-420.408 -58.668)" fill="#bc7987"/>
      <path id="Path_862" data-name="Path 862" d="M884.047,141.147l.165.082-.254-.158A.6.6,0,0,0,884.047,141.147Z" transform="translate(-420.591 -58.782)" fill="#bc7987"/>
      <path id="Path_863" data-name="Path 863" d="M879.5,139.848c.018.014.029.043.051.054l.014.032c-.011-.036,0-.065-.011-.1l-.028.025Z" transform="translate(-432.118 -61.982)" fill="#bc7987"/>
      <path id="Path_864" data-name="Path 864" d="M879.036,139.954c.552.211,1.1.423,1.656.631C880.186,140.212,880.072,138.893,879.036,139.954Z" transform="translate(-433.312 -62.718)" fill="#bc7987"/>
      <path id="Path_865" data-name="Path 865" d="M884.178,142.536c1.2-.022,1.735-.7,1.774-1.875C884.916,140.855,884.11,141.274,884.178,142.536Z" transform="translate(-420.033 -59.844)" fill="#bc7987"/>
      <path id="Path_866" data-name="Path 866" d="M884.731,140.657l-.061.007v.007Z" transform="translate(-418.751 -59.855)" fill="#bc7987"/>
      <path id="Path_867" data-name="Path 867" d="M826.02,177.184l-.4.308.337.333c.054-.212.108-.419.162-.631.043,0,.086,0,.132,0l-.093-.147Z" transform="translate(-571.362 34.188)" fill="#bc7987"/>
      <path id="Path_868" data-name="Path 868" d="M825.8,177.1l.384.609C826.54,176.991,826.153,177.067,825.8,177.1Z" transform="translate(-570.907 34.28)" fill="#bc7987"/>
      <path id="Path_869" data-name="Path 869" d="M776.141,156.55l-.427.04.351.25Z" transform="translate(-700.35 -18.779)" fill="#bc7987"/>
      <path id="Path_870" data-name="Path 870" d="M773.837,156.293a2.84,2.84,0,0,0,.3.656c.108-.14.211-.283.319-.423-.061-.168-.122-.333-.179-.5C774.12,156.117,773.826,156.235,773.837,156.293Z" transform="translate(-705.201 -20.138)" fill="#bc7987"/>
      <path id="Path_871" data-name="Path 871" d="M788.48,155.822a.723.723,0,0,0-.172-.359c-.05.244-.1.488-.154.731C788.269,156.072,788.48,155.947,788.48,155.822Z" transform="translate(-668.199 -21.588)" fill="#bc7987"/>
      <path id="Path_872" data-name="Path 872" d="M788.262,155.777l.028-.126c.437.158.875.319,1.308.477-.43-.176-.484-1.276-1.3-.531l-.129.011.014,0C788.215,155.67,788.229,155.72,788.262,155.777Z" transform="translate(-668.152 -21.902)" fill="#bc7987"/>
      <path id="Path_873" data-name="Path 873" d="M840.765,179.485l.129.14c1.118-.244,2.24-.484,3.358-.728l-.251.054C842.926,179.134,841.854,179.316,840.765,179.485Z" transform="translate(-532.225 38.977)" fill="#bc7987"/>
      <path id="Path_874" data-name="Path 874" d="M845.024,178.353c-.05.129.036.312.061.466.129-.09.319-.154.369-.276s-.036-.308-.061-.462C845.264,178.171,845.074,178.235,845.024,178.353Z" transform="translate(-521.256 36.868)" fill="#bc7987"/>
      <path id="Path_875" data-name="Path 875" d="M874.678,162.325c-.233.437-.473.871-.71,1.308.4-.2.806-.394,1.208-.591C875.011,162.805,874.846,162.565,874.678,162.325Z" transform="translate(-446.411 -3.853)" fill="#bc7987"/>
      <path id="Path_876" data-name="Path 876" d="M873.993,162.937l.133-.247-.219.108Z" transform="translate(-446.568 -2.91)" fill="#bc7987"/>
      <path id="Path_877" data-name="Path 877" d="M778.291,137.672a3.7,3.7,0,0,0,.3.7l.315-.423c-.053-.172-.108-.344-.161-.52C778.585,137.514,778.281,137.632,778.291,137.672Z" transform="translate(-693.69 -68.2)" fill="#bc7987"/>
      <path id="Path_878" data-name="Path 878" d="M774.625,135.731l.145-.331-.515-.009Z" transform="translate(-704.121 -73.464)" fill="#bc7987"/>
      <path id="Path_879" data-name="Path 879" d="M765.851,132.744l.338-.293-.38-.157Z" transform="translate(-725.947 -81.466)" fill="#bc7987"/>
      <path id="Path_880" data-name="Path 880" d="M767.669,132.874c.1-.115.2-.229.3-.344l-.484-.319Z" transform="translate(-721.624 -81.684)" fill="#bc7987"/>
      <path id="Path_881" data-name="Path 881" d="M784.592,137.288c.111.19.222.38.341.57.057-.222.115-.448.172-.67Z" transform="translate(-677.405 -68.82)" fill="#bc7987"/>
      <path id="Path_882" data-name="Path 882" d="M877.937,155.765c-.083-.212-.168-.423-.255-.635l-.262.631Z" transform="translate(-437.486 -22.446)" fill="#bc7987"/>
      <path id="Path_883" data-name="Path 883" d="M874.655,154.062l.115.2.09-.122c.179-.2.355-.394.534-.591l-1.033-.029.129.233c-.1-.047-.3.043-.462.072C874.236,153.9,874.447,153.983,874.655,154.062Z" transform="translate(-446.256 -26.6)" fill="#bc7987"/>
      <path id="Path_884" data-name="Path 884" d="M877.949,161.314a2.623,2.623,0,0,0,.925-3.456C878.257,158.956,877.447,159.988,877.949,161.314Z" transform="translate(-436.527 -15.396)" fill="#bc7987"/>
      <path id="Path_885" data-name="Path 885" d="M877.96,159.1a1.693,1.693,0,0,1-.075-.28c-.025.018-.039.043-.068.065C877.835,158.92,877.942,159.077,877.96,159.1Z" transform="translate(-436.463 -12.904)" fill="#bc7987"/>
      <path id="Path_886" data-name="Path 886" d="M857.368,169.375l1.086.3.129-.054c.011-.032.032-.05.043-.082l-.09.072Z" transform="translate(-489.314 14.368)" fill="#bc7987"/>
      <path id="Path_887" data-name="Path 887" d="M861.1,169.722l.508.052-.326-.359Z" transform="translate(-479.665 14.471)" fill="#bc7987"/>
      <path id="Path_888" data-name="Path 888" d="M768,146.3l.39.113-.048-.558Z" transform="translate(-720.278 -46.409)" fill="#bc7987"/>
      <path id="Path_889" data-name="Path 889" d="M867.994,166.263c-.04.043-.079.086-.118.133l.158.043S867.994,166.245,867.994,166.263Z" transform="translate(-462.156 6.321)" fill="#bc7987"/>
      <path id="Path_890" data-name="Path 890" d="M867.68,166.244c.155.842.43.516.7.2Z" transform="translate(-462.662 6.275)" fill="#bc7987"/>
      <path id="Path_891" data-name="Path 891" d="M867.75,165.4c.455-.057.914-.111,1.37-.165-.366-.186-.732-.376-1.1-.574Z" transform="translate(-462.481 2.179)" fill="#bc7987"/>
      <path id="Path_892" data-name="Path 892" d="M868.614,163.919a.638.638,0,0,0-.086-.086c.018.061.021.115.036.176C868.578,163.98,868.6,163.951,868.614,163.919Z" transform="translate(-460.47 0.044)" fill="#bc7987"/>
      <path id="Path_893" data-name="Path 893" d="M868.372,164.878l-.24.029c.118.061.244.129.358.186a2.329,2.329,0,0,1-.025-.308c-.043.022-.057.054-.1.075Z" transform="translate(-461.494 2.505)" fill="#bc7987"/>
      <path id="Path_894" data-name="Path 894" d="M868.247,167.119c1.43-.72,1.477-1.911,1.122-3.237C868.857,164.932,868.05,165.875,868.247,167.119Z" transform="translate(-461.276 0.171)" fill="#bc7987"/>
      <path id="Path_895" data-name="Path 895" d="M761.666,136.223a1.453,1.453,0,0,0,.011.5c.022.054.272.018.419.022a1.509,1.509,0,0,0-.011-.495C762.065,136.194,761.813,136.23,761.666,136.223Z" transform="translate(-736.701 -71.329)" fill="#bc7987"/>
      <path id="Path_896" data-name="Path 896" d="M879.764,158.208l0,.039c-.118.007-.237.011-.359.018l.37.111.165-.14h-.032C879.825,158.237,879.825,158.215,879.764,158.208Z" transform="translate(-432.348 -14.494)" fill="#bc7987"/>
      <path id="Path_897" data-name="Path 897" d="M879.724,158.469l-.036-.362C879.3,158.322,879.366,158.43,879.724,158.469Z" transform="translate(-432.309 -14.755)" fill="#bc7987"/>
      <path id="Path_898" data-name="Path 898" d="M883.758,134.018c-.05.014-.072.047-.126.057,0,0,.1.018.108,0Z" transform="translate(-421.431 -77.013)" fill="#bc7987"/>
      <path id="Path_899" data-name="Path 899" d="M885.234,133.514l.032-.043.168-.072-.079-.05c-1.34.24-1.358,1.419-1.688,2.4C884.765,135.442,884.9,134.414,885.234,133.514Z" transform="translate(-421.341 -78.742)" fill="#bc7987"/>
      <path id="Path_900" data-name="Path 900" d="M885.083,130.949l-.2.29.269-.05,0-.011h.007l0-.011.1-.262c-.051.043-.093.09-.147.129Z" transform="translate(-418.193 -85.056)" fill="#bc7987"/>
      <path id="Path_901" data-name="Path 901" d="M881.984,137.439c-.66.366-1.315.735-1.982,1.1A1.476,1.476,0,0,0,881.984,137.439Z" transform="translate(-430.816 -68.172)" fill="#bc7987"/>
      <path id="Path_902" data-name="Path 902" d="M882.833,146.362a.989.989,0,0,1,.365.014l-.1-.194Z" transform="translate(-423.499 -45.573)" fill="#bc7987"/>
      <path id="Path_903" data-name="Path 903" d="M882.567,146.917c.111-.165.211-.348.319-.52-.136.093-.276.179-.412.276Z" transform="translate(-424.427 -45.02)" fill="#bc7987"/>
      <path id="Path_904" data-name="Path 904" d="M882.589,146.821c.291-.2.584-.394.875-.588A1.021,1.021,0,0,0,882.589,146.821Z" transform="translate(-424.129 -45.443)" fill="#bc7987"/>
      <path id="Path_905" data-name="Path 905" d="M883.982,145.864c-.319.351-.645.7-.968,1.036A1.537,1.537,0,0,0,883.982,145.864Z" transform="translate(-423.031 -46.397)" fill="#bc7987"/>
      <path id="Path_906" data-name="Path 906" d="M883.007,146.454c.093-.1.187-.2.283-.3a1.462,1.462,0,0,1-.383.1Z" transform="translate(-423.308 -45.65)" fill="#bc7987"/>
      <path id="Path_907" data-name="Path 907" d="M884.742,140.674l.021-.029-.093.05Z" transform="translate(-418.751 -59.886)" fill="#bc7987"/>
      <path id="Path_908" data-name="Path 908" d="M884.7,141.525c.71-.391,1.423-.781,2.151-1.169A1.722,1.722,0,0,0,884.7,141.525Z" transform="translate(-418.684 -60.765)" fill="#bc7987"/>
      <path id="Path_909" data-name="Path 909" d="M885.3,140.353c.021,0,.032-.011.05-.007-.029,0,.054-.036.032-.039Z" transform="translate(-417.133 -60.762)" fill="#bc7987"/>
      <path id="Path_910" data-name="Path 910" d="M886.1,139.619l.086.315-.115.09.147.022.132-.24-.01.011A2.081,2.081,0,0,1,886.1,139.619Z" transform="translate(-415.12 -62.537)" fill="#bc7987"/>
      <path id="Path_911" data-name="Path 911" d="M881.82,142.752c.061-.082.032-.09.061-.147.372.057.638-.108.667-.606.011-.19-.419-.4-.649-.606-.1.3-.2.591-.3.885l-.115.254c.108.068.162.014.255.047Z" transform="translate(-426.988 -57.95)" fill="#bc7987"/>
      <path id="Path_912" data-name="Path 912" d="M865.286,170.3h0l-.014.011.018,0a1.025,1.025,0,0,1,.068.215l.079-.262a1.093,1.093,0,0,0,.523-.161.787.787,0,0,0-.491.065Z" transform="translate(-468.886 16.228)" fill="#bc7987"/>
      <path id="Path_913" data-name="Path 913" d="M858.771,175.266l.086.233c.459-.656.918-1.312,1.366-2l0-.039c.072-.05.158-.072.229-.122-.086-.032-.161-.025-.251-.057C859.717,173.915,859.24,174.585,858.771,175.266Z" transform="translate(-485.687 24.452)" fill="#bc7987"/>
      <path id="Path_914" data-name="Path 914" d="M875.5,162.291a2.613,2.613,0,0,0,.029-.265l-.018-.043a1.019,1.019,0,0,0,.111-.018c-.053-.032-.107-.061-.161-.1Z" transform="translate(-442.552 -5.034)" fill="#bc7987"/>
      <path id="Path_915" data-name="Path 915" d="M875.552,162.592c-.018-.2-.036-.4-.054-.606-.014.118-.029.244-.036.355A.73.73,0,0,0,875.552,162.592Z" transform="translate(-442.55 -4.729)" fill="#bc7987"/>
      <path id="Path_916" data-name="Path 916" d="M870.688,158.42c.183-.237.369-.473.556-.706l-.925-.032C870.441,157.926,870.566,158.173,870.688,158.42Z" transform="translate(-455.842 -15.853)" fill="#bc7987"/>
      <path id="Path_917" data-name="Path 917" d="M870.577,157.8l.193.007c0-.047.025-.068.029-.111l-.107-.043Z" transform="translate(-455.175 -15.936)" fill="#bc7987"/>
      <path id="Path_918" data-name="Path 918" d="M868.756,167a1.7,1.7,0,0,0,.086.369c.025-.2.05-.4.075-.6C868.86,166.85,868.753,166.929,868.756,167Z" transform="translate(-459.881 7.648)" fill="#bc7987"/>
      <path id="Path_919" data-name="Path 919" d="M871.215,163.965l-.1-.211c-.4.638-.8,1.287-1.2,1.936C870.352,165.116,870.785,164.546,871.215,163.965Z" transform="translate(-456.878 -0.16)" fill="#bc7987"/>
      <path id="Path_920" data-name="Path 920" d="M841.714,179.191c.072-.1.144-.2.215-.294l-.265.064A1.089,1.089,0,0,0,841.714,179.191Z" transform="translate(-529.901 38.977)" fill="#bc7987"/>
      <path id="Path_921" data-name="Path 921" d="M860.666,162.558c3.52-.172,9.016-.108,12.22-3.975q-1.887-.522-3.778-1.047l-.255-.552c.079.208.155.412.223.656-.681-1.133-.527-4.183-1.57-3.42-4.477,3.269-10.431-1.022-14.446,3.255l-.1-.229v0l-.046.165h0l-.312,1.136h0l-.036.14c-1.71,1.276-3.334,2.265-3.653-1.09-3.857-1.81-7.381-.914-10.739,1.33,1.638.315,3.42.115,4.832,1.255-1.857.67-3.133-1.09-4.811-1.237-5.2-2.6-10.392,1.67-15.5.082-3.523-1.093-4.75.774-5.757,3.4a7.182,7.182,0,0,0,1.548.756C832.564,166.745,846.655,163.25,860.666,162.558Zm3.774-5.413-.179.384-.3-.373Zm-5.28-.129q.1.559.193,1.118c-.3.068-.591.133-.885.2a5.267,5.267,0,0,1,.143-1.075C858.656,157.127,858.971,157.092,859.161,157.016Zm-16.119,2.789s.143.319.158.344c-.015.007-.025,0-.039.007Z" transform="translate(-593.803 -25.113)" fill="#bc7987"/>
      <path id="Path_922" data-name="Path 922" d="M832.687,155.318c-.039.05-.1.068-.14.115l.269.075Z" transform="translate(-553.464 -21.963)" fill="#bc7987"/>
      <path id="Path_923" data-name="Path 923" d="M816.9,156.4l.093.194c.018-.043.036-.072.05-.111C817,156.453,816.949,156.424,816.9,156.4Z" transform="translate(-593.907 -19.169)" fill="#bc7987"/>
      <path id="Path_924" data-name="Path 924" d="M856.487,160.674l.082-.022c9.442-1.814,15.048-7.968,15.21-16.661-4.169,7.753-11.514,10.746-19.41,12.915C852.6,159.4,859.214,154.961,856.487,160.674Z" transform="translate(-502.236 -51.235)" fill="#bc7987"/>
      <path id="Path_925" data-name="Path 925" d="M832.582,155.34l.144.212a1.944,1.944,0,0,0-.021-.251Z" transform="translate(-553.374 -22.007)" fill="#bc7987"/>
      <path id="Path_926" data-name="Path 926" d="M848.538,156.233h0l-.036-.194h0c-.172-.932-.344-1.86-.516-2.792h0l-.032-.161.011.165c-4.61-.509-8.284,4.172-11.793,3.724-5.477-.7-3.283,2.018-3.183,4.05q7.689-2.516,15.4-4.986Z" transform="translate(-553.659 -27.732)" fill="#bc7987"/>
      <path id="Path_927" data-name="Path 927" d="M846.922,150.96c-.083.075-.183.125-.265.2.122.022.233.007.359.032Z" transform="translate(-516.996 -33.226)" fill="#bc7987"/>
      <path id="Path_928" data-name="Path 928" d="M842.032,159.257a3.871,3.871,0,0,0,3.47.111c4.635-2.975,10.112-4.495,14.292-8.234-6.657-1.176-11.252,4.3-17.177,5.538C841.667,156.873,841.14,158.662,842.032,159.257Z" transform="translate(-530.133 -33.2)" fill="#bc7987"/>
      <path id="Path_929" data-name="Path 929" d="M832.857,160.517q-4.85-1.452-9.7-2.9C825.667,162.3,829.434,160.471,832.857,160.517Z" transform="translate(-577.74 -16.011)" fill="#bc7987"/>
      <path id="Path_930" data-name="Path 930" d="M843.207,154.841c-.032,0-.057.011-.09.007.057.032.1.036.161.072Z" transform="translate(-526.146 -23.196)" fill="#bc7987"/>
      <path id="Path_931" data-name="Path 931" d="M850.648,155.415c-4.38-2.574-6.961,1.857-10.445,2.782C844.336,159.853,846.906,155.3,850.648,155.415Z" transform="translate(-533.677 -23.763)" fill="#bc7987"/>
      <path id="Path_932" data-name="Path 932" d="M840.392,155.673c-.09-.036-.172-.036-.262-.075l.075.143C840.27,155.723,840.327,155.691,840.392,155.673Z" transform="translate(-533.866 -21.239)" fill="#bc7987"/>
      <path id="Path_933" data-name="Path 933" d="M817.733,154.425c-.971-.48-1.929-.645-2.717.369a2.218,2.218,0,0,0,.161,3.255c.627.652,1.853.835,1.756,2.083a15.438,15.438,0,0,0,1.434-2.556C818.769,156.472,819.267,155.185,817.733,154.425Z" transform="translate(-600.411 -25.25)" fill="#bc7987"/>
      <path id="Path_934" data-name="Path 934" d="M863.379,139.753c-.419,1.169-2.792,1.9-1.093,3.6.556.555,1.6,1.215,2.176,1.039,1.545-.462.219-2.161.982-3.158a3.874,3.874,0,0,0,.362-1.7C864.92,138.918,863.845,138.456,863.379,139.753Z" transform="translate(-478.169 -64.335)" fill="#bc7987"/>
      <path id="Path_935" data-name="Path 935" d="M862.831,139.179c.032.022.064.036.1.061h0c0-.065.036-.111.043-.179-.05,0-.082.022-.132.014Z" transform="translate(-475.195 -63.98)" fill="#bc7987"/>
      <path id="Path_936" data-name="Path 936" d="M842.141,152.931c-2.075.28-3.71.5-5.341.717.172.932.344,1.86.516,2.792C839.918,156.77,841.381,155.619,842.141,152.931Z" transform="translate(-542.472 -28.132)" fill="#bc7987"/>
      <path id="Path_937" data-name="Path 937" d="M871.294,131.96c-.018.043-.032.09-.047.133.057,0,.089-.007.15,0Z" transform="translate(-453.441 -82.332)" fill="#bc7987"/>
      <path id="Path_938" data-name="Path 938" d="M874.005,132.012c-4.592-.319-3.742,2.979-3.792,5.678C873.152,136.927,873.174,134.2,874.005,132.012Z" transform="translate(-456.198 -82.252)" fill="#bc7987"/>
      <path id="Path_939" data-name="Path 939" d="M870.156,133.624l.122.211c0-.082,0-.172,0-.255C870.234,133.592,870.2,133.613,870.156,133.624Z" transform="translate(-456.263 -78.143)" fill="#bc7987"/>
      <path id="Path_940" data-name="Path 940" d="M844.349,155.967c-2.329-1.082-4.079-.3-5.864,2.366C841.084,158.168,843.589,159.605,844.349,155.967Z" transform="translate(-538.117 -21.501)" fill="#bc7987"/>
      <path id="Path_941" data-name="Path 941" d="M840.153,155.6c-.011.043-.025.064-.032.108.036.018.068.014.108.032Z" transform="translate(-533.889 -21.239)" fill="#bc7987"/>
      <path id="Path_942" data-name="Path 942" d="M830.422,157.694c.043-.061.093-.086.136-.143l-.208-.014Z" transform="translate(-559.14 -16.231)" fill="#bc7987"/>
      <path id="Path_943" data-name="Path 943" d="M830.409,157.98c1.355.122,2.66.229,2.875.251C833.108,158.342,831.728,156.428,830.409,157.98Z" transform="translate(-558.99 -16.66)" fill="#bc7987"/>
      <path id="Path_944" data-name="Path 944" d="M828.1,158.083c0-.065.036-.072.04-.133-.051-.029-.075-.014-.129-.043Z" transform="translate(-565.177 -15.272)" fill="#bc7987"/>
      <path id="Path_945" data-name="Path 945" d="M829.01,157.287l.009,0-.008,0Z" transform="translate(-562.607 -16.891)" fill="#bc7987"/>
      <path id="Path_946" data-name="Path 946" d="M828.051,159.565c2.412,1.244,3.057-.308,3.438-2.283C830.535,158.322,828.133,157.275,828.051,159.565Z" transform="translate(-565.084 -16.887)" fill="#bc7987"/>
      <path id="Path_947" data-name="Path 947" d="M845.165,154.833a1.5,1.5,0,0,0-1.266-.67c-1.093.516-.774,1.513-.634,2.42C843.771,155.815,845.355,156.21,845.165,154.833Z" transform="translate(-526.158 -25.002)" fill="#bc7987"/>
      <path id="Path_948" data-name="Path 948" d="M843.14,154.87a.92.92,0,0,0,.079.1c-.007-.047-.018-.1-.025-.143C843.179,154.845,843.151,154.848,843.14,154.87Z" transform="translate(-526.086 -23.242)" fill="#bc7987"/>
      <path id="Path_949" data-name="Path 949" d="M833.507,156.893l-.021.014-.161.111,0,0-.018.011.018-.011a.693.693,0,0,1,.072.176l.1-.294.018-.014Z" transform="translate(-551.492 -17.903)" fill="#bc7987"/>
      <path id="Path_950" data-name="Path 950" d="M835.627,156.682c-1.219-.6-1.512.713-2.258,1.14l2.348-.043C835.7,157.4,835.8,156.764,835.627,156.682Z" transform="translate(-551.339 -18.836)" fill="#bc7987"/>
      <path id="Path_951" data-name="Path 951" d="M829.546,153.048c.068-.194-.369-.566-.573-.857q-.613.785-1.23,1.57C828.449,153.793,829.213,153.973,829.546,153.048Z" transform="translate(-565.88 -30.045)" fill="#bc7987"/>
      <path id="Path_952" data-name="Path 952" d="M827.653,152.628l.136.251.186-.24A2.433,2.433,0,0,0,827.653,152.628Z" transform="translate(-566.113 -28.922)" fill="#bc7987"/>
      <path id="Path_953" data-name="Path 953" d="M854.475,147.6q-1.462.764-2.932,1.516l.068.022C853.894,151.021,854.263,149.454,854.475,147.6Z" transform="translate(-504.368 -41.908)" fill="#bc7987"/>
      <path id="Path_954" data-name="Path 954" d="M852.375,147.618h.011l-.018-.032-.007.054.014-.011Z" transform="translate(-502.254 -41.947)" fill="#bc7987"/>
      <path id="Path_955" data-name="Path 955" d="M848.427,149.759l-.072-.065.057.072Z" transform="translate(-512.608 -36.498)" fill="#bc7987"/>
      <path id="Path_956" data-name="Path 956" d="M850.941,151.411c.409-.355.251-1.359.319-2.1-.982.466-1.935.957-2.885,1.452C849.124,151.458,849.984,152.243,850.941,151.411Z" transform="translate(-512.556 -37.499)" fill="#bc7987"/>
      <path id="Path_957" data-name="Path 957" d="M831.1,158.674c-2.807.373-1.595,2.169-1.226,3.631A4.287,4.287,0,0,0,831.1,158.674Z" transform="translate(-561.87 -13.289)" fill="#bc7987"/>
      <path id="Path_958" data-name="Path 958" d="M829.81,158.633c.011.054-.018.093-.011.147l.072-.018C829.888,158.794,829.81,158.633,829.81,158.633Z" transform="translate(-560.57 -13.395)" fill="#bc7987"/>
      <path id="Path_959" data-name="Path 959" d="M826.323,158.431c-.15-.011-.308,0-.462,0l.573.168c-.021-.068.011-.093,0-.161-.043-.007-.068,0-.111-.014Z" transform="translate(-570.744 -13.928)" fill="#bc7987"/>
      <path id="Path_960" data-name="Path 960" d="M826.066,160.276c2.315.584,3.38-.068,2.581-2.559C827.471,158.273,825.639,158.2,826.066,160.276Z" transform="translate(-570.379 -15.763)" fill="#bc7987"/>
      <path id="Path_961" data-name="Path 961" d="M826.763,157.828l.025-.011-.057-.143C826.752,157.739,826.742,157.767,826.763,157.828Z" transform="translate(-568.496 -15.874)" fill="#bc7987"/>
      <path id="Path_962" data-name="Path 962" d="M853.4,150.429c.172-.6.344-1.194.516-1.789l-.078.025C853.686,149.253,853.543,149.841,853.4,150.429Z" transform="translate(-499.579 -39.222)" fill="#bc7987"/>
      <path id="Path_963" data-name="Path 963" d="M831.287,158.838c-.122.054-.237.072-.359.118.158.029.316.054.477.086Z" transform="translate(-557.648 -12.866)" fill="#bc7987"/>
      <path id="Path_964" data-name="Path 964" d="M833.714,159.378c-1.29-.244-2.585-.484-3.864-.7A3.468,3.468,0,0,0,833.714,159.378Z" transform="translate(-560.435 -13.287)" fill="#bc7987"/>
      <path id="Path_965" data-name="Path 965" d="M829.806,158.643c-.014-.029.064.133.047.1l.115.021C829.917,158.715,829.86,158.694,829.806,158.643Z" transform="translate(-560.552 -13.377)" fill="#bc7987"/>
      <path id="Path_966" data-name="Path 966" d="M826.78,157.8l.086.014c-.043-.05-.086-.068-.129-.122C826.723,157.652,826.78,157.8,826.78,157.8Z" transform="translate(-568.487 -15.852)" fill="#bc7987"/>
      <path id="Path_967" data-name="Path 967" d="M830.986,158.507c-1.405-.265-2.814-.527-4.215-.789A2.978,2.978,0,0,0,830.986,158.507Z" transform="translate(-568.392 -15.76)" fill="#bc7987"/>
      <path id="Path_968" data-name="Path 968" d="M828.277,158.082l-.09-.176a2.124,2.124,0,0,1-.24.115Z" transform="translate(-565.353 -15.274)" fill="#bc7987"/>
      <path id="Path_969" data-name="Path 969" d="M829.724,155.475c-1.29-.581-2.581-1.093-3.814.082l3.5,1.054Z" transform="translate(-570.618 -23.178)" fill="#bc7987"/>
      <path id="Path_970" data-name="Path 970" d="M826.063,155.09l-.212-.061c.007.064.018.1.025.165l.025.011C825.955,155.147,826.009,155.14,826.063,155.09Z" transform="translate(-570.77 -22.71)" fill="#bc7987"/>
      <path id="Path_971" data-name="Path 971" d="M829.017,157.283h0l-.007,0Z" transform="translate(-562.605 -16.892)" fill="#bc7987"/>
      <path id="Path_972" data-name="Path 972" d="M830.5,157.69l-.068-.154c-.043.029-.075.014-.118.043C830.375,157.629,830.447,157.633,830.5,157.69Z" transform="translate(-559.225 -16.231)" fill="#bc7987"/>
      <path id="Path_973" data-name="Path 973" d="M829.012,157.281c1.512.57,2.842,2.111,4.681.957C832.31,157.087,830.514,157.862,829.012,157.281Z" transform="translate(-562.6 -16.89)" fill="#bc7987"/>
      <path id="Path_974" data-name="Path 974" d="M872.623,130.6c-.219.287-.438.57-.653.857C872.423,131.418,872.982,131.5,872.623,130.6Z" transform="translate(-451.572 -85.855)" fill="#bc7987"/>
      <path id="Path_975" data-name="Path 975" d="M871.993,131.263c.111-.14.219-.283.327-.427-.2.014-.376.05-.448.2-.014.111-.025.226-.036.337.061-.029.1-.068.165-.1Z" transform="translate(-451.921 -85.237)" fill="#bc7987"/>
      <path id="Path_976" data-name="Path 976" d="M871.26,132l.107.133a1.641,1.641,0,0,1-.007-.186C871.317,131.958,871.3,131.987,871.26,132Z" transform="translate(-453.41 -82.374)" fill="#bc7987"/>
      <path id="Path_977" data-name="Path 977" d="M873.285,130.986a3.02,3.02,0,0,0-1.964,3.434C873.07,133.872,873.127,132.395,873.285,130.986Z" transform="translate(-453.37 -84.85)" fill="#bc7987"/>
      <path id="Path_978" data-name="Path 978" d="M859.514,144.6q-.844-.306-1.681-.609l-.04-.022c0,.036-.011.065-.011.1l.039-.065C858.406,144.173,858.485,145.721,859.514,144.6Z" transform="translate(-488.241 -51.305)" fill="#bc7987"/>
      <path id="Path_979" data-name="Path 979" d="M846.73,150.958l.1.24c.032-.108.075-.118.107-.211C846.866,150.976,846.8,150.965,846.73,150.958Z" transform="translate(-516.808 -33.232)" fill="#bc7987"/>
      <path id="Path_980" data-name="Path 980" d="M849.45,151.432c-1-.681-2.018-1.48-2.663.337C847.7,151.894,848.633,152.141,849.45,151.432Z" transform="translate(-516.661 -34.013)" fill="#bc7987"/>
      <path id="Path_981" data-name="Path 981" d="M850.542,148.995c-.036.075-.072.072-.111.136.086.007.172.014.258.025Z" transform="translate(-507.242 -38.305)" fill="#bc7987"/>
      <path id="Path_982" data-name="Path 982" d="M852.16,149.209c-.8-.086-1.6-.165-2.4-.244C850.54,149.442,851.278,150.635,852.16,149.209Z" transform="translate(-508.972 -38.382)" fill="#bc7987"/>
      <path id="Path_983" data-name="Path 983" d="M852.006,148.435c.018-.039.054-.047.075-.086-.025-.007-.04.011-.065,0-.5.767-1,1.534-1.484,2.308C852.07,150.715,852.354,149.812,852.006,148.435Z" transform="translate(-506.979 -39.978)" fill="#bc7987"/>
      <path id="Path_984" data-name="Path 984" d="M850.466,149.011l.133.151.108-.168A1.706,1.706,0,0,1,850.466,149.011Z" transform="translate(-507.152 -38.31)" fill="#bc7987"/>
      <path id="Path_985" data-name="Path 985" d="M848,150.13c.021.068.01.111.029.176.029,0,.039-.018.068-.022Z" transform="translate(-513.528 -35.372)" fill="#bc7987"/>
      <path id="Path_986" data-name="Path 986" d="M847.7,150.844c-.036.007-.061.025-.1.032l.007.014c-.025.025-.053.029-.082.054.068.043.133.09.2.133C847.713,150.995,847.716,150.923,847.7,150.844Z" transform="translate(-514.74 -33.526)" fill="#bc7987"/>
      <path id="Path_987" data-name="Path 987" d="M849.164,150.179c-1.491.208-1.756,1.151-1.538,2.384C848.9,152.24,849.548,151.53,849.164,150.179Z" transform="translate(-514.664 -35.245)" fill="#bc7987"/>
      <path id="Path_988" data-name="Path 988" d="M831.673,158.437c-.19.423-.376.846-.566,1.269.376-.219.753-.437,1.133-.652C832.05,158.849,831.863,158.641,831.673,158.437Z" transform="translate(-557.186 -13.902)" fill="#bc7987"/>
      <path id="Path_989" data-name="Path 989" d="M831.028,158.952l.118.211.165-.373Z" transform="translate(-557.39 -12.987)" fill="#bc7987"/>
      <path id="Path_990" data-name="Path 990" d="M858.842,146.167c.169-.122.2-.186.208-.244l.638.039c-.072-.33-.144-.656-.215-.982-.233.233-.47.47-.706.7l-.161.215.2.011Z" transform="translate(-486.114 -48.682)" fill="#bc7987"/>
      <path id="Path_991" data-name="Path 991" d="M848,150.131l.093.151.1-.133A1.328,1.328,0,0,1,848,150.131Z" transform="translate(-513.526 -35.369)" fill="#bc7987"/>
      <path id="Path_992" data-name="Path 992" d="M849.147,149.738c-.362.484-.728.953-1.094,1.427C849.33,151.426,849.226,150.57,849.147,149.738Z" transform="translate(-513.386 -36.385)" fill="#bc7987"/>
      <path id="Path_993" data-name="Path 993" d="M848.355,149.694l.015.158.05-.065A.69.69,0,0,0,848.355,149.694Z" transform="translate(-512.608 -36.498)" fill="#bc7987"/>
      <path id="Path_994" data-name="Path 994" d="M851.557,148.025l-.021.032c.032,0,.057-.018.093-.014Z" transform="translate(-504.386 -40.812)" fill="#bc7987"/>
      <path id="Path_995" data-name="Path 995" d="M853.012,148.041a1.946,1.946,0,0,0-2.047,1.126A1.528,1.528,0,0,0,853.012,148.041Z" transform="translate(-505.862 -40.796)" fill="#bc7987"/>
      <path id="Path_996" data-name="Path 996" d="M849.558,149.248l-.025.011Z" transform="translate(-509.564 -37.651)" fill="#bc7987"/>
      <path id="Path_997" data-name="Path 997" d="M850.282,148.982l.054,0-.036-.029-.036.022h.011l-.014.014A1.482,1.482,0,0,1,849.54,150,4.2,4.2,0,0,0,850.282,148.982Z" transform="translate(-509.545 -38.403)" fill="#bc7987"/>
      <path id="Path_998" data-name="Path 998" d="M849.32,149.319c-.036-.011-.057,0-.093-.014l-.047-.022v.086l.083-.043C849.284,149.326,849.3,149.315,849.32,149.319Z" transform="translate(-510.476 -37.561)" fill="#bc7987"/>
      <path id="Path_999" data-name="Path 999" d="M849.219,149.4a1.157,1.157,0,0,0,1.125-.15A2.085,2.085,0,0,1,849.219,149.4Z" transform="translate(-510.375 -37.643)" fill="#bc7987"/>
      <path id="Path_1000" data-name="Path 1000" d="M778.258,171.56c1.731,5.567,6.373,8.28,9.155,12.306C787.158,178.073,784.678,173.822,778.258,171.56Z" transform="translate(-693.775 20.015)" fill="#bc7987"/>
      <path id="Path_1001" data-name="Path 1001" d="M782.551,175.655h0l0,0-.387-.125.391.14,0,.007.007,0Z" transform="translate(-683.69 30.265)" fill="#bc7987"/>
      <path id="Path_1002" data-name="Path 1002" d="M786.193,175.567c-1.861.656-2.746,3.631-5.442,2.3q5.635,2.452,11.259,4.907C790.165,179.833,786.5,179.374,786.193,175.567Z" transform="translate(-687.329 30.371)" fill="#bc7987"/>
      <path id="Path_1003" data-name="Path 1003" d="M780.743,176.206l.006.005.026.009Z" transform="translate(-687.352 32.022)" fill="#bc7987"/>
      <path id="Path_1004" data-name="Path 1004" d="M796.624,183.066c-1.839-.366-3.42-.681-5-1l-.018.018C793.269,182.083,794.365,184.485,796.624,183.066Z" transform="translate(-659.269 47.175)" fill="#bc7987"/>
      <path id="Path_1005" data-name="Path 1005" d="M799.123,185.426c.075-.186-.308-.8-.491-.81-.953-.032-1.111.713-1.3,1.4C798.062,186.265,798.764,186.308,799.123,185.426Z" transform="translate(-644.491 53.755)" fill="#bc7987"/>
      <path id="Path_1006" data-name="Path 1006" d="M797.281,185l.115.2c.018-.057.032-.118.05-.179C797.389,185.006,797.338,185.021,797.281,185Z" transform="translate(-644.61 54.748)" fill="#bc7987"/>
      <path id="Path_1007" data-name="Path 1007" d="M781.023,175.276c-.064-.1-.143-.186-.211-.283.007.118.047.219.05.337q2.388.785,4.782,1.574c-1.516-.548-3.036-1.1-4.584-1.635Z" transform="translate(-687.174 28.887)" fill="#bc7987"/>
      <path id="Path_1008" data-name="Path 1008" d="M783.292,174.835l.228-.033-.4-.12Z" transform="translate(-681.208 28.083)" fill="#bc7987"/>
      <path id="Path_1009" data-name="Path 1009" d="M785.79,177.631c.154.047.308.09.463.14l.007.014c.007-.065.021-.093.028-.154l-.115-.018Z" transform="translate(-674.309 35.659)" fill="#bc7987"/>
      <path id="Path_1010" data-name="Path 1010" d="M785.4,177.954l1.384-.064c-.419-.129-.839-.255-1.255-.376Z" transform="translate(-675.306 35.4)" fill="#bc7987"/>
      <path id="Path_1011" data-name="Path 1011" d="M822.482,150.025c-2.326,2-5.556-3.2-7.581,1.255C817.507,151.642,820.274,153.681,822.482,150.025Z" transform="translate(-599.071 -37.22)" fill="#bc7987"/>
      <path id="Path_1012" data-name="Path 1012" d="M815.319,149.963c-.075-.007-.147-.032-.222-.039l0,.007c-.122.011-.24.022-.362.036.154.072.326.093.477.176A1.9,1.9,0,0,1,815.319,149.963Z" transform="translate(-599.489 -35.904)" fill="#bc7987"/>
      <path id="Path_1013" data-name="Path 1013" d="M761.444,156.283l-.037-.013.007.008Z" transform="translate(-737.329 -19.502)" fill="#bc7987"/>
      <path id="Path_1014" data-name="Path 1014" d="M763.476,160.436c.014.129.028.258.043.384l.154-.1C763.591,160.633,763.555,160.526,763.476,160.436Z" transform="translate(-731.98 -8.735)" fill="#bc7987"/>
      <path id="Path_1015" data-name="Path 1015" d="M762.146,156.509c.649,5.015,1.187,10.065,4.768,14.076C766.3,165.56,766.261,160.337,762.146,156.509Z" transform="translate(-735.417 -18.885)" fill="#bc7987"/>
      <path id="Path_1016" data-name="Path 1016" d="M763.488,160.615a1.782,1.782,0,0,1,.2.054c-.007-.054-.036-.1-.04-.154Z" transform="translate(-731.949 -8.531)" fill="#bc7987"/>
      <path id="Path_1017" data-name="Path 1017" d="M762.169,156.407l-.079.122-.007,0c.086.079.143.165.226.24l-.044-.326C762.226,156.436,762.208,156.418,762.169,156.407Z" transform="translate(-735.58 -19.148)" fill="#bc7987"/>
      <path id="Path_1018" data-name="Path 1018" d="M762.3,155.2c-.591,1.674-1.6,3.456,1.072,4.312C764.631,157.681,765.352,155.978,762.3,155.2Z" transform="translate(-736.787 -22.258)" fill="#bc7987"/>
      <path id="Path_1019" data-name="Path 1019" d="M761.323,159.563c.459-1.165.878-2.222,1.294-3.28C761.788,157.161,760.2,157.7,761.323,159.563Z" transform="translate(-738.547 -19.469)" fill="#bc7987"/>
      <path id="Path_1020" data-name="Path 1020" d="M761.44,156.278l-.021-.006-.016.037Z" transform="translate(-737.335 -19.496)" fill="#bc7987"/>
      <path id="Path_1021" data-name="Path 1021" d="M761.773,155.144l.018.183c.043.011.068.025.108.032l.046-.129Z" transform="translate(-736.381 -22.413)" fill="#bc7987"/>
      <path id="Path_1022" data-name="Path 1022" d="M761.574,155.435l.713.355c-.032-.3-.064-.6-.1-.9Z" transform="translate(-736.895 -23.059)" fill="#bc7987"/>
    </g>
  </g>
</svg>
