<svg xmlns="http://www.w3.org/2000/svg" width="370.964" height="316.843" viewBox="0 0 370.964 316.843">
  <g id="Group_37" data-name="Group 37" transform="translate(-730.088 363.181) rotate(-26)">
    <g id="Group_36" data-name="Group 36" transform="translate(754.689 118.115)">
      <path id="Path_711" data-name="Path 711" d="M827.831,152.629a4.646,4.646,0,0,0-.473,0c.182.037.369.069.536.117Z" transform="translate(-662.841 -63.896)"/>
      <path id="Path_712" data-name="Path 712" d="M1055.9,200.6c-.948-.632-1.19.9-2.719.961,4.545-10.369,6.161-21.221,9.455-31.451a116.592,116.592,0,0,0,3.785-12.669c1.421-7.081,2.126-14.345,3.55-21.424,1.305-6.493,1.12-5.737-3.916-9.757-10.115-8.076-21.1-5.717-31.979-4.537-2.095.229-2.676.519-3.764-1.748-1.335-2.786-5.036-2.326-5.513.568-1.341,8.128-6.326,14.222-8.862,21.64-1.109,3.244-3.38,5.033-5.626,7.092-4.817,4.413-9.991,8.382-13.9,13.983-3.375,4.825-6.179,10.3-10.825,13.759-1.909,1.421-2.305,4.21-4.665,5.226a111.568,111.568,0,0,0-12.918,6.773c-3.416,2.036-6.631,4.85-10.663,6.069-5.009,1.511-10.208,2.308-15.054,4.28-5.142,2.092-10.228.352-15.314.666-1.645.1-3.735-1.481-5.7-1.108a15.185,15.185,0,0,1-10.362-1.768,5.876,5.876,0,0,0-6.131.044,2.573,2.573,0,0,1-3.846-1.092c-2.122-4.637-5.586-4.418-9.162-3.457a4.559,4.559,0,0,1-5.251-1.861c-.8-1.059-1.624-2.213-2.753-2.45-6.721-1.4-11.69-7.03-17.965-9.472a17.068,17.068,0,0,1-2.923-2c-5.672-3.725-10.386-9.2-17-11.31a9.105,9.105,0,0,1-6.326-7.1c-.787-4.994-3.036-8.955-5.493-12.991-3.047-5-6.382-9.773-6.773-16.435-.351-5.953-4.133-9.037-9.2-7.721-6.694,1.735-13.479,1.062-20.2,1.673-9.645.879-19.368.555-29.047,1.044-9.208.465-13.685,7.626-14.043,16.993-.192,5.128-.027,10.415-.011,15.615.034,10.318,1.258,20.53,2.2,30.716.638,6.883,2.328,13.775,3.593,20.65,1.434,7.8,2.5,15.949,5.871,22.858,4.794,9.811,9.389,19.7,16.4,28.212,6.753,8.21,14.567,14.705,21.886,21.974,7.07,7.025,16.074,10.359,24.413,14.841,6.269,3.37,13.545,3.773,19.911,6.6,9.794,4.352,20.2,4.346,30.18,7.107,4.688,1.3,9.959.542,14.751,2.141,3.3,1.1,6.678-.643,9.83.923,5.927,2.941,12.237,3.866,18.561,3.874,9,.01,17.144-4.693,25.551-7.5,6.907-2.3,13.257-6.955,20.228-9.649,2.269-.876,4.165-2.707,6.593-3.645,6.4-2.468,12.749-5.305,18.086-10.266.979-.91,1.557-2.046,3.011-2.619,7.572-2.971,12.307-10.975,19.553-14.633.3-.152.38-.8.654-1.123,2.231-2.588,4.486-5.154,6.731-7.729,3.319-3.809,7.1-7.238,9.839-11.526a109.09,109.09,0,0,0,9.685-17.746c3.835-9.585,9.764-17.684,13.422-27.267C1055.952,202.213,1057.12,201.421,1055.9,200.6Zm-45.75-35.633c0,.121-.011.242-.018.365l-.256.018a1.168,1.168,0,0,1,.03-.36C1009.915,164.952,1010.06,164.976,1010.146,164.97ZM873.314,188.78c3.864.9,8.859.715,11.045,4.089,3.041,4.691,5.993,3.67,9.719,2.915,1.968-.4,3.918-.288,4.728,3.174.527,2.262,3.045,3.56,5.6,2.115a7.39,7.39,0,0,1,9.307,1.817c1.509,1.828,1.33,3.226-.038,4.758q-1.853-.682-3.708-1.362c-.03-.357-.057-.715-.084-1.072l-.69.815c-6.574-1.049-13.115-2.267-19.807-2.226-1.568.01-4.912.725-4.744-2.2.163-2.845,3.127-1.46,4.941-1.583.321-.023.64-.074.959-.118-1.64-.83-3.629-.614-5.045-1.483-4.12-2.519-8.692-2.6-13-4.01a3.6,3.6,0,0,1-2.52-4.115C870.312,188.386,872.051,188.484,873.314,188.78Zm36.505,17.594-.4.38c-.05-.193-.1-.383-.151-.573Zm-28.5-6.606c0,.077-.217.136-.33.2a4.8,4.8,0,0,1-.05-.81c.007-.085.215-.147.33-.221A5.143,5.143,0,0,1,881.316,199.768Zm-50.263-53.926c1.566,5.269,4.758,9.6,6.244,14.988,1.457,5.272,5.749,7.678,10.133,9,5.321,1.6,9.246,5.341,13.094,9.436,1.878,2,4.421,2.663,6.724,3.786.695.339,1.733.416,1.5,1.655-.244,1.3-1.265.925-1.952.694-4.059-1.373-8.3-2.216-11.76-5.344A17.512,17.512,0,0,0,852,177.941c-.806-.465-1.767-1.018-2.516.085-.71,1.049.378,1.884.437,2.617.441,5.6,3.937,4.771,7.271,5.3,2.952.473,5.744,2.218,8.611,3.4,1.52.625.9,2.013.131,2.1-2.2.254-3.418,3.084-5.884,2.452,2.265,1.337,4.817,1.442,6.525,4.023.647.979,3.167,3.126,3.792-1.08.208-1.416,1.977-1.19,3.174-.843.767.221,1.692.476,1.767,1.547.158,2.308,3.952.722,3.12,3.624-.717,2.5-2.889-.434-4.215.979-.654.7-2.568.442-1.79,2.113a3.006,3.006,0,0,0,3.95,1.28c2.993-1.1,2.755-.812,5.244,1.131a11.036,11.036,0,0,0,6.009,1.779c8.681.53,17.413,2.342,26.015-.74-.016.018-.023.036-.038.054,1.833-.265,3.618-1,5.5-.946-.663-.157-1.269-.4-1.129-1.519a1.412,1.412,0,0,1,1.835-1.249c1.885.427,4.251-3.575,5.873,1.45.633,1.961,4.029-.365,6.115-.887,1.69-.422,3.138-2.172,4.638.653.9,1.689,2.887.147,3.554-.375,3.674-2.876,8.076-1.766,11.771-3.218,3.547-1.4,8.355.584,10.846-4.763.74-1.589,3.362-2.378,5.253-2.835a8.032,8.032,0,0,0,3.968-1.727c3.045-3.118,6.436-5.118,10.533-5.488,1.575-.141,2.032-1.7,2.948-2.74,4.934-5.606,10.081-10.778,13.835-17.813,2.289-4.287,6.495-7.806,10.968-10.153-1.971,4.38-5.052,7.773-7.991,11.2-1.219,1.421-2.475,2.55-2.674,4.6,1.256.09.966-2.714,2.613-1.864,1.663.858-.412,2.059.29,3.208,2.305-1.128,3.5-3.784,6.2-6.3-.373,4.331-3.195,5.938-3.939,8.719-.256.959-.914,1.853-.76,2.923a2.15,2.15,0,0,0,.876,1.357c.534.324,1.05-.108,1.169-.769,1.5-8.171,7.8-13.417,9.986-21.162-1.577-.005-1.792,3.244-3.941,2.025a9.929,9.929,0,0,1,1.767-6.634c4.412-6.886,8.923-13.692,11.33-21.923.172-.581.315-1.671,1.256-1.244,1.4.637.842,1.879.665,3.077a94.72,94.72,0,0,1-9.807,30.791,147.029,147.029,0,0,1-14.64,22.558c-3,3.825-5.577,8.022-9.328,11.009-1.758,1.4-4.543,1.794-3.661,5.652.158.7-1.341,2.246-2.335,2.853a27.423,27.423,0,0,0-7.817,6.336c-1.5,1.923-3.939,1.157-5.909,1.887-4.143,1.537-7.264,5.426-11.9,5.863-2.6.244-5.213.072-7.826.4-2.661.332-5.319.452-7.33,2.3-3.74,3.429-7.93,1.7-11.71,1.3s-7.246,1.136-10.889.717l.034-.018c.016-.005.034-.015.02-.005l0-.005.025-.013-.025.005-.007-.023-.013.028a16.952,16.952,0,0,1-12.407-1.3c-4.547-2.159-9.8-.933-14.325-3.768a3.107,3.107,0,0,1-1.66-3.331c-1.222-1.054-2.346-2.4-4.136-1.691l.059-.015c0-.026-.011-.036-.009-.062l-.029.054a57.714,57.714,0,0,0-11.911-2.126c-2.907-.242-5.038-3.136-7.362-5.038-4.767-3.9-10.744-5.8-14.549-11.233-5.217-7.449-11.3-14-16.472-21.56-5.24-7.644-8.025-16.492-12.208-24.591-1.428-2.761.4-5.493-2.038-8.431C829.284,142.983,830.53,144.081,831.053,145.842ZM781.17,249.729c-2.129-4-4.28-8.025-6.022-12.253-2.1-5.1-4.631-10.078-4.986-15.9-.066-1.046-.921-.8-1.292-1.19-1.337-1.388-3.131-2.761-1.866-5.344q1.442.575,2.882,1.144c-1.333-1.211-.224-3.74-1.943-4.742.125-2.336,2.052-4.922-.679-6.865.441-1.547,1-3.087.312-4.74-.43,1.527-1.075,3.036-.41,4.665-.875,2.462.756,4.58.751,6.922l-.03-.023-.9,3.378c-2.378-7.133-3.238-14.643-4.654-22.036-1.642-8.572-1.163-17.335-3-25.794a9,9,0,0,1,.38-4.208c5.192,8.287,7.115,18.255,11.4,27.585-4.921-.429-3.9-5.148-5.875-8.135-.022,6.462,1.315,12.124,2.41,17.828.647-.087-.618-3.4,1.557-1.1,1.5,1.586,1.64,3.814,1.959,5.6,1.312,7.315,3.887,14.068,6.382,20.869a6.3,6.3,0,0,1,.219,3.5c2.977,4.074,4.036,8.922,4.409,14.044-2.106-.051-1.26-2.609-2.249-3.609.29-1.187.394-2.254-1.113-2.318a1.044,1.044,0,0,0-.514-1.077c.31-1.293.278-2.465-.918-3.228l0,.013c-.161-.334-.319-.671-.48-1.005.131-.848.265-1.7.394-2.545-.849-.663-1.45-1.758-2.568-1.951.167,1.792,1.3,2.995,2.093,4.408a.933.933,0,0,0,.536,1.159c-.591,1.393-.83,2.66.919,3.231.156.326.31.655.466.982-.38,1.262-.321,2.249,1.095,2.39-.337,4.627,2.681,7.457,4.554,10.9C783.432,251.777,782.231,251.721,781.17,249.729Zm1.31-26.49c.79,1.427,1.265,3.01,2.086,4.382-.579,2.794.751,4.416,2.672,5.67-.262.763-.484,1.519.337,2.049a.942.942,0,0,0,.559,1.128,10.463,10.463,0,0,0,2.948,7.606h0c-1.183,1.583,1.032,2.2.69,4.151-4.862-4.046-7.491-9.485-9.452-15.325-3.767-11.207-7.359-22.493-10.9-33.8a37.247,37.247,0,0,1-.839-6.22c1.71-.619,2.767,1.241,2.9,2.157.52,3.48,2.251,6.2,3.482,9.248.91,2.257,1.751,4.532,2.86,6.706.952,1.869,2.186,3.619.86,6.231C779.543,219.475,781.529,221.526,782.48,223.238Zm2.493,22.511c.1-.319.163-.725.613-.445.077.049.014.388-.016.653Zm1.708,2.475a1.638,1.638,0,0,1-1.009-2.1C786.742,246.372,786.812,247.238,786.681,248.225ZM784.7,245.8c-.224.185-.382.128-.482-.162Zm-.69-.36c-.656-.09-1.254-.249-1.168-1.241C783.482,244.32,784.113,244.446,784.011,245.444Zm-1.308-1.635c-.093-.193-.186-.386-.276-.578A.83.83,0,0,1,782.7,243.809Zm1.939,6.544q1.018-.975,2.032-1.951c.864.437,2,1.4,1.516,2.139C787.138,252.16,785.86,250.734,784.642,250.353Zm1.914,5.46c-.5-.093-1.07-.319-.812-1.074a1.063,1.063,0,0,1,.882-.6c.246.033.439.568.561.743C787.233,255.617,786.973,255.887,786.557,255.813Zm1.43,3.074a1.11,1.11,0,0,1-.106-1.563,1.078,1.078,0,0,1,.921-.167,12.149,12.149,0,0,1,.4,1.851C788.674,258.966,788.24,259.08,787.986,258.887Zm5.479-13.942c.79.488.53,1.188.3,1.879C793,246.341,793.144,245.662,793.466,244.945Zm9.43,11.649c.066.948.783,1.136,1.348,1.5.6,1.4.826,3.115,2.4,3.706a7.625,7.625,0,0,0,2.326,3.611c-.968,1.766-2,.576-2.923-.072-6.153-4.321-9.556-11.009-12.176-18.358C798.832,247.8,800.524,252.615,802.9,256.594Zm5.1,20.573c-6.418-4.93-13.242-9.382-16.472-19.44l17.16,18.468C808.454,276.52,808.223,276.843,807.995,277.167Zm4.59,3.627c-.344-.092-.8-.2-.964-.486-.441-.758.3-.576.493-.537a3.675,3.675,0,0,1,1,.563C812.872,280.552,812.7,280.825,812.585,280.794Zm.6-6.084a10.81,10.81,0,0,1,5.459,3.637C815.976,278.6,814.094,278.622,813.187,274.71Zm.631,6.889c2.2-.838,3.068.422,4.59,1.617C816.211,283.822,815.255,282.812,813.818,281.6Zm6.706,3.537c-.134.309-.507.486-.706.661a.958.958,0,0,1-.57-1.439,1.006,1.006,0,0,1,.833-.55C820.75,283.935,820.759,284.591,820.523,285.135Zm.029-4.686c3.468-.059,5.509,2.131,7.771,3.691C825.256,284.624,822.5,284.272,820.553,280.45Zm19.735,14c-2.007,1.887-3.486.218-5.559-1.036a11.145,11.145,0,0,1,.934-.625c1.817-.779,3.559-.83,5.074.789A1.788,1.788,0,0,1,840.288,294.451Zm-7.344-3.311c-.878-.031-2.038-.411-1.787-1.84.242-1.385,1.364-1.211,2.273-1.01,3.215.709,6.416,1.475,9.624,2.218-.052.368-.106.732-.158,1.1C839.568,290.819,836.258,291.258,832.944,291.14Zm17.812,4.791a1.337,1.337,0,0,1,.486-1.054c1.86-.714,2.744.653,4.344,2.576C853.208,297.561,851.744,297.635,850.756,295.931Zm6.911-7.526c-.744.057-1.875.368-1.543,1.984.28,1.349.959,3.47-.842,3.619-2.17.182-4.83-.339-6.163-2.288-1.025-1.5,1.24-.835,1.841-1.6-3.385-1.488-7.111-1.442-10.477-3.2a3.7,3.7,0,0,1-2.271-4.408l.014-.013c-4.165-.465-7.473-3.023-10.86-5.524-1.968-1.45-3.658-3.1-6.583-3.216-2.869-.113-6.692-1.455-7.154-6.331l-4.561-2.079c.335-2.151-1.143-2.8-2.373-3.645.622-2.447-1.453-2.653-2.491-3.717l.018.049L803,256.692c.552-.876-.762-2.655.81-2.85,2.672-.337.783-.925.1-1.306-3.608-2-5.384-5.827-7.391-9.428-.007-1.059-.719-1.283-1.421-1.524.027.987.708,1.2,1.312,1.506-.262,2.036-1.966,1.149-2.93,1.763-.783-.141-1.378-1.033-2.258-.792.952-3.514-1.771-5.177-3.018-7.583a1.051,1.051,0,0,0-.52-1.182c.256-.774.557-1.555-.362-2.072-.473-2.126-.446-4.565-2.665-5.616,1.507-3.65-2.8-5.873-1.634-10.389,2.12,4.418,3.88,8.23,5.776,11.952.608,1.193.195,3.205,2.009,3.5.165,2.7.991,4.9,3.459,5.855a2.119,2.119,0,0,0,.375,2.092c.093-.779.269-1.573-.357-2.2l-2.559-5.467c3.984.547,5.5,4.706,7.7,7.505a70.451,70.451,0,0,0,16.3,14.97c2.57,1.73,5.011,3.4,5.914,7.009.314,1.259,1.694,1.758,2.794,2.321,1.814.933,3.572,2.01,5.38,2.961a1.752,1.752,0,0,1,.776,2.252c-.389,1.367-1.217.517-1.921.337-1.2-.306-2.9-2.907-3.305.753,8.945,1.365,17.022,5.583,25.022,9.978,2.907,1.6,5.2,4.526,8.513,5.326C858.868,287.3,859.09,288.3,857.667,288.4Zm-66.729-55.852c.208-.265.414-.527.622-.789-.02.326-.043.655-.063.984Zm66.376,63.678,4.835,1.64C859.081,299.6,859.081,299.6,857.314,296.232Zm1.16-4.349c.158-.2.314-.558.477-.56.186-.005.375.306.563.478-.158.2-.314.555-.477.56C858.853,292.366,858.663,292.055,858.475,291.883Zm2.131,1.635a1.4,1.4,0,0,1,.1-1.175c1.833-1.1,2.86,1.118,4.416,1.5C863.42,295.252,861.92,294.921,860.606,293.517Zm12.468-.722c-4.208-3.868-9.559-3.974-14.077-6.531.333-2.3-1.681-2.167-2.448-3.863,11.316,3.838,22.635,7.673,34.141,11.572-4.337,1.342-8.728-.108-12.952.956C875.8,295.42,873.9,293.551,873.074,292.8Zm17.192,5.645c-1.615.815-2.552.514-3.57-.925C887.971,296.954,888.935,297.029,890.266,298.44Zm-13.88,5.025a4.674,4.674,0,0,1-1.014-.91c.226-.09.475-.3.672-.247a13.267,13.267,0,0,1,1.726.756C876.972,303.313,876.612,303.57,876.386,303.465Zm4.595.691c-.262-.242-.441-.4-.622-.568a3.088,3.088,0,0,1,.953-.383c.188-.01.394.308.59.481Zm13.07,1.267c-3-1.285-5.97,1.267-7.884.37-1.828-.666-2.708-.938-2.486-2.136.086-.478.654-1.249.934-1.213,3.122.4,6.292-.846,9.38.332.636.242,1.267.563,1.1,1.555C894.992,305,894.539,305.634,894.051,305.423Zm7.588-7.68c-1.923-.17-3.939.273-6.018-1.211,2.054-1.242,4.02.37,5.676-1.206.586-.558,1.547-.046,1.581,1.172C902.9,297.409,902.448,297.815,901.638,297.743Zm7.914,2.218c-.405.041-.69-.344-.231-.753a8.995,8.995,0,0,1,1.206-.792c.056.239.113.478.224.941A3.786,3.786,0,0,1,909.552,299.961Zm7.972,13.536c-.574-.141-1.4-.2-1.115-1.339.339-1.373,1.222-1.326,2.195-1.11.665.149,1.323.257,1.168,1.306C919.394,313.71,918.464,313.723,917.525,313.5Zm-6.481-9.7c-.249.09-.973-.594-1.054-1.02a.9.9,0,0,1,1-1.057c4.3.442,8.629-2.75,13.146.177C919.873,304.729,915.226,302.259,911.043,303.8Zm26.067-14.155c4.052-.936,7.527-1.57,10.909-2.6,1.333-.409,3.274.576,4.007-1.66,2.437,1.113,4.212-.995,6.276-1.7-.018.018-.034.041-.054.059,1.43.013,2.955.673,4.188-.7a1.113,1.113,0,0,1,2,.17c.557,1.026-.219,1.648-.964,2.033-2.192,1.141-4.353,3.007-6.613,3.187-5.138.409-10.133,1.648-15.208,2.378A6.022,6.022,0,0,1,937.11,289.646Zm22.076,3.138c-.115.059-.229.116-.342.175a4.815,4.815,0,0,1-.023-.786c.007-.075.21-.121.324-.18Zm11.382-1c-2.645,2.789-6.185,3.046-9.393,4.118a64.81,64.81,0,0,1-13.047,2.869c7.269-3.123,14.393-6.706,22.278-7.362q.543-.9,1.088-1.8.234-1,.468-2l.023.005q-.237,1.006-.47,2.01c.606.023.946.355.792,1.056A1.292,1.292,0,0,1,970.568,291.785Zm2.771-3.205c-.749.254-1.12-.239-1.337-.961q.852.2,1.7.416C973.584,288.222,973.493,288.528,973.34,288.58Zm21.818-10.251c-5.54,4.442-11.416,8.13-18.423,8.618a6.858,6.858,0,0,1,3.93-2.632c2.14-.483,4.337-.733,5.432-4.411.993-3.344,5.115-4.03,8.262-4.444C995.907,275.26,996.294,277.419,995.158,278.329Zm6.823-7.994a4.384,4.384,0,0,1-.181-.689c-.007-.057.249-.229.283-.2a4.76,4.76,0,0,1,.446.532C1002.345,270.1,1002.162,270.217,1001.981,270.335Zm4.278-9.251c-.326.661-.649,1.319-.973,1.979l0-.01C1005.318,262.187,1005.214,261.218,1006.259,261.084Zm-3.69,11.52.1-.275.181.247Zm3.885-11.7c.12-.609.233-1.224.344-1.838.376.092.751.185,1.127.275C1008.13,260.709,1007.379,260.912,1006.454,260.907Zm1.588-1.6c.475-.319.554-1.267,1.328-1.108C1009.307,259.169,1009.008,259.771,1008.042,259.3Zm1.441-1.216c.082-.17.163-.342.244-.512.086.165.172.332.26.5Zm1.6,4.573-.76-1.018c3.762-3.228,7.807-6.117,11.205-9.783,3.425-3.691,5.791-8.647,10.461-10.844C1025.965,249.448,1020.75,258.928,1011.081,262.66Zm4.633-9.189q.309-1.176.62-2.352C1016.694,252.1,1017.146,253.1,1015.714,253.471Zm-2.737,1.193.52.17-.217.617C1013.18,255.188,1013.078,254.926,1012.977,254.664Zm.771.09a1.533,1.533,0,0,1,1.769-1.087C1015.187,254.607,1014.673,255.139,1013.748,254.754Zm5.117-4.2.061-.226.213.2Zm2.921-3.642a3.453,3.453,0,0,1,.968-.167c.016.28.034.563.061,1.018a3.036,3.036,0,0,1-.98-.082A1.265,1.265,0,0,1,1021.786,246.909Zm8.475-10.857c.754.249,1.81-.655,2.233.661a1.247,1.247,0,0,1-.534,1.008C1030.854,237.9,1030.707,236.782,1030.261,236.052Zm26.157-54.723a9.428,9.428,0,0,1-3.409,5.3l-.034.044c2.36.134,1.43,1.789,1.041,3.061-2.923,9.534-6.846,18.581-10.516,27.752-1.283,3.205-1.9,7.058-4.952,8.765-2.117,1.185-4.52,1.72-6.443,3.429,2.52.743,2.968,2.11.473,3.7a12.719,12.719,0,0,0-2.618,2.486l.027.018c-4.776,2.393-7.027,7.853-10.825,11.412a32.165,32.165,0,0,0-2.9,3.619l.007.015c-1.989.121-2.844,1.666-3.43,3.547-3.118-.432-4.174,2.773-6.079,4.48-4.088.625-6.957,4.318-9.62,6.883-5.873,5.657-12.547,8.338-19.522,10.952a140.539,140.539,0,0,1-17.321,5.074c-.715.17-1.294,1.092-1.921,1.743-2.493-1.378-4.407.069-6.3,1.622-4.455.576-8.979.522-13.339,1.93-6.588,2.126-13.423,1.542-20.128,2.357-4.88.591-9.789.869-14.689,1.257-.792.064-1.615.013-1.937-1.092l.05-.046c-.036,0-.072.01-.109.01l.011.013c-5.208,1.7-9.941-1.306-14.574-2.781-3.984-1.267-8.065-2.4-12.072-3.624-10.04-3.061-19.624-7.608-29.074-12.256a81.935,81.935,0,0,1-17.264-10.767c-1.656-1.409-.914-2.835-1.389-4.2l.014-.013c-2.206,1.411-8.083-1.5-8.948-4.46-.149-.506.9-1.146-.353-1.609-9.2-3.419-14.995-11.41-20.913-19.519-2.769-3.8-5.47-7.732-8.452-11.323-2.235-2.689-3.025-6.189-4.713-9.171a114.712,114.712,0,0,1-7.76-18.157c-2.661-7.5-6.936-14.294-8.45-22.187-1.283-6.7-6.416-11.271-6.583-18.563-.145-6.38-1.242-12.726.507-19.008a4.222,4.222,0,0,1,3.733-3.354c10.728-2,21.56-2.007,32.363-2.678a165.671,165.671,0,0,1,18.382-.524c3.394.165,6.518,3.311,6.217,6.778-1.047,12.07,3.208,22.4,7.7,32.729,1.7,3.9,2.921,8.1,4.846,11.842,1.222,2.378,3.629,3.874,5.4,5.809,4.864,5.331,8.486,11.855,13.577,16.98a48.837,48.837,0,0,0,8.343,7.223c6.249,3.827,11.66,9.587,19.047,11.027,7.12,1.385,13.323,6.071,20.422,7.714,5.084,1.177,10.122,2.642,15.122,4.223,3.853,1.218,7.606-.164,11.246-.73a17.609,17.609,0,0,1,7.74.344c4.009,1.139,7.446.5,11.122-2.036A16.363,16.363,0,0,1,958.43,224.7c4.12.512,7.83.856,11.2-3.1a9.4,9.4,0,0,1,5.509-2.887c6.767-.936,11.074-7.362,16.828-10.721,2.742-1.6,3.4-6.675,6.785-8.356,3.027-1.506,4.667-4.164,5.294-7.763.489-2.8,2.767-4.508,4.414-5.4,2.837-1.527,3.47-3.807,4.489-6.68,1.461-4.123,3.864-7.894,6.052-11.538,5.945-9.9,9.927-20.53,10.554-32.4.374-7.1,2.744-9.814,9-11.071,5.717-1.146,11.194-.419,16.644.1,3.57.337,6.966,3.349,10.393,5.264,1.247.7.767,2.061.622,3.252a29.1,29.1,0,0,1-3.015,10.685c1.45-1.1,2.2-.81,1.819,1.57-.5,3.108-.826,6.272-1.593,9.295C1061.19,163.778,1058.785,172.545,1056.418,181.328Z" transform="translate(-754.689 -118.115)"/>
      <path id="Path_713" data-name="Path 713" d="M816.9,156.4c0,.021,0,.035,0,.055l.04.034Z" transform="translate(-676.15 -57.97)"/>
      <path id="Path_714" data-name="Path 714" d="M870.174,133.6c-.011.032-.027.063-.039.095a.8.8,0,0,1,.087-.011Z" transform="translate(-593.142 -93.786)"/>
      <path id="Path_715" data-name="Path 715" d="M797.3,185c-.014.024-.043.037-.061.056.037.014.076.021.113.035Z" transform="translate(-700.957 -3.175)"/>
      <path id="Path_716" data-name="Path 716" d="M877.257,161.507l0-.008c0,.018-.013.026-.019.043.021.013.04.014.06.029l0,0c.021-.016.043-.026.064-.042-.037-.01-.066-.022-.106-.032Z" transform="translate(-588.818 -49.961)"/>
      <path id="Path_717" data-name="Path 717" d="M780.742,176.206h0l0,0Z" transform="translate(-738.813 -26.89)"/>
      <path id="Path_718" data-name="Path 718" d="M848.944,177.678c.052-.037.113-.053.166-.089-.069,0-.138.018-.208.021Z" transform="translate(-635.702 -24.678)"/>
      <path id="Path_719" data-name="Path 719" d="M857.9,175.65c-2.9,1.218-6.182,1.394-8.873,3.188,3.3-.179,6.454-1.122,9.666-1.743.515-.1.922-.464.687-.982A1.1,1.1,0,0,0,857.9,175.65Z" transform="translate(-632.6 -26.432)"/>
      <path id="Path_720" data-name="Path 720" d="M858.572,168.859c-.032-.008-.063-.006-.095-.016l.053.064C858.543,168.888,858.559,168.878,858.572,168.859Z" transform="translate(-623.642 -38.428)"/>
      <path id="Path_721" data-name="Path 721" d="M865.807,167.7c-.148-.439-.747-.56-.932-.359-1.724,1.852-4.833.164-6.339,2.485,2.387.653,4.366-1.164,6.658-1.13C865.765,168.708,865.986,168.23,865.807,167.7Z" transform="translate(-621.31 -39.897)"/>
      <path id="Path_722" data-name="Path 722" d="M878.772,158.417h0l0,.006c-1.918,1.239-4.389,1.189-6.219,2.639,2.321.472,4.146-1.1,6.227-1.608.077-.019,0-.67,0-1.032l.018,0-.019-.011Z" transform="translate(-591.67 -53.954)"/>
      <path id="Path_723" data-name="Path 723" d="M864.3,172.345c-1.692.488-3.541.505-5.058,1.526A4.09,4.09,0,0,0,864.3,172.345Z" transform="translate(-621.137 -32.166)"/>
      <path id="Path_724" data-name="Path 724" d="M763.051,131.227c1.041,1.833,2.184,3.116,4,.719A5.6,5.6,0,0,0,763.051,131.227Z" transform="translate(-749.593 -110.214)"/>
      <path id="Path_725" data-name="Path 725" d="M792.519,172.011c-.625.116-1.547-.359-1.853.624-.22.71.423.913.97,1.059.721.193,1.547.475,1.848-.523C793.673,172.544,793.174,172.17,792.519,172.011Z" transform="translate(-709.021 -32.703)"/>
      <path id="Path_726" data-name="Path 726" d="M884.659,127.587l-.005,0a1.2,1.2,0,0,1-.045-.146l-.032.171c-.016.006-.031.008-.045.014.013.01.024.013.037.024Z" transform="translate(-584.37 -112.43)"/>
      <path id="Path_727" data-name="Path 727" d="M880.96,128.047c1.92.1,3.858.649,5.749-.235C884.756,126.212,882.875,127.976,880.96,128.047Z" transform="translate(-586.546 -112.613)"/>
      <path id="Path_728" data-name="Path 728" d="M767.852,127.718c-1.92-1.44-3.34.066-4.746-.219C764.492,128.461,765.932,127.85,767.852,127.718Z" transform="translate(-749.56 -112.649)"/>
      <path id="Path_729" data-name="Path 729" d="M867.146,166.678c-1.231-.283-1.86.555-2.918,1.608,1.374-.2,2.493.446,3.087-.843C867.445,167.156,867.862,166.842,867.146,166.678Z" transform="translate(-615.337 -41.307)"/>
      <path id="Path_730" data-name="Path 730" d="M763.011,131.163c.019.016.04.024.058.04l0,0,0,0c-.016-.029-.034-.055-.05-.085A.372.372,0,0,1,763.011,131.163Z" transform="translate(-749.618 -110.191)"/>
      <path id="Path_731" data-name="Path 731" d="M761.732,130.839c-.179.031-.4.383-.42.6a.977.977,0,0,0,.319.634c.818-.188,2.076.977,2.416-.7A2.653,2.653,0,0,0,761.732,130.839Z" transform="translate(-750.654 -110.398)"/>
      <path id="Path_732" data-name="Path 732" d="M881.8,125.421c.739.029,1.893.192,1.772-.766-.19-1.521-1.067-.05-1.638-.084a23.434,23.434,0,0,0-2.86.19C880.1,125.667,880.974,125.388,881.8,125.421Z" transform="translate(-587.699 -114.551)"/>
      <path id="Path_733" data-name="Path 733" d="M871.948,165.8c-.906-.211-1.366.409-1.732,1.278.538-.5,1.576.51,1.947-.621C872.271,166.129,872.274,165.88,871.948,165.8Z" transform="translate(-593.094 -42.801)"/>
      <path id="Path_734" data-name="Path 734" d="M776.791,161.838c.6.626,1.294.89,2.744.5-.74-.542-1.056-.916-1.444-1.02C777.626,161.191,776.976,160.995,776.791,161.838Z" transform="translate(-741.221 -50.006)"/>
      <path id="Path_735" data-name="Path 735" d="M889.629,129.08c.034.024.063.031.1.056l-.056-.095C889.658,129.059,889.642,129.064,889.629,129.08Z" transform="translate(-581.264 -111.457)"/>
      <path id="Path_736" data-name="Path 736" d="M887.47,129.754a1.174,1.174,0,0,0,.159-.074c-.071-.008-.14-.011-.209-.019Z" transform="translate(-582.61 -111.079)"/>
      <path id="Path_737" data-name="Path 737" d="M887.55,130.175c1.247.148,2.463.185,3.346-.979C889.409,128.165,888.63,129.715,887.55,130.175Z" transform="translate(-582.531 -111.574)"/>
      <path id="Path_738" data-name="Path 738" d="M766.88,131.066c-.111-.066-.3,0-.468.031a2.529,2.529,0,0,0,2.985.32.779.779,0,0,0,.063-.7C768.52,130.023,767.856,131.632,766.88,131.066Z" transform="translate(-747.546 -110.543)"/>
      <path id="Path_739" data-name="Path 739" d="M795.013,170.425l-.019.006c.657-.15,1.411.385,2.176-.435C796.245,169.633,795.432,168.634,795.013,170.425Z" transform="translate(-703.552 -37.164)"/>
      <path id="Path_740" data-name="Path 740" d="M872.2,160.553c-.478.211-1.238.1-1.2.879.013.233.457.534.763.647.655.241,1.067-.108,1.257-.731.124-.41.217-.83.323-1.246C872.84,159.917,872.578,160.385,872.2,160.553Z" transform="translate(-592.615 -51.555)"/>
      <path id="Path_741" data-name="Path 741" d="M872.458,160.109c.022.008.04,0,.064.011h0c.028-.023.06-.031.087-.052-.045-.01-.09-.008-.137-.019Z" transform="translate(-591.727 -52.24)"/>
      <path id="Path_742" data-name="Path 742" d="M889.907,126.437c-.006.042-.029.055-.035.093.032.01.051-.01.087,0Z" transform="translate(-581.116 -113.044)"/>
      <path id="Path_743" data-name="Path 743" d="M890.757,126.512c-1.136-.3-1.471,1.017-2.337,1.254C889.448,127.809,890.491,127.873,890.757,126.512Z" transform="translate(-582 -113.025)"/>
      <path id="Path_744" data-name="Path 744" d="M875.506,162.2c1.114.7,2.161,1.1,2.779-.594C877.178,160.894,876.464,162.164,875.506,162.2Z" transform="translate(-589.87 -49.677)"/>
      <path id="Path_745" data-name="Path 745" d="M891.942,125.757c.019-.161-.311-.531-.454-.518-1.133.1-1.086,1.175-1.5,1.873C890.722,126.776,891.8,126.932,891.942,125.757Z" transform="translate(-581.048 -113.774)"/>
      <path id="Path_746" data-name="Path 746" d="M889.894,126.456l.052.1a1.366,1.366,0,0,0,.092-.15C889.99,126.424,889.936,126.432,889.894,126.456Z" transform="translate(-581.102 -113.064)"/>
      <path id="Path_747" data-name="Path 747" d="M872.066,163.286c.063,0,.129.008.192,0,0,.008-.059-.08-.059-.08A1.386,1.386,0,0,0,872.066,163.286Z" transform="translate(-591.966 -47.271)"/>
      <path id="Path_748" data-name="Path 748" d="M870.295,163.844c.013-.023.03-.024.044-.047-.031-.018-.055-.023-.085-.043Z" transform="translate(-593.071 -46.413)"/>
      <path id="Path_749" data-name="Path 749" d="M870.306,164.116c1.255.81,1.946-.364,2.832-.843C872.109,163.268,870.991,162.954,870.306,164.116Z" transform="translate(-593.039 -46.857)"/>
      <path id="Path_750" data-name="Path 750" d="M792.523,169.889c1.426.154,2.7.293,3.977.43l.014-.006C795.24,170.1,794.066,169.063,792.523,169.889Z" transform="translate(-706.482 -37.006)"/>
      <path id="Path_751" data-name="Path 751" d="M889.714,129.141a1.084,1.084,0,0,1,.019-.108c-.029,0-.053,0-.082,0Z" transform="translate(-581.25 -111.462)"/>
      <path id="Path_752" data-name="Path 752" d="M889.7,129.544a1.9,1.9,0,0,0,1.962-1.125C890.51,127.944,889.778,128.184,889.7,129.544Z" transform="translate(-581.219 -111.972)"/>
      <path id="Path_753" data-name="Path 753" d="M890.921,128.4c.034.014.059.013.095.027l0,.008c.047-.071.076-.148.119-.219-.06.04-.114.071-.177.117C890.95,128.363,890.932,128.378,890.921,128.4Z" transform="translate(-580.476 -111.957)"/>
      <path id="Path_754" data-name="Path 754" d="M886.9,131.983l.006.024.007-.019c.853.407,1.707.895,2.8-.113l-2.8.108Z" transform="translate(-582.928 -109.73)"/>
      <path id="Path_755" data-name="Path 755" d="M764.23,140.677l-.777.256c.113.217.171.536.348.629.322.171.772.257.888-.253C764.724,141.153,764.415,140.92,764.23,140.677Z" transform="translate(-749.349 -82.505)"/>
      <path id="Path_756" data-name="Path 756" d="M872.07,157.879c.177-.2.249-.486-.113-.61-.7-.24-1.218-.135-1.318.7C871.13,158.184,871.632,158.368,872.07,157.879Z" transform="translate(-592.836 -56.491)"/>
      <path id="Path_757" data-name="Path 757" d="M762.647,124.6c-.011.035-.028.043-.039.076a.756.756,0,0,0,.085,0Z" transform="translate(-749.864 -114.161)"/>
      <path id="Path_758" data-name="Path 758" d="M761.331,125.1c.88.652,1.627.921,2.055-.352C762.709,124.793,761.883,123.958,761.331,125.1Z" transform="translate(-750.642 -114.227)"/>
      <path id="Path_759" data-name="Path 759" d="M868.381,169.855l1.827-.34C868.87,167.4,868.566,168.437,868.381,169.855Z" transform="translate(-594.212 -38.68)"/>
      <path id="Path_760" data-name="Path 760" d="M868.32,169.335c.026.018.051.023.079.042l0,.008c.005-.04.011-.076.016-.114l-.071.013C868.339,169.3,868.328,169.316,868.32,169.335Z" transform="translate(-594.249 -37.736)"/>
      <path id="Path_761" data-name="Path 761" d="M867.271,169.791a.379.379,0,0,0,.309.6,1.371,1.371,0,0,0,1.416-.962C868.311,168.964,867.7,168.987,867.271,169.791Z" transform="translate(-594.926 -37.507)"/>
      <path id="Path_762" data-name="Path 762" d="M788.53,166.174c-.314-.063-.776-.29-.876.254-.027.146.3.359.541.623.319-.071.821-.047.917-.232C789.367,166.327,788.854,166.238,788.53,166.174Z" transform="translate(-712.929 -42.436)"/>
      <path id="Path_763" data-name="Path 763" d="M770.254,151.445c-.185.045-.589.035-.652.177-.217.488.248.624.57.708.216.056.628-.011.7-.153C771.141,151.659,770.639,151.625,770.254,151.445Z" transform="translate(-745.635 -65.539)"/>
      <path id="Path_764" data-name="Path 764" d="M775.325,157.372c-.221.293.061.507.341.589.322.093.737.351.908-.161.04-.121-.283-.364-.462-.578C775.809,157.27,775.438,157.224,775.325,157.372Z" transform="translate(-742.162 -56.432)"/>
      <path id="Path_765" data-name="Path 765" d="M879.99,137.757l0,.029c0-.013.01-.024.011-.035l0,0h0Z" transform="translate(-587.138 -87.279)"/>
      <path id="Path_766" data-name="Path 766" d="M879.551,141.091c.427-.42,1.112-.67.966-1.469l.008.008h0l.048.053,1.658.33c-.554-.122-1.106-.245-1.663-.373q-.121-.934-.245-1.869C880.139,138.894,879.13,139.831,879.551,141.091Z" transform="translate(-587.467 -86.729)"/>
      <path id="Path_767" data-name="Path 767" d="M882.747,138.872c-.022-.148-.428-.348-.653-.341-.982.029-.55.661-.444,1.148l-.011.014C881.971,139.353,882.88,139.765,882.747,138.872Z" transform="translate(-586.24 -85.869)"/>
      <path id="Path_768" data-name="Path 768" d="M784.779,166.032l2.081.621C786.163,166.111,785.523,165.734,784.779,166.032Z" transform="translate(-716.521 -42.762)"/>
      <path id="Path_769" data-name="Path 769" d="M790.9,166.557l-.14.3,2.083.484.053-.193Z" transform="translate(-708.93 -41.745)"/>
      <path id="Path_770" data-name="Path 770" d="M885.764,133.647c.1-.13-.04-.455-.071-.69l-1.532.653C884.686,133.989,885.231,134.32,885.764,133.647Z" transform="translate(-584.596 -94.683)"/>
      <path id="Path_771" data-name="Path 771" d="M872.206,163.289l.058-.053c-.04-.016-.072,0-.113-.023C872.146,163.208,872.211,163.3,872.206,163.289Z" transform="translate(-591.915 -47.268)"/>
      <path id="Path_772" data-name="Path 772" d="M872.221,163.635c1.083.425,1.8-.444,2.662-.789C873.713,162.114,872.979,162.922,872.221,163.635Z" transform="translate(-591.872 -47.91)"/>
      <path id="Path_773" data-name="Path 773" d="M873.875,162.747c.032.019.056.013.09.035l-.039-.063C873.909,162.726,873.893,162.739,873.875,162.747Z" transform="translate(-590.864 -48.047)"/>
      <path id="Path_774" data-name="Path 774" d="M884.144,134.2l-.045-.008c-.367-.262-.713-.681-1.2-.2a.277.277,0,0,0,0,.262C883.333,134.773,883.735,134.364,884.144,134.2Z" transform="translate(-585.383 -93.438)"/>
      <path id="Path_775" data-name="Path 775" d="M847.641,177.855c.011-.027.024-.042.036-.068-.026-.011-.048-.013-.074-.026Z" transform="translate(-637.379 -24.404)"/>
      <path id="Path_776" data-name="Path 776" d="M848.948,177.66l-.036-.058c-.01.008-.019.011-.029.019Z" transform="translate(-635.763 -24.672)"/>
      <path id="Path_777" data-name="Path 777" d="M847.648,178.06a1.731,1.731,0,0,0,1.989-.264C848.892,177.326,848.155,176.9,847.648,178.06Z" transform="translate(-636.799 -24.713)"/>
      <path id="Path_778" data-name="Path 778" d="M807.853,173.427c.328.3.483.552.681.594s.452-.116.679-.185c-.15-.18-.267-.446-.459-.518S808.3,173.361,807.853,173.427Z" transform="translate(-687.366 -31.147)"/>
      <path id="Path_779" data-name="Path 779" d="M840.392,179.707c.427.037.56-.283.7-.591l-.929.232C840.236,179.473,840.3,179.7,840.392,179.707Z" transform="translate(-646.563 -22.039)"/>
      <path id="Path_780" data-name="Path 780" d="M840.736,179.151l.1-.026-.063-.068Z" transform="translate(-646.04 -22.367)"/>
      <path id="Path_781" data-name="Path 781" d="M763.488,127.355c-.441.233-1.041-.322-1.387.282-.032.058.15.323.277.372C763.052,128.261,763.317,127.872,763.488,127.355Z" transform="translate(-750.175 -112.491)"/>
      <path id="Path_782" data-name="Path 782" d="M763.045,127.368c.05.014.1.01.15.019-.061-.042-.124-.069-.185-.119-.015.048-.034.087-.048.134.027-.014.06,0,.087-.027Z" transform="translate(-749.648 -112.537)"/>
      <path id="Path_783" data-name="Path 783" d="M868.8,167h0l0,0c0-.019-.008-.039-.015-.058l-.006.063h-.008l.006.006Z" transform="translate(-593.974 -41.412)"/>
      <path id="Path_784" data-name="Path 784" d="M868.05,166.257l.018.087c-.135.33-.48.81-.37.962.483.669,1.144.126,1.74.116Z" transform="translate(-594.641 -41.993)"/>
      <path id="Path_785" data-name="Path 785" d="M783.733,141.594a3.238,3.238,0,0,0-.74-.312c-.087-.014-.217.246-.328.38a3.412,3.412,0,0,0,.677.383C783.4,142.064,783.557,141.8,783.733,141.594Z" transform="translate(-719.288 -81.597)"/>
      <path id="Path_786" data-name="Path 786" d="M861.239,171.22a1.343,1.343,0,0,0-.042-.243,4.147,4.147,0,0,0-.467.035,1.209,1.209,0,0,0,.042.241A3.812,3.812,0,0,0,861.239,171.22Z" transform="translate(-620.67 -34.988)"/>
      <path id="Path_787" data-name="Path 787" d="M865.464,170.266c.393,0,.885.443,1.144-.248C866.071,169.539,865.8,170.049,865.464,170.266Z" transform="translate(-614.481 -36.683)"/>
      <path id="Path_788" data-name="Path 788" d="M793.135,173.031c-.051.227-.034.631.1.7a.5.5,0,0,0,.8-.335c.037-.209-.166-.462-.228-.615C793.386,172.563,793.191,172.781,793.135,173.031Z" transform="translate(-706.086 -31.923)"/>
      <path id="Path_789" data-name="Path 789" d="M789.17,172.443c-.634-.747-1.585-.259-2.263-.676l-.008.008C787.668,171.9,788.246,172.662,789.17,172.443Z" transform="translate(-713.814 -33.563)"/>
      <path id="Path_790" data-name="Path 790" d="M766.322,130.967c.023-.008.045-.013.066-.021l0-.01c.026,0,.055-.011.082-.018-.04-.034-.084-.048-.122-.087A1.185,1.185,0,0,1,766.322,130.967Z" transform="translate(-747.6 -110.365)"/>
      <path id="Path_791" data-name="Path 791" d="M765.6,131.975c.661-.074,1.112-.364,1.16-1.059C766.228,131.116,765.518,131.132,765.6,131.975Z" transform="translate(-748.042 -110.314)"/>
      <path id="Path_792" data-name="Path 792" d="M765.583,131.593c-.016.021-.03.031-.045.052l.095.042c-.01-.05.01-.068.007-.113-.021,0-.039.011-.06.013Z" transform="translate(-748.078 -109.913)"/>
      <path id="Path_793" data-name="Path 793" d="M782.672,137.229a3.122,3.122,0,0,0-.09.391c.077.01.216.042.221.026a2.878,2.878,0,0,0,.092-.391C782.815,137.245,782.677,137.213,782.672,137.229Z" transform="translate(-719.453 -88.043)"/>
      <path id="Path_794" data-name="Path 794" d="M872.955,165.478c-.164.053-.4.063-.455.167a.489.489,0,0,0,.084.472c.256.171.544.121.616-.224C873.224,165.779,873.045,165.621,872.955,165.478Z" transform="translate(-591.719 -43.467)"/>
      <path id="Path_795" data-name="Path 795" d="M787.185,141.263c-.068.106.006.3.018.46.2-.056.4-.113.605-.171l-.19-.412C787.461,141.178,787.244,141.17,787.185,141.263Z" transform="translate(-713.642 -81.851)"/>
      <path id="Path_796" data-name="Path 796" d="M764.287,136.175c-.006.095.213.2.332.307.108-.122.3-.249.3-.364s-.217-.219-.338-.327C764.472,135.919,764.3,136.041,764.287,136.175Z" transform="translate(-748.84 -90.261)"/>
      <path id="Path_797" data-name="Path 797" d="M819.112,184.836c.2.589.669.32,1.059.306-.3-.254-.6-.515-.89-.774C819.22,184.526,819.068,184.714,819.112,184.836Z" transform="translate(-673.173 -3.56)"/>
      <path id="Path_798" data-name="Path 798" d="M885.335,140.308v0l-.024.018C885.3,140.324,885.335,140.308,885.335,140.308Z" transform="translate(-583.897 -83.264)"/>
      <path id="Path_799" data-name="Path 799" d="M885.346,140.688c.41-.307.808-.616,1.207-.924C885.851,139.656,885.075,139.444,885.346,140.688Z" transform="translate(-583.907 -84.081)"/>
      <path id="Path_800" data-name="Path 800" d="M882.032,138.435l-.007.006c.642-.267,1.036-.665.75-1.421l.015-.014C882.132,137.268,881.755,137.679,882.032,138.435Z" transform="translate(-585.949 -88.237)"/>
      <path id="Path_801" data-name="Path 801" d="M884.411,136.756a.5.5,0,0,0-.444-.175c-.7.214-.288.731-.275,1.139C884,137.443,884.634,137.4,884.411,136.756Z" transform="translate(-584.963 -88.963)"/>
      <path id="Path_802" data-name="Path 802" d="M882.35,146.583c.093.035.18.055.242,0l-.04-.1Z" transform="translate(-585.699 -73.545)"/>
      <path id="Path_803" data-name="Path 803" d="M882.045,146.841l.491-.261C882.312,146.5,882.055,146.315,882.045,146.841Z" transform="translate(-585.885 -73.49)"/>
      <path id="Path_804" data-name="Path 804" d="M883.355,145.732c-.021.072-.045.143-.071.212.034-.035.068-.069.1-.1l0-.013.138-.058C883.464,145.758,883.409,145.743,883.355,145.732Z" transform="translate(-585.13 -74.7)"/>
      <path id="Path_805" data-name="Path 805" d="M883.995,145.606l-.565.24c.192.042.385.085.578.132C884,145.854,884,145.73,883.995,145.606Z" transform="translate(-585.041 -74.864)"/>
      <path id="Path_806" data-name="Path 806" d="M885.918,144.709l.995.126.022-.027C886.6,144.773,886.258,144.741,885.918,144.709Z" transform="translate(-583.525 -76.327)"/>
      <path id="Path_807" data-name="Path 807" d="M887.475,129.758l-.052-.1c0,.037-.011.06-.01.095C887.438,129.759,887.451,129.753,887.475,129.758Z" transform="translate(-582.613 -111.079)"/>
      <path id="Path_808" data-name="Path 808" d="M886.834,130.929c.494-.272,1.011-.528.982-1.2C886.862,129.582,886.6,130.041,886.834,130.929Z" transform="translate(-583.016 -111.053)"/>
      <path id="Path_809" data-name="Path 809" d="M886.2,127.6c.42-.2.3-.558.261-.888-.159.259-.317.518-.476.777C886.061,127.53,886.159,127.621,886.2,127.6Z" transform="translate(-583.483 -112.876)"/>
      <path id="Path_810" data-name="Path 810" d="M856.023,169.494l-.148.164.2.177Z" transform="translate(-626.896 -37.295)"/>
      <path id="Path_811" data-name="Path 811" d="M811.471,173.462l.195-.009-.107-.171Z" transform="translate(-682.978 -31.406)"/>
      <path id="Path_812" data-name="Path 812" d="M798.875,169.513l-.052.222.372-.021c-.027-.072-.037-.175-.087-.206S798.954,169.509,798.875,169.513Z" transform="translate(-698.927 -37.335)"/>
      <path id="Path_813" data-name="Path 813" d="M858.594,168.907l-.05-.064-.177.134C858.443,168.954,858.518,168.931,858.594,168.907Z" transform="translate(-623.741 -38.4)"/>
      <path id="Path_814" data-name="Path 814" d="M857.719,169.723q.524-.4,1.043-.8A1.351,1.351,0,0,0,857.719,169.723Z" transform="translate(-624.314 -38.007)"/>
      <path id="Path_815" data-name="Path 815" d="M857.427,173.591v0l.188.034-.182-.042Z" transform="translate(-624.94 -30.991)"/>
      <path id="Path_816" data-name="Path 816" d="M857.438,174.514c.435-.2.2-.6.222-.925l-.616.743C857.177,174.4,857.353,174.553,857.438,174.514Z" transform="translate(-625.282 -30.597)"/>
      <path id="Path_817" data-name="Path 817" d="M784.776,156.183l.167.081-.008-.177Z" transform="translate(-716.695 -58.433)"/>
      <path id="Path_818" data-name="Path 818" d="M796.314,167.411a2.3,2.3,0,0,0-.275-.354c-.029-.026-.224.056-.222.082a3.121,3.121,0,0,0,.087.449C796.041,167.53,796.177,167.47,796.314,167.411Z" transform="translate(-702.711 -41.062)"/>
      <path id="Path_819" data-name="Path 819" d="M803.626,173.508c.031.121.061.243.09.364l.195-.124c-.016-.077,0-.187-.051-.225S803.706,173.509,803.626,173.508Z" transform="translate(-692.872 -30.98)"/>
      <path id="Path_820" data-name="Path 820" d="M764.418,138.556l.12.193.1-.2Z" transform="translate(-748.76 -85.996)"/>
      <path id="Path_821" data-name="Path 821" d="M794.831,167.393l-.224-.014.153.088Z" transform="translate(-704.273 -40.718)"/>
      <path id="Path_822" data-name="Path 822" d="M878.078,157.812a.687.687,0,0,1,.026.076l.021-.034a2.194,2.194,0,0,0,2.1.621l-2.1-.636Z" transform="translate(-588.303 -55.564)"/>
      <path id="Path_823" data-name="Path 823" d="M878.688,151.375l1.984.729C880.164,151.444,879.383,151.525,878.688,151.375Z" transform="translate(-587.931 -65.696)"/>
      <path id="Path_824" data-name="Path 824" d="M878.669,151.371v0h0l-.06.106.068-.106c.019,0,.04.006.06.01l-.053-.019Z" transform="translate(-587.979 -65.873)"/>
      <path id="Path_825" data-name="Path 825" d="M879.921,151.89l.013.011.006,0h0l.055-.171-.06.169Z" transform="translate(-587.18 -65.287)"/>
      <path id="Path_826" data-name="Path 826" d="M877.473,155.095h0l.029.071.027-.066.311.031a.921.921,0,0,0-.3-.055Z" transform="translate(-588.671 -60.049)"/>
      <path id="Path_827" data-name="Path 827" d="M879.426,155.276q-.862-.082-1.722-.167c.554.14,1.049.678,1.688.233Z" transform="translate(-588.531 -59.904)"/>
      <path id="Path_828" data-name="Path 828" d="M846.429,177.723l-.095.076h.008a.592.592,0,0,1,.029.108l.034-.106.523.021A1.335,1.335,0,0,0,846.429,177.723Z" transform="translate(-638.841 -24.424)"/>
      <path id="Path_829" data-name="Path 829" d="M847.992,177.834q-.645-.024-1.289-.05C847.13,177.937,847.553,178.138,847.992,177.834Z" transform="translate(-638.187 -24.316)"/>
      <path id="Path_830" data-name="Path 830" d="M847.7,177.855l-.038-.093c-.053.053-.1.05-.158.085C847.57,177.85,847.636,177.854,847.7,177.855Z" transform="translate(-637.47 -24.404)"/>
      <path id="Path_831" data-name="Path 831" d="M796.917,173.352l.213-.01-.218-.133Z" transform="translate(-701.36 -31.535)"/>
      <path id="Path_832" data-name="Path 832" d="M868.528,163.833l.032.027,2.129.816.014,0h0l.06-.1-.071.093Z" transform="translate(-594.122 -46.02)"/>
      <path id="Path_833" data-name="Path 833" d="M767.523,127.449c-.069-.093-.138-.187-.235-.32l-.4.258c.058.06.119.169.172.166A2.6,2.6,0,0,0,767.523,127.449Z" transform="translate(-747.254 -112.622)"/>
      <path id="Path_834" data-name="Path 834" d="M857.545,173.609l2.012.464-.037-.1Z" transform="translate(-624.241 -30.769)"/>
      <path id="Path_835" data-name="Path 835" d="M763.786,124.654l-1.041,0q.478.191.953.373Z" transform="translate(-749.78 -114.132)"/>
      <path id="Path_836" data-name="Path 836" d="M762.635,124.608c0-.006.042.069.042.069h.135Z" transform="translate(-749.847 -114.158)"/>
      <path id="Path_837" data-name="Path 837" d="M877.782,158.846c.039.035.085.047.121.089l-.056-.082C877.824,158.854,877.8,158.844,877.782,158.846Z" transform="translate(-588.483 -54.124)"/>
      <path id="Path_838" data-name="Path 838" d="M876.429,158.424a2.924,2.924,0,0,0,2.177.679C878,158.537,877.145,158.69,876.429,158.424Z" transform="translate(-589.308 -54.599)"/>
      <path id="Path_839" data-name="Path 839" d="M784.918,137.537l-.014-.013-.042-.071-.008.027-.262-.235-.191.369c.145-.018.29-.035.434-.055Z" transform="translate(-717.138 -88.017)"/>
      <path id="Path_840" data-name="Path 840" d="M781.25,137.418l-.168.092.246.065Z" transform="translate(-738.605 -87.779)"/>
      <path id="Path_841" data-name="Path 841" d="M881.291,137.67l1.13.367.006-.006Z" transform="translate(-586.345 -87.351)"/>
      <path id="Path_842" data-name="Path 842" d="M880.558,137.439h0l0,0,0,0,1.18.375-1.17-.38Z" transform="translate(-586.793 -87.72)"/>
      <path id="Path_843" data-name="Path 843" d="M885.337,130.013l.01.021,1.532.512C886.43,130.179,886.042,129.637,885.337,130.013Z" transform="translate(-583.879 -110.942)"/>
      <path id="Path_844" data-name="Path 844" d="M886.295,130.3a.945.945,0,0,0,.814.274h0v0h0Q886.7,130.433,886.295,130.3Z" transform="translate(-583.295 -110.692)"/>
      <path id="Path_845" data-name="Path 845" d="M881.824,139.293c-.216-.043-.431-.087-.647-.129l.636.143Z" transform="translate(-586.414 -85.037)"/>
      <path id="Path_846" data-name="Path 846" d="M883.38,131.416a2.549,2.549,0,0,0-.071.488c.132-.031.261-.063.4-.095l-.088-.505C883.539,131.338,883.4,131.356,883.38,131.416Z" transform="translate(-585.115 -110.078)"/>
      <path id="Path_847" data-name="Path 847" d="M885.548,130.005c-.183.489-.37.97-.557,1.45A1.72,1.72,0,0,0,885.548,130.005Z" transform="translate(-584.09 -110.869)"/>
      <path id="Path_848" data-name="Path 848" d="M885.348,130l-.011-.031c0,.023,0,.043,0,.064Z" transform="translate(-583.879 -110.894)"/>
      <path id="Path_849" data-name="Path 849" d="M886.946,126.827l-.623-.154-.045,0c0,.021,0,.04.008.061l.031-.05C886.532,126.736,886.74,126.782,886.946,126.827Z" transform="translate(-583.306 -112.9)"/>
      <path id="Path_850" data-name="Path 850" d="M880.071,155.128c.056-.035.135-.06.158-.111s0-.132-.008-.2Z" transform="translate(-587.088 -60.392)"/>
      <path id="Path_851" data-name="Path 851" d="M875.909,152.768c-.039.076-.069.156-.1.233l.238-.245C876,152.76,875.92,152.747,875.909,152.768Z" transform="translate(-589.687 -63.651)"/>
      <path id="Path_852" data-name="Path 852" d="M875.786,153.009l0-.01-.106.119.119-.014,0-.006h0l0,0c.027-.061.056-.122.082-.185Z" transform="translate(-589.765 -63.42)"/>
      <path id="Path_853" data-name="Path 853" d="M878.176,152.729c.241-.428.481-.861.723-1.294-.256.4-.51.8-.765,1.205Z" transform="translate(-588.269 -65.453)"/>
      <path id="Path_854" data-name="Path 854" d="M880.462,150.819q-.246.751-.494,1.5l.541-1.5h.04l-.016-.071-.069.064v0l0,0Z" transform="translate(-587.151 -66.464)"/>
      <path id="Path_855" data-name="Path 855" d="M880.6,150.8c-.093,0-.183,0-.274,0,.021.109.045.22.068.33C880.466,151.016,880.533,150.907,880.6,150.8Z" transform="translate(-586.931 -66.713)"/>
      <path id="Path_856" data-name="Path 856" d="M882.473,137.006l-.015.014,1.893.441,0,0,0,0,.01,0h0Z" transform="translate(-585.633 -88.382)"/>
      <path id="Path_857" data-name="Path 857" d="M886.29,133.086c.106-.055.211-.109.317-.163l-.327-.108Z" transform="translate(-583.305 -109.156)"/>
      <path id="Path_858" data-name="Path 858" d="M886.483,132.9l.137.045-.047-.09Z" transform="translate(-583.181 -109.133)"/>
      <path id="Path_859" data-name="Path 859" d="M887.087,131.957q-.241.7-.488,1.392C887.322,133.106,887.256,132.552,887.087,131.957Z" transform="translate(-583.11 -109.68)"/>
      <path id="Path_860" data-name="Path 860" d="M886.587,132.965l.05-.143a.726.726,0,0,1-.1.048Z" transform="translate(-583.148 -109.153)"/>
      <path id="Path_861" data-name="Path 861" d="M884.029,141.116l.188.116.048,0,0,0h0v-.008l-.014,0Z" transform="translate(-584.676 -81.974)"/>
      <path id="Path_862" data-name="Path 862" d="M884,141.106l.074.037-.114-.071A.268.268,0,0,0,884,141.106Z" transform="translate(-584.719 -82.051)"/>
      <path id="Path_863" data-name="Path 863" d="M879.5,139.84c.008.006.013.019.023.024l.006.014c0-.016,0-.029,0-.045l-.013.011Z" transform="translate(-587.437 -84)"/>
      <path id="Path_864" data-name="Path 864" d="M879.036,139.731q.372.142.744.283C879.552,139.847,879.5,139.254,879.036,139.731Z" transform="translate(-587.719 -84.378)"/>
      <path id="Path_865" data-name="Path 865" d="M884.176,141.5c.541-.01.779-.315.8-.842C884.507,140.748,884.145,140.936,884.176,141.5Z" transform="translate(-584.588 -82.561)"/>
      <path id="Path_866" data-name="Path 866" d="M884.7,140.657l-.027,0v0Z" transform="translate(-584.286 -82.714)"/>
      <path id="Path_867" data-name="Path 867" d="M825.8,177.107l-.179.138.151.15.073-.283c.019,0,.039,0,.059,0l-.042-.066Z" transform="translate(-665.088 -25.414)"/>
      <path id="Path_868" data-name="Path 868" d="M825.8,177.088l.172.274C826.131,177.04,825.957,177.074,825.8,177.088Z" transform="translate(-664.875 -25.389)"/>
      <path id="Path_869" data-name="Path 869" d="M775.906,156.55l-.192.018.157.112Z" transform="translate(-741.877 -57.719)"/>
      <path id="Path_870" data-name="Path 870" d="M773.837,156.145a1.273,1.273,0,0,0,.134.294c.048-.063.095-.127.143-.19-.027-.076-.055-.15-.08-.225C773.964,156.066,773.832,156.119,773.837,156.145Z" transform="translate(-743.021 -58.461)"/>
      <path id="Path_871" data-name="Path 871" d="M788.3,155.624a.324.324,0,0,0-.077-.161c-.023.109-.047.219-.069.328C788.205,155.737,788.3,155.68,788.3,155.624Z" transform="translate(-712.43 -59.369)"/>
      <path id="Path_872" data-name="Path 872" d="M788.212,155.537l.013-.056.587.214c-.193-.079-.217-.573-.583-.238l-.058,0,.006,0C788.191,155.489,788.2,155.511,788.212,155.537Z" transform="translate(-712.359 -59.553)"/>
      <path id="Path_873" data-name="Path 873" d="M840.765,179.161l.058.063,1.508-.327-.113.024C841.735,179,841.254,179.085,840.765,179.161Z" transform="translate(-645.636 -22.51)"/>
      <path id="Path_874" data-name="Path 874" d="M845.016,178.2c-.022.058.016.14.027.209.058-.04.143-.069.166-.124s-.016-.138-.027-.208C845.123,178.121,845.038,178.15,845.016,178.2Z" transform="translate(-640.618 -23.792)"/>
      <path id="Path_875" data-name="Path 875" d="M874.287,162.325c-.1.2-.212.391-.319.587l.542-.266C874.436,162.541,874.362,162.433,874.287,162.325Z" transform="translate(-590.807 -48.487)"/>
      <path id="Path_876" data-name="Path 876" d="M873.946,162.8l.06-.111-.1.048Z" transform="translate(-590.844 -48.077)"/>
      <path id="Path_877" data-name="Path 877" d="M778.291,137.537a1.666,1.666,0,0,0,.134.314l.142-.19-.072-.233C778.423,137.467,778.286,137.52,778.291,137.537Z" transform="translate(-740.306 -87.723)"/>
      <path id="Path_878" data-name="Path 878" d="M774.421,135.544l.065-.148-.231,0Z" transform="translate(-742.766 -90.964)"/>
      <path id="Path_879" data-name="Path 879" d="M765.828,132.5l.152-.131-.17-.07Z" transform="translate(-747.912 -109.474)"/>
      <path id="Path_880" data-name="Path 880" d="M767.567,132.509l.134-.154-.217-.143Z" transform="translate(-746.893 -109.525)"/>
      <path id="Path_881" data-name="Path 881" d="M784.592,137.233c.05.085.1.171.153.256l.077-.3Z" transform="translate(-716.921 -88.119)"/>
      <path id="Path_882" data-name="Path 882" d="M877.653,155.416c-.037-.095-.076-.19-.114-.285l-.117.283Z" transform="translate(-588.703 -59.904)"/>
      <path id="Path_883" data-name="Path 883" d="M874.31,153.765l.051.092.04-.055.24-.266-.464-.013.058.1c-.045-.021-.137.019-.208.032Z" transform="translate(-590.771 -62.418)"/>
      <path id="Path_884" data-name="Path 884" d="M877.863,159.41a1.178,1.178,0,0,0,.415-1.551C878,158.351,877.637,158.815,877.863,159.41Z" transform="translate(-588.477 -55.219)"/>
      <path id="Path_885" data-name="Path 885" d="M877.881,158.949a.766.766,0,0,1-.034-.126c-.011.008-.018.019-.031.029C877.825,158.866,877.873,158.937,877.881,158.949Z" transform="translate(-588.462 -54.149)"/>
      <path id="Path_886" data-name="Path 886" d="M857.368,169.375l.488.135.058-.024c.005-.014.015-.023.019-.037l-.04.032Z" transform="translate(-624.902 -37.564)"/>
      <path id="Path_887" data-name="Path 887" d="M861.1,169.553l.228.023-.147-.161Z" transform="translate(-620.288 -37.49)"/>
      <path id="Path_888" data-name="Path 888" d="M768,146.059l.175.051-.022-.251Z" transform="translate(-746.576 -74.492)"/>
      <path id="Path_889" data-name="Path 889" d="M867.929,166.262l-.053.06.071.019S867.929,166.254,867.929,166.262Z" transform="translate(-594.52 -42.477)"/>
      <path id="Path_890" data-name="Path 890" d="M867.68,166.244c.069.378.193.232.315.089Z" transform="translate(-594.639 -42.445)"/>
      <path id="Path_891" data-name="Path 891" d="M867.75,164.991c.2-.026.41-.05.615-.074-.164-.084-.328-.169-.494-.257Z" transform="translate(-594.596 -44.904)"/>
      <path id="Path_892" data-name="Path 892" d="M868.567,163.872a.287.287,0,0,0-.039-.039c.008.027.01.052.016.079C868.55,163.9,868.56,163.886,868.567,163.872Z" transform="translate(-594.122 -46.293)"/>
      <path id="Path_893" data-name="Path 893" d="M868.24,164.827l-.108.013c.053.027.109.058.161.084a1.038,1.038,0,0,1-.011-.138c-.019.01-.026.024-.047.034Z" transform="translate(-594.364 -44.775)"/>
      <path id="Path_894" data-name="Path 894" d="M868.23,165.335c.642-.323.663-.858.5-1.453C868.5,164.354,868.142,164.777,868.23,165.335Z" transform="translate(-594.312 -45.723)"/>
      <path id="Path_895" data-name="Path 895" d="M761.657,136.22a.653.653,0,0,0,0,.224c.01.024.122.008.188.01a.677.677,0,0,0,0-.222C761.836,136.207,761.723,136.223,761.657,136.22Z" transform="translate(-750.448 -89.654)"/>
      <path id="Path_896" data-name="Path 896" d="M879.568,158.208l0,.018-.161.008.166.05.074-.063h-.015C879.6,158.221,879.6,158.211,879.568,158.208Z" transform="translate(-587.492 -55.13)"/>
      <path id="Path_897" data-name="Path 897" d="M879.559,158.27l-.016-.163C879.368,158.2,879.4,158.252,879.559,158.27Z" transform="translate(-587.482 -55.262)"/>
      <path id="Path_898" data-name="Path 898" d="M883.689,134.018c-.023.006-.032.021-.056.026,0,0,.045.008.048,0Z" transform="translate(-584.917 -93.138)"/>
      <path id="Path_899" data-name="Path 899" d="M884.371,133.423l.015-.019.076-.032-.036-.023c-.6.108-.61.637-.758,1.077C884.16,134.289,884.22,133.827,884.371,133.423Z" transform="translate(-584.896 -94.064)"/>
      <path id="Path_900" data-name="Path 900" d="M884.974,130.925l-.088.13.121-.023,0,0h0v0l.045-.117c-.023.019-.042.04-.066.058Z" transform="translate(-584.154 -110.32)"/>
      <path id="Path_901" data-name="Path 901" d="M880.892,137.439l-.89.5A.663.663,0,0,0,880.892,137.439Z" transform="translate(-587.13 -87.69)"/>
      <path id="Path_902" data-name="Path 902" d="M882.833,146.263a.444.444,0,0,1,.164.006l-.045-.087Z" transform="translate(-585.405 -74.019)"/>
      <path id="Path_903" data-name="Path 903" d="M882.516,146.63c.05-.074.095-.156.143-.233-.061.042-.124.08-.185.124Z" transform="translate(-585.624 -73.65)"/>
      <path id="Path_904" data-name="Path 904" d="M882.589,146.5l.393-.264A.458.458,0,0,0,882.589,146.5Z" transform="translate(-585.554 -73.902)"/>
      <path id="Path_905" data-name="Path 905" d="M883.448,145.864c-.143.158-.29.312-.434.465A.69.69,0,0,0,883.448,145.864Z" transform="translate(-585.295 -74.438)"/>
      <path id="Path_906" data-name="Path 906" d="M882.952,146.288c.042-.043.084-.09.127-.135a.658.658,0,0,1-.172.047Z" transform="translate(-585.36 -74.055)"/>
      <path id="Path_907" data-name="Path 907" d="M884.7,140.658l.01-.013-.042.023Z" transform="translate(-584.286 -82.73)"/>
      <path id="Path_908" data-name="Path 908" d="M884.7,140.852c.319-.175.639-.351.966-.525A.773.773,0,0,0,884.7,140.852Z" transform="translate(-584.27 -83.174)"/>
      <path id="Path_909" data-name="Path 909" d="M885.3,140.327c.01,0,.014,0,.023,0-.013,0,.024-.016.014-.018Z" transform="translate(-583.904 -83.263)"/>
      <path id="Path_910" data-name="Path 910" d="M886.088,139.619l.039.142-.052.04.066.01.06-.108,0,0A.944.944,0,0,1,886.088,139.619Z" transform="translate(-583.429 -84.314)"/>
      <path id="Path_911" data-name="Path 911" d="M881.634,142c.027-.037.014-.04.027-.066.167.026.286-.048.3-.272,0-.085-.188-.18-.291-.272-.045.134-.09.266-.135.4l-.052.114c.048.031.073.006.114.021Z" transform="translate(-586.228 -81.448)"/>
      <path id="Path_912" data-name="Path 912" d="M865.278,170.188h0l-.006,0,.008,0a.45.45,0,0,1,.031.1l.035-.117a.49.49,0,0,0,.235-.072.353.353,0,0,0-.221.029Z" transform="translate(-614.994 -36.409)"/>
      <path id="Path_913" data-name="Path 913" d="M858.771,174.17l.039.1c.206-.295.412-.589.613-.9l0-.018c.032-.023.071-.032.1-.055-.039-.014-.073-.011-.113-.026C859.2,173.563,858.982,173.864,858.771,174.17Z" transform="translate(-623.071 -31.061)"/>
      <path id="Path_914" data-name="Path 914" d="M875.479,162.058a1.185,1.185,0,0,0,.013-.119l-.008-.019a.455.455,0,0,0,.05-.008c-.024-.014-.048-.027-.072-.043Z" transform="translate(-589.897 -49.342)"/>
      <path id="Path_915" data-name="Path 915" d="M875.5,162.258c-.008-.09-.016-.18-.024-.272-.006.053-.013.109-.016.159A.328.328,0,0,0,875.5,162.258Z" transform="translate(-589.897 -49.129)"/>
      <path id="Path_916" data-name="Path 916" d="M870.485,158.014c.082-.106.166-.212.25-.317l-.415-.014C870.374,157.791,870.43,157.9,870.485,158.014Z" transform="translate(-593.031 -55.878)"/>
      <path id="Path_917" data-name="Path 917" d="M870.577,157.716l.087,0c0-.021.011-.031.013-.05l-.048-.019Z" transform="translate(-592.874 -56.009)"/>
      <path id="Path_918" data-name="Path 918" d="M868.756,166.878a.765.765,0,0,0,.039.166c.011-.089.023-.179.034-.269C868.8,166.809,868.754,166.844,868.756,166.878Z" transform="translate(-593.983 -41.599)"/>
      <path id="Path_919" data-name="Path 919" d="M870.5,163.849l-.044-.095c-.179.286-.359.578-.539.869C870.113,164.366,870.307,164.11,870.5,163.849Z" transform="translate(-593.275 -46.136)"/>
      <path id="Path_920" data-name="Path 920" d="M841.686,179.029l.1-.132-.119.029A.49.49,0,0,0,841.686,179.029Z" transform="translate(-644.865 -22.602)"/>
      <path id="Path_921" data-name="Path 921" d="M836.572,157.9c1.581-.077,4.048-.048,5.486-1.785q-.847-.234-1.7-.47l-.114-.248c.035.093.069.185.1.295-.306-.509-.237-1.878-.7-1.535-2.01,1.468-4.683-.459-6.486,1.461l-.047-.1v0l-.021.074h0l-.14.51h0l-.016.063c-.768.573-1.5,1.017-1.64-.489a4.634,4.634,0,0,0-4.822.6,4.436,4.436,0,0,1,2.169.563c-.834.3-1.407-.489-2.16-.555-2.335-1.168-4.666.75-6.957.037-1.582-.491-2.132.348-2.585,1.526a3.227,3.227,0,0,0,.7.34C823.954,159.777,830.281,158.208,836.572,157.9Zm1.695-2.43-.08.172-.135-.167Zm-2.37-.058.087.5-.4.089a2.363,2.363,0,0,1,.064-.483C835.669,155.459,835.811,155.443,835.9,155.409Zm-7.237,1.252s.064.143.071.154-.011,0-.018,0Z" transform="translate(-670.993 -60.221)"/>
      <path id="Path_922" data-name="Path 922" d="M832.61,155.318c-.018.023-.044.031-.063.052l.121.034Z" transform="translate(-656.377 -59.668)"/>
      <path id="Path_923" data-name="Path 923" d="M816.9,156.4l.042.087c.008-.019.016-.032.023-.05C816.943,156.423,816.922,156.41,816.9,156.4Z" transform="translate(-676.146 -57.969)"/>
      <path id="Path_924" data-name="Path 924" d="M854.217,151.482l.037-.01c4.239-.814,6.756-3.578,6.829-7.48-1.872,3.481-5.17,4.825-8.715,5.8C852.474,150.909,855.442,148.917,854.217,151.482Z" transform="translate(-628.81 -75.883)"/>
      <path id="Path_925" data-name="Path 925" d="M832.582,155.319l.064.095a.879.879,0,0,0-.01-.113Z" transform="translate(-656.345 -59.687)"/>
      <path id="Path_926" data-name="Path 926" d="M839.685,154.5h0l-.016-.087h0l-.232-1.254h0l-.014-.072,0,.074c-2.07-.229-3.719,1.873-5.295,1.672-2.459-.314-1.474.906-1.429,1.819q3.452-1.13,6.916-2.239Z" transform="translate(-654.815 -62.205)"/>
      <path id="Path_927" data-name="Path 927" d="M846.776,150.96c-.037.034-.082.056-.119.09.055.01.1,0,.161.014Z" transform="translate(-638.549 -66.509)"/>
      <path id="Path_928" data-name="Path 928" d="M841.78,154.691a1.738,1.738,0,0,0,1.558.05c2.081-1.336,4.54-2.018,6.417-3.7-2.989-.528-5.052,1.93-7.712,2.486C841.616,153.621,841.379,154.424,841.78,154.691Z" transform="translate(-642.866 -65.488)"/>
      <path id="Path_929" data-name="Path 929" d="M827.511,158.921q-2.178-.652-4.357-1.3C824.282,159.721,825.974,158.9,827.511,158.921Z" transform="translate(-667.378 -55.63)"/>
      <path id="Path_930" data-name="Path 930" d="M843.157,154.841c-.015,0-.026,0-.04,0,.026.014.047.016.072.032Z" transform="translate(-643.042 -60.431)"/>
      <path id="Path_931" data-name="Path 931" d="M844.893,154.978c-1.967-1.156-3.125.834-4.69,1.249C842.059,156.97,843.213,154.925,844.893,154.978Z" transform="translate(-645.549 -60.279)"/>
      <path id="Path_932" data-name="Path 932" d="M840.247,155.632c-.04-.016-.077-.016-.117-.034l.034.064C840.193,155.654,840.219,155.64,840.247,155.632Z" transform="translate(-646.802 -59.234)"/>
      <path id="Path_933" data-name="Path 933" d="M815.887,154.216a.874.874,0,0,0-1.22.166,1,1,0,0,0,.073,1.461c.281.293.832.375.789.935a6.931,6.931,0,0,0,.644-1.147C816.352,155.135,816.575,154.558,815.887,154.216Z" transform="translate(-678.989 -60.913)"/>
      <path id="Path_934" data-name="Path 934" d="M862.443,139.3c-.188.525-1.254.851-.491,1.614.25.249.716.546.977.467.694-.208.1-.97.441-1.418a1.739,1.739,0,0,0,.163-.761C863.135,138.921,862.652,138.714,862.443,139.3Z" transform="translate(-619.047 -85.033)"/>
      <path id="Path_935" data-name="Path 935" d="M862.831,139.114c.014.01.029.016.043.027h0c0-.029.016-.05.019-.08-.022,0-.037.01-.059.006Z" transform="translate(-618.154 -85.209)"/>
      <path id="Path_936" data-name="Path 936" d="M839.2,152.931l-2.4.322.232,1.254C838.2,154.655,838.857,154.138,839.2,152.931Z" transform="translate(-650.457 -63.004)"/>
      <path id="Path_937" data-name="Path 937" d="M871.269,131.96c-.008.019-.015.04-.021.06.026,0,.04,0,.068,0Z" transform="translate(-592.465 -109.678)"/>
      <path id="Path_938" data-name="Path 938" d="M871.9,132c-2.062-.143-1.68,1.337-1.7,2.549C871.515,134.207,871.525,132.981,871.9,132Z" transform="translate(-593.115 -96.044)"/>
      <path id="Path_939" data-name="Path 939" d="M870.156,133.6l.055.095c0-.037,0-.077,0-.114C870.191,133.586,870.177,133.6,870.156,133.6Z" transform="translate(-593.13 -93.814)"/>
      <path id="Path_940" data-name="Path 940" d="M841.118,155.708c-1.046-.486-1.831-.134-2.633,1.062C839.652,156.7,840.777,157.341,841.118,155.708Z" transform="translate(-648.26 -59.02)"/>
      <path id="Path_941" data-name="Path 941" d="M840.135,155.6c0,.019-.011.029-.015.048.016.008.031.006.048.014Z" transform="translate(-646.831 -59.234)"/>
      <path id="Path_942" data-name="Path 942" d="M830.383,157.607c.019-.027.042-.039.061-.064l-.093-.006Z" transform="translate(-659.156 -56.188)"/>
      <path id="Path_943" data-name="Path 943" d="M830.409,157.644c.608.055,1.194.1,1.291.113C831.621,157.806,831,156.947,830.409,157.644Z" transform="translate(-658.817 -56.352)"/>
      <path id="Path_944" data-name="Path 944" d="M828.055,157.986c0-.029.016-.032.018-.06-.023-.013-.034-.006-.058-.019Z" transform="translate(-662.113 -55.602)"/>
      <path id="Path_945" data-name="Path 945" d="M829.01,157.283l0,0h0Z" transform="translate(-660.869 -56.61)"/>
      <path id="Path_946" data-name="Path 946" d="M828.051,158.307c1.083.558,1.373-.138,1.543-1.025C829.166,157.749,828.088,157.279,828.051,158.307Z" transform="translate(-661.748 -56.233)"/>
      <path id="Path_947" data-name="Path 947" d="M844.034,154.452a.674.674,0,0,0-.568-.3c-.491.232-.347.679-.285,1.086C843.408,154.893,844.119,155.07,844.034,154.452Z" transform="translate(-642.827 -61.231)"/>
      <path id="Path_948" data-name="Path 948" d="M843.14,154.844a.409.409,0,0,0,.035.043c0-.021-.008-.043-.011-.064C843.158,154.833,843.145,154.834,843.14,154.844Z" transform="translate(-643.023 -60.451)"/>
      <path id="Path_949" data-name="Path 949" d="M833.4,156.891l-.01.006-.072.05,0,0-.008,0,.008,0a.313.313,0,0,1,.032.079l.047-.132.008-.006Z" transform="translate(-655.419 -57.184)"/>
      <path id="Path_950" data-name="Path 950" d="M834.383,156.6c-.547-.269-.679.32-1.014.512l1.054-.019C834.413,156.919,834.459,156.634,834.383,156.6Z" transform="translate(-655.123 -57.619)"/>
      <path id="Path_951" data-name="Path 951" d="M828.552,152.576c.031-.087-.166-.254-.257-.385q-.275.352-.552.7C828.06,152.91,828.4,152.991,828.552,152.576Z" transform="translate(-662.295 -64.412)"/>
      <path id="Path_952" data-name="Path 952" d="M827.653,152.626l.061.113.084-.108A1.1,1.1,0,0,0,827.653,152.626Z" transform="translate(-662.551 -63.89)"/>
      <path id="Path_953" data-name="Path 953" d="M852.859,147.6q-.657.343-1.317.681l.031.01C852.6,149.136,852.764,148.433,852.859,147.6Z" transform="translate(-632.051 -71.564)"/>
      <path id="Path_954" data-name="Path 954" d="M852.367,147.6h0l-.008-.014,0,.024.006,0Z" transform="translate(-631.388 -71.829)"/>
      <path id="Path_955" data-name="Path 955" d="M848.387,149.723l-.032-.029.026.032Z" transform="translate(-636.44 -68.516)"/>
      <path id="Path_956" data-name="Path 956" d="M849.527,150.252c.183-.159.113-.61.143-.945-.441.209-.869.43-1.3.652C848.711,150.273,849.1,150.625,849.527,150.252Z" transform="translate(-636.069 -68.863)"/>
      <path id="Path_957" data-name="Path 957" d="M830.1,158.674c-1.26.167-.716.974-.551,1.63A1.925,1.925,0,0,0,830.1,158.674Z" transform="translate(-660.329 -53.904)"/>
      <path id="Path_958" data-name="Path 958" d="M829.8,158.633c0,.024-.008.042-.005.066l.032-.008C829.838,158.705,829.8,158.633,829.8,158.633Z" transform="translate(-659.867 -54.466)"/>
      <path id="Path_959" data-name="Path 959" d="M826.068,158.429c-.068,0-.138,0-.208,0l.257.076c-.01-.031,0-.042,0-.072-.019,0-.031,0-.05-.006Z" transform="translate(-664.791 -54.786)"/>
      <path id="Path_960" data-name="Path 960" d="M826.031,158.866c1.04.262,1.518-.031,1.159-1.149C826.662,157.966,825.839,157.933,826.031,158.866Z" transform="translate(-664.394 -55.542)"/>
      <path id="Path_961" data-name="Path 961" d="M826.745,157.743l.011,0-.026-.064C826.741,157.7,826.736,157.716,826.745,157.743Z" transform="translate(-663.741 -55.971)"/>
      <path id="Path_962" data-name="Path 962" d="M853.4,149.443l.232-.8-.035.011C853.526,148.915,853.462,149.179,853.4,149.443Z" transform="translate(-630.018 -69.988)"/>
      <path id="Path_963" data-name="Path 963" d="M831.089,158.838c-.055.024-.106.032-.161.053.071.013.142.024.214.039Z" transform="translate(-658.4 -54.136)"/>
      <path id="Path_964" data-name="Path 964" d="M831.585,158.99c-.579-.109-1.16-.217-1.735-.315A1.557,1.557,0,0,0,831.585,158.99Z" transform="translate(-659.427 -54.279)"/>
      <path id="Path_965" data-name="Path 965" d="M829.805,158.642c-.006-.013.029.06.021.045l.051.01C829.855,158.674,829.829,158.664,829.805,158.642Z" transform="translate(-659.85 -54.458)"/>
      <path id="Path_966" data-name="Path 966" d="M826.755,157.733l.039.006c-.019-.023-.039-.031-.058-.055Z" transform="translate(-663.729 -55.962)"/>
      <path id="Path_967" data-name="Path 967" d="M828.664,158.072c-.631-.119-1.263-.237-1.893-.354A1.337,1.337,0,0,0,828.664,158.072Z" transform="translate(-663.296 -55.739)"/>
      <path id="Path_968" data-name="Path 968" d="M828.095,157.985l-.04-.079a.951.951,0,0,1-.108.051Z" transform="translate(-662.179 -55.604)"/>
      <path id="Path_969" data-name="Path 969" d="M827.622,155.13c-.579-.261-1.159-.491-1.712.037l1.572.473Z" transform="translate(-664.425 -60.204)"/>
      <path id="Path_970" data-name="Path 970" d="M825.946,155.056l-.1-.027c0,.029.008.047.011.074l.011,0C825.9,155.082,825.922,155.079,825.946,155.056Z" transform="translate(-664.837 -60.124)"/>
      <path id="Path_971" data-name="Path 971" d="M829.013,157.282h0l0,0Z" transform="translate(-660.868 -56.611)"/>
      <path id="Path_972" data-name="Path 972" d="M830.4,157.605l-.031-.069c-.019.013-.034.006-.053.019C830.344,157.578,830.376,157.579,830.4,157.605Z" transform="translate(-659.199 -56.188)"/>
      <path id="Path_973" data-name="Path 973" d="M829.012,157.281c.679.256,1.276.948,2.1.43C830.493,157.194,829.686,157.542,829.012,157.281Z" transform="translate(-660.408 -56.422)"/>
      <path id="Path_974" data-name="Path 974" d="M872.264,130.6c-.1.129-.2.256-.293.385C872.174,130.966,872.425,131,872.264,130.6Z" transform="translate(-592.024 -110.509)"/>
      <path id="Path_975" data-name="Path 975" d="M871.907,131.028c.05-.063.1-.127.146-.192-.089.006-.169.023-.2.09-.006.05-.011.1-.016.151.027-.013.045-.031.074-.043Z" transform="translate(-592.107 -110.363)"/>
      <path id="Path_976" data-name="Path 976" d="M871.26,131.968l.048.06a.738.738,0,0,1,0-.084C871.286,131.95,871.279,131.963,871.26,131.968Z" transform="translate(-592.458 -109.688)"/>
      <path id="Path_977" data-name="Path 977" d="M872.178,130.986a1.356,1.356,0,0,0-.882,1.542C872.081,132.282,872.107,131.618,872.178,130.986Z" transform="translate(-592.448 -110.271)"/>
      <path id="Path_978" data-name="Path 978" d="M858.56,144.248l-.755-.274-.018-.01c0,.016,0,.029,0,.043l.018-.029C858.063,144.058,858.1,144.754,858.56,144.248Z" transform="translate(-624.313 -77.427)"/>
      <path id="Path_979" data-name="Path 979" d="M846.73,150.958l.044.108c.014-.048.034-.053.048-.095C846.791,150.966,846.76,150.961,846.73,150.958Z" transform="translate(-638.475 -66.512)"/>
      <path id="Path_980" data-name="Path 980" d="M847.983,151c-.449-.306-.906-.665-1.2.151C847.2,151.212,847.616,151.323,847.983,151Z" transform="translate(-638.106 -66.871)"/>
      <path id="Path_981" data-name="Path 981" d="M850.481,148.995c-.016.034-.032.032-.05.061.039,0,.077.006.116.011Z" transform="translate(-633.795 -69.604)"/>
      <path id="Path_982" data-name="Path 982" d="M850.839,149.074c-.361-.039-.719-.074-1.077-.109C850.111,149.179,850.443,149.715,850.839,149.074Z" transform="translate(-634.374 -69.57)"/>
      <path id="Path_983" data-name="Path 983" d="M851.194,148.387c.008-.018.024-.021.034-.039-.011,0-.018,0-.029,0-.224.344-.447.689-.666,1.036C851.223,149.41,851.351,149,851.194,148.387Z" transform="translate(-633.498 -70.393)"/>
      <path id="Path_984" data-name="Path 984" d="M850.466,149l.06.068.048-.076A.768.768,0,0,1,850.466,149Z" transform="translate(-633.754 -69.607)"/>
      <path id="Path_985" data-name="Path 985" d="M848,150.13c.01.031,0,.05.013.079.013,0,.018-.008.031-.01Z" transform="translate(-636.886 -67.82)"/>
      <path id="Path_986" data-name="Path 986" d="M847.607,150.844c-.016,0-.027.011-.043.014l0,.006c-.011.011-.024.013-.037.024l.09.06C847.612,150.912,847.614,150.879,847.607,150.844Z" transform="translate(-637.466 -66.692)"/>
      <path id="Path_987" data-name="Path 987" d="M848.28,150.179c-.669.093-.789.517-.69,1.07C848.162,151.1,848.452,150.786,848.28,150.179Z" transform="translate(-637.245 -67.495)"/>
      <path id="Path_988" data-name="Path 988" d="M831.361,158.437c-.085.19-.169.38-.254.57.169-.1.338-.2.509-.293C831.53,158.622,831.447,158.529,831.361,158.437Z" transform="translate(-658.109 -54.616)"/>
      <path id="Path_989" data-name="Path 989" d="M831.028,158.863l.053.095.074-.167Z" transform="translate(-658.293 -54.186)"/>
      <path id="Path_990" data-name="Path 990" d="M858.712,145.513c.076-.055.09-.084.093-.109l.287.018-.1-.441c-.1.1-.211.211-.317.315l-.072.1.088,0Z" transform="translate(-623.361 -75.816)"/>
      <path id="Path_991" data-name="Path 991" d="M848,150.131l.042.068.045-.06A.6.6,0,0,1,848,150.131Z" transform="translate(-636.873 -67.821)"/>
      <path id="Path_992" data-name="Path 992" d="M848.545,149.738c-.163.217-.327.428-.491.641C848.627,150.5,848.58,150.111,848.545,149.738Z" transform="translate(-636.69 -68.292)"/>
      <path id="Path_993" data-name="Path 993" d="M848.355,149.694l.007.071.023-.029A.305.305,0,0,0,848.355,149.694Z" transform="translate(-636.44 -68.507)"/>
      <path id="Path_994" data-name="Path 994" d="M851.546,148.025l-.01.014c.014,0,.026-.008.042-.006Z" transform="translate(-632.421 -71.142)"/>
      <path id="Path_995" data-name="Path 995" d="M851.884,148.036a.874.874,0,0,0-.919.505A.686.686,0,0,0,851.884,148.036Z" transform="translate(-632.896 -71.007)"/>
      <path id="Path_996" data-name="Path 996" d="M849.544,149.248l-.011,0Z" transform="translate(-634.959 -69.223)"/>
      <path id="Path_997" data-name="Path 997" d="M849.873,148.968l.024,0-.016-.013-.016.01h0l-.006.006a.666.666,0,0,1-.324.452A1.886,1.886,0,0,0,849.873,148.968Z" transform="translate(-634.854 -69.569)"/>
      <path id="Path_998" data-name="Path 998" d="M849.243,149.3c-.016,0-.026,0-.042-.006l-.021-.01v.039l.037-.019C849.227,149.3,849.233,149.3,849.243,149.3Z" transform="translate(-635.39 -69.16)"/>
      <path id="Path_999" data-name="Path 999" d="M849.219,149.319a.519.519,0,0,0,.505-.068A.936.936,0,0,1,849.219,149.319Z" transform="translate(-635.219 -69.195)"/>
      <path id="Path_1000" data-name="Path 1000" d="M778.258,171.56c.777,2.5,2.862,3.718,4.11,5.525A5.578,5.578,0,0,0,778.258,171.56Z" transform="translate(-740.327 -31.796)"/>
      <path id="Path_1001" data-name="Path 1001" d="M782.335,175.584h0l0,0-.174-.056.175.063,0,0,0,0Z" transform="translate(-737.949 -27.929)"/>
      <path id="Path_1002" data-name="Path 1002" d="M783.2,175.567c-.835.295-1.233,1.63-2.443,1.035q2.53,1.1,5.055,2.2C784.978,177.482,783.332,177.276,783.2,175.567Z" transform="translate(-721.397 -26.416)"/>
      <path id="Path_1003" data-name="Path 1003" d="M780.743,176.206l0,0,.012,0Z" transform="translate(-738.812 -26.888)"/>
      <path id="Path_1004" data-name="Path 1004" d="M793.86,182.516l-2.243-.447-.008.008C792.354,182.075,792.847,183.154,793.86,182.516Z" transform="translate(-707.839 -4.961)"/>
      <path id="Path_1005" data-name="Path 1005" d="M798.133,184.979c.034-.084-.138-.36-.22-.364-.428-.014-.5.32-.586.629C797.657,185.355,797.972,185.375,798.133,184.979Z" transform="translate(-700.764 -3.409)"/>
      <path id="Path_1006" data-name="Path 1006" d="M797.281,185l.052.092c.008-.026.015-.053.023-.08C797.329,185,797.307,185.009,797.281,185Z" transform="translate(-700.913 -3.175)"/>
      <path id="Path_1007" data-name="Path 1007" d="M780.907,175.12c-.029-.043-.064-.084-.095-.127,0,.053.021.1.022.151l2.147.707c-.681-.246-1.363-.494-2.058-.734Z" transform="translate(-738.77 -28.415)"/>
      <path id="Path_1008" data-name="Path 1008" d="M783.2,174.751l.1-.015-.18-.054Z" transform="translate(-718.784 -29.254)"/>
      <path id="Path_1009" data-name="Path 1009" d="M785.79,177.621c.069.021.138.04.208.063l0,.006c0-.029.01-.042.013-.069l-.052-.008Z" transform="translate(-715.408 -24.645)"/>
      <path id="Path_1010" data-name="Path 1010" d="M785.4,177.711l.621-.029c-.188-.058-.377-.114-.563-.169Z" transform="translate(-715.86 -24.747)"/>
      <path id="Path_1011" data-name="Path 1011" d="M818.3,149.689c-1.044.9-2.495-1.439-3.4.563C816.071,150.415,817.313,151.33,818.3,149.689Z" transform="translate(-678.075 -68.66)"/>
      <path id="Path_1012" data-name="Path 1012" d="M815,149.942c-.034,0-.066-.014-.1-.018l0,0c-.055,0-.108.01-.163.016.069.032.146.042.214.079A.829.829,0,0,1,815,149.942Z" transform="translate(-678.839 -68.139)"/>
      <path id="Path_1013" data-name="Path 1013" d="M761.423,156.276l-.017-.006,0,0Z" transform="translate(-750.596 -58.195)"/>
      <path id="Path_1014" data-name="Path 1014" d="M763.476,160.436c.006.058.013.116.019.172l.069-.045C763.527,160.525,763.511,160.476,763.476,160.436Z" transform="translate(-749.335 -51.599)"/>
      <path id="Path_1015" data-name="Path 1015" d="M762.146,156.509c.291,2.252.533,4.519,2.141,6.32C764.011,160.573,763.994,158.228,762.146,156.509Z" transform="translate(-750.145 -55.844)"/>
      <path id="Path_1016" data-name="Path 1016" d="M763.488,160.56a.794.794,0,0,1,.089.024c0-.024-.016-.043-.018-.069Z" transform="translate(-749.327 -51.508)"/>
      <path id="Path_1017" data-name="Path 1017" d="M762.122,156.407l-.035.055,0,0c.039.035.064.074.1.108l-.02-.146C762.147,156.42,762.139,156.412,762.122,156.407Z" transform="translate(-750.183 -57.933)"/>
      <path id="Path_1018" data-name="Path 1018" d="M761.925,155.2c-.266.752-.719,1.551.481,1.936C762.969,156.316,763.293,155.552,761.925,155.2Z" transform="translate(-750.468 -59.307)"/>
      <path id="Path_1019" data-name="Path 1019" d="M761.109,157.756c.206-.523.394-1,.581-1.473C761.318,156.677,760.605,156.919,761.109,157.756Z" transform="translate(-750.883 -57.737)"/>
      <path id="Path_1020" data-name="Path 1020" d="M761.42,156.275l-.009,0-.007.017Z" transform="translate(-750.597 -58.188)"/>
      <path id="Path_1021" data-name="Path 1021" d="M761.773,155.144l.008.082c.019,0,.031.011.048.014l.021-.058Z" transform="translate(-750.372 -59.938)"/>
      <path id="Path_1022" data-name="Path 1022" d="M761.574,155.137l.32.159-.043-.4Z" transform="translate(-750.494 -60.243)"/>
    </g>
  </g>
</svg>
