<svg xmlns="http://www.w3.org/2000/svg" viewBox="0 0 60.58 58"><defs><style>.cls-1{fill:#fff;}</style></defs><g id="Layer_2" data-name="Layer 2"><g id="Layer_2-2" data-name="Layer 2"><path class="cls-1" d="M49.9,25.67h0l0,0Z"/><path class="cls-1" d="M36.15,35h0Z"/><path class="cls-1" d="M47.63,30.18s0,0-.06,0v0Z"/><path class="cls-1" d="M20.23,48.72l0,0h-.05Z"/><path class="cls-1" d="M24.92,57.74a28.85,28.85,0,0,0,11.69-.87c3-.81,5.58-2.72,8.15-4.58C49,49.23,52.56,45.77,54.94,41c1.14-2.26,1.61-4.76,3-6.93a17.73,17.73,0,0,0,2.38-6.73,11.05,11.05,0,0,0-.3-6.1c-1-2.47-1.89-5-3-7.44a27.8,27.8,0,0,0-5.57-8.16C49.36,3.46,46.55,2.23,43.86.93A7.4,7.4,0,0,0,40.72,0a19.51,19.51,0,0,0-11,3.07,19.27,19.27,0,0,0-6.64,6.61c-1.1,1.83-.83,6.35.19,8.2.81,1.47,2.38,2.34,2.83,4.1-.86-.79-2.09-.28-2.85-1a26.65,26.65,0,0,1-4.55-5.58C17.31,13.26,16,11,13.34,10s-4.78-.26-6.08,2.52A69.44,69.44,0,0,1,2,21.9C1,23.41-.81,25,.41,27.13c1.37,2.38,2.71,4.64,6,5.3,2.88.56,5.8.54,8.68,1.25A48.12,48.12,0,0,1,24,36.48c2.39,1.12,2.48,3.26,3.32,5.12.11.23.07.64-.35.64a.73.73,0,0,1-.52-.36c-1.33-2.63-3-5-6-5.73-2.28-.58-4.32-2-7-.95S8.29,38.06,8,40.94a13,13,0,0,0,5.4,11.85A24.34,24.34,0,0,0,24.92,57.74Zm6.32-35.07c.09.09.15.36.09.42-.47.46-.92.06-1.78-.12C30.34,22.7,30.73,22.18,31.24,22.67ZM13,31.87c-3-.73-6.15-.76-8.69-2.78C2.21,27.44,2,26.17,3.43,24,4,23,4.57,22,5.14,21.07,6.73,18.65,7.86,16,9.25,13.46c1-1.81,2.74-2.31,4.71-1.05s2.62,3.27,3.79,5c2.21,3.31,4.8,6.16,9.07,6.72a2.79,2.79,0,0,1,1,.38c2.35,1.43,4.62.52,6.84-.29a4.43,4.43,0,0,0,2.55-4.72c-.17-.77.15-.81.67-1.08.82-.42,1.07.08,1.32.62,1.12,2.47-.48,6-3.18,7a12.23,12.23,0,0,1-9.83.13,25.16,25.16,0,0,1-6.93-4.31,17.82,17.82,0,0,0-1.58-1.09c-.94-.73-2.09-1.19-2.61-2.47-.23-.57-1-1-1.61-1.34-1.18-.73-2.15-.84-3.09.59a28.94,28.94,0,0,0-3.11,7.51c-.3.95.35,1.52,1,2A22.39,22.39,0,0,0,13.16,30c.73.3,1.84.66,1.71,1.53C14.7,32.64,13.44,32,13,31.87Zm17.4-21.12c.07-.22.18-.44.47-.32.57.23.47.71.43,1.17a1.23,1.23,0,0,0,0,.27c-.06,0-.12-.11-.18-.15C30.77,11.47,30.16,11.42,30.37,10.75Zm15.08,2.91c1.25-1.26,2.06-.63,2.87.19a4.05,4.05,0,0,1,1.47,3.62c-.16,1.2-1.54.64-1.44,1.76-.75-1.88-2.48-2.79-3.27-4.43C44.74,14.1,45,14.17,45.45,13.66ZM37.52,8.5c-.09-.11,0-.45.12-.63s.4-.13.62,0c2.65.94,5.19,2,6.16,5.23-1.56-.57-2.82-1.45-4.35-1.86C39.22,11,38.33,9.48,37.52,8.5ZM23,52c-2,0-3.44-1.29-5.13-2-2.41-1-2.8-3.18-3.21-5.3-.15-.73-.07-1.89,1-2,1.25-.07,2.71,0,3.36,1.31a8.9,8.9,0,0,0,1.34,2c.8.93,1,1.78-.05,2.62,1.64.2,2.69,1.7,4.29,2-.13.75,1.12,1.3.59,1.83C24.45,53.21,23.71,52,23,52Zm1.62-1.33c1.52-.8,2.8-.12,3,1.54,0,.28.25.63-.12.75a.93.93,0,0,1-.77-.22C25.92,52.09,25.25,51.37,24.57,50.68Zm3.9,2.52a1.41,1.41,0,0,1,.1-1.82c-.11.7,1,1.15.36,1.91A.5.5,0,0,1,28.47,53.2Zm1.41-.61c-.11-.7-1.27-1.32-.48-2,1-.76.59.69,1.07.85,0,.35.26.47.46.66,0,.15.08.3.11.45C30.63,53.14,30,53.19,29.88,52.59Zm1.19,0a.44.44,0,0,0-.13-.47c.15-.39-.13-.53-.39-.67.34-.29.32-1.34,1.1-.6.55.53,1.14,1.35.66,2.11S31.49,52.79,31.07,52.6Zm3-.33c0-.63-.67-1.11-.26-1.79s.94.08,1.38-.14c-.32-1.27-1.23-1.05-2.12-.89a8.5,8.5,0,0,1,1.14-2.77c1.28.26.62,1.84,1.55,2.34a.75.75,0,0,0,.34-1.14c-.26-.43-.27-.73.16-1l-.13,0h.1l.72.75c-.6.95.48,1.47.76,2,.54,1.1,0,1.39-.6,1.95s-1.58.34-2.17,1C34.77,52.77,34.08,52.55,34.09,52.27Zm-1-2.81c-.49.22-1,.44-1.33-.17a1,1,0,0,1,.51-1.43Zm.49-3.77c0-.11.3-.24.37-.2a.7.7,0,0,1,.27,1.1C33.91,46.34,33.24,46.36,33.56,45.69Zm3.5,1.53c.13,0,.24,0,.22.21s-.15.06-.26.08S37.05,47.31,37.06,47.22Zm.74-.66c0-1.05.73-1,1.47-.89,1.12.24,2.3-.54,3.4.18.17.11.57.11.47-.23s-.53-1,.36-.79.39.76.1,1.2l-.18.3c-.76,1.53-2.49,2.06-3.44,3.4a.53.53,0,0,1-.32.1A9.61,9.61,0,0,1,37.8,46.56Zm-.72.59a2.07,2.07,0,0,1,0-.22l.09.11ZM10.64,22.69c-.62-.66.14-1.26.62-2,1,2.17,2.15,4.19,2.26,6.58l1,.77a3.83,3.83,0,0,0-.7-2.93c-1.06-1.51-.64-3.39-1.66-4.85a1.41,1.41,0,0,1,0-1.65c.24-.3.67-.21,1-.07.81.33.39.89.29,1.47a3.36,3.36,0,0,0,.32,1.33h0c.56,2.59,2.07,4.87,2.57,7.49-1.06.64-1.07-.86-1.8-.79-.27-.36-1.1.09-1.07-.72-.79.8-1.49.49-2.26-.08-1-.7-1.87-1.41-1.84-2.71,0-.33.15-.9.71-.82s.37.5.4.84a2.59,2.59,0,0,0,1.49,1.88C11.47,25.21,11.66,23.8,10.64,22.69Zm34.7,3.79c-.21-.17-.27-.35-.1-.57.47-.62.85-.17,1.24.08C46.06,26.06,46,27.05,45.34,26.48ZM44,25c-.21.31-.48.25-.81.06s-.14-.47,0-.72.39-.2.6-.06S44.18,24.71,44,25Zm-2-.17c-.27.3-.47,0-.67-.14.2-.16.4-.44.6-.43S42.08,24.67,41.92,24.85Zm-1.74,2.33c-.07.21-.41.09-.62,0a.57.57,0,0,1-.26-.75c.44-.77.68-1.83,1.93-1.68C41.79,25.9,40.45,26.32,40.18,27.18Zm4.34.39c-.43-.2-.83-.52-1.24.1-.27.39-.53.12-.77-.1a1.48,1.48,0,0,1,1.75-1C44.76,26.73,44.73,27.17,44.52,27.57Zm1.57.22-.21.15-.05-.15Zm-.89.9c-.07.12-.3.27-.39.23-.71-.25-.26-.74-.22-1.15C44.86,28,45.63,28,45.2,28.69Zm1.45,0v0l0,0Zm-3.33.47.35.11C43.49,29.45,43.41,29.28,43.32,29.17Zm-1.41,1.09c.19-.59.43-1.14,1.19-1.16h0s0,0,0,0C43.25,30.08,42.74,30.34,41.91,30.26Zm.14-1.69c-.54.16-.72-.46-1-.76.48-.13.89-.75,1.47-.22C42.42,28,42.46,28.46,42.05,28.57ZM41,27.82h0c.08.5.28,1.05-.23,1.4s-.72,0-1-.32C39.72,28,40.2,27.75,41,27.82Zm-2.13-.52c.12.6-.46.91-.81,1-.76.11-1.3,1-2.15.6-.1-.05-.07-.4-.12-.74a5.83,5.83,0,0,0,2.6-1.21S38.83,27.13,38.86,27.3Zm-1.09,2.47c-.14-.81.66-.54,1.06-.76s.58-.33.91-.1c-.17.59,0,1.23-.27,1.79-.14-.09-.29-.22-.39-.19A.93.93,0,0,1,37.77,29.77Zm1.72,1c.5.34.94.44,1.33-.24.21-.36.56-.71,1-.24a4,4,0,0,1-1.42,1.37c-.48.26-1,.91-1.48.31S39.25,31.2,39.49,30.79Zm-5.5,3a1.45,1.45,0,0,0-.72-.85.55.55,0,0,0,.07-.79c.31-.34.55-1.23,1.06-.54s1.05,1.48.51,2.37c-.35.56-.66.08-.91-.22A0,0,0,0,0,34,33.74Zm2.16-1.31c.08.34.72.5.32,1a.41.41,0,0,1-.62.07C35.42,33,35.81,32.72,36.15,32.43Zm0,0c-.77,0-1.08-.41-1.09-1.14,0-.09.33-.29.35-.27C35.81,31.36,36.28,31.72,36.14,32.39Zm1.14-.07c.17-.26.34-.5.7-.32s.46.37.26.7-.5.25-.79.15S37.14,32.56,37.28,32.32Zm-.58-1.09c-.34-.3-.7-.63-.48-1.18a.85.85,0,0,1,1.1.11c.31.27.6.58.27,1S37,31.46,36.7,31.23ZM35.08,29.5c-.53.41-1,1.14-1.76.94a4.2,4.2,0,0,1-1.13-.68c.36-.8,2.27-1.53,2.79-1C35.21,29,35.33,29.31,35.08,29.5Zm-2.91.29c.17.5.62,1.08-.11,1.42-.5.24-.78-.3-1-.71a2.6,2.6,0,0,0-.59-.55C30.91,29,31.53,29.3,32.17,29.79Zm.15,4.63c-.26.42-.09.72.26,1,.06.57.75,1.07.21,1.7-.79-.21-1.37-.56-1.39-1.55a1,1,0,0,0-.77-1c.37-.89-.52-1.6-.37-2.47C31.44,32.43,31.53,33.75,32.32,34.42ZM19.73,28.55l-1.58-4.29c-.1-.28-.21-.62.07-.8a.56.56,0,0,1,.82.35,3.8,3.8,0,0,0,1.18,1.82c-.11.37.2.49.43.65a.77.77,0,0,0,.56,1.16.37.37,0,0,0,.12.46,2.3,2.3,0,0,1-.91,1.31h0Zm1.53-1.12c.33-.64-.15-.89-.56-1.17.13-.38-.16-.51-.41-.66.71-.46.88.26,1.23.61s.67,1.14,1.28,1.47c-.44.37-.87.75-1.43.22A.41.41,0,0,0,21.26,27.43ZM25,31.35c-1.19.09-1.42-1.31-1.74-2.3,0-.09-.09-.18-.13-.28a2.58,2.58,0,0,1,2.81.16C25.76,29.81,26.4,31.26,25,31.35Zm1.24.46,0,.09-.07,0Zm-2.66-4.22-.75.06c.07-.29.1-.65.57-.43C23.54,27.27,23.57,27.47,23.62,27.59Zm-.57,1.21c-.47.33.78,1.49-.56,1.4.12-.39-.13-.55-.43-.67C22.35,29.23,22.59,28.87,23.05,28.8Zm6.64,5.32.85.49C29.84,35.22,29.88,34.47,29.69,34.12Zm-.06-.07a6.12,6.12,0,0,1-2.11-1.48,1.27,1.27,0,0,1-.18-1.44,1.19,1.19,0,0,1,1-.6c.49,0,.81.59.83,1C29.18,32.38,30.2,33.07,29.63,34.05Zm-3.05-4.32c-.2-.25-.37-.53-.56-.79.38-.11.52-.61,1-.57s.82.08,1,.55a.86.86,0,0,1-.37.91A.67.67,0,0,1,26.58,29.73Zm-6.16-.51a1.51,1.51,0,0,1,1.59.36h0c0,.32.23.46.42.64-.2.45-.43.73-1,.56C20.54,30.54,20.53,29.87,20.42,29.22Zm9.83,2.86c-.3-.32-.7-.55-.81-1s-.61-.61-.26-1.06.82,0,1.23,0C30.56,30.71,31.22,31.45,30.25,32.08ZM15.7,21c1.52,1.59,1.78,3.53,2.57,5.32a5,5,0,0,0,1.44,2.27c-.48.45-.21,1.55-1.2,1.48s-.84-.92-1.21-1.48a33.57,33.57,0,0,1-2.58-5.94c-.22-.57-.4-1.08-1-1.28C14.15,20.2,14.35,19.57,15.7,21ZM19,31.92c.07-.06.28,0,.45.07.1.19.31.45.25.53-.16.25-.39.08-.53-.08S18.72,32.16,19,31.92Zm2.64.72c.33-.61.72-.13,1,.06s1.07.55.79,1.19-.78.06-1.15,0C21.77,33.6,21.28,33.29,21.62,32.64Zm3.12,1.54.28.71a.46.46,0,0,1-.66.11c-.23-.17-.13-.41,0-.59S24.61,34.26,24.74,34.18Zm2,2.13a18.38,18.38,0,0,1-1-1.93l.32-.29a18.69,18.69,0,0,1,1.71,1.34.77.77,0,0,1,0,1.23C27.29,37,26.9,36.6,26.71,36.31Zm6.12.87c1.17.23.53,1.81,1.53,2.17-.2.77.89,1.37.34,2.19C33.74,40.23,32.2,39.17,32.83,37.18Zm1.87,4.43.86.51c-.3.15-.32.84-.79.53A.7.7,0,0,1,34.7,41.61Zm3.81,1.14c.17-.06.57,1.16.35,2a3.37,3.37,0,0,1-2.77.49A.7.7,0,0,1,35.84,44,4.85,4.85,0,0,1,38.51,42.75ZM40.65,44c-.25.14-.4.6-.81.26-.21-.18-.27-.43,0-.57S40.38,43.86,40.65,44Zm.13,0c.17-.19.17-.63.62-.4a.34.34,0,0,1,.15.27C41.37,44.28,41,43.91,40.78,44ZM38,41.61c-.89-.07-1.29,1.87-2.34.47h0c-.3-1-.15-2.16-1.24-2.79-.14-1.51-.06-3.11-1.76-3.92.35-.44.07-.72-.27-1,0-.85-.46-1.93.89-2.24a.63.63,0,0,0,0,.77l0,0c.24.28.48.57.73.85-.4,1.21,0,1.94,1.3,2.17-.1-.73-.09-.76.81-.93.29-1,.84-.83,1.46-.37-.49.48-.16.75.24,1a.43.43,0,0,0,.16.5.35.35,0,0,0-.1-.52c.35-.43.09-.7-.23-1,.82-1.56,2.31-1.9,3.87-2.12h0l-.11.16.11-.16h0c.6-.21.62-.21,1.41.71-.08.38.23.52.46.71L43,33.28c-.06-1.74.7-2.31,2.13-1.59h0c0,.31.26.45.43.65,0,.34-.15.72.24,1-.41.75-.44.75-.8.11a.74.74,0,0,0-.81-.42c.31.74.65,1.48.07,2.24l-.92-.54c-1.1,1-2.29,1.64-3.76.78.25,1.33-.39,1.48-1.47,1.08-.12.4-.3.8.07,1.17l-.87-.57h0l-.07,0,.08,0c-.42.86-.42,1.53.74,1.64.06-.3.12-.6.17-.89l.84.43a.52.52,0,0,0,0,.83c.08-.28.28-.54.08-.83.23-.58.28-1.45,1.29-.84,0,.33.25.46.43.66,0,.25,0,.51,0,.76h0c-.06.36.22.51.42.71-.67,1.55-1.36.3-2.05,0C39.54,40.77,39.34,41.72,38,41.61Zm4.34-.24c.49-1.13,1.91-1.23,3.17-1,.1-.4.16-.85.78-.6a.67.67,0,0,1,.42,1c-.55,1-1.15,2-1.74,3.06-.32.54-.71.37-1.2.17A2.19,2.19,0,0,1,42.32,41.37Zm2.2-2.25c-1,.45-2,1.45-3.3.51.08-.35-.18-.5-.44-.65a.7.7,0,0,0,0-.78c.07-.35-.2-.49-.41-.67.48-1.51,1.78-1.25,2.92-1.33h0c.54-.06.76-.44.89-.9l1.19.69c-.07.36.18.5.42.66-.15.26-.27.52-.05.8C46.39,38.74,45.21,38.82,44.52,39.12Zm2.63.07c.23.08.52.11.45.48,0,.08-.18.2-.24.18C47,39.74,47.23,39.41,47.15,39.19Zm0,0a7.22,7.22,0,0,0-1.31-1.69.54.54,0,0,0,.05-.81c0-.33-.25-.46-.43-.66.25-1,.26-1,.89-.52.29-.89,2.65-1.34.61-2.72a.62.62,0,0,0-.26-1,.44.44,0,0,0-.14-.51l.12.5h0a1,1,0,0,0,.26,1c0,.33.19.71-.16.94s-.61-.31-1-.42a.68.68,0,0,0-.27-1c.12-.38-.09-.56-.41-.67.46-.23.06-1.81,1.3-.82a1.14,1.14,0,0,1,1.13-.65c.31-.84-.4-1.08-.87-1.46.76.3,1.15-.27,1.6-.75-.65-.73-1.44.18-2.1-.22a3.69,3.69,0,0,1,3.7-2.08l1.58-2.62a.74.74,0,0,0,.61-.39c1.22,1.93.29,4,.24,6-.08,3.52-1.93,6.39-3.62,9.31A2.63,2.63,0,0,1,47.14,39.14ZM52.08,22.6c-.32,0-.5.19-.66.44-.52-.13-1.41.67-1.49-.62a.45.45,0,0,0-.65-.38c-.33.18-.19.5,0,.76.69,1,.33,1.22-.7.91h0l-.1,0h.08c0,.39.63,1-.15,1.1s-1.17.84-1.83,1.11c.13-.36.23-.72.38-1.06a1.71,1.71,0,0,0-.13-1.75c-.65-.77-.83.6-1.39.48s-.5,1.33-1.09.37c-.5-.81.47-.7.84-.91.76-.41,1.18-1.74,2.41-.92h0a15.14,15.14,0,0,0,1.81-2.48A1.26,1.26,0,0,1,51,19.1c.83.23,1.08,1.16,1.33,1.88A1.58,1.58,0,0,1,52.08,22.6Zm-11.2-4.27c.28.79.39,1.31.89,1.49l-.15.28C41,19.86,40.8,19.4,40.88,18.33Zm-5.64-4.5c.54-.39,1,0,1.34.39s.25,1,.74,1.34h0c0,.46.45.59.73.84-.35.89-1,.44-1.59.37a13.71,13.71,0,0,0-1.07-1.83C35.09,14.53,34.67,14.24,35.24,13.83Zm8.51,1.79a4.62,4.62,0,0,0,2,2.42c-.53.73.22.85.57,1.16a.4.4,0,0,0,.12.48c-.07.47.86.74.28,1.28s-.88,0-1.27-.26c.12-.38-.19-.5-.42-.67.29-.77-.1-1.26-.72-1.66.34.52.14,1.25.68,1.68-.1.36.21.48.41.66,0,.5.17,1.16-.68,1.22-.11-.41-.5-.59-.76-.87.07.44.48.6.74.88-.62,1.09-1.08.38-1.56-.11.29-.62-.18-.88-.56-1.18,0-.48-.46-.58-.72-.84a1,1,0,0,0,0-1.21c-.28-.38-.48-1,0-1.23s.71.32,1,.6c-.17.27-.35.55,0,.85h0c.36.59.2,1.46,1,1.82.32-1-.42-1.35-1-1.85.19-.26.29-.52,0-.81l0,0c-.13-.27-.53-.57-.18-.82s.59.14.8.4c.33-.68-.19-1.09-.52-1.54s-.25-.76,0-.93C43.48,14.82,43.64,15.36,43.75,15.62Zm1.35.52s-.06.09-.07.08a.3.3,0,0,1-.14-.06.59.59,0,0,1-.06-.14Zm2.28,3.59c-.29.57-.61-.09-.93-.08a.44.44,0,0,0-.11-.45l.34-.6C47.09,18.87,47.73,19,47.38,19.73ZM45.82,18c.57-.35.71.05.82.49Zm-5.67-2.65a.36.36,0,0,1,.49-.32c.73.21.73.77.59,1.46C40.63,16.21,40.07,16.07,40.15,15.39Zm-.48-1.11c-.36.61-.83.31-1.28.15.37-.18.4-1,1.1-.53C39.59,14,39.72,14.21,39.67,14.28Zm-1.35.19h0c.16.25.33.5.49.76.64,1,.17,1.21-.74,1.15,0-.46-.42-.63-.73-.86.71-.6-.48-1-.21-1.54C37.64,13.88,37.93,14.29,38.32,14.47Zm4.2,6.21c-.22.58.17.87.56,1.15a1.24,1.24,0,0,1-.39,1.37c-1.59-.59-1.19-1.86-1-3Zm0-7.62.06-.07.06.1Zm-3-.51v0l-.07,0c-1.17.88-2,.46-2.68-.69a6.87,6.87,0,0,0-2.3-2.08c-.3-.2-.63-.41-.92-.05-.43.52.09.71.39.94.79.58,1.6,1.14,1.5,2.34l-2,.11c.28-.41.08-.7-.27-1,0-.32-.28-.44-.46-.64-.59-.67-1.66-1.32-.6-2.32S34,7.69,35.47,8.71A28.17,28.17,0,0,1,39.49,12.55Zm-6.4-.33c-.35.43-.13.72.26,1l-.51.89a.37.37,0,0,0-.49.11l-.91-.52L31.38,12C31.87,12.58,32.53,12.06,33.09,12.22Zm-2.69.13c0,.68.68.91,1,1.35h0c.25.26.17,1.11.89.54a.43.43,0,0,0,.5-.11c1.6.34,2.34,1.86,3.61,2.66a1,1,0,0,1-.13.49c-.61.67-5,.75-5.8,0C29.34,16.18,28,14,29.16,12.18c.19-.28.23-.73.67-.72S30.4,11.89,30.4,12.35ZM16.67,32.42a.75.75,0,0,1-.29-1.1c.24-.44.57-.3.9-.14a.68.68,0,0,1,.38,1C17.4,32.76,17,32.49,16.67,32.42ZM12.91,50.15c-2.35-2.44-3.9-6.34-3-9.75.61-2.2,3.39-3.54,5.67-3.38s4,1.22,5.89,2S24,41.92,25,43.51c.28.45-.08,1.29-.59,1.75s-.43,1.16,0,1.66,1,.6,1.47,0c.31-.43.82-.34,1.27-.46,2.74-.75,2.63-1.59,2.25-4.4-.12-.91-.39-1.81-.5-2.72,0-.35-.75-.76.07-1.13.62-.28.95,0,1.36.4,2.62,2.22,2.17,6.51-.45,8.53-2.35,1.82-6.27,2.23-8-1.33-.45-.89-.9-1.83-1.44-2.69a5.86,5.86,0,0,0-4.45-2.55,2.81,2.81,0,0,0-3.11,3.24c.21,1.39,1.25,2.81-.27,4.16-.33.3.32.81.7,1.07a43.3,43.3,0,0,0,8.85,4.78A18.92,18.92,0,0,0,31.76,55a20.18,20.18,0,0,0,6.73-2.59c4.22-2.41,6.69-6.15,9.06-10.13a76.69,76.69,0,0,1,4.41-7,11,11,0,0,0,1.76-4.86c.16-1.17.08-2.27,1.2-3.21a1.93,1.93,0,0,0,0-2.76c-.83-1.09-.68-2.9-1-4.38A15.28,15.28,0,0,0,50,13.32c-.59-.66-2.69-.63-1.35-2.42a1.66,1.66,0,0,0-.47-.46.5.5,0,0,0-.77.13c-.72,1.59-1.72.48-2.16,0C44.19,9.39,43,8.3,41.87,7.15c-.77-.8.56-1.77-.53-2.11s0,1.53-1.23,1.28c-.28-.05-.73.28-1.13.06-2-1.15-3.93-.48-5.86.16a11.9,11.9,0,0,0-5,3.32c-1.61,1.76-1.19,5.91.44,7.74,1.83,2.07,4.17,1.82,6.63,1.76-.29,1-.64,1.62-1.8,1.62-.94,0-1.94.29-2.84.28-2.88,0-7.07-3.86-5.42-7.18.3-.59.38-1.13-.56-.86-1.26.35-1-.5-.79-1.05C25,8.28,28.06,6,31.34,4c.83-.5,1,.23.93.94,1.86-1.86,3.1-2,4.41-.42.34-.79-.94-1.68,0-2.2A5.25,5.25,0,0,1,39,1.9c2.67-.08,4.13.88,5.17,3.79.16.46,0,1.25.74,1s.13-.91.17-1.39-.38-.57-.53-.86a.73.73,0,0,1,.18-.81c.23-.29.47-.19.78-.09a16.75,16.75,0,0,1,5.53,4.84c-.93.25-1-.85-1.7-1-.36-.08-.73-.56-1,.09a8.56,8.56,0,0,0,1.91,2.32c2.75-1.79,3.46,1,4.33,2.27a35.72,35.72,0,0,1,4.8,11.2c.17.66.76,2.07-.82,2.37l0,0s0,0,0,.05h0l0,0c.54,4.52-2.14,8-3.89,11.71-.8,1.7-1.12,3.73-2.17,5.13-1.39,1.84-2.59,3.94-4.38,5.45-4.13,3.48-8.42,6.9-13.85,8s-10.73.87-15.61-2.08C16.72,52.69,14.55,51.85,12.91,50.15Z"/><path class="cls-1" d="M53.19,38.37a.55.55,0,0,0-.2-.75c-.29-.2-.65-.36-1,0s-.09.69.17.9S52.86,38.56,53.19,38.37Z"/><path class="cls-1" d="M49.34,44.51c.28-.22,0-.32,0-.37a1.81,1.81,0,0,0-2,.47A1.62,1.62,0,0,0,49.34,44.51Z"/><path class="cls-1" d="M54.27,16.07c.25-.41-.14-.62-.4-.81s-.62-.18-.76.28-.09.68.29.88A.64.64,0,0,0,54.27,16.07Z"/><path class="cls-1" d="M56.46,23.93c-.42.59-.68,1,0,1.49A1,1,0,0,0,56.46,23.93Z"/><path class="cls-1" d="M58.44,25.39l.12.2C58.62,25.49,58.71,25.38,58.44,25.39Z"/><polygon class="cls-1" points="46.35 35.47 46.34 35.46 46.34 35.47 46.35 35.47"/><polygon class="cls-1" points="46.35 35.47 46.34 35.47 46.35 35.47 46.35 35.47"/><path class="cls-1" d="M47.43,37.35c.36-1-.29-1.5-1.08-1.88C46.87,36,46.14,37.19,47.43,37.35Z"/><path class="cls-1" d="M48.83,28.7c-.08.06-.21.11-.23.17s.1.16.16.24S49,29,49,28.93,48.88,28.78,48.83,28.7Z"/><path class="cls-1" d="M49.91,26.89a.28.28,0,0,0,.28,0c.21-.22,0-.38-.1-.55C49.91,26.5,49.72,26.64,49.91,26.89Z"/><path class="cls-1" d="M47.63,30.19l-.06,0,.06.06A.22.22,0,0,1,47.63,30.19Z"/><path class="cls-1" d="M48.19,30.84l-.56-.57C47.59,30.68,47.88,30.77,48.19,30.84Z"/><path class="cls-1" d="M48.27,30.86l-.08,0,0,0Z"/><path class="cls-1" d="M48.05,31.33l.15-.42-.3.27Z"/><path class="cls-1" d="M48.26,30.86h0l0,0Z"/><path class="cls-1" d="M50.07,26.33s0,0,0,0v0c.2-.3.18-.54-.2-.68l0,0,.18.63Z"/><path class="cls-1" d="M18,47.83c-.29-1.26-.52-2.25-.83-3.61C16.28,45.84,16.77,46.79,18,47.83Z"/><path class="cls-1" d="M20.23,48.72v0l-.07,0Z"/><path class="cls-1" d="M19.81,48.75l.34-.06-.34-.15Z"/><polygon class="cls-1" points="17.79 48.71 17.85 48.82 17.91 48.72 17.79 48.71"/><path class="cls-1" d="M38.06,38.85H38v0Z"/><path class="cls-1" d="M36.23,39.57l0,0h0Z"/><path class="cls-1" d="M36.5,38.74s-.24-.06-.27,0c-.23.28-.3.58,0,.85A.73.73,0,0,0,36.5,38.74Z"/><path class="cls-1" d="M36.27,39.7l.12.61A.78.78,0,0,0,36.27,39.7Z"/><path class="cls-1" d="M36.2,39.6a.3.3,0,0,1,.07.1l0-.11Z"/><path class="cls-1" d="M34.75,36.91h.06l0,0c.15-.26.29-.52.43-.78l-.45.77Z"/><path class="cls-1" d="M35.2,36.09l.1-.16h0Z"/><path class="cls-1" d="M35,36.87l-.18,0L35,37Z"/><path class="cls-1" d="M36.15,35h0l0,0S36.13,35,36.15,35Z"/><path class="cls-1" d="M36.24,35.38s.15,0,.22-.06L36.13,35A.23.23,0,0,0,36.24,35.38Z"/><path class="cls-1" d="M38.05,38.85l0,0,0,0S38,38.88,38.05,38.85Z"/><path class="cls-1" d="M38.54,39.45c-.17-.18-.33-.36-.5-.53C37.85,39.38,38.16,39.44,38.54,39.45Z"/><path class="cls-1" d="M38.39,39.84l.17-.37,0,0h0Z"/><path class="cls-1" d="M36.45,40.65l-.06-.34a.74.74,0,0,0,0,.42l0,.05V40.7l.1-.07Z"/><path class="cls-1" d="M32.41,15.72l.36.11a1.92,1.92,0,0,0-.25-.12S32.45,15.72,32.41,15.72Z"/><path class="cls-1" d="M32.81,15.85c-.1.12-.2.23-.29.36s0,.06,0,.1l.26-.45h0l0,0Z"/><path class="cls-1" d="M48.08,22.53a3.74,3.74,0,0,0-.48-.35.83.83,0,0,1,.18.25C47.85,22.62,47.85,22.94,48.08,22.53Z"/><path class="cls-1" d="M47.59,22.17h0l0,0Z"/><path class="cls-1" d="M36.93,49.91a.13.13,0,0,1,0-.06h-.06Z"/><path class="cls-1" d="M37,50.28s.13,0,.19,0l-.3-.33A.25.25,0,0,0,37,50.28Z"/><path class="cls-1" d="M35.82,49l1,.73C36.66,49.3,36.24,49.17,35.82,49Z"/><path class="cls-1" d="M36.94,49.85l-.11-.08a.9.9,0,0,1,.05.09Z"/><path class="cls-1" d="M35.76,49h0Z"/><path class="cls-1" d="M44.3,36.88a2.44,2.44,0,0,0-1-.68h0Z"/><path class="cls-1" d="M42.68,37.6l0,0h.07Z"/><path class="cls-1" d="M42.69,37.63c.05.09.09.19.14.28l-.1-.25h0l0,0Z"/><path class="cls-1" d="M44.44,37.11l.09,0,0-.08h0l-.26-.18a1.24,1.24,0,0,1,.19.21Z"/><path class="cls-1" d="M39.5,35.39l0,0h0l.07,0v0Z"/><path class="cls-1" d="M39.56,34.31l0,0c-.63.31-.59.66-.08,1C40,35.08,39.7,34.69,39.56,34.31Z"/><path class="cls-1" d="M40.88,33.47h0l.09.06-.08-.06c.17-.26.34-.52.5-.78l-.51.77Z"/><path class="cls-1" d="M41.6,34.27a1.09,1.09,0,0,1,.08-.15l-.19.06Z"/><path class="cls-1" d="M41.68,34.12l.08,0,0-.06h0L41,33.53l.74.54Z"/><path class="cls-1" d="M39.46,34.34l.12,0,0,0Z"/><path class="cls-1" d="M45.44,40.44l.08,0h0Z"/><path class="cls-1" d="M45.38,40.5l.06-.06-.15.09S45.36,40.52,45.38,40.5Z"/><path class="cls-1" d="M44.33,42.44l-.17.07.06.1.14,0Z"/><path class="cls-1" d="M44.24,32.88l-.11.09v0h0Z"/></g></g></svg>