<svg xmlns="http://www.w3.org/2000/svg" viewBox="0 0 124.05 61.97"><g id="Layer_2" data-name="Layer 2"><g id="Layer_2-2" data-name="Layer 2"><path d="M32.81,25.31h0l0,0Z" transform="translate(0 0)"/><path d="M75.55,22.3l.08,0,0,0Z" transform="translate(0 0)"/><path d="M3.11,10.87a.1.1,0,0,1,.05,0h-.1Z" transform="translate(0 0)"/><path d="M123.68,60.52a10.2,10.2,0,0,0-2.93-2.31c-3-1.37-5.87-2.81-8.8-4.23-.3-.15-.74-.24-.64-.7s.56-.32.88-.34c1.15-.09,2.42.12,2.84-1.46.19-.71-.56-1.25-.34-2.09,1.64.7,3.42.29,5,1.27a3.22,3.22,0,0,0,2.24.14c.79-.19,1.56-.51.46-1.61-1.94-1.95-4.67-1.83-6.95-2.89A12.17,12.17,0,0,0,110.24,45c-.7,0-1-.36-1-1a4.19,4.19,0,0,1,2.73.38,9.78,9.78,0,0,0,5,.43c1.5-.21,1.87-1.43.87-2.55a10.55,10.55,0,0,0-6.18-3,45,45,0,0,0-8-1c-1,0-1.21-.31-.65-1.3a2.27,2.27,0,0,0-.77-3.12,14.28,14.28,0,0,0-5.11-2.29,62.09,62.09,0,0,1-9-1.86c-1.84-.53-4-.53-5.53-1.49-3.59-2.22-8.12-2-11.46-4.76-.08-.07-.22-.06-.34-.09a25.53,25.53,0,0,1-5.53-2.45c-.37-.18-.61-.35-.53-.76s.52-.39.85-.44c1.38-.22,2.41.73,3.61,1.1h0c1.33-.13,2.27,1.48,3.78.9a4,4,0,0,0-3.78-.9,1.81,1.81,0,0,0-1-1.38c2.9-.83,5.39.78,8.08,1,.52,0,1.65.44,1.6,1.22-.05,1-1.12.41-1.71.61l-.59.18c1.21.8,2.56.41,3.85.33a1.32,1.32,0,0,0,.91-.72c.27-.63-.43-.78-.78-1C76,19.08,72.27,17.35,68,18c-.55.08-1.2.26-1.24-.49-.1-2.24-1.84-2.51-3.42-3.07-2.27-.82-4.65-.51-7-.84-.41-.06-.87,0-.93-.57s.31-.62.68-.65c2.93-.24,5.9-.62,8.7.68a17,17,0,0,0,3.88,1.4c1.61.3,3.4.5,4.69,1.37,3.87,2.6,8,4.62,12.1,6.84a12.45,12.45,0,0,0,9.17,1.17c1.24-.3,1.56-1.42.54-2.15a33.5,33.5,0,0,0-3.94-2.77,47.47,47.47,0,0,0-7.59-2.82c-.37-.12-.91,0-.85-.62s.58-.48,1-.59a23.62,23.62,0,0,1,7.33-.84c1.16,0,1.55-.45,1.69-1.4a10.83,10.83,0,0,0,3.27-.4c3-1.39,6.24-2.48,8.62-5,.43-.46,1.3-.78.73-1.42s-.72-2.15-2-2.16a21.7,21.7,0,0,0-9.06,2.27A32,32,0,0,0,90,7.7c-2.82,1.82-6,2.2-9.37,2.08s-6.75-.55-10.09.3a.6.6,0,0,1-.82-.46c-.09-.45.28-.41.53-.52.88-.4,1.7-.88,2.62-1.21,3.28-1.18,5.93-3.42,8.68-5.47.49-.37.6-1.21.16-1.29-.9-.18-1.41-1-2.29-1.08a10.83,10.83,0,0,0-8.34,2.42,48.27,48.27,0,0,1-5.66,4.36,35.86,35.86,0,0,1-14.31,5.25,6.65,6.65,0,0,1-4.35-.89,10.83,10.83,0,0,0-4.88-1.68,8.09,8.09,0,0,1-1.76-.42C38.33,8.65,36.68,7.5,34.72,8a3.18,3.18,0,0,1-1.23,0c-.43-.07-1.09.1-1.13-.55s.56-.65,1-.74c.63-.12,1.54,0,1.83-.38,1-1.33,2.53-1.63,3.9-2.24,1.78-.78,3.7-.56,5.55-.86,2.68-.43,4.5,1.16,6.92,2.41-2.74,1.09-5.29.24-7.6,1.13,2.62-.14,5.15,1.41,7.82.27a2.76,2.76,0,0,0,1.7-1.39c.18-.48-.51-.92-.79-1a48.08,48.08,0,0,0-6.34-2.21c-4.06-1-7.7.94-11.31,2.31-3,1.14-5.89,2.56-9.1,2.55A101.78,101.78,0,0,0,7.17,8.92a7.69,7.69,0,0,0-4,1.91c1.15.11,2.26-1,3.16-.57A4.61,4.61,0,0,0,9,10.67c3.73-.37,7.09.77,10.33,2.48a10.09,10.09,0,0,1,2.85,2c.13.14.9.56.21.89-.9.44-.53,1-.18,1.4,1.27,1.37,1.46,3.24,2.33,4.79A11.46,11.46,0,0,1,26,26.46c.49,5.14.76,10.26,3.85,14.76,1.4,2,2.58,4.13,4.81,5.49,1,.63,2.08.78,2.7.19s1.72-1.63,1-2.91a.86.86,0,0,1,.2-1.21c.35-.24.67.12,1,.43a22.21,22.21,0,0,0,4.93,3.12,2.2,2.2,0,0,0,2.64-.22,1.88,1.88,0,0,0-.39-2.56c-.51-.51-.73-1.16-1.19-1.69a38.56,38.56,0,0,0-6.13-5.22,80.41,80.41,0,0,1-9.32-8.48c-1.05-1.1-1.28-2.31-1.85-3.78,2.06,1.5,3.89,2.76,5.63,4.13,3,2.35,5.9,4.8,8.88,7.16C47,39,51.18,42.18,55.35,45.47c1.08.84,4.2,1.4,4.91.49,1-1.26,1.6-.35,2.46-.07s.88.91,1.4,1.29a29.81,29.81,0,0,0,7.7,4.17c1.56.55,3.26,1.58,5.09.67.91-.46,2.1-.85,1.36-2.24A5.32,5.32,0,0,0,76,47.25a17.53,17.53,0,0,0-5.08-1.72A12.49,12.49,0,0,1,64.63,43a22.53,22.53,0,0,1,4.08.58c2.08.54,4.14.81,6.12-.67.82-.62.39-.73,0-1-3.22-2.45-6.52-4.62-10.72-5.22-1.44-.21-2.62.51-3.91.3-3.23-.52-6.51-.41-9.74-.77-2.27-.25-4.8.44-6.8-1.48-1.2-1.14-2.68-2-4-3a1.11,1.11,0,0,1-.43-1.1.39.39,0,0,1,.58-.21c.88.83,2.08.7,3.1,1a21.08,21.08,0,0,0,9.31,1.18c1.88-.27,2.59-1.82,1.4-3a4.39,4.39,0,0,0-3.31-1.3,29.38,29.38,0,0,1-13.85-1.58c-.19-.07-.56-.07-.66.05-1.13,1.35-1.52.05-2-.58-.28-.34-.29-.94-1-.82-.67.83-1.32.37-1.66-.23a4.7,4.7,0,0,0-1.71-1.62c-1-.62-1-1.38-1.07-2.6,2,1.9,4.2,2.6,6.4,3.46a5.82,5.82,0,0,0,3.25.26c1.47-.24,2.39-2.07,1.56-2.95a3.32,3.32,0,0,0-1.86-1.14c-2.73-.08-4.89-1.63-7.26-2.6A57.82,57.82,0,0,1,24.64,15c-2.18-1.21-4.06-2.83-6.35-3.92-1.43-.68-3.13-.4-4.32-1.56-.21-.21-.75-.13-.55-.65a.71.71,0,0,1,.9-.36,7,7,0,0,0,2.36.4c2.35-.09,4.72,0,7.06-.21a6.73,6.73,0,0,1,4.33,1.09,6.59,6.59,0,0,0,2.39.88c.18,1.3,1.52,1,2.22,1.53a25.65,25.65,0,0,0,7.17,3.73,2.21,2.21,0,0,0,2.72-.71c.62-.91-.17-1.46-.68-2.07a6.09,6.09,0,0,0-2.73-2c-.67-.22-1.26-.48-.71-1.34,2.88,1,5.9,1.73,8.43,3.49,2.19,1.54,3.73,3.79,5.3,5.9A35.31,35.31,0,0,0,62.35,29c1.18.7,1.71-.1,2.28-.42s-.08-1.12-.38-1.65-.6-.85-.85-1.31a15.36,15.36,0,0,0-8.54-7,9.31,9.31,0,0,1-3.67-2c-.22-.22-.41-.45-.25-.76s.5-.29.6-.14c.76,1.2,2.21.81,3.25,1.48a56.43,56.43,0,0,0,6.63,3.47A34.73,34.73,0,0,1,75.28,32.11c1.58,2.22,3.31,4.45,6.1,5.49.62.23,1.8.35,1.88,1.33.24,3,2.36,5.18,3.13,8a6,6,0,0,0,2.2,3,1.9,1.9,0,0,0,1.85.13c.67-.2.31-.87.32-1.37,0-1.79-1-3.13-1.72-4.65-.83-1.84-1.51-3.76-2.23-5.65a.87.87,0,0,1,.12-1c.39-.32.54.24.82.34,2.11.82,2,3,2.45,4.57a25.24,25.24,0,0,0,11.71,15.14c.6.36,1.1.53,1.57.21a1.59,1.59,0,0,0,.65-1.54,9.41,9.41,0,0,0-1.64-4.72A16.67,16.67,0,0,0,97.13,46l0,0,0,0c.49-.62.88-.26,1.32.1,2.1,1.73,4.33,3.32,6.29,5.19A113.51,113.51,0,0,0,114,58.77a20.76,20.76,0,0,0,5.89,2.73,8.36,8.36,0,0,0,3.24.47C124.2,61.94,124.28,61.14,123.68,60.52ZM86.14,18.09a20.19,20.19,0,0,1,6.43,3.28c.32.27.76.4.67.89s-.65.37-1,.48c-1.85.55-3.31-.88-5.06-.93-2.19-.07-3.56-2-5.52-2.66-1.11-.38-2-1.28-3.14-1.62a7.5,7.5,0,0,1-3.15-2.47C79,16,82.63,16.86,86.14,18.09ZM75.21,15c-.13.13-.27.24-.47.08,0,0,0-.13,0-.13ZM64.87,9.33c-.36-.67.37-.72.75-.9,2.43-1.17,4.16-3.25,6.29-4.8,1.71-1.24,3.42-2.38,5.81-2.45.22,0,.64,0,1,.09s.65,0,.66.38a1,1,0,0,1-.27.78c-2.1,1.38-4.25,2.68-6.32,4.09s-4.62,1.54-6.7,2.85C65.79,9.59,65.16,9.86,64.87,9.33ZM35.27,34.47c1.9,1.83,4.25,3.07,6.11,4.91,1.33,1.31,2.89,2.43,3.81,4.11.19.32.64.82.21,1.26s-.83.13-1.18,0A17.73,17.73,0,0,1,37,39.54c-1-1.12-1.16-2.69-2.33-3.77-.13.45.2,1.08-.25,1.16-.28.06-.73-.46-1-.79-1.32-1.48-1.58-3.51-2.66-5.16C32.6,31.7,33.91,33.17,35.27,34.47ZM30.1,32.3c1.65,3.86,4.41,6.91,6.77,10.26a2.57,2.57,0,0,1,.37,2.19c-.22.63-.66,1.62-1.89.93a11.56,11.56,0,0,1-3.83-4.28,22.38,22.38,0,0,1-3.85-12.92C29.32,29.36,29.57,31.05,30.1,32.3ZM62.45,43.63a42.47,42.47,0,0,0,11.74,4.06,3.18,3.18,0,0,1,2.12,1.61c.66,1.23.34,1.72-1.23,1.78a23.14,23.14,0,0,1-6.49-2.19,73.41,73.41,0,0,1-6.51-4.39c-.32-.23-.89-.3-.68-.81S62.1,43.43,62.45,43.63Zm-3.33-.26a1.33,1.33,0,0,1,.51,1.2c-.12.63-.69.49-1.07.58a5.77,5.77,0,0,1-2.74-1.07c-1.94-1.17-3.74-2.49-5.55-3.82a.7.7,0,0,1-.38-.72c.11-.51.54-.29.85-.33,1-.13,1.6.83,2.46,1.16C55.26,41.15,57.5,41.64,59.12,43.37Zm2.07-2a2.83,2.83,0,0,1,.5.25c-.26.11-.4.23-.53.22s-.16-.22-.24-.34C61,41.49,61.12,41.39,61.19,41.41Zm1.88.81a.34.34,0,0,1,.5.25.46.46,0,0,1-.16.4c-.22.12-.44.08-.52-.29C62.93,42.49,63,42.27,63.07,42.22Zm-5.26-4.58c1.62.73,3.25.45,4.85.31,3.26-.29,5.82,1.31,8.4,2.85.61.35,1.87.66,1.68,1.23-.31,1-1.56.78-2.47.81-2.07.08-3.94-.83-5.91-1.27-2.59-.58-4.72-2.27-7.28-2.9C56.88,38,57.05,37.3,57.81,37.64Zm-2.23.09a1.18,1.18,0,0,0,1.46,1c.09.39.64.69.2,1.27-2-1.2-4.56-.51-6.41-2.15A8.43,8.43,0,0,1,55.58,37.73Zm-4.77,0a1.31,1.31,0,0,1-.06-.27s0-.06.08-.09ZM40,28.85c3.22,1.39,6.59.35,9.88.6a6.18,6.18,0,0,1,1,0A1.48,1.48,0,0,1,52,30.88c0,.7-.66.7-1.19.72-.35,0-.71,0-.86,0a13.55,13.55,0,0,1-7.25-1.34,12.17,12.17,0,0,0-2.91-.51c-.38-.06-.53-.29-.46-.6S39.73,28.72,40,28.85ZM26.38,21.09c-.86.09-2.37-2.37-1.89-3.09.3-.43.72.15,1.11.08.35.62.54,1.34,1.3,1.68a1,1,0,0,1,.51.84C27.33,21.1,26.74,21.05,26.38,21.09Zm3.16-2.21a22.61,22.61,0,0,0,5.64,2.44c.88.23,1.34,1,2.53,1.44-2.17.4-3.92.46-5.3-.52s-3.41-1.45-4.8-2.75c-.51-.48-1.2-.78-1.25-1.6A5.58,5.58,0,0,1,29.54,18.88Zm-3.27-1-.64.15C25.69,17.41,25.94,17.5,26.27,17.86ZM40.13,13c.38.26,1.08.82.7,1.47s-1.35.43-1.88.15c-2.09-1.1-4.36-1.86-6.26-3.29a3.44,3.44,0,0,0-2.21-.77c-.43-.71-.85-1.36.64-1.19A19.47,19.47,0,0,1,40.13,13Zm-2.27-3c-.07-.36.18-.06.27-.12a.75.75,0,0,1,.31-.08h0Zm54.89,2.61c-1.32.18-2.64.39-4,.53-.37,0-.92.1-.92-.52,0-.47.49-.51.79-.52,1.9-.08,3.39-1.12,5-2v0a7.45,7.45,0,0,0,2.64-.73,4.76,4.76,0,0,1,3.3-.73,6.48,6.48,0,0,1-5.11,2.59C93.49,11.25,92.69,11.41,92.75,12.61Zm-.12-4.85c2.88-1.48,6.1-1.19,8.88-2.6.54-.27,1.28-.51,1.78.11a1.3,1.3,0,0,1-.42,1.84c-.93.77-1.78,1.9-3.27,1.52-.11-.37,0-1.07-.74-.65a19.28,19.28,0,0,1-4.32,1.33c-.45.13-.91.17-.92.76a18.84,18.84,0,0,0-4,.91,4.19,4.19,0,0,1-2.89-.5c-.52-.2-.18-.76.33-.75C89.14,9.76,91,8.58,92.63,7.76ZM68.68,10.93c1.11-.1,2.22-.15,3.79-.25a88.56,88.56,0,0,1,9.28.73c.77.14,1.27-.52,2-.41.45.07,1-.09,1.13.56s0,.78-.58,1a12.19,12.19,0,0,1-8.5.91,58.24,58.24,0,0,0-7.1-1.61c-.38-.05-.91.25-.92-.42S68.31,11,68.68,10.93Zm-2.25.44s.06-.07.1-.11a1.53,1.53,0,0,1,.11.27s-.07.07-.11.11S66.45,11.46,66.43,11.37ZM62,25.68c.26.39.67.87.23,1.25s-.82-.17-1.26-.39c-2.92-1.5-4.82-4.09-7-6.36-.26-.26-.32-.71-.66-1.51A18.62,18.62,0,0,1,62,25.68Zm1.09-7.31c-1.88-.38-3.89-.51-5.57-1.32-1.31-.63-2.89-.48-4-1.56-.27-.27-.87-.34-.67-.87s.69-.35,1.4-.5c2.83,1.27,6.36.11,9.46,1.64.62.3,1.32.85,1.17,1.31A1.59,1.59,0,0,1,63.1,18.37ZM85.86,39.49c1.2,2.48,2.36,5,3.5,7.48.26.56.58,1.33-.12,1.69s-.71-.58-1-.93c-1.65-1.84-2-4.38-3.46-6.37a4.35,4.35,0,0,1-.36-1.52c.1-.54-.29-1.3.59-1.44S85.66,39.08,85.86,39.49Zm31.42,9.11h-.11l.06-.11Zm-1.42-.79c.16,0,.33.1.25.44,0,0-.18.2-.28.18a.44.44,0,0,1-.25-.33C115.56,48,115.61,47.74,115.86,47.81Zm-.92-.24c-.74.39-1.15.32-1.51-.15C113.89,47.14,114.27,47.36,114.94,47.57ZM107.66,44l-.39-.31c.09-.11.17-.3.28-.31s.24.13.37.21C107.84,43.74,107.76,43.86,107.66,44Zm.49-4.24c1.1.16,2.21.21,3.32.33a11.25,11.25,0,0,1,4.88,2.06.93.93,0,0,1,.47.89c0,.58-.58.53-.95.53a33.16,33.16,0,0,1-7.76-1.16c-2.06-.47-4.12-1.1-6.17-1.69l-3.45-1c-.53-.16-.64-.62-.85-1.18C101.35,38.18,104.72,39.28,108.15,39.79ZM96.29,38c0,.27-.44.39-.48.3-.33-.68-1.91-.39-1.35-1.73l-.1.07,0-.1a1.7,1.7,0,0,1,.65.19C95.52,37.06,96.18,37.28,96.29,38Zm-8.2-6.83a25.42,25.42,0,0,0,6,1.23,15.64,15.64,0,0,1,6.83,2.21,1.33,1.33,0,0,1,.78,1.27c-.11.7-.82.49-1.32.5-4.16.08-7.91-1.35-11.68-3-2-.83-4-1.45-5.91-2.4-1.16-.58-2.83-.9-3.07-2.65C82.41,29.52,85.3,30.18,88.09,31.13Zm-.39,4.8a.42.42,0,0,1-.2.39c-.74.19-.93-.36-1.27-1.06C87,35.39,87.52,35.3,87.7,35.93Zm3.23-.29c.07,0,.2.06.3.1s0,.25-.12.28-.2-.06-.3-.1S90.87,35.67,90.93,35.64ZM88.79,34.5a9.94,9.94,0,0,1-4.69-1.15c-.35-.13-.61-.47-.37-.82a.79.79,0,0,1,1.1-.11C85.88,33.4,87.25,33.79,88.79,34.5Zm-9.2-6.22c-.25.08-.51.16-.72-.08,0,0,0-.25.06-.28C79.31,27.75,79.37,28.16,79.59,28.28Zm1.66,7.88c-2.66-1.08-4.32-3.25-5.94-5.4a24.86,24.86,0,0,0-5.16-5.38c-.36-.26-.7-.54-.47-1a.59.59,0,0,1,.92-.08c1.38,1.42,3.66,1.48,4.83,3.05,1.31,1.74,3.53,2.22,4.81,3.87.18.23,1.66.54.31,1.34-.13.07.62.56,1,.81a6.68,6.68,0,0,1,2.61,2.36c.34.66.38,1.27-.6,1.46A10.42,10.42,0,0,1,81.25,36.16ZM97.43,47.32c2.26,1.78,3.57,4.12,5,6.39.38.6.61,1.66,0,2.12s-1.49-.12-2.1-.5a19.86,19.86,0,0,1-5.14-5.08,23.51,23.51,0,0,1-4.83-10.19c.71.19,1.26.17,1.4.73C92.58,43.91,95.19,45.56,97.43,47.32Zm11.65,4.12c-4.1-1.56-7.36-4.44-10.8-7a80.68,80.68,0,0,0-7.49-5.34c-.68-.4-1.6-1.1-1.25-1.8.48-.95,1.29-.53,2.17,0a119.53,119.53,0,0,0,12,6.51c3.22,1.61,6.64,3.25,9.28,5.95.42.43.88.87.65,1.51a1.28,1.28,0,0,1-1.44.88C111.36,51.78,110.14,51.84,109.08,51.44Zm11.39,9.14c-2.81-.48-5-2.16-7.29-3.7-1.86-1.26-3.8-2.42-5.08-4.39,2.46,1.42,4.83,3,7.37,4.2,1.8.88,3.52,1.93,5.33,2.78.49.24.68.57.6.9S120.81,60.64,120.47,60.58Z" transform="translate(0 0)"/><path d="M0,11.85c.1.51.46.29.8.28A3.7,3.7,0,0,0,3,10.89l-2.42.45C.3,11.4-.07,11.44,0,11.85Z" transform="translate(0 0)"/><path d="M3.11,10.87l0,0a.27.27,0,0,1-.08.07Z" transform="translate(0 0)"/><path d="M39.68,6.62l2.17-.14v-.1l-2.17.14Z" transform="translate(0 0)"/><path d="M75.55,22.3l0-.05h0S75.55,22.28,75.55,22.3Z" transform="translate(0 0)"/><path d="M74.41,21.65c-.09,0-.25.3-.22.37.29.61.81.18,1.22.24a.25.25,0,0,0,.12,0C75.47,21.5,74.9,21.62,74.41,21.65Z" transform="translate(0 0)"/><path d="M32.16,24.29a.33.33,0,0,0-.29,0c-.25.4.07.58.29.81C32.24,24.82,32.37,24.55,32.16,24.29Z" transform="translate(0 0)"/><polygon points="37.61 6.45 37.62 6.34 37.5 6.38 37.61 6.45"/><path d="M32.18,25.1l0,0v0l.66.22,0,0-.66-.18Z" transform="translate(0 0)"/></g></g></svg>